<?xml version="1.0" encoding="UTF-8"?><svg id="Layer_2" xmlns="http://www.w3.org/2000/svg" viewBox="0 0 13.65 13.65"><defs><style>.cls-1{fill:#fff;}</style></defs><g id="Layer_1-2"><g><path class="cls-1" d="M12.8,8.82c-.47,0-.85,.38-.85,.85v.85c0,.79-.64,1.42-1.42,1.42h-.85c-.47,0-.85,.38-.85,.85s.38,.85,.85,.85h.85c1.73,0,3.13-1.4,3.13-3.13v-.85c0-.47-.38-.85-.85-.85Z"/><path class="cls-1" d="M3.98,0h-.85C1.4,0,0,1.4,0,3.13v.85c0,.47,.38,.85,.85,.85s.85-.38,.85-.85v-.85c0-.79,.64-1.42,1.42-1.42h.85c.47,0,.85-.38,.85-.85s-.38-.85-.85-.85Z"/><path class="cls-1" d="M3.98,11.95h-.85c-.79,0-1.42-.64-1.42-1.42v-.85c0-.47-.38-.85-.85-.85s-.85,.38-.85,.85v.85c0,1.73,1.4,3.13,3.13,3.13h.85c.47,0,.85-.38,.85-.85s-.38-.85-.85-.85Z"/><path class="cls-1" d="M10.52,0h-.85c-.47,0-.85,.38-.85,.85s.38,.85,.85,.85h.85c.79,0,1.42,.64,1.42,1.42v.85c0,.47,.38,.85,.85,.85s.85-.38,.85-.85v-.85c0-1.73-1.4-3.13-3.13-3.13Z"/></g></g></svg>