<?xml version="1.0" encoding="UTF-8"?><svg id="Layer_2" xmlns="http://www.w3.org/2000/svg" viewBox="0 0 95.39 17.64"><defs><style>.cls-1{fill:#efefef;}.cls-2{fill:#0094ff;}</style></defs><g id="Layer_1-2"><g><g><path class="cls-1" d="M15.75,8.34v8.89h-2.74c-.15-.7-.23-1.2-.23-1.51v-.27c-1.16,1.46-2.8,2.2-4.92,2.2-2.52,0-4.5-.89-5.97-2.68-1.27-1.55-1.9-3.51-1.9-5.88C0,6.35,.87,4.17,2.61,2.55,4.12,1.15,6.01,.45,8.3,.45c2.07,0,3.8,.63,5.17,1.87,1.19,1.08,1.87,2.45,2.03,4.09h-4.14c-.37-1.63-1.41-2.45-3.13-2.45-1.25,0-2.21,.45-2.88,1.34-.67,.89-1.01,2.17-1.01,3.83,0,3.32,1.36,4.98,4.07,4.98,2,0,3.14-.91,3.43-2.74h-2.97v-3.04h6.88Z"/><path class="cls-1" d="M25.49,.45c2.55,0,4.57,.9,6.08,2.7,1.3,1.57,1.94,3.54,1.94,5.9,0,2.73-.84,4.89-2.52,6.49-1.46,1.4-3.3,2.1-5.51,2.1-2.59,0-4.65-.9-6.17-2.7-1.31-1.55-1.97-3.52-1.97-5.9,0-2.73,.81-4.86,2.42-6.4,1.55-1.46,3.46-2.2,5.72-2.2Zm-.02,3.52c-1.23,0-2.2,.52-2.88,1.55-.59,.88-.89,2.05-.89,3.5,0,1.69,.38,3,1.14,3.91,.67,.79,1.55,1.19,2.65,1.19,1.16,0,2.07-.45,2.72-1.36,.66-.91,.98-2.18,.98-3.81s-.38-2.93-1.14-3.82c-.66-.78-1.52-1.17-2.58-1.17Z"/></g><g><g><path class="cls-2" d="M39.31,11.01v6.35h-4.07V.26h6.74c1.5,0,2.65,.16,3.45,.48,.8,.32,1.51,.9,2.14,1.72,.63,.83,.94,1.84,.94,3.04,0,.84-.17,1.67-.5,2.47-.33,.8-.81,1.43-1.42,1.89-.61,.46-1.2,.76-1.77,.91-.57,.15-1.47,.23-2.69,.23h-2.82Zm-.14-3.11h2.6c.99,0,1.69-.23,2.09-.69s.6-.99,.6-1.58c0-.69-.22-1.24-.67-1.65s-1.13-.61-2.03-.61h-2.59V7.9Z"/><path class="cls-2" d="M54.27,10.58v6.78h-4.03V.26h7.51c1.39,0,2.5,.16,3.34,.48,.84,.32,1.53,.91,2.09,1.77,.55,.86,.83,1.81,.83,2.87,0,2.05-.99,3.53-2.97,4.42l3.16,7.56h-4.43l-2.62-6.78h-2.87Zm0-7.28V7.66h2.45c.8,0,1.38-.06,1.75-.17,.36-.11,.69-.36,.97-.75,.28-.39,.43-.83,.43-1.33s-.14-.9-.43-1.28-.59-.61-.93-.69c-.33-.09-.96-.13-1.88-.13h-2.37Z"/><path class="cls-2" d="M72.66,17.62c-2.3,0-4.08-.86-5.34-2.59-1.26-1.73-1.89-3.82-1.89-6.27s.64-4.58,1.91-6.25c1.28-1.67,3.09-2.5,5.46-2.5s4.19,.89,5.4,2.67c1.21,1.78,1.82,3.82,1.82,6.12,0,2.48-.63,4.57-1.88,6.27-1.25,1.7-3.08,2.56-5.48,2.56Zm.11-14.35c-2.1,0-3.15,1.84-3.15,5.53s1.05,5.55,3.15,5.55,3.05-1.84,3.05-5.53-1.02-5.55-3.05-5.55Z"/><path class="cls-2" d="M86.2,11.01v6.35h-4.07V.26h6.74c1.5,0,2.65,.16,3.45,.48,.8,.32,1.51,.9,2.14,1.72,.63,.83,.94,1.84,.94,3.04,0,.84-.17,1.67-.5,2.47-.33,.8-.81,1.43-1.42,1.89-.61,.46-1.2,.76-1.77,.91-.57,.15-1.47,.23-2.69,.23h-2.82Zm-.14-3.11h2.6c.99,0,1.69-.23,2.09-.69,.4-.46,.6-.99,.6-1.58,0-.69-.22-1.24-.67-1.65s-1.12-.61-2.03-.61h-2.59V7.9Z"/></g><g><path class="cls-2" d="M39.31,11.01v6.35h-4.07V.26h6.74c1.5,0,2.65,.16,3.45,.48,.8,.32,1.51,.9,2.14,1.72,.63,.83,.94,1.84,.94,3.04,0,.84-.17,1.67-.5,2.47-.33,.8-.81,1.43-1.42,1.89-.61,.46-1.2,.76-1.77,.91-.57,.15-1.47,.23-2.69,.23h-2.82Zm-.14-3.11h2.6c.99,0,1.69-.23,2.09-.69s.6-.99,.6-1.58c0-.69-.22-1.24-.67-1.65s-1.13-.61-2.03-.61h-2.59V7.9Z"/><path class="cls-2" d="M54.27,10.58v6.78h-4.03V.26h7.51c1.39,0,2.5,.16,3.34,.48,.84,.32,1.53,.91,2.09,1.77,.55,.86,.83,1.81,.83,2.87,0,2.05-.99,3.53-2.97,4.42l3.16,7.56h-4.43l-2.62-6.78h-2.87Zm0-7.28V7.66h2.45c.8,0,1.38-.06,1.75-.17,.36-.11,.69-.36,.97-.75,.28-.39,.43-.83,.43-1.33s-.14-.9-.43-1.28-.59-.61-.93-.69c-.33-.09-.96-.13-1.88-.13h-2.37Z"/><path class="cls-2" d="M72.66,17.62c-2.3,0-4.08-.86-5.34-2.59-1.26-1.73-1.89-3.82-1.89-6.27s.64-4.58,1.91-6.25c1.28-1.67,3.09-2.5,5.46-2.5s4.19,.89,5.4,2.67c1.21,1.78,1.82,3.82,1.82,6.12,0,2.48-.63,4.57-1.88,6.27-1.25,1.7-3.08,2.56-5.48,2.56Zm.11-14.35c-2.1,0-3.15,1.84-3.15,5.53s1.05,5.55,3.15,5.55,3.05-1.84,3.05-5.53-1.02-5.55-3.05-5.55Z"/><path class="cls-2" d="M86.2,11.01v6.35h-4.07V.26h6.74c1.5,0,2.65,.16,3.45,.48,.8,.32,1.51,.9,2.14,1.72,.63,.83,.94,1.84,.94,3.04,0,.84-.17,1.67-.5,2.47-.33,.8-.81,1.43-1.42,1.89-.61,.46-1.2,.76-1.77,.91-.57,.15-1.47,.23-2.69,.23h-2.82Zm-.14-3.11h2.6c.99,0,1.69-.23,2.09-.69,.4-.46,.6-.99,.6-1.58,0-.69-.22-1.24-.67-1.65s-1.12-.61-2.03-.61h-2.59V7.9Z"/></g></g></g></g></svg>