<?xml version="1.0" encoding="UTF-8"?>
<svg id="Layer_1" data-name="Layer 1" xmlns="http://www.w3.org/2000/svg" viewBox="0 0 17.15 17.3">
  <defs>
    <style>
      .cls-1 {
        fill: #fff;
        stroke-width: 0px;
      }
    </style>
  </defs>
  <path class="cls-1" d="M15.06,8.65c0-.4-.04-.79-.11-1.19l2.19-1.27-2.16-3.75-2.19,1.27c-.61-.52-1.3-.92-2.05-1.19V0h-4.33v2.53c-.75.27-1.45.67-2.05,1.19l-2.19-1.27L0,6.2l2.19,1.27c-.14.78-.14,1.59,0,2.37l-2.19,1.27,2.16,3.75,2.19-1.27c.61.52,1.3.92,2.05,1.19v2.53h4.33v-2.53c.75-.27,1.45-.67,2.05-1.19l2.19,1.27,2.16-3.75-2.19-1.27c.07-.39.11-.79.11-1.19ZM11.47,8.65c0,1.6-1.3,2.89-2.89,2.89s-2.89-1.3-2.89-2.89,1.3-2.89,2.89-2.89,2.89,1.3,2.89,2.89Z"/>
</svg>