<?xml version="1.0" encoding="UTF-8"?>
<svg id="Layer_1" data-name="Layer 1" xmlns="http://www.w3.org/2000/svg" viewBox="0 0 15.63 15.63">
  <defs>
    <style>
      .cls-1 {
        fill: #4654a7;
        stroke-width: 0px;
      }
    </style>
  </defs>
  <path class="cls-1" d="M2.6,0h1.95c1.44,0,2.6,1.17,2.6,2.6v1.95c0,1.44-1.17,2.6-2.6,2.6h-1.95c-1.44,0-2.6-1.17-2.6-2.6v-1.95C0,1.17,1.17,0,2.6,0Z"/>
  <path class="cls-1" d="M11.07,0h1.95c1.44,0,2.6,1.17,2.6,2.6v1.95c0,1.44-1.17,2.6-2.6,2.6h-1.95c-1.44,0-2.6-1.17-2.6-2.6v-1.95c0-1.44,1.17-2.6,2.6-2.6Z"/>
  <path class="cls-1" d="M2.6,8.47h1.95c1.44,0,2.6,1.17,2.6,2.6v1.95c0,1.44-1.17,2.6-2.6,2.6h-1.95c-1.44,0-2.6-1.17-2.6-2.6v-1.95c0-1.44,1.17-2.6,2.6-2.6Z"/>
  <path class="cls-1" d="M11.07,8.47h1.95c1.44,0,2.6,1.17,2.6,2.6v1.95c0,1.44-1.17,2.6-2.6,2.6h-1.95c-1.44,0-2.6-1.17-2.6-2.6v-1.95c0-1.44,1.17-2.6,2.6-2.6Z"/>
</svg>