<?xml version="1.0" encoding="utf-8"?>
<!-- Generator: Adobe Illustrator 25.2.0, SVG Export Plug-In . SVG Version: 6.00 Build 0)  -->
<svg version="1.1" id="Layer_1" xmlns="http://www.w3.org/2000/svg" xmlns:xlink="http://www.w3.org/1999/xlink" x="0px" y="0px"
	 viewBox="0 0 100 100" style="enable-background:new 0 0 100 100;" xml:space="preserve">
<path d="M5.7,72.1c1.5,0,3,0.4,4.2,1.3c1.7,1.1,3.7,1.7,5.8,1.7c2,0,4-0.6,5.7-1.7c1.2-0.9,2.7-1.3,4.2-1.3c1.5,0,3,0.4,4.2,1.3
	c1.7,1.1,3.7,1.7,5.8,1.7c2,0,4-0.6,5.7-1.7c2.5-1.7,5.9-1.7,8.4,0c3.5,2.3,8,2.3,11.5,0c2.5-1.7,5.9-1.7,8.4,0
	c3.5,2.2,8,2.2,11.4,0c2.5-1.7,5.9-1.7,8.4,0c1.7,1.1,3.7,1.7,5.7,1.7c0.8,0,1.5-0.7,1.5-1.5s-0.7-1.5-1.5-1.5l0,0
	c-1.5,0-3-0.4-4.2-1.3c-3.5-2.3-8-2.3-11.5,0c-0.3,0.2-0.7,0.4-1.1,0.6c-0.6-0.2-1.3-0.3-2-0.4l-6.3-25.7c1.7-0.4,3.2-1.2,4.4-2.4
	l4.7-4.7c1.3-1.5,1.2-3.8-0.2-5.1c-1.4-1.3-3.5-1.3-4.9,0L69.2,38h-4.7c-1.6-2-4.4-2.5-6.5-1.2L56,38h-6.5L45,33.5
	c3-0.3,5.4-2.9,5.4-5.9v-4.5c0-3.3-2.7-6-6-6c-0.7,0-1.4,0.1-2,0.4c-1.2-1.2-2.9-1.8-4.6-1.8h-0.1c-2.8,0-5.4,1.6-6.7,4.2
	c-0.6,1.3-1.8,2.1-3.2,2.4l-4.6,0.9c-0.8,0.1-1.3,0.9-1.2,1.7c0.1,0.5,0.5,0.9,0.9,1.1l5,1.9c1.3,0.5,2.6,0.7,4,0.7
	c2.3,0,4.6-0.7,6.5-2v1c0,0.3,0,0.5,0.1,0.8l-0.7,0.7c-2.9,0.2-5.1,2.5-5.3,5.3l-8.9,8.9c-3.8,3.8-4.1,10-0.7,14.2h-3.9
	c-0.8,0-1.5,0.7-1.5,1.5v6c0,0.8,0.7,1.5,1.5,1.5c0,0,0,0,0,0h4.5v2.9c-1.3,0.2-2.6,0.8-3.8,1.5c-1.2,0.9-2.7,1.3-4.2,1.3
	c-1.5,0-3-0.4-4.2-1.3c-1.7-1.2-3.7-1.8-5.7-1.7c-0.8,0-1.5,0.7-1.5,1.5S4.8,72.1,5.7,72.1z M33.8,71.9c-0.4-0.1-0.9-0.2-1.3-0.4
	v-5.1H37l0.8,0.4L33.8,71.9z M29.6,69.9c-1-0.4-2-0.7-3-0.7v-2.8h3V69.9z M39.7,70.8c-0.6,0.4-1.3,0.7-2,1l3.5-4.5
	c0.5-0.6,0.4-1.6-0.2-2.1c0,0,0,0,0,0l-0.2-0.1l-4.9-2.9l4.9-4.8l4.2,3.2c2.7,2.1,3.3,5.7,1.8,8.6C44.2,68.9,41.8,69.5,39.7,70.8z
	 M39.9,53h1.6v1.3L39.9,53z M51.7,69.3l-1.3-2c0.1-0.4,0.1-0.9,0.1-1.3c0-3-1.4-5.9-3.8-7.7l-2.2-1.7V53h0.9c2.4,0,4.6,1.5,5.5,3.8
	l3.9,9.8C53.7,67.3,52.6,68.2,51.7,69.3z M59.6,70.8c-1.8,1.2-4.1,1.6-6.1,1c1.6-2.4,4.3-4,7.4-4h5.8l0.3,1.4
	C64.5,68.9,61.8,69.4,59.6,70.8z M65.6,41.1C65.6,41.1,65.6,41,65.6,41.1l4.3-0.1c0.4,0,0.7-0.2,1-0.4l5.3-5.4
	c0.2-0.2,0.6-0.2,0.9,0c0.2,0.2,0.2,0.6,0,0.9l-4.7,4.7c-1.1,1.1-2.6,1.7-4.2,1.8h-2.8C65.5,42,65.6,41.6,65.6,41.1z M67.2,45.5
	l6.4,26.4c-0.9-0.2-1.7-0.5-2.5-1.1c-0.2-0.2-0.5-0.3-0.7-0.4l-6.1-24.9H67.2z M65.9,64.9h-5c-1.1,0-2.2,0.2-3.3,0.5l-3.9-9.8
	c-1.4-3.4-4.7-5.6-8.4-5.6h-6.3l3.2-3.2c2.3,1.6,5.1,2.1,7.8,1.5l11-2.5L65.9,64.9z M41.5,23.1c0.1-1.7,1.5-2.9,3.1-2.9
	c1,0,1.9,0.5,2.4,1.4h-2.5c-0.4,0-0.8,0.2-1,0.4l-1.9,2V23.1z M42.5,27.2l2.5-2.6h2.4l0,3c0,1.7-1.3,3-3,3s-3-1.3-3-3
	C41.9,27.6,42.2,27.4,42.5,27.2z M38.5,22.6c-2.3,2.7-6.1,3.7-9.5,2.5h-0.1c2.1-0.6,3.8-2,4.7-3.9c0.8-1.5,2.3-2.5,4.1-2.5h0.1
	c0.7,0,1.4,0.2,2,0.6C39.1,20.2,38.6,21.4,38.5,22.6z M36.3,32.9C36.3,32.9,36.3,32.9,36.3,32.9c0.5-0.5,1.2-0.8,1.9-0.8l0,0
	c0.7,0,1.4,0.3,1.9,0.8l7.7,7.7c0.3,0.3,0.7,0.4,1.1,0.4h7.5c0.3,0,0.5-0.1,0.8-0.2l2.4-1.4c0.9-0.6,2.2-0.3,2.7,0.7c0,0,0,0,0,0
	c0.2,0.3,0.3,0.6,0.3,1c0,0.7-0.5,1.4-1.2,1.6l-11.8,2.7c-2.4,0.5-4.8-0.2-6.5-1.9l-6.7-6.7C35.3,35.7,35.3,33.9,36.3,32.9z
	 M33.4,37.8c0.2,0.4,0.5,0.7,0.8,1h0l5.9,5.9l-2.4,2.4l-6.9-6.8L33.4,37.8z M24.6,47C24.6,46.9,24.6,46.9,24.6,47
	c0.3-0.6,0.7-1.1,1.2-1.6l3-3l6.8,6.8l-1.2,1.2c-0.6,0.6-0.6,1.5,0,2.1l0.1,0.1l3.7,2.9l-5.2,5.2l-5.8-3.4
	C23.7,55.2,22.5,50.6,24.6,47z M20.6,63.4v-3h6.2l5.1,3H20.6z M96.7,81.1c0,0.8-0.7,1.5-1.5,1.5c-2,0-4-0.6-5.7-1.7
	c-2.5-1.7-5.9-1.7-8.4,0c-3.5,2.3-8,2.3-11.5,0c-2.5-1.7-5.9-1.7-8.4,0c-3.5,2.3-8,2.3-11.5,0c-2.5-1.7-5.9-1.7-8.4,0
	c-1.7,1.1-3.7,1.7-5.7,1.7c-2,0-4.1-0.6-5.8-1.7c-1.2-0.9-2.7-1.3-4.2-1.3c-1.5,0-3,0.4-4.2,1.3c-1.7,1.1-3.7,1.7-5.7,1.7
	c-2,0-4.1-0.6-5.8-1.7c-1.2-0.9-2.7-1.3-4.2-1.3c-0.8,0-1.5-0.7-1.5-1.5s0.7-1.5,1.5-1.5c2,0,4.1,0.6,5.7,1.7
	c1.2,0.9,2.7,1.3,4.2,1.3c1.5,0,3-0.4,4.2-1.3c1.7-1.2,3.7-1.8,5.8-1.7c2,0,4.1,0.6,5.7,1.7c2.5,1.7,5.9,1.7,8.4,0
	c3.5-2.3,8-2.3,11.5,0c2.5,1.7,5.9,1.7,8.4,0c3.5-2.3,8-2.3,11.5,0c2.5,1.7,5.9,1.7,8.4,0c3.5-2.3,8-2.3,11.5,0
	c1.2,0.9,2.7,1.3,4.2,1.3v0C96,79.6,96.7,80.2,96.7,81.1z"/>
</svg>
