<?xml version="1.0" encoding="iso-8859-1"?>
<!-- Uploaded to: SVG Repo, www.svgrepo.com, Generator: SVG Repo Mixer Tools -->
<svg fill="#000000" height="800px" width="800px" version="1.1" id="Layer_1" xmlns="http://www.w3.org/2000/svg" xmlns:xlink="http://www.w3.org/1999/xlink" 
	 viewBox="0 0 512.004 512.004" xml:space="preserve">
<g>
	<g>
		<path d="M496.744,21.632c-13.994-15.783-45.949-37.328-102.698-4.337c-0.627,0.365-1.228,0.758-1.803,1.173
			c-0.735,0.265-1.462,0.564-2.18,0.913l-21.248,10.356c-8.59,4.187-10.5,15.588-3.743,22.347l95.837,95.84
			c6.758,6.758,18.159,4.849,22.347-3.743l10.419-21.379c0.024-0.052,0.042-0.104,0.066-0.155c0.285-0.597,0.552-1.206,0.785-1.841
			c0-0.001,0-0.001,0.001-0.003c0.007-0.019,0.014-0.037,0.022-0.056c1.132-3.067,2.411-6.304,3.767-9.732
			C507.86,86.892,522.283,50.432,496.744,21.632z"/>
	</g>
</g>
<g>
	<g>
		<path d="M447.706,195.721L317.277,65.297c-4.199-4.199-10.597-5.27-15.935-2.669L13.01,203.162
			c-0.034,0.017-0.066,0.039-0.101,0.056c-0.487,0.24-0.959,0.51-1.426,0.787c-0.148,0.088-0.305,0.164-0.45,0.255
			c-0.469,0.292-0.92,0.615-1.367,0.945c-0.129,0.095-0.267,0.178-0.394,0.276c-0.352,0.272-0.684,0.574-1.019,0.869
			c-0.2,0.175-0.413,0.338-0.605,0.521c-0.173,0.163-0.329,0.347-0.498,0.516c-0.334,0.338-0.672,0.672-0.981,1.028
			c-0.095,0.109-0.177,0.23-0.27,0.342c-0.365,0.439-0.722,0.883-1.05,1.347c-0.095,0.134-0.175,0.28-0.267,0.417
			c-0.308,0.457-0.607,0.919-0.879,1.398c-0.019,0.033-0.042,0.062-0.06,0.095c-0.106,0.19-0.185,0.385-0.286,0.577
			c-0.208,0.4-0.417,0.799-0.6,1.211c-0.144,0.322-0.262,0.648-0.388,0.973c-0.124,0.319-0.253,0.637-0.361,0.962
			c-0.128,0.381-0.23,0.764-0.335,1.147c-0.078,0.286-0.161,0.569-0.227,0.858c-0.091,0.394-0.158,0.789-0.226,1.186
			c-0.05,0.296-0.105,0.591-0.144,0.889c-0.047,0.372-0.076,0.745-0.104,1.119c-0.026,0.334-0.052,0.667-0.062,1.004
			c-0.009,0.332-0.001,0.661,0.004,0.994c0.006,0.378,0.013,0.756,0.04,1.136c0.022,0.295,0.057,0.585,0.091,0.879
			c0.045,0.405,0.092,0.81,0.161,1.215c0.049,0.285,0.114,0.567,0.174,0.848c0.083,0.397,0.167,0.792,0.275,1.186
			c0.086,0.321,0.194,0.634,0.296,0.949c0.111,0.344,0.214,0.687,0.344,1.028c0.152,0.404,0.332,0.797,0.508,1.192
			c0.095,0.211,0.17,0.427,0.272,0.637c0.022,0.045,0.047,0.085,0.069,0.129c0.083,0.168,0.177,0.331,0.265,0.496
			c0.207,0.394,0.424,0.779,0.653,1.155c0.115,0.188,0.232,0.374,0.352,0.559c0.26,0.4,0.532,0.786,0.815,1.163
			c0.091,0.121,0.174,0.244,0.267,0.362c0.385,0.493,0.792,0.963,1.215,1.415c0.099,0.106,0.206,0.208,0.308,0.313
			c0.364,0.374,0.739,0.732,1.127,1.076c0.114,0.101,0.224,0.201,0.339,0.299c0.5,0.426,1.014,0.83,1.547,1.206
			c0.034,0.024,0.07,0.046,0.105,0.069c0.515,0.358,1.045,0.686,1.586,0.996c0.069,0.04,0.131,0.088,0.201,0.127l86.43,48.413
			l35.666,78.822c0.01,0.023,0.023,0.045,0.033,0.068c0.053,0.118,0.118,0.232,0.174,0.348c0.219,0.456,0.449,0.903,0.695,1.336
			c0.101,0.177,0.207,0.351,0.312,0.525c0.237,0.393,0.485,0.774,0.743,1.146c0.105,0.151,0.206,0.302,0.315,0.45
			c0.756,1.031,1.595,1.98,2.5,2.844c0.125,0.119,0.253,0.233,0.381,0.349c0.38,0.344,0.769,0.673,1.169,0.988
			c0.114,0.089,0.223,0.181,0.338,0.267c0.519,0.391,1.053,0.758,1.603,1.099c0.089,0.056,0.184,0.105,0.273,0.16
			c0.492,0.295,0.995,0.569,1.507,0.824c0.079,0.039,0.151,0.088,0.23,0.127l84.879,40.976l42.065,80.327
			c3.854,7.358,11.357,11.567,19.126,11.567c0.981,0,1.967-0.076,2.949-0.213c0.15-0.02,0.299-0.045,0.447-0.068
			c0.226-0.036,0.453-0.075,0.679-0.118c6.491-1.206,12.35-5.358,15.465-11.748l140.47-288.202
			C452.976,206.318,451.905,199.919,447.706,195.721z"/>
	</g>
</g>
</svg>