<svg id="Layer_1" data-name="Layer 1" xmlns="http://www.w3.org/2000/svg" viewBox="0 0 100 100"><path d="M77.8,84.07h2.51v2.51H77.8Z"/><path d="M90.35,84.07V59H81.56V42.62a3.77,3.77,0,0,0-3.76-3.76H69V23.75l5.7-1.46V13.42L13.53,29.05v8.87l5.7-1.46V53.93H9.65V84.07H7.13v2.51H75.28V84.07H59V66.48h22.6v-5h6.28V84.07h-5v2.51H92.87V84.07ZM42.59,27.9,16,34.68V31L72.2,16.66v3.68L45,27.28l.63,2.44,20.84-5.33V38.86H53.94V59H36.35v-5H21.74V35.82l21.47-5.48ZM59,64H31.33V61.46H59Zm-46.8-7.53H33.84V59h-5v7.53h2.51V84.07H28.82V69H14.67V84.07H12.16ZM26.31,76.53V79H17.18V76.53ZM17.18,74V71.51h9.13V74Zm9.13,7.54v2.51H17.18V81.56Zm23.86,2.51H40.12V72.76H50.17Zm6.28,0H52.68V70.25H37.61V84.07H33.84V66.48H56.45V84.07ZM79.05,64H61.47V59h-5V41.37H77.8a1.25,1.25,0,0,1,1.25,1.25Z"/><path d="M60.21,55.18H75.28v-10H60.21Zm2.52-7.53h10v5h-10Z"/><path d="M50.17,38.86H25.51v11.3H50.17V38.86ZM28,41.37h8.56v6.28H28Zm19.64,6.28H39.1V41.37h8.56Z"/><path d="M84.08,70.25H62.73v10H84.08ZM65.24,72.76h6.9v5h-6.9Zm16.32,5h-6.9v-5h6.9Z"/><path d="M61.47,28.31H64v2.51H61.47Z"/><path d="M61.47,33.33H64v2.51H61.47Z"/></svg>