<?xml version="1.0" encoding="utf-8"?>
<!-- Generator: Adobe Illustrator 25.2.0, SVG Export Plug-In . SVG Version: 6.00 Build 0)  -->
<svg version="1.1" id="Layer_1" xmlns="http://www.w3.org/2000/svg" xmlns:xlink="http://www.w3.org/1999/xlink" x="0px" y="0px"
	 viewBox="0 0 100 100" style="enable-background:new 0 0 100 100;" xml:space="preserve">
<path d="M56.8,33.1c-0.3-0.3-0.5-0.7-0.5-1.1c0-0.4,0.2-0.8,0.5-1.1c0.5-0.5,0.5-1.3,0-1.8c-0.5-0.5-1.3-0.5-1.8,0
	c-1.6,1.6-1.6,4.2,0,5.8c0,0,0,0,0,0c0.6,0.6,0.6,1.6,0,2.2c-0.5,0.5-0.6,1.3-0.1,1.8s1.3,0.6,1.8,0.1c0,0,0.1-0.1,0.1-0.1
	C58.4,37.2,58.4,34.7,56.8,33.1z M69.5,33.1C69.2,32.8,69,32.4,69,32c0-0.4,0.2-0.8,0.4-1.1c0.5-0.5,0.5-1.3,0-1.8
	c-0.5-0.5-1.3-0.5-1.8,0c-1.6,1.6-1.6,4.2,0,5.8c0,0,0,0,0,0c0.6,0.6,0.6,1.5,0,2.1c0,0,0,0,0,0c-0.5,0.5-0.6,1.3-0.1,1.8
	s1.3,0.6,1.8,0.1c0,0,0.1-0.1,0.1-0.1C71.1,37.2,71.1,34.6,69.5,33.1C69.5,33,69.5,33,69.5,33.1L69.5,33.1z M76.8,47.2h-1.7
	c0-0.1,0-0.2,0-0.3v-2.4c0-1.6-1.3-2.9-2.9-2.9h-2c-0.7,0.1-1.2,0.7-1.2,1.4c0.1,0.6,0.5,1.1,1.2,1.2h2c0.2,0,0.3,0.1,0.3,0.3
	c0,0,0,0,0,0v2.4c0,0.2-0.1,0.3-0.3,0.3c0,0,0,0,0,0H48.2c-0.2,0-0.3-0.1-0.3-0.3c0,0,0,0,0,0v-2.4c0-0.2,0.1-0.3,0.3-0.3
	c0,0,0,0,0,0h16.1c0.7,0.1,1.3-0.5,1.4-1.2s-0.5-1.3-1.2-1.4c-0.1,0-0.2,0-0.2,0H48.2c-1.6,0-2.9,1.3-2.9,2.9c0,0,0,0,0,0v2.4
	c0,0.1,0,0.2,0,0.3H34.2c-0.1-0.3-0.2-0.5-0.3-0.8l30.2-30.1c1.1-1.1,1.1-2.8,0.1-3.9c0,0,0,0-0.1-0.1L62.7,11
	c-6.5-6.5-17-6.5-23.4,0c0,0,0,0,0,0l-1.6,1.6l-1-0.9c-1.1-1.2-3-1.3-4.2-0.2l-5.3,5.3c-1.1,1.2-1,3,0.2,4.2l1,1l-1.6,1.6
	c-6.3,6.3-6.5,16.4-0.5,22.9c-0.3,0.6-0.5,1.3-0.5,2c0,1.9,1.3,3.6,3.1,4.2c0,0.2,0,0.4,0,0.7h-4.7c-2-0.1-3.7,1.4-3.8,3.4
	c-0.1,2,1.4,3.7,3.4,3.8c0.1,0,0.3,0,0.4,0h7c2.2,3.6,5.6,6.2,9.6,7.4l-3.8,15.3c-0.2,0.7,0.2,1.4,0.9,1.6c0,0,0,0,0,0
	c0.1,0,0.2,0,0.3,0c0.6,0,1.1-0.4,1.3-1l4-15.3c0.7,0.1,1.3,0.1,2,0.1h0.8l-5.6,21.9c-0.2,0.7-1,1.2-1.7,1c-0.7-0.2-1.2-1-1-1.7
	l0.5-2c0.2-0.7-0.2-1.4-0.9-1.6c0,0,0,0,0,0c-0.7-0.2-1.4,0.2-1.6,0.9l-0.5,2c-0.5,2.1,0.7,4.3,2.8,4.8c0.3,0.1,0.7,0.1,1,0.1
	c1.8,0,3.4-1.2,3.8-3l1.9-7.3h18.5l0.6,2.2c-1.4,2.7-0.4,6,2.3,7.5c2.7,1.4,6,0.4,7.5-2.3c1.4-2.6,0.5-5.9-2.1-7.4l-4.1-15.7
	c4.3-1.2,7.9-4.1,10-7.9c0-0.1,0.1-0.2,0.1-0.2c1.3-2.4,1.9-5,1.9-7.8V50C79.7,48.4,78.5,47.2,76.8,47.2
	C76.9,47.1,76.9,47.1,76.8,47.2z M29.1,18.6l5.3-5.3c0,0,0.3,0,0.5,0.2l1,1l-5.6,5.7l-1-1c-0.1-0.1-0.2-0.2-0.2-0.4
	C29,18.7,29.1,18.6,29.1,18.6z M28.6,25.3l12.5-12.6c5.5-5.5,14.3-5.5,19.8,0l1.4,1.4c0.1,0.1,0.1,0.2,0,0.3c0,0,0,0,0,0L32.1,44.6
	c-0.6-0.3-1.3-0.5-2-0.5c-0.7,0-1.4,0.2-2,0.5C23.1,39.1,23.3,30.6,28.6,25.3L28.6,25.3z M24.1,57.9c-0.6,0-1-0.4-1-1s0.4-1,1-1h5.1
	c0.2,0.7,0.4,1.3,0.6,2H24.1z M30.1,50.2c-1,0-1.8-0.8-1.8-1.8c0-1,0.8-1.8,1.8-1.8s1.8,0.8,1.8,1.8c0,0,0,0,0,0
	C31.9,49.4,31.1,50.2,30.1,50.2z M45.6,81l0.7-2.8h15.8l0.7,2.8H45.6z M47,75.6l1.8-7.1h10.8l1.8,7.1H47z M71.9,88.4
	c0,1.7-1.3,3-2.9,3c-1.7,0-3-1.3-3-2.9c0-1.7,1.3-3,2.9-3c0,0,0,0,0,0C70.5,85.4,71.9,86.7,71.9,88.4C71.9,88.3,71.9,88.3,71.9,88.4
	z M68.9,82.8c-0.9,0-1.9,0.3-2.7,0.8l-4-15.1h0.8c0.7,0,1.3,0,2-0.1L68.9,82.8z M63.1,65.9H45.4c-4.3,0-8.4-2-11.1-5.4h39.9
	C71.5,63.9,67.4,65.9,63.1,65.9z M75.7,57.9h-43c-0.8-1.7-1.2-3.5-1.3-5.3c1.4-0.4,2.4-1.5,2.8-2.9h42.6c0.1,0,0.2,0.1,0.2,0.2
	c0,0,0,0,0,0v2l0,0C77.1,54,76.6,56,75.7,57.9L75.7,57.9z M63.1,33.1c-0.3-0.3-0.5-0.7-0.5-1.1c0-0.4,0.2-0.8,0.5-1.1
	c0.5-0.5,0.5-1.3,0-1.8c-0.5-0.5-1.3-0.5-1.8,0c-1.6,1.6-1.6,4.2,0,5.8c0,0,0,0,0,0c0.6,0.6,0.6,1.6,0,2.2c-0.5,0.5-0.6,1.3-0.1,1.8
	s1.3,0.6,1.8,0.1c0,0,0.1-0.1,0.1-0.1C64.7,37.2,64.7,34.6,63.1,33.1C63.1,33,63.1,33,63.1,33.1L63.1,33.1z"/>
</svg>
