<svg id="Layer_1" data-name="Layer 1" xmlns="http://www.w3.org/2000/svg" viewBox="0 0 100 100"><path d="M81.13,80.17H79.86a2.9,2.9,0,0,0,.13-.89v-2a3.15,3.15,0,0,0-3.14-3.14H74.74L72.8,51.43h3a2.65,2.65,0,0,0,2.64-2.65V47a2.65,2.65,0,0,0-2.64-2.65h0A3.49,3.49,0,0,0,76,43a3.56,3.56,0,0,0-3.55-3.56H71a8.72,8.72,0,1,0-11.7,0H57.9A3.57,3.57,0,0,0,54.34,43a3.5,3.5,0,0,0,.25,1.3h0A2.65,2.65,0,0,0,51.91,47v1.82a2.65,2.65,0,0,0,2.65,2.65h3L55.65,74.09H53.53a3.11,3.11,0,0,0-2,.74,3.13,3.13,0,0,0-2-.74h-.72l-3-9a20,20,0,0,1-1-6.37V46.39A3.58,3.58,0,0,0,47.18,43a3.5,3.5,0,0,0-.25-1.3h0a2.65,2.65,0,0,0,2.65-2.65V37.24A2.65,2.65,0,0,0,47,34.59h0a3.5,3.5,0,0,0,.25-1.3,3.56,3.56,0,0,0-2.44-3.38l2.09-4.16a3.34,3.34,0,0,0-3-4.83H40.93a5.84,5.84,0,1,0-9.21,0h-2.9a3.33,3.33,0,0,0-3,4.83l2.08,4.16a3.58,3.58,0,0,0-2.44,3.38,3.5,3.5,0,0,0,.25,1.3h0A2.65,2.65,0,0,0,23,37.24v1.82a2.65,2.65,0,0,0,2.65,2.65h0a3.49,3.49,0,0,0-.24,1.3,3.56,3.56,0,0,0,2.43,3.38V58.7a20,20,0,0,1-1,6.37l-3,9h-.72A3.15,3.15,0,0,0,20,77.23v2a3.24,3.24,0,0,0,.12.89H18.87a3.42,3.42,0,0,0-3.42,3.42v1.49a3.42,3.42,0,0,0,3.42,3.42H81.13a3.42,3.42,0,0,0,3.42-3.42V83.59a3.42,3.42,0,0,0-3.42-3.42ZM58.72,33a6.47,6.47,0,1,1,6.47,6.47A6.48,6.48,0,0,1,58.72,33Zm-4.55,15.8V47a.39.39,0,0,1,.39-.39h8a1.13,1.13,0,0,0,0-2.26H57.9a1.3,1.3,0,1,1,0-2.6H72.49a1.3,1.3,0,0,1,0,2.6H67.84a1.13,1.13,0,0,0,0,2.26h8a.4.4,0,0,1,.39.39v1.82a.4.4,0,0,1-.39.4H54.56a.39.39,0,0,1-.39-.4Zm5.68,2.65H70.54l1.93,22.66H57.91ZM32.74,17.34a3.59,3.59,0,1,1,3.59,3.58A3.59,3.59,0,0,1,32.74,17.34Zm-5,6.92a1.09,1.09,0,0,1,1.09-1.09h15a1.08,1.08,0,0,1,1.08,1.09,1.13,1.13,0,0,1-.11.48l-2.5,5h-12l-2.49-5A1,1,0,0,1,27.73,24.26Zm0,9A1.3,1.3,0,0,1,29,32H43.62a1.3,1.3,0,1,1,0,2.6H29A1.3,1.3,0,0,1,27.73,33.29ZM25.3,39.06V37.24a.39.39,0,0,1,.39-.39H47a.38.38,0,0,1,.39.39v1.82a.38.38,0,0,1-.39.39H25.69A.39.39,0,0,1,25.3,39.06ZM29,41.71H43.62a1.3,1.3,0,1,1,0,2.6H29a1.3,1.3,0,1,1,0-2.6ZM23.15,80.17a.89.89,0,0,1-.89-.89v-2a.89.89,0,0,1,.89-.88h9.34a1.13,1.13,0,1,0,0-2.26H26.24L29,65.79a22.5,22.5,0,0,0,1.15-7.09V46.57H42.49V58.7a22.5,22.5,0,0,0,1.15,7.09l2.77,8.3H37.79a1.13,1.13,0,0,0,0,2.26H49.51a.89.89,0,0,1,.88.88v2a.89.89,0,0,1-.88.89H23.15Zm30.63,6.08H18.87a1.18,1.18,0,0,1-1.17-1.17V83.59a1.17,1.17,0,0,1,1.17-1.16H53.78A1.17,1.17,0,0,1,55,83.59v1.49a1.18,1.18,0,0,1-1.17,1.17ZM82.3,85.08a1.18,1.18,0,0,1-1.17,1.17H57a3.51,3.51,0,0,0,.2-1.17V83.59a3.51,3.51,0,0,0-.2-1.17H68.41a1.13,1.13,0,1,0,0-2.25H53.53a.88.88,0,0,1-.88-.89v-2a.88.88,0,0,1,.88-.88H76.85a.89.89,0,0,1,.89.88v2a.89.89,0,0,1-.88.89H73.7a1.13,1.13,0,1,0,0,2.25h7.43a1.18,1.18,0,0,1,1.17,1.17Z"/></svg>