<?xml version="1.0" encoding="utf-8"?>
<!-- Generator: Adobe Illustrator 25.2.0, SVG Export Plug-In . SVG Version: 6.00 Build 0)  -->
<svg version="1.1" id="Layer_1" xmlns="http://www.w3.org/2000/svg" xmlns:xlink="http://www.w3.org/1999/xlink" x="0px" y="0px"
	 viewBox="0 0 100 100" style="enable-background:new 0 0 100 100;" xml:space="preserve">
<path d="M50,16L16,29.8V84h12.2V43.8h15.6V44c0,3.4,2.8,6.2,6.2,6.2s6.2-2.8,6.2-6.2v-0.2h15.6V84H84V29.8L50,16z M71.7,29.1H28.3
	L50,20.4L71.7,29.1z M24.2,80H20V43.8h4.3L24.2,80z M52.2,44c0,1.2-1,2.2-2.2,2.2s-2.2-1-2.2-2.2c0-0.1,0-0.1,0-0.2h4.3
	C52.2,43.9,52.2,43.9,52.2,44L52.2,44z M80,80h-4.2V43.8H80V80z M20,39.8v-6.7h60v6.7L20,39.8z M35.5,68.9H48V80h-6.5v4h16.7v-4H52
	V69h12.6v-4H35.5V68.9z"/>
</svg>
