<?xml version="1.0" encoding="utf-8"?>
<!-- Generator: Adobe Illustrator 25.2.0, SVG Export Plug-In . SVG Version: 6.00 Build 0)  -->
<svg version="1.1" id="Layer_1" xmlns="http://www.w3.org/2000/svg" xmlns:xlink="http://www.w3.org/1999/xlink" x="0px" y="0px"
	 viewBox="0 0 100 100" style="enable-background:new 0 0 100 100;" xml:space="preserve">
<path d="M49.4,15.5H20.5c-2.6,0-4.7,2.1-4.8,4.7v2.3c0,0.7,0.6,1.3,1.3,1.3s1.3-0.6,1.3-1.3v-2.3c0-1.2,1-2.2,2.2-2.2c0,0,0,0,0,0
	h28.9c1.2,0,2.2,1,2.2,2.2l0,0v19.7c0,1.2-1,2.2-2.2,2.2c0,0,0,0,0,0H20.5c-1.2,0-2.2-1-2.2-2.2V28.7c0-0.7-0.6-1.3-1.3-1.3
	s-1.3,0.6-1.3,1.3l0,0v11.2c0,2.6,2.1,4.8,4.8,4.8h28.9c2.6,0,4.7-2.1,4.7-4.8V20.3C54.1,17.6,52,15.5,49.4,15.5z M34.9,26.8
	c-0.7,0-1.3,0.6-1.3,1.2c0,0,0,0,0,0v1.1l-10.9,6.3c-0.6,0.4-0.8,1.2-0.4,1.7c0.2,0.4,0.6,0.6,1,0.6h23.1c0.7,0,1.3-0.6,1.2-1.3
	c0-0.4-0.2-0.8-0.6-1l-10.9-6.3V29c1.3-0.6,2.1-1.9,2.1-3.3c0-1.9-1.4-3.5-3.3-3.5c-0.1,0-0.1,0-0.2,0c-1.9,0-3.5,1.6-3.5,3.5
	c0,0.7,0.6,1.3,1.3,1.3c0.7,0,1.3-0.6,1.3-1.3c0-0.6,0.4-1,1-1c0.5,0,1,0.3,1,0.8c0,0.1,0,0.1,0,0.2C35.8,26.2,35.4,26.7,34.9,26.8z
	 M28.1,35.4l6.8-4l6.8,4H28.1z M30.6,52.3h-8.7c-0.8-2.4-3.3-3.7-5.7-2.9s-3.7,3.3-2.9,5.7s3.3,3.7,5.7,2.9c1.5-0.5,2.6-1.7,3-3.2
	h8.6c0.7,0,1.3-0.6,1.3-1.3C31.9,52.9,31.3,52.3,30.6,52.3L30.6,52.3z M17.6,55.7c-1.1,0-2-0.9-2-2s0.9-2,2-2s2,0.9,2,2
	C19.6,54.8,18.7,55.7,17.6,55.7C17.6,55.7,17.6,55.7,17.6,55.7L17.6,55.7z M91.8,33.2c0.7,0,1.3-0.6,1.3-1.3v-9.4
	c0-0.7-0.5-1.3-1.2-1.3c0,0,0,0,0,0H87c-0.7,0-1.3,0.6-1.3,1.3s0.6,1.3,1.3,1.3h3.5v6.9h-6.6v-2.4h1.3c0.7,0,1.3-0.6,1.3-1.3
	s-0.6-1.3-1.3-1.3h-5.4c-0.7,0-1.3,0.6-1.3,1.3s0.6,1.3,1.3,1.3h1.6v2.4h-9.1v-2.4h1.3c0.7,0,1.3-0.6,1.3-1.3s-0.6-1.3-1.3-1.3h-5.4
	c-0.7,0-1.3,0.6-1.3,1.3s0.6,1.3,1.3,1.3h1.6v2.4h-6.9v-6.9h18.5c0.7,0,1.3-0.6,1.3-1.3s-0.6-1.3-1.3-1.3H62.8v-8.9
	c0-3-2.4-5.4-5.4-5.4H12.4C9.4,7,7,9.4,7,12.4v75.3c0,3,2.4,5.3,5.4,5.4h45.1c3,0,5.4-2.4,5.4-5.4v-8.9h22.8v13
	c0,0.7,0.6,1.3,1.2,1.3c0,0,0,0,0,0h4.8c0.7,0,1.3-0.6,1.3-1.3V71.1c0-4.2-3.4-7.7-7.7-7.7H62.8V33.2H91.8z M40.1,90.5V78.8h2.3
	v11.7H40.1z M60.3,87.6c0,1.6-1.3,2.9-2.9,2.8H45V78.8h15.3L60.3,87.6z M88.2,90.5V78.8h2.3v11.7H88.2z M90.5,71.1v0.3h-8.9
	c-0.7,0-1.3,0.6-1.3,1.3c0,0.7,0.6,1.3,1.3,1.3h8.9v2.3H40.1v-2.3h35.3c0.7,0,1.3-0.6,1.3-1.3c0-0.7-0.6-1.3-1.3-1.3H40.1
	c-0.1-2.9,2.1-5.4,5-5.5c0,0,0.1,0,0.1,0h40.1C88.2,65.9,90.5,68.2,90.5,71.1z M45.3,63.4c-4.2,0-7.7,3.4-7.7,7.7v19.4H12.4
	c-1.6,0-2.8-1.3-2.8-2.8V12.4c0-1.6,1.3-2.8,2.9-2.8h45.1c1.6,0,2.9,1.3,2.9,2.9v51L45.3,63.4z"/>
</svg>
