<?xml version="1.0" encoding="utf-8"?>
<!-- Generator: Adobe Illustrator 25.2.0, SVG Export Plug-In . SVG Version: 6.00 Build 0)  -->
<svg version="1.1" id="Layer_1" xmlns="http://www.w3.org/2000/svg" xmlns:xlink="http://www.w3.org/1999/xlink" x="0px" y="0px"
	 viewBox="0 0 100 100" style="enable-background:new 0 0 100 100;" xml:space="preserve">
<path d="M31.9,65.8h-12V47.9c-0.1-2-1.8-3.5-3.8-3.4c-1.8,0.1-3.3,1.6-3.4,3.4v35.8c0.1,2,1.8,3.5,3.8,3.4c1.8-0.1,3.3-1.6,3.4-3.4
	V73h9.6v10.8c0.1,2,1.8,3.5,3.8,3.4c1.8-0.1,3.3-1.6,3.4-3.4V70.6C36.7,68,34.5,65.8,31.9,65.8z M15.1,47.9c0.1-0.7,0.6-1.1,1.3-1.1
	c0.6,0.1,1,0.5,1.1,1.1V67c0,0.7,0.5,1.2,1.2,1.2h13.1c1.3,0,2.4,1.1,2.4,2.4l0,0H15.1V47.9z M17.5,83.8c-0.1,0.7-0.6,1.1-1.3,1.1
	c-0.6-0.1-1-0.5-1.1-1.1V73h2.4V83.8z M33.1,84.9c-0.7,0-1.2-0.5-1.2-1.2c0,0,0,0,0,0V73h2.4v10.8C34.3,84.4,33.7,84.9,33.1,84.9
	L33.1,84.9z M83.3,44.3c-2,0-3.6,1.6-3.6,3.6v17.9h-12c-2.6,0-4.8,2.1-4.8,4.8v13.1c0.1,2,1.8,3.5,3.8,3.4c1.8-0.1,3.3-1.6,3.4-3.4
	V73h9.6v10.8c0.1,2,1.8,3.5,3.8,3.4c1.8-0.1,3.3-1.6,3.4-3.4V47.9C86.8,45.9,85.2,44.3,83.3,44.3L83.3,44.3z M67.7,68.2h13.1
	c0.7,0,1.2-0.5,1.2-1.2V47.9c0.1-0.7,0.6-1.1,1.3-1.1c0.6,0.1,1,0.5,1.1,1.1v22.7H65.3C65.3,69.3,66.4,68.2,67.7,68.2z M67.7,83.8
	c-0.1,0.7-0.6,1.1-1.3,1.1c-0.6-0.1-1-0.5-1.1-1.1V73h2.4V83.8z M83.3,84.9c-0.7,0-1.2-0.5-1.2-1.2c0,0,0,0,0,0V73h2.4v10.8
	C84.5,84.4,83.9,84.9,83.3,84.9C83.3,84.9,83.3,84.9,83.3,84.9z M65.3,63.4c1.3,0,2.4-1.1,2.4-2.4v-2.4c0-1.3-1.1-2.4-2.4-2.4h-4.8
	v-2.6c1.4-0.5,2.4-1.9,2.4-3.4v-4.8c0-0.7-0.5-1.2-1.2-1.2c0,0,0,0,0,0H57c-0.7,0-1.2,0.5-1.2,1.2v4.8c0,1.5,1,2.9,2.4,3.4v2.6H51
	V30h34.6c0.7,0,1.2-0.5,1.2-1.2c0-8.6-7-15.5-15.5-15.5h-43c-8.6,0-15.5,6.9-15.6,15.5c0,0.7,0.5,1.2,1.2,1.2c0,0,0,0,0.1,0h34.6
	v26.3h-6v-2.6c1.4-0.5,2.4-1.9,2.4-3.4v-4.8c0-0.7-0.5-1.2-1.2-1.2c0,0,0,0,0,0H39c-0.7,0-1.2,0.5-1.2,1.2v4.8c0,1.5,1,2.9,2.4,3.4
	v2.6h-6c-1.3,0-2.4,1.1-2.4,2.4V61c0,1.3,1.1,2.4,2.4,2.4h12v22.7c0,0.7,0.5,1.2,1.2,1.2l0,0h4.8c0.7,0,1.2-0.5,1.2-1.2c0,0,0,0,0,0
	V63.4H65.3z M58.2,46.7h2.4v3.6c0.1,0.7-0.4,1.2-1.1,1.3c-0.7,0.1-1.2-0.4-1.3-1.1c0-0.1,0-0.1,0-0.2V46.7z M28.3,15.6h43
	c6.8,0,12.5,5.2,13.1,12H15.2C15.8,20.9,21.5,15.6,28.3,15.6z M40.3,46.7h2.4v3.6c0.1,0.7-0.4,1.2-1.1,1.3c-0.7,0.1-1.2-0.4-1.3-1.1
	c0-0.1,0-0.1,0-0.2V46.7z M34.3,58.7h31V61H34.3L34.3,58.7z M51,84.9h-2.4V63.4H51V84.9z"/>
</svg>
