<svg id="Layer_1" data-name="Layer 1" xmlns="http://www.w3.org/2000/svg" viewBox="0 0 100 100"><path d="M92.61,42.42a9,9,0,0,0-6.75-6.51,9.6,9.6,0,0,0-2-.2C77.65,26.26,66.3,21.42,50,21.42S22.28,26.27,16.09,35.75a8.88,8.88,0,0,0-5.39,16V64.29a7.15,7.15,0,0,0,7.14,7.15v1.78a5.36,5.36,0,0,0,10.72,0V71.44H71.44v1.78a5.36,5.36,0,1,0,10.72,0V71.44a7.16,7.16,0,0,0,7.15-7.15V51.75A8.94,8.94,0,0,0,92.61,42.42ZM50,25c14.34,0,24.41,3.93,30.1,11.6a8.68,8.68,0,0,0-1.78,1.11A8.89,8.89,0,0,0,75,44.64V50H53.57A5.36,5.36,0,0,0,50,51.39,5.36,5.36,0,0,0,46.43,50H25V45a9.39,9.39,0,0,0-5.13-8.41C25.53,28.93,35.62,25,50,25ZM78.58,55.36a1.79,1.79,0,0,1-1.78,1.79H53.57a1.79,1.79,0,0,1,0-3.58H76.8A1.79,1.79,0,0,1,78.58,55.36Zm-30.37,0a1.79,1.79,0,0,1-1.78,1.79H23.2a1.79,1.79,0,0,1,0-3.58H46.43A1.79,1.79,0,0,1,48.21,55.36ZM25,73.22a1.79,1.79,0,1,1-3.57,0V71.44H25v1.78Zm53.59,0a1.79,1.79,0,1,1-3.57,0V71.44h3.57v1.78Zm8-24a1.79,1.79,0,0,0-.89,1.55V64.29a3.57,3.57,0,0,1-3.57,3.57H17.84a3.57,3.57,0,0,1-3.57-3.57V50.8a1.79,1.79,0,0,0-.89-1.55,5.3,5.3,0,0,1-2.68-4.61,5.35,5.35,0,0,1,1.89-4.08A5.3,5.3,0,0,1,17,39.36,5.62,5.62,0,0,1,21.42,45v5.31A5.34,5.34,0,0,0,23.2,60.72H46.43A5.32,5.32,0,0,0,50,59.32a5.32,5.32,0,0,0,3.57,1.4H76.8a5.34,5.34,0,0,0,1.78-10.39V44.64a5.37,5.37,0,0,1,6.54-5.23,5.34,5.34,0,0,1,1.5,9.84Z"/></svg>