<?xml version="1.0" encoding="utf-8"?>
<!-- Generator: Adobe Illustrator 25.2.0, SVG Export Plug-In . SVG Version: 6.00 Build 0)  -->
<svg version="1.1" id="Layer_1" xmlns="http://www.w3.org/2000/svg" xmlns:xlink="http://www.w3.org/1999/xlink" x="0px" y="0px"
	 viewBox="0 0 100 100" style="enable-background:new 0 0 100 100;" xml:space="preserve">
<path d="M50.9,92.4L46.5,91V75.1c1.6-0.6,2.6-2.1,2.6-3.7V59.5h1.3c0.7,0,1.3-0.6,1.3-1.3V38.8c0-2.7-2.2-4.8-4.8-4.8h-0.6
	c1.8-1.7,2.8-4.1,2.8-6.6v-5.3c0-3.5-2-6.7-5.1-8.2c1.3-1.2,2-2.8,2-4.5C46,7,44.1,5,41.6,5c-0.6,0-1.2,0.1-1.7,0.4
	c-2.2-1-4.8,0-5.8,2.3c-0.2,0.5-0.4,1.1-0.4,1.7c0,1.7,0.7,3.4,2,4.5c-3.1,1.6-5.1,4.8-5.1,8.2v5.3c0,2.5,1,4.9,2.7,6.6h-0.6
	c-2.1,0-4,1.4-4.6,3.5c-7.6-0.6-13.4-6.9-13.4-14.5c0.1-0.7-0.5-1.4-1.2-1.4s-1.4,0.5-1.4,1.2c0,0.1,0,0.2,0,0.2
	c0,8.9,6.9,16.4,15.8,17.1v18.1c0,0.7,0.6,1.3,1.3,1.3h1.3v11.9c0,1.7,1.1,3.2,2.6,3.7V91l-4.4,1.5c-0.7,0.3-1,1-0.7,1.7
	c0.2,0.5,0.7,0.8,1.2,0.8c0.1,0,0.3,0,0.4-0.1l5.2-1.8c0.5-0.2,0.9-0.7,0.9-1.3V75.1c1.6-0.6,2.6-2.1,2.6-3.7v-5.8
	c0.9,0.1,1.8,0.1,2.6,0v5.8c0,1.7,1.1,3.2,2.6,3.7v16.8c0,0.6,0.4,1.1,0.9,1.3l5.3,1.8c0.1,0,0.3,0.1,0.4,0.1c0.7,0,1.3-0.6,1.3-1.3
	C51.7,93.1,51.4,92.6,50.9,92.4L50.9,92.4z M36.4,9.4c0-1,0.8-1.7,1.8-1.8c0.4,0,0.7,0.1,1,0.3c0.5,0.3,1.1,0.3,1.5,0
	c0.8-0.6,1.9-0.4,2.4,0.4c0.2,0.3,0.3,0.6,0.3,1c0.2,1.9-1.2,3.7-3.1,3.9c-1.9,0.2-3.7-1.2-3.9-3.1C36.4,9.9,36.4,9.7,36.4,9.4
	L36.4,9.4z M39.9,15.6c3.6,0,6.6,3,6.6,6.6l0,0v0.4h-3.2c-1.3-1.9-3.9-2.3-5.8-1c-0.4,0.3-0.7,0.6-1,1h-3.2v-0.4
	C33.3,18.5,36.2,15.6,39.9,15.6C39.9,15.6,39.9,15.6,39.9,15.6L39.9,15.6z M33.3,27.4v-2.2h4c0.5,0,1-0.3,1.2-0.8
	c0.3-0.8,1.2-1.2,2-0.8c0.4,0.2,0.7,0.5,0.8,0.8c0.2,0.5,0.7,0.8,1.2,0.8h4v2.2c0,3.6-3,6.6-6.6,6.6S33.3,31,33.3,27.4L33.3,27.4z
	 M32.9,36.6h14.1c1.2,0,2.2,1,2.2,2.2l0,0v18H30.7v-18C30.7,37.6,31.6,36.6,32.9,36.6z M43.3,62.8c-0.3-0.2-0.8-0.3-1.2-0.2
	c-1.4,0.5-3,0.5-4.4,0c-0.7-0.2-1.4,0.1-1.7,0.8c0,0.1-0.1,0.3-0.1,0.4v7.5c0,0.7-0.6,1.3-1.3,1.3c-0.7,0-1.3-0.6-1.3-1.3V59.5h13.2
	v11.9c0.1,0.7-0.5,1.4-1.2,1.4c-0.7,0.1-1.4-0.5-1.4-1.2c0-0.1,0-0.2,0-0.2v-7.5C43.8,63.4,43.6,63,43.3,62.8z M87.8,47.6
	c0.1-0.7-0.5-1.4-1.2-1.4c-0.7-0.1-1.4,0.5-1.4,1.2c0,0.1,0,0.2,0,0.2c0,5.6-4.3,10.4-9.9,10.9c-0.6-2.1-2.5-3.5-4.6-3.5h-8.8
	c-2.7,0-4.8,2.1-4.9,4.8c0,0,0,0,0,0v6.5c-1.7,2.1-2.6,4.7-2.6,7.5v3.6c0,0.7,0.6,1.3,1.3,1.3h4V91l-4.4,1.4c-0.7,0.2-1.1,1-0.8,1.7
	c0.2,0.5,0.7,0.9,1.2,0.9c0.1,0,0.3,0,0.4-0.1l5.3-1.8c0.5-0.2,0.9-0.7,0.9-1.3V78.8h7.9v13.2c0,0.6,0.4,1.1,0.9,1.3l5.3,1.8
	c0.1,0,0.3,0.1,0.4,0.1c0.7,0,1.3-0.6,1.3-1.3c0-0.6-0.4-1.1-0.9-1.2L72.8,91V78.8h4c0.7,0,1.3-0.6,1.3-1.3v-3.6
	c0-2.7-0.9-5.3-2.6-7.5v-5.2C82.5,60.5,87.8,54.6,87.8,47.6L87.8,47.6z M75.5,73.8v2.3H57v-2.3c0-2.2,0.8-4.4,2.3-6.1
	c0.2-0.2,0.3-0.6,0.3-0.9v-6.9c0-1.2,1-2.2,2.2-2.2h8.8c1.2,0,2.2,1,2.2,2.2v6.9c0,0.3,0.1,0.6,0.3,0.9
	C74.6,69.4,75.5,71.6,75.5,73.8L75.5,73.8z M57,43.2c0,5.1,4.1,9.2,9.2,9.2s9.2-4.1,9.2-9.2c0-2.9-1.4-5.6-3.7-7.4
	c2-1.4,2.5-4.1,1.1-6.1c-0.7-1.1-1.9-1.7-3.1-1.9c-1.4-1.9-4.2-2.4-6.1-0.9c-0.4,0.3-0.7,0.6-0.9,0.9c-2.4,0.3-4.2,2.4-3.9,4.8
	c0.1,1.3,0.8,2.4,1.9,3.2C58.4,37.6,57,40.3,57,43.2z M72.8,43.2c0,3.6-2.9,6.6-6.6,6.6c-3.6,0-6.6-2.9-6.6-6.6
	c0-3.6,2.9-6.6,6.6-6.6c0,0,0,0,0,0C69.9,36.6,72.8,39.6,72.8,43.2z M63.2,34c-1,0.1-1.8-0.7-1.9-1.6c-0.1-1,0.7-1.8,1.6-1.9
	c0.1,0,0.2,0,0.3,0h0.3c0.5,0,1-0.3,1.2-0.8c0.4-0.9,1.5-1.3,2.3-0.8c0.4,0.2,0.7,0.5,0.8,0.8c0.2,0.5,0.7,0.7,1.2,0.8h0.3
	c1-0.1,1.8,0.7,1.9,1.6c0.1,1-0.7,1.8-1.6,1.9c-0.1,0-0.2,0-0.3,0H63.2z"/>
</svg>
