<?xml version="1.0" encoding="iso-8859-1"?>
<!-- Uploaded to: SVG Repo, www.svgrepo.com, Generator: SVG Repo Mixer Tools -->
<svg fill="#000000" version="1.1" id="Layer_1" xmlns="http://www.w3.org/2000/svg" xmlns:xlink="http://www.w3.org/1999/xlink" 
	 viewBox="0 0 511.998 511.998" xml:space="preserve">
<g>
	<g>
		<rect x="406.451" y="350.681" width="16.672" height="15.63"/>
	</g>
</g>
<g>
	<g>
		<path d="M88.634,341.298v57.311h29.438l24.479-41.681h35.696v-15.63H88.634z M109.126,382.979h-4.861v-26.051h20.161
			L109.126,382.979z"/>
	</g>
</g>
<g>
	<g>
		<path d="M483.841,276.132H242.853v-25.055h17.215c13.283,0,24.089-10.807,24.089-24.089c0-13.284-10.807-24.089-24.089-24.089
			H162.1v-1.15l-0.173-0.81c-6.499-30.327-39.131-55-72.749-55l-8.82,0.01l-3.879-12.932c-3.522-11.739-14.124-19.628-26.38-19.628
			c-8.693,0-16.692,3.972-21.945,10.897c-5.253,6.925-6.922,15.699-4.579,24.071l15.272,54.54H24.089
			C10.807,202.897,0,213.703,0,226.986c0,13.283,10.807,24.089,24.089,24.089h28.248l22.784,81.372h308.867
			c-5.32,6.838-8.5,15.419-8.5,24.733c0,22.257,18.107,40.364,40.364,40.364s40.364-18.107,40.364-40.364
			c0-9.315-3.18-17.896-8.5-24.733h36.124c15.526,0,28.158-12.631,28.158-28.159S499.368,276.132,483.841,276.132z M89.188,161.567
			c25.691,0,51.486,18.795,57.138,41.33H97.444l-12.397-41.324L89.188,161.567z M38.628,144.142
			c-1.015-3.621-0.292-7.415,1.979-10.41c2.273-2.996,5.731-4.713,9.491-4.713c5.301,0,9.886,3.412,11.409,8.488l19.617,65.39H55.08
			L38.628,144.142z M24.089,235.446c-4.665,0-8.459-3.795-8.459-8.459c0-4.665,3.795-8.459,8.459-8.459h235.979
			c4.665,0,8.459,3.795,8.459,8.459c0,4.665-3.795,8.459-8.459,8.459H24.089z M227.223,251.076v25.055h-65.647v-25.055H227.223z
			 M145.945,251.076v25.055h-26.532l-7.517-25.055H145.945z M415.854,381.916c-13.638,0-24.733-11.095-24.733-24.733
			c0-13.638,11.095-24.733,24.733-24.733c13.638,0,24.733,11.095,24.733,24.733C440.587,370.821,429.492,381.916,415.854,381.916z
			 M483.841,316.818H86.977L68.57,251.076h27.008l12.206,40.686h376.057c6.908,0,12.527,5.62,12.527,12.527
			S490.749,316.818,483.841,316.818z"/>
	</g>
</g>
</svg>