<svg id="Layer_1" data-name="Layer 1" xmlns="http://www.w3.org/2000/svg" viewBox="0 0 100 100"><path d="M84.22,76.91,81.69,69.8a14.4,14.4,0,0,0-8.25-23.08L67.32,29.58h1.9A10.82,10.82,0,0,0,80,18.77v-1.2a3.61,3.61,0,1,0-7.21,0v1.2a3.6,3.6,0,0,1-3.6,3.6H60.81a3.61,3.61,0,0,0-.88,7.1l2.27,6.38L43.14,53.1,33,52.46l-.89-.06h-.35L26.53,39.19h3a3.61,3.61,0,0,0,3.6-3.61v-.31a3.62,3.62,0,0,0-3.09-3.57L18.08,30A3.61,3.61,0,0,0,14,33a2.92,2.92,0,0,0,0,.51v2a3.61,3.61,0,0,0,3.61,3.61h1.58l6.36,16.26A8.4,8.4,0,0,0,26.6,67.27a5.32,5.32,0,0,0,.47.36l-9.72,8.81A3.6,3.6,0,0,0,14,80v2.4A3.61,3.61,0,0,0,17.57,86H20a3.61,3.61,0,0,0,3.6-3.61H76.43A3.61,3.61,0,0,0,80,86h2.4A3.61,3.61,0,0,0,86,82.43V80A3.58,3.58,0,0,0,84.22,76.91ZM79.54,53A12,12,0,0,1,80.7,67L74.43,49.49A12,12,0,0,1,79.54,53Zm2,23.44H80a3.19,3.19,0,0,0-.75.08L62.52,29.58h2.25Zm-6.42-4.54a12,12,0,0,1-14.67-4.44l10-.63a6,6,0,0,0,2.59-.61ZM66.2,47a14.47,14.47,0,0,0-8.49,7L52.8,53.7,64.68,42.78ZM67,49.29l1.93,5.42-8.53-.53A12.06,12.06,0,0,1,67,49.29Zm-6.2-24.52h8.41a6,6,0,0,0,6-6v-1.2a1.2,1.2,0,1,1,2.4,0v1.2a8.43,8.43,0,0,1-8.41,8.41H60.81a1.21,1.21,0,0,1,0-2.41ZM63.08,38.3l.72,2L49.48,53.49l-3-.18ZM16.36,35.58v-2a1.2,1.2,0,0,1,1.2-1.2h.18l12,1.72a1.2,1.2,0,0,1,1,1.19v.31a1.21,1.21,0,0,1-1.2,1.21h-12A1.21,1.21,0,0,1,16.36,35.58ZM24,39.19,29.3,52.84a8.52,8.52,0,0,0-1.87.91l-5.7-14.56Zm2,21.62a6,6,0,0,1,6-6l37.87,2.36,2.41,6.75a3.6,3.6,0,0,1-1.81.5h-.07l-33.9,2.12-1.79-3.32a3.6,3.6,0,1,0-5.08.27,3.56,3.56,0,0,0,3,.88l1.27,2.33-1,.06-.85.06A6,6,0,0,1,26,60.81ZM32,62a1.2,1.2,0,1,1,1.2-1.2A1.2,1.2,0,0,1,32,62Zm0,7.21h.08l.33,0-9.5,8.72a3.67,3.67,0,0,0-2.07-1.39l8.55-7.73A8.24,8.24,0,0,0,32,69.22ZM21.17,82.43A1.21,1.21,0,0,1,20,83.64h-2.4a1.22,1.22,0,0,1-1.21-1.21V80a1.21,1.21,0,0,1,1.21-1.2H20a1.2,1.2,0,0,1,1.2,1.2Zm3-2.4L35.42,69.67,36.65,72l-1.06.57a1.2,1.2,0,1,0,1.13,2.12h0L41,72.34a1.2,1.2,0,0,0-1.12-2.12h0l-1.06.57-1-1.94,20-1.25a14.41,14.41,0,0,0,18.17,6.54l1.31,3.67A3.61,3.61,0,0,0,76.43,80Zm59.49,2.4a1.22,1.22,0,0,1-1.21,1.21H80a1.21,1.21,0,0,1-1.2-1.21V80a1.2,1.2,0,0,1,1.2-1.2h2.4A1.21,1.21,0,0,1,83.64,80Z"/></svg>