<?xml version="1.0" encoding="utf-8"?>
<!-- Generator: Adobe Illustrator 25.2.0, SVG Export Plug-In . SVG Version: 6.00 Build 0)  -->
<svg version="1.1" id="Layer_1" xmlns="http://www.w3.org/2000/svg" xmlns:xlink="http://www.w3.org/1999/xlink" x="0px" y="0px"
	 viewBox="0 0 100 100" style="enable-background:new 0 0 100 100;" xml:space="preserve">
<style type="text/css">
	.st0{fill:#0B050C;}
</style>
<path class="st0" d="M12.3,60.7c0.2-4.8,1-9.6,2.2-14.3c1-4.1,2.4-8,4.4-11.7C24.5,24.4,31.1,26,39,28.1c3.3,1,6.7,1.6,10.2,2h1.6
	c3.5-0.4,6.9-1,10.3-2c7.9-2,14.5-3.7,20.2,6.5c2,3.7,3.4,7.6,4.3,11.7c1.2,4.7,1.9,9.5,2.2,14.3c0.2,4.8-0.2,8-1.1,10.2
	c-0.4,1.2-1.3,2.2-2.5,2.6c-1.4,0.3-2.9,0.1-4.3-0.5c-3.6-1.4-7.9-4.7-12-8.6c-4-3.9-10.9-5.9-17.9-5.9s-13.9,2-17.9,5.7
	c-4.3,3.9-8.5,7.3-12,8.6c-1.7,0.6-3.1,0.9-4.3,0.5c-1.2-0.4-2.1-1.4-2.5-2.6C12.5,68.6,12.1,65.4,12.3,60.7L12.3,60.7z M14.9,77.1
	c2.2,0.5,4.6,0.3,6.6-0.7c4-1.7,8.7-5.2,13.3-9.4C38,63.8,44,62.2,50,62.2s12,1.5,15.2,4.7c4.6,4.3,9.2,7.8,13.3,9.4
	c2.1,0.9,4.4,1.2,6.6,0.7c2.3-0.7,4.2-2.5,5-4.8c1.1-2.6,1.7-6.4,1.4-11.8c-0.3-5.1-1-10.1-2.3-15c-1.1-4.4-2.6-8.6-4.7-12.7
	C77.4,20,69.5,22,60.1,24.5c-3.1,0.8-6.3,1.5-9.5,1.9h-1c-3.2-0.4-6.4-1-9.5-1.9c-9.5-2.4-17.4-4.5-24.6,8.4
	c-2.1,4-3.6,8.2-4.7,12.6c-1.3,4.9-2,9.9-2.3,15c-0.2,5.3,0.3,9.1,1.4,11.8C10.7,74.6,12.6,76.3,14.9,77.1L14.9,77.1z M22.9,44.5
	c0-0.6,0.2-1.1,0.6-1.5l0.1-0.1c0.4-0.3,0.9-0.5,1.5-0.5h1.5c1.1,0,2-0.9,2-2v-1.5c0-1.2,0.9-2.1,2.1-2.2c0,0,0.1,0,0.1,0l0,0
	c0.6,0,1.1,0.2,1.6,0.6l0.1,0.1c0.3,0.4,0.5,0.9,0.5,1.5v1.5c0,1.1,0.9,2,2,2h1.5c0.6,0,1.1,0.2,1.6,0.6l0,0c0.4,0.4,0.6,1,0.6,1.6
	l0,0c0,0.6-0.2,1.1-0.6,1.5c-0.4,0.4-1,0.6-1.6,0.6h-1.5c-1.1,0-2,0.9-2,2V50c0,0.6-0.2,1.1-0.6,1.6l0,0c-0.4,0.4-1,0.6-1.5,0.6l0,0
	c-1.2,0-2.1-0.9-2.2-2.1c0,0,0-0.1,0-0.1v-1.5c0-1.1-0.9-2-2-2h-1.4c-0.6,0-1.1-0.2-1.6-0.5C23.2,45.6,23,45.1,22.9,44.5L22.9,44.5z
	 M24.7,50.5c0.1,1.4,0.7,2.8,1.8,3.7c1.1,1.1,2.7,1.8,4.2,1.8l0,0c1.6,0,3.1-0.6,4.3-1.8l0,0c1-1,1.6-2.3,1.8-3.7
	c1.4-0.1,2.8-0.7,3.7-1.8c1.1-1.1,1.8-2.7,1.8-4.3l0,0c0-1.6-0.6-3.1-1.8-4.3l0,0c-1-1-2.3-1.6-3.7-1.8c-0.1-1.4-0.7-2.6-1.7-3.6
	L35,34.8c-1.1-1.1-2.7-1.8-4.3-1.8l0,0c-1.6,0-3.1,0.6-4.3,1.8c-1,1-1.6,2.3-1.8,3.7c-1.4,0.1-2.7,0.7-3.7,1.7l-0.1,0.1
	c-1.1,1.1-1.8,2.7-1.8,4.3l0,0c0,1.6,0.6,3.1,1.8,4.3C21.9,49.8,23.3,50.4,24.7,50.5L24.7,50.5z M68,33.5c2,0,3.6,1.6,3.6,3.6
	S70,40.8,68,40.8c-2,0-3.6-1.6-3.6-3.6c0,0,0,0,0,0C64.4,35.1,66,33.5,68,33.5z M68,48.2c2,0,3.6,1.6,3.6,3.6S70,55.5,68,55.5
	c-2,0-3.6-1.6-3.6-3.6c0,0,0,0,0,0C64.4,49.9,66,48.2,68,48.2z M60.7,40.9c2,0,3.6,1.6,3.6,3.6c0,2-1.6,3.6-3.6,3.6
	c-2,0-3.6-1.6-3.6-3.6C57,42.5,58.7,40.9,60.7,40.9L60.7,40.9z M75.4,40.9c2,0,3.6,1.6,3.6,3.6s-1.6,3.6-3.6,3.6
	c-2,0-3.6-1.6-3.6-3.6c0,0,0,0,0,0C71.8,42.5,73.4,40.9,75.4,40.9z"/>
</svg>
