<?xml version="1.0" encoding="utf-8"?>
<!-- Generator: Adobe Illustrator 25.2.0, SVG Export Plug-In . SVG Version: 6.00 Build 0)  -->
<svg version="1.1" id="Layer_1" xmlns="http://www.w3.org/2000/svg" xmlns:xlink="http://www.w3.org/1999/xlink" x="0px" y="0px"
	 viewBox="0 0 100 100" style="enable-background:new 0 0 100 100;" xml:space="preserve">
<path d="M34.3,48.4c-0.1-0.9-0.8-1.5-1.7-1.4c-0.8,0.1-1.4,0.7-1.4,1.4c0,4.1,4.5,9.8,5,10.4c0.3,0.4,0.7,0.6,1.2,0.6
	c0.4,0,0.7-0.1,1-0.3c0.7-0.5,0.8-1.5,0.2-2.2c0,0,0,0,0,0C37,54.8,34.4,50.7,34.3,48.4L34.3,48.4z M67.2,46.9
	c-0.9,0-1.6,0.7-1.6,1.5c0,0,0,0,0,0c0,2.3-2.7,6.3-4.3,8.4c-0.5,0.7-0.4,1.6,0.2,2.2c0.3,0.2,0.6,0.4,1,0.3c0.5,0,0.9-0.2,1.2-0.6
	c0.5-0.6,5.1-6.3,5.1-10.4C68.8,47.5,68.1,46.8,67.2,46.9L67.2,46.9z M50,46.9c-0.9,0-1.6,0.7-1.6,1.5c0,0,0,0,0,0v9.4
	c0,0.9,0.7,1.6,1.6,1.6c0.9,0,1.6-0.7,1.6-1.6v-9.4C51.6,47.6,50.9,46.9,50,46.9C50,46.9,50,46.9,50,46.9z M72.9,51.9
	c-0.1,0-0.2,0.1-0.2,0.1c-0.2,0.1-0.4,0.3-0.5,0.5c-0.1,0.2-0.2,0.4-0.2,0.6c0,0.1,0,0.2,0,0.3v15.4H28.1V53.4c0-0.1,0-0.2,0-0.3
	c0-0.2-0.1-0.4-0.3-0.6c-0.1-0.2-0.3-0.3-0.5-0.5c-0.1,0-0.2-0.1-0.3-0.1c-7.1-3.1-10.4-11.4-7.3-18.5c2.2-5.2,7.3-8.5,13-8.5
	c0.3,0,0.6,0,0.9,0.1c-1.6,2.8-2.5,6.1-2.5,9.3c0.1,0.9,0.8,1.5,1.7,1.4c0.8-0.1,1.4-0.7,1.4-1.4c0-8.6,7-15.6,15.6-15.6
	s15.7,7,15.7,15.6c0.1,0.9,0.8,1.5,1.7,1.4c0.8-0.1,1.4-0.7,1.4-1.4c0-3.3-0.9-6.5-2.5-9.3c0.3,0,0.6-0.1,0.9-0.1
	c7.8,0,14.1,6.2,14.1,14C81.4,44.6,78.1,49.7,72.9,51.9L72.9,51.9z M68.7,81.3H31.4c-1.8,0-3.3-1.5-3.3-3.3c0,0,0,0,0,0v-6.1h43.8
	v6.1C71.9,79.8,70.5,81.3,68.7,81.3z M67.2,21.8c-1,0-2,0.1-3,0.3c-6.7-7.9-18.6-8.8-26.4-2.1c-0.7,0.6-1.4,1.3-2.1,2.1
	c-1-0.2-2-0.3-3-0.3c-9.5,0-17.2,7.8-17.1,17.3c0,6.5,3.7,12.4,9.4,15.3V78c0,3.5,2.8,6.4,6.4,6.4c0,0,0,0,0,0h37.3
	c3.5,0,6.3-2.8,6.3-6.3V54.4c8.5-4.3,11.8-14.7,7.5-23.1C79.6,25.5,73.7,21.8,67.2,21.8L67.2,21.8z"/>
</svg>
