<?xml version="1.0" ?>
<!-- Uploaded to: SVG Repo, www.svgrepo.com, Generator: SVG Repo Mixer Tools -->
<svg fill="#000000" width="800px" height="800px" viewBox="0 0 100 100" version="1.1" xml:space="preserve" xmlns="http://www.w3.org/2000/svg" xmlns:xlink="http://www.w3.org/1999/xlink">
<g id="tree"/>
<g id="plant"/>
<g id="flower"/>
<g id="flower_pot"/>
<g id="rose"/>
<g id="garden">
<path d="M87.7,72c-1.7-0.3-3.4-0.1-5,0.4c-0.5-0.9-1-1.7-1.7-2.5V59.5l4.4-3.5c0.1,0,0.2,0,0.4,0c1.6,0,5.6-0.4,8-4.4   c2.8-4.7,2.2-12.5,2.2-12.8c0-0.3-0.2-0.6-0.5-0.8c-0.3-0.2-0.6-0.2-0.9-0.1c-0.3,0.1-7.5,3.2-10.3,7.9c-2.2,3.7-1.1,7.2-0.4,8.8   L81,56.9V36.4c1.5,1.6,3.3,3.1,3.6,3.4c0.2,0.2,0.4,0.2,0.6,0.2c0.1,0,0.3,0,0.4-0.1c0.3-0.1,0.6-0.5,0.6-0.8c0-0.5,0.3-3.9,0-6.4   c0.7,0.1,1.5,0.1,2.3,0.1c1.9,0,3.7-0.2,4.1-0.2c0.4,0,0.7-0.3,0.8-0.6c0.1-0.3,0.1-0.7-0.2-1c-0.3-0.4-2.6-3-4.5-4.5   c1.9-1.6,4.2-4.2,4.5-4.6c0.2-0.3,0.3-0.7,0.2-1c-0.1-0.3-0.5-0.6-0.8-0.6c-0.5,0-4-0.3-6.4,0c0.2-2.4,0-5.9-0.1-6.4   c0-0.4-0.3-0.7-0.6-0.8c-0.3-0.1-0.7-0.1-1,0.2c-0.4,0.3-3,2.6-4.6,4.5c-1.6-1.9-4.2-4.1-4.6-4.4c-0.3-0.2-0.7-0.3-1-0.2   c-0.3,0.1-0.6,0.5-0.6,0.8c0,0.5-0.3,3.9,0,6.4c-2.5-0.2-5.9,0-6.4,0.1c-0.4,0-0.7,0.3-0.8,0.6s-0.1,0.7,0.2,1   c0.3,0.4,2.6,3,4.5,4.5c-1.9,1.6-4.2,4.2-4.5,4.6c-0.2,0.3-0.3,0.7-0.2,1s0.5,0.6,0.8,0.6c0.3,0,2,0.2,3.8,0.2c0.9,0,1.8,0,2.6-0.1   c-0.2,2.4,0,5.9,0.1,6.4c0,0.4,0.3,0.7,0.6,0.8c0.1,0.1,0.3,0.1,0.4,0.1c0.2,0,0.5-0.1,0.6-0.2c0.3-0.2,2-1.7,3.5-3.3v24.6   l-2.9-2.3c0.8-1.6,1.9-5.1-0.4-8.8c-2.5-4.1-8.4-7.1-9.9-7.8c0-0.2,0-0.4,0-0.4c0-0.3-0.2-0.6-0.5-0.8c-0.3-0.2-0.6-0.2-0.9-0.1   c-0.3,0.1-7.4,3.2-10.2,7.9c0,0,0,0,0,0c-2.2,3.7-1.1,7.2-0.3,8.8L51,59.9V36.4c1.5,1.6,3.3,3.1,3.6,3.3c0.2,0.2,0.4,0.2,0.6,0.2   c0.1,0,0.3,0,0.4-0.1c0.3-0.1,0.6-0.5,0.6-0.8c0-0.5,0.3-3.9,0-6.4c0.7,0.1,1.5,0.1,2.3,0.1c1.9,0,3.7-0.2,4-0.2   c0.4,0,0.7-0.3,0.8-0.6c0.1-0.3,0.1-0.7-0.2-1c-0.3-0.4-2.6-3-4.5-4.5c1.9-1.6,4.1-4.2,4.4-4.6c0.2-0.3,0.3-0.7,0.2-1   c-0.1-0.3-0.5-0.6-0.8-0.6c-0.5,0-3.9-0.3-6.4,0c0.2-2.4,0-5.9-0.1-6.4c0-0.4-0.3-0.7-0.6-0.8c-0.3-0.1-0.7-0.1-1,0.2   c-0.4,0.3-3,2.6-4.5,4.5c-1.6-1.9-4.2-4.1-4.6-4.4c-0.3-0.2-0.7-0.3-1-0.2c-0.3,0.1-0.6,0.5-0.6,0.8c0,0.5-0.3,3.9,0,6.4   c-2.4-0.2-5.9,0-6.4,0.1c-0.4,0-0.7,0.3-0.8,0.6c-0.1,0.3-0.1,0.7,0.2,1c0.3,0.4,2.6,3,4.5,4.5c-1.9,1.6-4.1,4.2-4.4,4.6   c-0.2,0.3-0.3,0.7-0.2,1c0.1,0.3,0.5,0.6,0.8,0.6c0.3,0,2,0.2,3.8,0.2c0.9,0,1.8,0,2.6-0.1c-0.2,2.4,0,5.9,0.1,6.4   c0,0.4,0.3,0.7,0.6,0.8c0.1,0.1,0.3,0.1,0.4,0.1c0.2,0,0.5-0.1,0.6-0.2c0.3-0.2,2-1.7,3.5-3.3v29.4l-2.9-2.3   c0.7-1.6,1.8-5.1-0.3-8.8c0,0,0,0,0,0c-2.5-4.2-8.6-7.2-9.9-7.8c0.3-2.8,0.1-5.1,0.1-5.3c0-0.3-0.2-0.6-0.5-0.8   c-0.3-0.2-0.6-0.2-0.9-0.1c-0.3,0.1-7.5,3.2-10.3,7.9c-2.2,3.7-1.1,7.2-0.4,8.8L21,59.9V36.4c1.5,1.6,3.3,3.1,3.6,3.4   c0.2,0.2,0.4,0.2,0.6,0.2c0.1,0,0.3,0,0.4-0.1c0.3-0.1,0.6-0.5,0.6-0.8c0-0.5,0.3-3.9,0-6.4c0.7,0.1,1.5,0.1,2.3,0.1   c1.9,0,3.7-0.2,4.1-0.2c0.4,0,0.7-0.3,0.8-0.6c0.1-0.3,0.1-0.7-0.2-1c-0.3-0.4-2.6-3-4.5-4.5c1.9-1.6,4.2-4.2,4.5-4.6   c0.2-0.3,0.3-0.7,0.2-1c-0.1-0.3-0.5-0.6-0.8-0.6c-0.5,0-4-0.3-6.4,0c0.2-2.4,0-5.9-0.1-6.4c0-0.4-0.3-0.7-0.6-0.8   c-0.3-0.1-0.7-0.1-1,0.2c-0.4,0.3-3,2.6-4.6,4.5c-1.6-1.9-4.2-4.1-4.6-4.4c-0.3-0.2-0.7-0.3-1-0.2c-0.3,0.1-0.6,0.5-0.6,0.8   c0,0.5-0.3,3.9,0,6.4c-2.5-0.2-5.9,0-6.4,0.1c-0.4,0-0.7,0.3-0.8,0.6s-0.1,0.7,0.2,1c0.3,0.4,2.6,3,4.5,4.5   c-1.9,1.6-4.2,4.2-4.5,4.6c-0.2,0.3-0.3,0.7-0.2,1s0.5,0.6,0.8,0.6c0.3,0,2,0.2,3.8,0.2c0.9,0,1.8,0,2.6-0.1   c-0.2,2.4,0,5.9,0.1,6.4c0,0.4,0.3,0.7,0.6,0.8c0.1,0.1,0.3,0.1,0.4,0.1c0.2,0,0.5-0.1,0.6-0.2c0.3-0.2,2-1.7,3.5-3.3v29.4   l-2.9-2.3c0.8-1.6,1.9-5.1-0.4-8.8c-2.8-4.7-10-7.8-10.3-7.9c-0.3-0.1-0.6-0.1-0.9,0.1c-0.3,0.2-0.5,0.5-0.5,0.8   c0,0.3-0.6,8.1,2.2,12.8c2.4,4,6.4,4.4,8,4.4c0.2,0,0.3,0,0.4,0l4.4,3.5V73c-0.7,0.7-1.2,1.6-1.7,2.5c-1.6-0.6-3.3-0.7-5-0.4   C7.5,75.8,4,80,4,85v1c0,0.6,0.4,1,1,1h45h45c0.6,0,1-0.4,1-1v-3.9C96,77.1,92.5,72.8,87.7,72z M86,46.9c1.8-3,5.9-5.4,8-6.5   c0,2.4-0.1,7.1-1.9,10.1c-1.9,3.1-5,3.5-6.2,3.5C85.3,53,84.1,50,86,46.9z M7.9,59.6c-1.8-3-2-7.8-1.9-10.1c2.1,1.1,6.2,3.5,8,6.5   c1.9,3.1,0.7,6.1,0.1,7.1C12.9,63,9.8,62.7,7.9,59.6z M78.2,28.4C78.2,28.4,78.2,28.4,78.2,28.4C78.1,28.4,78.1,28.4,78.2,28.4   c-0.1-0.1-0.1-0.1-0.1-0.1c-0.2-0.2-0.4-0.5-0.5-0.8s-0.2-0.6-0.2-0.9c0,0,0,0,0-0.1c0,0,0,0,0,0c0,0,0,0,0-0.1   c0-0.6,0.3-1.2,0.7-1.7c0,0,0,0,0-0.1c0,0,0,0,0,0c0,0,0,0,0,0c0.2-0.2,0.5-0.4,0.8-0.5c0.3-0.1,0.6-0.2,0.9-0.2c0,0,0,0,0.1,0   c0,0,0,0,0.1,0c0,0,0,0,0.1,0c0.6,0,1.3,0.3,1.7,0.7c0,0,0,0,0,0c0,0,0,0,0,0c0,0,0,0,0,0c0.2,0.2,0.4,0.5,0.5,0.8   c0.1,0.3,0.2,0.6,0.2,0.9c0,0,0,0,0,0.1c0,0,0,0,0,0c0,0,0,0,0,0.1c0,0.6-0.3,1.2-0.7,1.7c0,0,0,0,0,0.1c0,0,0,0,0,0c0,0,0,0,0,0   c-0.2,0.2-0.5,0.4-0.8,0.5c-0.3,0.1-0.6,0.2-0.9,0.2c0,0,0,0-0.1,0c0,0,0,0,0,0c0,0,0,0-0.1,0C79.3,29.1,78.7,28.9,78.2,28.4z    M84.4,36.9c-1.3-1.2-3-2.8-3.5-3.8c0,0,0-0.1-0.1-0.1c-0.1-0.2-0.1-0.4-0.2-0.6c0-0.1,0-0.1,0-0.2c0-0.1,0-0.3-0.1-0.4   c0-0.1,0-0.1,0-0.2c0-0.2,0-0.3,0-0.5c0,0,0,0,0,0c0,0,0,0,0,0c0.4-0.1,0.8-0.2,1.2-0.3c0.4-0.2,0.7-0.4,1-0.6c0,0,0,0,0,0   c0,0,0,0,0,0c0.1,0.1,0.3,0.2,0.4,0.4c0,0,0,0,0.1,0.1c0.1,0.1,0.3,0.3,0.4,0.5c0,0,0,0,0,0c0.1,0.2,0.2,0.4,0.3,0.6   c0,0,0,0.1,0,0.1C84.5,32.8,84.5,35.1,84.4,36.9z M90.5,30.8c-1.6,0.1-3.6,0.1-4.7-0.1c0,0,0-0.1-0.1-0.1c-0.1-0.1-0.1-0.2-0.2-0.4   c0-0.1-0.1-0.1-0.1-0.2c-0.1-0.1-0.2-0.3-0.3-0.4c0,0,0-0.1-0.1-0.1c-0.1-0.2-0.3-0.3-0.4-0.4c0,0-0.1-0.1-0.1-0.1   c-0.1-0.1-0.2-0.2-0.3-0.3c0,0,0,0-0.1-0.1c0.1-0.2,0.2-0.5,0.3-0.7c0.2,0,0.5,0,0.7,0c0,0,0,0,0,0c0,0,0.1,0,0.1,0   c0.3,0,0.6,0,0.9-0.1c0.1,0,0.1,0,0.2,0c0.3-0.1,0.5-0.1,0.8-0.2C88,28.3,89.4,29.6,90.5,30.8z M90.5,22.2   c-1.2,1.3-2.8,2.9-3.8,3.4c0,0-0.1,0-0.1,0.1c0,0,0,0,0,0c-0.2,0.1-0.4,0.1-0.6,0.2c-0.1,0-0.1,0-0.2,0c-0.1,0-0.3,0-0.4,0.1   c-0.1,0-0.1,0-0.2,0c-0.2,0-0.4,0-0.5,0c0,0,0,0,0,0c0,0,0,0,0,0c-0.1-0.4-0.2-0.8-0.3-1.1c-0.2-0.4-0.4-0.7-0.6-1c0,0,0,0,0,0   c0,0,0,0,0,0c0.1-0.2,0.2-0.3,0.4-0.4c0,0,0,0,0.1-0.1c0.1-0.1,0.3-0.3,0.5-0.4c0,0,0,0,0,0c0.2-0.1,0.4-0.2,0.6-0.3   c0,0,0.1,0,0.1,0C86.4,22.1,88.7,22.1,90.5,22.2z M84.3,16.1c0.1,1.6,0.1,3.5-0.1,4.7c0,0-0.1,0-0.1,0.1c-0.1,0.1-0.3,0.1-0.4,0.2   c-0.1,0-0.1,0.1-0.2,0.1c-0.1,0.1-0.3,0.2-0.4,0.3c0,0,0,0-0.1,0.1c-0.2,0.1-0.3,0.3-0.4,0.4c0,0-0.1,0.1-0.1,0.1   c-0.1,0.1-0.2,0.2-0.3,0.3c0,0,0,0-0.1,0.1c-0.2-0.1-0.5-0.2-0.8-0.3c0-0.2,0-0.5,0-0.7c0,0,0-0.1,0-0.1c0-0.3,0-0.6-0.1-0.9   c0,0,0-0.1,0-0.1c-0.1-0.2-0.1-0.5-0.2-0.7C81.7,18.6,83.1,17.2,84.3,16.1z M75.6,16.1c1.3,1.2,3,2.8,3.5,3.8c0,0,0,0.1,0.1,0.1   c0.1,0.2,0.1,0.4,0.2,0.6c0,0.1,0,0.1,0,0.2c0,0.1,0,0.3,0.1,0.4c0,0.1,0,0.1,0,0.2c0,0.2,0,0.3,0,0.5c0,0,0,0,0,0c0,0,0,0,0,0   c-0.4,0.1-0.8,0.2-1.2,0.3c-0.4,0.2-0.7,0.4-1,0.6c0,0,0,0,0,0c0,0,0,0,0,0c-0.1-0.1-0.3-0.2-0.4-0.3c0,0,0,0-0.1-0.1   c-0.1-0.1-0.3-0.3-0.4-0.5c0,0,0,0,0,0c-0.1-0.2-0.2-0.4-0.3-0.6c0,0,0-0.1,0-0.1C75.5,20.2,75.5,17.9,75.6,16.1z M69.5,22.3   c1.6-0.1,3.6-0.1,4.7,0.1c0,0,0,0.1,0.1,0.1c0.1,0.1,0.1,0.2,0.2,0.4c0,0.1,0.1,0.1,0.1,0.2c0.1,0.1,0.2,0.3,0.3,0.4   c0,0,0,0.1,0.1,0.1c0.1,0.2,0.3,0.3,0.4,0.4c0,0,0.1,0.1,0.1,0.1c0.1,0.1,0.2,0.2,0.3,0.3c0,0,0,0,0.1,0.1   c-0.1,0.2-0.2,0.5-0.3,0.7c-0.2,0-0.5,0-0.7,0c0,0-0.1,0-0.1,0c-0.3,0-0.6,0-0.9,0.1c0,0-0.1,0-0.1,0c-0.3,0.1-0.5,0.1-0.8,0.2   C72,24.8,70.6,23.4,69.5,22.3z M69.5,30.9c1.2-1.3,2.8-2.9,3.8-3.4c0,0,0.1,0,0.1-0.1c0,0,0,0,0,0c0,0,0,0,0,0   c0.2-0.1,0.4-0.1,0.6-0.2c0.1,0,0.1,0,0.2,0c0.1,0,0.3,0,0.4,0c0.1,0,0.1,0,0.2,0c0.2,0,0.3,0,0.5,0c0,0,0,0,0.1,0c0,0,0,0,0,0   c0.1,0.4,0.2,0.8,0.3,1.1c0.2,0.4,0.4,0.7,0.6,1c0,0,0,0,0,0c0,0,0,0,0,0c-0.1,0.1-0.2,0.3-0.3,0.4c0,0-0.1,0.1-0.1,0.1   c-0.1,0.1-0.2,0.2-0.3,0.3c0,0-0.1,0.1-0.1,0.1c-0.2,0.1-0.4,0.2-0.6,0.3c0,0-0.1,0-0.1,0C73.6,30.9,71.4,30.9,69.5,30.9z M75.7,37   c-0.1-1.6-0.1-3.5,0.1-4.7c0,0,0.1,0,0.1-0.1c0.1-0.1,0.3-0.1,0.4-0.2c0.1,0,0.1-0.1,0.2-0.1c0.2-0.1,0.3-0.2,0.4-0.3   c0,0,0,0,0.1,0c0.2-0.1,0.3-0.3,0.4-0.4c0,0,0.1-0.1,0.1-0.1c0.1-0.1,0.2-0.2,0.3-0.3c0,0,0,0,0.1-0.1c0.2,0.1,0.5,0.2,0.8,0.3   c0,0.2,0,0.5,0,0.7c0,0,0,0.1,0,0.1c0,0.3,0,0.6,0.1,0.9c0,0.1,0,0.1,0,0.2c0.1,0.2,0.1,0.5,0.2,0.7C78.3,34.5,76.9,35.9,75.7,37z    M66,44.6c2.1,1.1,6.2,3.5,8,6.5c1.9,3.1,0.7,6.1,0.1,7.1c-1.2,0-4.3-0.3-6.2-3.5C66.1,51.7,66,46.9,66,44.6z M56,49.9L56,49.9   c1.8-3,5.8-5.4,7.9-6.5c0,2.4-0.1,7.1-1.9,10.1C60.1,56.7,57,57,55.8,57C55.3,56,54.1,53,56,49.9z M55.4,59c0.1,0,0.2,0,0.4,0   c1.5,0,5.5-0.4,7.9-4.4c0.5-0.8,0.8-1.6,1.1-2.6c0.3,1.3,0.8,2.6,1.5,3.7c2.4,4,6.4,4.4,8,4.4c0.2,0,0.3,0,0.4,0l4.4,3.5v4.6   c-2-1.4-4.4-2.2-7-2.2c-5.8,0-10.7,4.1-11.8,9.5c-1.2-0.5-2.5-0.7-3.8-0.7C54.3,75,52.4,76,51,77.6V62.5L55.4,59z M48.2,28.4   C48.2,28.4,48.2,28.4,48.2,28.4C48.2,28.4,48.2,28.4,48.2,28.4c-0.1-0.1-0.1-0.1-0.1-0.1c-0.2-0.2-0.4-0.5-0.5-0.8   c-0.1-0.3-0.2-0.6-0.2-0.9c0,0,0,0,0-0.1c0,0,0,0,0,0c0,0,0,0,0-0.1c0-0.6,0.3-1.2,0.7-1.7c0,0,0,0,0-0.1c0,0,0,0,0,0c0,0,0,0,0,0   c0.2-0.2,0.5-0.4,0.8-0.5c0.3-0.1,0.6-0.2,0.9-0.2c0,0,0,0,0.1,0c0,0,0,0,0,0c0,0,0,0,0.1,0c0.6,0,1.2,0.3,1.7,0.7c0,0,0,0,0,0   c0,0,0,0,0,0c0,0,0,0,0,0c0.2,0.2,0.4,0.5,0.5,0.8c0.1,0.3,0.2,0.6,0.2,0.9c0,0,0,0,0,0.1c0,0,0,0,0,0c0,0,0,0,0,0.1   c0,0.6-0.3,1.2-0.7,1.7c0,0,0,0,0,0.1c0,0,0,0,0,0c0,0,0,0,0,0c-0.2,0.2-0.5,0.4-0.8,0.5c-0.3,0.1-0.6,0.2-0.9,0.2c0,0,0,0-0.1,0   c0,0,0,0,0,0c0,0,0,0-0.1,0C49.3,29.1,48.7,28.9,48.2,28.4z M54.4,36.9c-1.3-1.2-2.9-2.8-3.4-3.8c0,0,0-0.1-0.1-0.1   c-0.1-0.2-0.1-0.4-0.2-0.6c0-0.1,0-0.1,0-0.2c0-0.1,0-0.3-0.1-0.4c0-0.1,0-0.1,0-0.2c0-0.2,0-0.3,0-0.5c0,0,0,0,0,0c0,0,0,0,0,0   c0.4-0.1,0.8-0.2,1.1-0.3c0.4-0.2,0.7-0.4,1-0.6c0,0,0,0,0,0c0,0,0,0,0,0c0.1,0.1,0.3,0.2,0.4,0.4c0,0,0,0.1,0.1,0.1   c0.1,0.1,0.3,0.3,0.4,0.5c0,0,0,0,0,0c0.1,0.2,0.2,0.4,0.3,0.6l0,0.1C54.4,32.8,54.4,35.1,54.4,36.9z M60.4,30.8   c-1.6,0.1-3.5,0.1-4.7-0.1c0,0,0-0.1-0.1-0.1c-0.1-0.1-0.1-0.2-0.2-0.4c0-0.1-0.1-0.1-0.1-0.2c-0.1-0.1-0.2-0.3-0.3-0.4   c0,0,0,0-0.1-0.1c-0.1-0.2-0.3-0.3-0.4-0.4c0,0-0.1-0.1-0.1-0.1c-0.1-0.1-0.2-0.2-0.3-0.3c0,0,0,0-0.1-0.1c0.1-0.2,0.2-0.5,0.3-0.7   c0.2,0,0.4,0,0.7,0c0,0,0,0,0,0c0,0,0.1,0,0.1,0c0.3,0,0.6,0,0.9-0.1c0.1,0,0.1,0,0.2,0c0.2-0.1,0.5-0.1,0.7-0.2   C57.9,28.3,59.3,29.6,60.4,30.8z M60.4,22.2c-1.2,1.3-2.8,2.9-3.8,3.4c0,0-0.1,0-0.1,0.1c0,0,0,0,0,0c-0.2,0.1-0.4,0.1-0.6,0.2   c-0.1,0-0.1,0-0.2,0c-0.1,0-0.3,0-0.4,0.1c-0.1,0-0.1,0-0.2,0c-0.2,0-0.3,0-0.5,0c0,0,0,0,0,0c0,0,0,0,0,0   c-0.1-0.4-0.2-0.8-0.3-1.1c-0.2-0.4-0.4-0.7-0.6-1c0,0,0,0,0,0c0,0,0,0,0,0c0.1-0.1,0.2-0.3,0.4-0.4c0,0,0,0,0.1-0.1   c0.1-0.1,0.3-0.3,0.5-0.4c0,0,0,0,0,0c0.2-0.1,0.4-0.2,0.6-0.3c0,0,0.1,0,0.1,0C56.3,22.1,58.6,22.1,60.4,22.2z M54.3,16.1   c0.1,1.6,0.1,3.5-0.1,4.7c0,0-0.1,0-0.1,0.1c-0.1,0.1-0.2,0.1-0.4,0.2c-0.1,0-0.1,0.1-0.2,0.1c-0.1,0.1-0.3,0.2-0.4,0.3   c0,0,0,0-0.1,0.1c-0.2,0.1-0.3,0.3-0.4,0.4c0,0-0.1,0.1-0.1,0.1c-0.1,0.1-0.2,0.2-0.3,0.3c0,0,0,0-0.1,0.1   c-0.2-0.1-0.5-0.2-0.7-0.3c0-0.2,0-0.5,0-0.7c0,0,0-0.1,0-0.1c0-0.3,0-0.6-0.1-0.9c0-0.1,0-0.1,0-0.2c-0.1-0.2-0.1-0.5-0.2-0.7   C51.7,18.6,53.1,17.2,54.3,16.1z M45.6,16.2c1.3,1.2,2.9,2.8,3.4,3.8c0,0,0,0.1,0.1,0.1c0.1,0.2,0.1,0.4,0.2,0.6c0,0.1,0,0.1,0,0.2   c0,0.1,0,0.3,0.1,0.4c0,0.1,0,0.1,0,0.2c0,0.2,0,0.4,0,0.5c0,0,0,0,0,0c0,0,0,0,0,0c-0.4,0.1-0.8,0.2-1.1,0.3   c-0.4,0.2-0.7,0.4-1,0.6c0,0,0,0,0,0c0,0,0,0,0,0c-0.1-0.1-0.3-0.2-0.4-0.4c0,0,0,0-0.1-0.1c-0.1-0.1-0.3-0.3-0.4-0.5c0,0,0,0,0,0   c-0.1-0.2-0.2-0.4-0.3-0.6c0,0,0-0.1,0-0.1C45.6,20.2,45.6,18,45.6,16.2z M39.6,22.3c1.6-0.1,3.5-0.1,4.7,0.1c0,0,0,0.1,0.1,0.1   c0.1,0.1,0.1,0.2,0.2,0.4c0,0.1,0.1,0.1,0.1,0.2c0.1,0.1,0.2,0.3,0.3,0.4c0,0,0,0,0.1,0.1c0.1,0.2,0.3,0.3,0.4,0.4   c0,0,0.1,0.1,0.1,0.1c0.1,0.1,0.2,0.2,0.3,0.3c0,0,0,0,0.1,0.1c-0.1,0.2-0.2,0.5-0.3,0.7c-0.2,0-0.5,0-0.7,0c0,0-0.1,0-0.1,0   c-0.3,0-0.6,0-0.9,0.1c0,0-0.1,0-0.1,0c-0.2,0.1-0.5,0.1-0.7,0.2C42.1,24.8,40.7,23.4,39.6,22.3z M39.6,30.9   c1.2-1.3,2.8-2.9,3.8-3.4c0,0,0.1,0,0.1-0.1c0.2-0.1,0.4-0.1,0.6-0.2c0.1,0,0.1,0,0.2,0c0.1,0,0.3,0,0.4-0.1c0.1,0,0.1,0,0.2,0   c0.2,0,0.3,0,0.5,0c0,0,0,0,0,0c0,0,0,0,0,0c0.1,0.4,0.2,0.8,0.3,1.1c0.2,0.4,0.4,0.7,0.6,1c0,0,0,0,0,0c0,0,0,0,0,0   c-0.1,0.1-0.2,0.3-0.3,0.4c0,0-0.1,0.1-0.1,0.1c-0.1,0.1-0.2,0.2-0.3,0.3c0,0-0.1,0.1-0.1,0.1c-0.2,0.1-0.3,0.2-0.5,0.3   c0,0,0,0,0,0c0,0-0.1,0-0.1,0C43.7,30.9,41.4,30.9,39.6,30.9z M45.7,36.9c-0.1-1.6-0.1-3.5,0.1-4.7c0,0,0.1,0,0.1-0.1   c0.1-0.1,0.2-0.1,0.4-0.2c0.1,0,0.1-0.1,0.2-0.1c0.1-0.1,0.3-0.2,0.4-0.3c0,0,0.1,0,0.1-0.1c0.2-0.1,0.3-0.3,0.4-0.4   c0,0,0.1-0.1,0.1-0.1c0.1-0.1,0.2-0.2,0.3-0.3c0,0,0,0,0.1-0.1c0.2,0.1,0.5,0.2,0.7,0.3c0,0.2,0,0.5,0,0.7c0,0,0,0.1,0,0.1   c0,0.3,0,0.6,0.1,0.9c0,0,0,0.1,0,0.1c0.1,0.2,0.1,0.5,0.2,0.7C48.3,34.5,46.9,35.9,45.7,36.9z M36.1,49.4c2.1,1.1,6.1,3.5,7.9,6.5   c1.9,3.1,0.7,6.1,0.1,7.1c-1.2,0-4.3-0.4-6.1-3.5C36.3,56.6,36.1,51.8,36.1,49.4z M26,49.9c1.8-3,5.9-5.4,8-6.5   c0,2.4-0.1,7.1-1.9,10.1c-1.9,3.1-5,3.5-6.2,3.5C25.3,56,24.1,53,26,49.9z M25.4,59c0.1,0,0.2,0,0.4,0c1.6,0,5.6-0.4,8-4.4   c0.2-0.3,0.4-0.7,0.5-1c0.3,2.4,0.8,5,2,7c2.4,4,6.4,4.4,7.9,4.4c0.2,0,0.3,0,0.4,0l4.4,3.5v12.1c-1.4-1.6-3.3-2.6-5.5-2.8   c-1.3-0.1-2.6,0.1-3.8,0.7C38.7,73,33.8,69,28,69c-2.6,0-5,0.8-7,2.2v-8.7L25.4,59z M18.2,28.4C18.2,28.4,18.2,28.4,18.2,28.4   C18.1,28.4,18.1,28.4,18.2,28.4c-0.1-0.1-0.1-0.1-0.1-0.1c-0.2-0.2-0.4-0.5-0.5-0.8s-0.2-0.6-0.2-0.9c0,0,0,0,0-0.1c0,0,0,0,0,0   c0,0,0,0,0-0.1c0-0.6,0.3-1.2,0.7-1.7c0,0,0,0,0-0.1c0,0,0,0,0,0c0,0,0,0,0,0c0.2-0.2,0.5-0.4,0.8-0.5c0.3-0.1,0.6-0.2,0.9-0.2   c0,0,0,0,0.1,0c0,0,0,0,0.1,0c0,0,0,0,0.1,0c0.6,0,1.3,0.3,1.7,0.7c0,0,0,0,0,0c0,0,0,0,0,0c0,0,0,0,0,0c0.2,0.2,0.4,0.5,0.5,0.8   c0.1,0.3,0.2,0.6,0.2,0.9c0,0,0,0,0,0.1c0,0,0,0,0,0c0,0,0,0,0,0.1c0,0.6-0.3,1.2-0.7,1.7c0,0,0,0,0,0.1c0,0,0,0,0,0c0,0,0,0,0,0   c-0.2,0.2-0.5,0.4-0.8,0.5c-0.3,0.1-0.6,0.2-0.9,0.2c0,0,0,0-0.1,0c0,0,0,0,0,0c0,0,0,0-0.1,0C19.3,29.1,18.7,28.9,18.2,28.4z    M24.4,36.9c-1.3-1.2-3-2.8-3.5-3.8c0,0,0-0.1-0.1-0.1c-0.1-0.2-0.1-0.4-0.2-0.6c0-0.1,0-0.1,0-0.2c0-0.1,0-0.3-0.1-0.4   c0-0.1,0-0.1,0-0.2c0-0.2,0-0.3,0-0.5c0,0,0,0,0,0c0,0,0,0,0,0c0.4-0.1,0.8-0.2,1.2-0.3c0.4-0.2,0.7-0.4,1-0.6c0,0,0,0,0,0   c0,0,0,0,0,0c0.1,0.1,0.3,0.2,0.4,0.4c0,0,0,0,0.1,0.1c0.1,0.1,0.3,0.3,0.4,0.5c0,0,0,0,0,0c0.1,0.2,0.2,0.4,0.3,0.6   c0,0,0,0.1,0,0.1C24.5,32.8,24.5,35.1,24.4,36.9z M30.5,30.8c-1.6,0.1-3.6,0.1-4.7-0.1c0,0,0-0.1-0.1-0.1c-0.1-0.1-0.1-0.2-0.2-0.4   c0-0.1-0.1-0.1-0.1-0.2c-0.1-0.1-0.2-0.3-0.3-0.4c0,0,0-0.1-0.1-0.1c-0.1-0.2-0.3-0.3-0.4-0.4c0,0-0.1-0.1-0.1-0.1   c-0.1-0.1-0.2-0.2-0.3-0.3c0,0,0,0-0.1-0.1c0.1-0.2,0.2-0.5,0.3-0.7c0.2,0,0.5,0,0.7,0c0,0,0,0,0,0c0,0,0.1,0,0.1,0   c0.3,0,0.6,0,0.9-0.1c0.1,0,0.1,0,0.2,0c0.3-0.1,0.5-0.1,0.8-0.2C28,28.3,29.4,29.6,30.5,30.8z M30.5,22.2   c-1.2,1.3-2.8,2.9-3.8,3.4c0,0-0.1,0-0.1,0.1c0,0,0,0,0,0c-0.2,0.1-0.4,0.1-0.6,0.2c-0.1,0-0.1,0-0.2,0c-0.1,0-0.3,0-0.4,0.1   c-0.1,0-0.1,0-0.2,0c-0.2,0-0.4,0-0.5,0c0,0,0,0,0,0c0,0,0,0,0,0c-0.1-0.4-0.2-0.8-0.3-1.1c-0.2-0.4-0.4-0.7-0.6-1c0,0,0,0,0,0   c0,0,0,0,0,0c0.1-0.2,0.2-0.3,0.4-0.4c0,0,0,0,0.1-0.1c0.1-0.1,0.3-0.3,0.5-0.4c0,0,0,0,0,0c0.2-0.1,0.4-0.2,0.6-0.3   c0,0,0.1,0,0.1,0C26.4,22.1,28.6,22.1,30.5,22.2z M24.3,16.1c0.1,1.6,0.1,3.5-0.1,4.7c0,0-0.1,0-0.1,0.1c-0.1,0.1-0.3,0.1-0.4,0.2   c-0.1,0-0.1,0.1-0.2,0.1c-0.1,0.1-0.3,0.2-0.4,0.3c0,0,0,0-0.1,0.1c-0.2,0.1-0.3,0.3-0.4,0.4c0,0-0.1,0.1-0.1,0.1   c-0.1,0.1-0.2,0.2-0.3,0.3c0,0,0,0-0.1,0.1c-0.2-0.1-0.5-0.2-0.8-0.3c0-0.2,0-0.5,0-0.7c0,0,0-0.1,0-0.1c0-0.3,0-0.6-0.1-0.9   c0,0,0-0.1,0-0.1c-0.1-0.2-0.1-0.5-0.2-0.7C21.7,18.6,23.1,17.2,24.3,16.1z M15.6,16.1c1.3,1.2,3,2.8,3.5,3.8c0,0,0,0.1,0.1,0.1   c0.1,0.2,0.1,0.4,0.2,0.6c0,0.1,0,0.1,0,0.2c0,0.1,0,0.3,0.1,0.4c0,0.1,0,0.1,0,0.2c0,0.2,0,0.3,0,0.5c0,0,0,0,0,0c0,0,0,0,0,0   c-0.4,0.1-0.8,0.2-1.2,0.3c-0.4,0.2-0.7,0.4-1,0.6c0,0,0,0,0,0c0,0,0,0,0,0c-0.1-0.1-0.3-0.2-0.4-0.3c0,0,0,0-0.1-0.1   c-0.1-0.1-0.3-0.3-0.4-0.5c0,0,0,0,0,0c-0.1-0.2-0.2-0.4-0.3-0.6c0,0,0-0.1,0-0.1C15.5,20.2,15.5,17.9,15.6,16.1z M9.5,22.3   c1.6-0.1,3.6-0.1,4.7,0.1c0,0,0,0.1,0.1,0.1c0.1,0.1,0.1,0.2,0.2,0.4c0,0.1,0.1,0.1,0.1,0.2c0.1,0.1,0.2,0.3,0.3,0.4   c0,0,0,0.1,0.1,0.1c0.1,0.2,0.3,0.3,0.4,0.4c0,0,0.1,0.1,0.1,0.1c0.1,0.1,0.2,0.2,0.3,0.3c0,0,0,0,0.1,0.1   c-0.1,0.2-0.2,0.5-0.3,0.7c-0.2,0-0.5,0-0.7,0c0,0-0.1,0-0.1,0c-0.3,0-0.6,0-0.9,0.1c0,0-0.1,0-0.1,0c-0.3,0.1-0.5,0.1-0.8,0.2   C12,24.8,10.6,23.4,9.5,22.3z M9.5,30.9c1.2-1.3,2.8-2.9,3.8-3.4c0,0,0.1,0,0.1-0.1c0,0,0,0,0,0c0,0,0,0,0,0   c0.2-0.1,0.4-0.1,0.6-0.2c0.1,0,0.1,0,0.2,0c0.1,0,0.3,0,0.4,0c0.1,0,0.1,0,0.2,0c0.2,0,0.3,0,0.5,0c0,0,0,0,0.1,0c0,0,0,0,0,0   c0.1,0.4,0.2,0.8,0.3,1.1c0.2,0.4,0.4,0.7,0.6,1c0,0,0,0,0,0c0,0,0,0,0,0c-0.1,0.1-0.2,0.3-0.3,0.4c0,0-0.1,0.1-0.1,0.1   c-0.1,0.1-0.2,0.2-0.3,0.3c0,0-0.1,0.1-0.1,0.1c-0.2,0.1-0.4,0.2-0.6,0.3c0,0-0.1,0-0.1,0C13.6,30.9,11.4,30.9,9.5,30.9z M15.7,37   c-0.1-1.6-0.1-3.5,0.1-4.7c0,0,0.1,0,0.1-0.1c0.1-0.1,0.3-0.1,0.4-0.2c0.1,0,0.1-0.1,0.2-0.1c0.2-0.1,0.3-0.2,0.4-0.3   c0,0,0,0,0.1,0c0.2-0.1,0.3-0.3,0.4-0.4c0,0,0.1-0.1,0.1-0.1c0.1-0.1,0.2-0.2,0.3-0.3c0,0,0,0,0.1-0.1c0.2,0.1,0.5,0.2,0.8,0.3   c0,0.2,0,0.5,0,0.7c0,0,0,0.1,0,0.1c0,0.3,0,0.6,0.1,0.9c0,0.1,0,0.1,0,0.2c0.1,0.2,0.1,0.5,0.2,0.7C18.3,34.5,16.9,35.9,15.7,37z    M6,85c0-3.9,2.8-7.4,6.6-8c1.6-0.3,3.3-0.1,4.8,0.6c0.2,0.1,0.5,0.1,0.8,0s0.5-0.3,0.6-0.5c1.5-3.7,5.2-6.1,9.3-6.1   c5.3,0,9.6,4,10,9.2c0,0.4,0.2,0.7,0.6,0.8c0.3,0.2,0.7,0.1,1-0.1c1.1-0.8,2.5-1.2,3.9-1.1c2.8,0.2,5.1,2.4,5.5,5.2H6z M94,85H51   v-2c0-3.3,2.5-6,5.6-6.2c1.4-0.1,2.7,0.3,3.9,1.1c0.3,0.2,0.7,0.2,1,0.1s0.5-0.5,0.6-0.8C62.4,72,66.7,68,72,68   c4.1,0,7.7,2.4,9.3,6.1c0.1,0.3,0.3,0.5,0.6,0.5c0.3,0.1,0.5,0.1,0.8,0c1.5-0.7,3.2-0.9,4.8-0.6c3.8,0.6,6.6,4.1,6.6,8.1V85z"/>
</g>
<g id="fance"/>
<g id="floral"/>
<g id="sunflower"/>
<g id="sprinkle"/>
<g id="water_hose"/>
<g id="planting"/>
<g id="fertilizer"/>
<g id="bee"/>
<g id="butterfly"/>
<g id="shovel"/>
<g id="ladybug"/>
<g id="watering"/>
<g id="hanging_pot"/>
<g id="green_house"/>
</svg>