<svg id="Layer_1" data-name="Layer 1" xmlns="http://www.w3.org/2000/svg" viewBox="0 0 100 100"><path d="M95,92.94a18.82,18.82,0,0,0-7.35-6.53v-.1c-.34-6.74-.92-13.46-1.74-20-.6-4.84-1.37-9.9-2.29-15-.92-5-2-10.08-3.26-15.2-.85-3.53-1.82-7.15-2.85-10.72,7-2.88,15.15,3.77,15.24,3.85a1.49,1.49,0,0,0,1.76.12,1.51,1.51,0,0,0,.66-1.65c-3-11.8-11.24-12.91-14.22-12.91h-.06a.76.76,0,0,1,0-.15c.19-1.87,4.1-5.17,6.81-6.91A1.51,1.51,0,0,0,87.06,5c-13-1.4-17.06,6.16-18.25,9.61A11.29,11.29,0,0,0,59.17,16C53.09,20.45,53,30.94,53,31.39a1.5,1.5,0,0,0,1.2,1.47,1.1,1.1,0,0,0,.31,0A1.52,1.52,0,0,0,55.9,32c2.69-6.14,8.05-6.52,12.27-5.66.57,3.05,1.1,6.18,1.61,9.53.75,5.08,1.37,10.12,1.83,15,.28,3,.5,5.91.69,8.83A60.6,60.6,0,0,1,50,63.57,60.6,60.6,0,0,1,27.7,59.7c.19-2.93.41-5.89.69-8.84.46-4.87,1.08-9.91,1.83-15,.51-3.36,1-6.49,1.61-9.54,4.22-.86,9.58-.48,12.27,5.66a1.52,1.52,0,0,0,1.38.9,1.1,1.1,0,0,0,.31,0A1.5,1.5,0,0,0,47,31.39c0-.45-.07-10.94-6.16-15.36a11.25,11.25,0,0,0-9.64-1.47C30,11.11,25.87,3.56,12.94,5a1.51,1.51,0,0,0-.65,2.77c2.71,1.74,6.62,5,6.81,6.91a.76.76,0,0,1,0,.15h-.06c-3,0-11.2,1.11-14.22,12.91a1.51,1.51,0,0,0,.66,1.65,1.49,1.49,0,0,0,1.76-.12c.09-.07,8.26-6.73,15.24-3.85-1,3.61-2,7.22-2.85,10.72-1.24,5.08-2.33,10.2-3.26,15.22s-1.66,9.95-2.29,15c-.82,6.52-1.4,13.24-1.74,20v.09A18.87,18.87,0,0,0,5,92.93a1.51,1.51,0,0,0,1.29,2.29H34.93a1.51,1.51,0,0,0,1.36-.86,1.49,1.49,0,0,0-.19-1.59,24.71,24.71,0,0,0-8.73-6.49c-.12-3.41-.19-6.75-.19-9.93,0-1.81,0-3.55.05-5.23,3.07,5.82,9.45,12,22.77,12s19.7-6.22,22.77-12c0,1.68,0,3.41,0,5.23,0,3.17-.07,6.5-.19,9.93a24.75,24.75,0,0,0-8.74,6.49,1.51,1.51,0,0,0,1.18,2.45H93.71A1.5,1.5,0,0,0,95,94.45,1.49,1.49,0,0,0,95,92.94ZM84.57,85.26a16.93,16.93,0,0,0-4.42-.59,18.2,18.2,0,0,0-4.47.57c.09-3,.15-6,.15-8.89,0-3.23,0-6.2-.15-9a33.05,33.05,0,0,1,7.36.52C83.74,73.53,84.25,79.38,84.57,85.26ZM80.83,52.89c.7,4,1.3,8,1.81,11.81a35.74,35.74,0,0,0-7.08-.42c0-.64,0-1.29-.09-1.94l-.09-1.74h0v0c-.16-2.76-.38-5.56-.63-8.35A38.87,38.87,0,0,1,80.83,52.89Zm-3.18-15.1c1,4,1.82,8,2.58,11.93a39.91,39.91,0,0,0-5.77-.52c-.39-3.93-.88-8-1.46-12A40.5,40.5,0,0,1,77.65,37.79Zm-20.87-12A12.59,12.59,0,0,1,61,18.46a7.22,7.22,0,0,1,4.36-1.32,13.16,13.16,0,0,1,4.08.72,1.51,1.51,0,0,0,1.26-.15,1.55,1.55,0,0,0,.7-1.07c.05-.36,1.31-8.07,11.13-8.79C80.37,9.64,78.13,12,77.9,14.32A3.65,3.65,0,0,0,79,17.41a1.5,1.5,0,0,0,1.28.41c.31-.05,6.73-.92,10.43,6.47-4.22-2.32-11.11-4.68-17.12-.18a1.55,1.55,0,0,1-1.44.23C69.58,23.41,62.1,21.33,56.78,25.77ZM9.27,24.28C13,17,19.39,17.77,19.69,17.82A1.5,1.5,0,0,0,21,17.41a3.65,3.65,0,0,0,1.13-3.09c-.23-2.27-2.46-4.67-4.57-6.46,9.74.74,11.07,8.42,11.12,8.78a1.55,1.55,0,0,0,.7,1.07,1.51,1.51,0,0,0,1.26.15c3.48-1.13,6.32-.93,8.44.6a12.59,12.59,0,0,1,4.17,7.31A12.56,12.56,0,0,0,35,23a22.23,22.23,0,0,0-7.18,1.31,1.55,1.55,0,0,1-1.44-.23C20.38,19.62,13.49,22,9.27,24.28Zm13.08,13.5A42.82,42.82,0,0,1,27,37.19c-.58,4.06-1.07,8.08-1.46,12a39.91,39.91,0,0,0-5.77.52C20.54,45.76,21.39,41.77,22.35,37.78Zm-3.17,15.1a39.82,39.82,0,0,1,6.07-.66c-.25,2.79-.47,5.59-.63,8.36l-.09,1.76c0,.65-.06,1.3-.09,1.94a36.5,36.5,0,0,0-7.08.41C17.89,60.71,18.49,56.75,19.18,52.88ZM17,67.81a33.65,33.65,0,0,1,7.36-.51c-.1,2.86-.15,5.83-.15,9,0,2.87.06,5.87.15,8.89a18.2,18.2,0,0,0-4.47-.57,16.93,16.93,0,0,0-4.42.59C15.75,79.38,16.26,73.52,17,67.81ZM31.23,92.2H9.43a14.51,14.51,0,0,1,10.42-4.52A18.24,18.24,0,0,1,31.23,92.2Zm-8.1-57.61q1-3.8,2.07-7.71a4.52,4.52,0,0,0,3.4.35c-.4,2.23-.79,4.53-1.16,6.93A41.65,41.65,0,0,0,23.13,34.59ZM50,80.15c-17.5,0-21.47-11.57-22.37-17.25A65.3,65.3,0,0,0,50,66.58,65.3,65.3,0,0,0,72.37,62.9C71.47,68.58,67.5,80.15,50,80.15Zm22.56-46c-.37-2.4-.76-4.7-1.16-6.93a4.47,4.47,0,0,0,3.4-.35q1.11,3.89,2.07,7.71A41.65,41.65,0,0,0,72.56,34.16Zm13.61,58H68.75a18.23,18.23,0,0,1,11.4-4.52A14.51,14.51,0,0,1,90.57,92.2Z"/></svg>