<?xml version="1.0" encoding="utf-8"?>
<!-- Generator: Adobe Illustrator 25.2.0, SVG Export Plug-In . SVG Version: 6.00 Build 0)  -->
<svg version="1.1" id="Layer_1" xmlns="http://www.w3.org/2000/svg" xmlns:xlink="http://www.w3.org/1999/xlink" x="0px" y="0px"
	 viewBox="0 0 100 100" style="enable-background:new 0 0 100 100;" xml:space="preserve">
<path d="M25.3,70l3.1-1.8c1.4-0.8,3.1-0.8,4.4,0l2.9,1.7c1.4,0.8,2.9,1.3,4.5,1.3c1.6,0,3.1-0.4,4.5-1.2l3.1-1.8
	c1.4-0.8,3.1-0.8,4.4,0l2.9,1.7c2.8,1.7,6.2,1.7,9,0l3.1-1.8c1.4-0.8,3.1-0.8,4.4,0l2.9,1.7c2.8,1.7,6.2,1.7,9,0l3.1-1.8l-2.3-3.8
	l-3.1,1.9c-1.4,0.8-3.1,0.8-4.4,0l-2.9-1.7c-2.3-1.4-5.1-1.7-7.6-0.7V29.6c0-4.2,3.4-7.5,7.5-7.5h3.8v-4.5h-3.8c-6.6,0-12,5.4-12,12
	v3.7H43.1v-3.7c0-4.2,3.4-7.5,7.5-7.5h3.8v-4.5h-3.8c-6.6,0-12,5.4-12,12v36.8c-0.2-0.1-0.4-0.2-0.6-0.3l-2.9-1.7
	c-2.8-1.7-6.2-1.7-9-0.1L23,66.1c-1.4,0.8-3.1,0.8-4.4,0l-2.9-1.7l-2.3,3.8l2.9,1.7C19.1,71.6,22.5,71.6,25.3,70z M57.4,66.1
	l-2.9-1.7c-2.8-1.7-6.2-1.7-9-0.1l-2.4,1.4V53.6h18.7v12.5C60.4,66.9,58.7,66.9,57.4,66.1z M61.8,37.7v11.5H43.1V37.7H61.8z
	 M25.3,81.2l3.1-1.8c1.4-0.8,3.1-0.8,4.4,0l2.9,1.7c2.8,1.7,6.2,1.7,9,0l3.1-1.8c1.4-0.8,3.1-0.8,4.4,0l2.9,1.7c2.8,1.7,6.2,1.7,9,0
	l3.1-1.8c1.4-0.8,3.1-0.8,4.4,0l2.9,1.7c2.8,1.7,6.2,1.7,9,0l3.1-1.8l-2.3-3.8l-3.2,2c-1.4,0.8-3.1,0.8-4.4,0l-2.9-1.8
	c-2.8-1.6-6.2-1.6-9,0l-3.1,1.8c-1.4,0.8-3.1,0.8-4.4,0l-2.9-1.8c-2.8-1.7-6.2-1.7-9,0l-3.1,1.8c-1.4,0.8-3.1,0.8-4.4,0l-2.9-1.8
	c-2.8-1.6-6.2-1.6-9,0L23,77.4c-1.4,0.8-3.1,0.8-4.4,0l-2.9-1.7l-2.3,3.8l2.9,1.7C19.1,82.9,22.5,82.9,25.3,81.2z M25.3,70l3.1-1.8
	c1.4-0.8,3.1-0.8,4.4,0l2.9,1.7c1.4,0.8,2.9,1.3,4.5,1.3c1.6,0,3.1-0.4,4.5-1.2l3.1-1.8c1.4-0.8,3.1-0.8,4.4,0l2.9,1.7
	c2.8,1.7,6.2,1.7,9,0l3.1-1.8c1.4-0.8,3.1-0.8,4.4,0l2.9,1.7c2.8,1.7,6.2,1.7,9,0l3.1-1.8l-2.3-3.8l-3.1,1.9c-1.4,0.8-3.1,0.8-4.4,0
	l-2.9-1.7c-2.3-1.4-5.1-1.7-7.6-0.7V29.6c0-4.2,3.4-7.5,7.5-7.5h3.8v-4.5h-3.8c-6.6,0-12,5.4-12,12v3.7H43.1v-3.7
	c0-4.2,3.4-7.5,7.5-7.5h3.8v-4.5h-3.8c-6.6,0-12,5.4-12,12v36.8c-0.2-0.1-0.4-0.2-0.6-0.3l-2.9-1.7c-2.8-1.7-6.2-1.7-9-0.1L23,66.1
	c-1.4,0.8-3.1,0.8-4.4,0l-2.9-1.7l-2.3,3.8l2.9,1.7C19.1,71.6,22.5,71.6,25.3,70z M57.4,66.1l-2.9-1.7c-2.8-1.7-6.2-1.7-9-0.1
	l-2.4,1.4V53.6h18.7v12.5C60.4,66.9,58.7,66.9,57.4,66.1z M61.8,37.7v11.5H43.1V37.7H61.8z M25.3,81.2l3.1-1.8
	c1.4-0.8,3.1-0.8,4.4,0l2.9,1.7c2.8,1.7,6.2,1.7,9,0l3.1-1.8c1.4-0.8,3.1-0.8,4.4,0l2.9,1.7c2.8,1.7,6.2,1.7,9,0l3.1-1.8
	c1.4-0.8,3.1-0.8,4.4,0l2.9,1.7c2.8,1.7,6.2,1.7,9,0l3.1-1.8l-2.3-3.8l-3.2,2c-1.4,0.8-3.1,0.8-4.4,0l-2.9-1.8c-2.8-1.6-6.2-1.6-9,0
	l-3.1,1.8c-1.4,0.8-3.1,0.8-4.4,0l-2.9-1.8c-2.8-1.7-6.2-1.7-9,0l-3.1,1.8c-1.4,0.8-3.1,0.8-4.4,0l-2.9-1.8c-2.8-1.6-6.2-1.6-9,0
	L23,77.4c-1.4,0.8-3.1,0.8-4.4,0l-2.9-1.7l-2.3,3.8l2.9,1.7C19.1,82.9,22.5,82.9,25.3,81.2z"/>
</svg>
