<svg id="Layer_1" data-name="Layer 1" xmlns="http://www.w3.org/2000/svg" viewBox="0 0 100 100"><path d="M89.89,52.7V42.41H64.15V41.12a9,9,0,0,0-7.94-8.93A9,9,0,0,0,59,25.68V15.55a4,4,0,0,0-6.52-3.15,5.57,5.57,0,0,0-3-.87h-2.8A5.69,5.69,0,0,0,41,17.21v8.47a9,9,0,0,0,2.8,6.51,9,9,0,0,0-7.94,8.93v1.29H10.11V52.7h2.58V81H10.11V91.3H89.89V81H87.31V52.7ZM43.57,17.21a3.11,3.11,0,0,1,3.1-3.11h2.8a3.09,3.09,0,0,1,2.19.91l.91.91L54,14.53a1.44,1.44,0,0,1,2.46,1v4.73a9.58,9.58,0,0,1-3-1.94l-.91-.9-.9.9a14.3,14.3,0,0,1-8.1,3.42V17.21Zm0,8.47V24.33a17,17,0,0,0,9-3.38,10.19,10.19,0,0,0,3.87,2v2.73a6.43,6.43,0,1,1-12.86,0ZM38.42,41.12a6.44,6.44,0,0,1,6.43-6.43h10.3a6.44,6.44,0,0,1,6.43,6.43v1.29H57.72V39.84H55.15v2.57H44.85V39.84H42.28v2.57H38.42ZM87.31,88.73H12.69V83.58H87.31ZM15.26,81V52.7h6.43V81Zm9,0V52.7H30.7V81Zm9,0V52.7h6.44V81Zm9,0V52.7h6.43V81Zm9,0V52.7h6.43V81Zm9,0V52.7h6.44V81Zm18-25.73V52.7h6.43V81H78.31V57.85H75.73V81H69.3V52.7h6.43v2.58ZM12.69,50.13V45H87.31v5.15Z"/><path d="M82.17,32.12A14.63,14.63,0,0,1,81,38l2.3,1.15a16.91,16.91,0,0,0,1.42-7,14.58,14.58,0,0,0-1.38-5.63,12.39,12.39,0,0,1-1.19-4.67,8.61,8.61,0,0,1,2.2-5.52l-.92-.91-.91-.91a11.12,11.12,0,0,0-3,7.34A14.54,14.54,0,0,0,81,27.45,12.22,12.22,0,0,1,82.17,32.12Z"/><path d="M16.55,32.12A14.33,14.33,0,0,1,15.39,38l2.31,1.15a17.1,17.1,0,0,0,1.42-7,14.58,14.58,0,0,0-1.38-5.63,12.39,12.39,0,0,1-1.19-4.67,8.55,8.55,0,0,1,2.2-5.52l-.92-.91-.91-.91a11.12,11.12,0,0,0-3,7.34,14.54,14.54,0,0,0,1.38,5.63A12.22,12.22,0,0,1,16.55,32.12Z"/><path d="M26.84,32.12A14.63,14.63,0,0,1,25.69,38L28,39.13a16.91,16.91,0,0,0,1.42-7A14.76,14.76,0,0,0,28,26.49a12.22,12.22,0,0,1-1.2-4.67A8.61,8.61,0,0,1,29,16.3l-.91-.91-.91-.91a11.12,11.12,0,0,0-2.95,7.34,14.71,14.71,0,0,0,1.37,5.63A12.22,12.22,0,0,1,26.84,32.12Z"/><path d="M71.87,32.12h2.58a14.58,14.58,0,0,0-1.38-5.63,12.22,12.22,0,0,1-1.2-4.67,8.61,8.61,0,0,1,2.2-5.52l-.91-.91-.91-.91a11.12,11.12,0,0,0-3,7.34,14.54,14.54,0,0,0,1.38,5.63A12.39,12.39,0,0,1,71.87,32.12Z"/><path d="M70.72,38,73,39.12a15.7,15.7,0,0,0,1.21-4.24l-2.55-.38A13,13,0,0,1,70.72,38Z"/></svg>