<?xml version="1.0" encoding="utf-8"?>
<!-- Generator: Adobe Illustrator 25.2.0, SVG Export Plug-In . SVG Version: 6.00 Build 0)  -->
<svg version="1.1" id="Layer_1" xmlns="http://www.w3.org/2000/svg" xmlns:xlink="http://www.w3.org/1999/xlink" x="0px" y="0px"
	 viewBox="0 0 100 100" style="enable-background:new 0 0 100 100;" xml:space="preserve">
<path d="M56.3,11.1l-4.5,12l-6,7.5l-24.4,35c-0.2,0.3-0.3,0.6-0.3,0.9v3h-5.3l-2.2-3.3l1.3-3.7l9.1-16.6c0-0.1,0.1-0.2,0.1-0.2
	l5.9-17.7l7.1-4.3c0.3-0.2,0.6-0.5,0.7-0.9L41,12.1l-3-0.8l-2.9,10.1L28,25.6c-0.3,0.2-0.5,0.5-0.7,0.8l-6.1,18.2l-8.8,16.3
	l-8.8,5.9c-0.7,0.4-0.9,1.3-0.5,2L13.8,87c0.2,0.4,0.6,0.7,1.1,0.7l10.7,1.5h0.2c0.2,0,0.5-0.1,0.7-0.2l3-1.5
	c0.8-0.4,1.1-1.3,0.7-2.1c-0.1-0.1-0.2-0.3-0.3-0.4L25.6,81l-1.4-10v-4l24-34.5l6.1-7.6c0.1-0.1,0.2-0.3,0.2-0.4l4.6-12.2L56.3,11.1
	z M26.2,85.8l-0.7,0.4L16,84.9L6.4,68.5l4.3-2.8L10.6,66c-0.1,0.4-0.1,0.9,0.2,1.3l3.1,4.6c0.3,0.4,0.8,0.7,1.3,0.7h6.3l1.3,9.3
	c0,0.3,0.2,0.6,0.4,0.9L26.2,85.8z M69.9,62.9L67,50l2.6-3.9l25.7-25.8l-2.2-2.2L67.3,44.1c-0.1,0.1-0.1,0.2-0.2,0.2l-2.7,4.1
	l-4.7,1.2L56.2,46v-3.2l7-5.6c0.1-0.1,0.2-0.2,0.3-0.4l13.6-21.2l2.9-2.9L78,10.6l-3,3c-0.1,0.1-0.1,0.2-0.2,0.3L61.1,35l-7.4,5.9
	L46.1,47c-0.6,0.5-0.8,1.4-0.3,2l13.7,19.8c0.1,0.2,0.3,0.3,0.5,0.4l7.6,4.6c0.6,0.4,1.4,0.3,1.9-0.2l3-3c0.5-0.5,0.6-1.2,0.3-1.8
	L69.9,62.9z M68.1,70.6l-6.3-3.8L49.1,48.6l4-3.3v1.4c0,0.4,0.2,0.8,0.4,1.1l4.6,4.6c0.4,0.4,1,0.6,1.5,0.4l4.6-1.2l2.7,12.2
	c0,0.1,0,0.2,0.1,0.3l2.6,5.1L68.1,70.6z M25.7,89.3H2.9v3.1h28.9v-3.1H25.7z M68.4,74.1H45.5v3h24.4v-3H68.4z"/>
</svg>
