<?xml version="1.0" encoding="utf-8"?>
<!-- Generator: Adobe Illustrator 25.2.0, SVG Export Plug-In . SVG Version: 6.00 Build 0)  -->
<svg version="1.1" id="Layer_1" xmlns="http://www.w3.org/2000/svg" xmlns:xlink="http://www.w3.org/1999/xlink" x="0px" y="0px"
	 viewBox="0 0 100 100" style="enable-background:new 0 0 100 100;" xml:space="preserve">
<path d="M86.9,57.1H63.1v-2.4h1.2c0.7,0,1.2-0.5,1.2-1.2c0-0.7-0.5-1.2-1.2-1.2h-1.2v-1.2c0-2.6,2.1-4.8,4.8-4.8
	c2.6,0,4.8,2.1,4.8,4.8c0,0.7,0.5,1.2,1.2,1.2c0.7,0,1.2-0.5,1.2-1.2c0-3.9-3.2-7.1-7.1-7.1c-3.9,0-7.1,3.2-7.1,7.1v6h-20
	c0.6-0.7,0.9-1.5,0.9-2.4v-7.2c0-0.7-0.5-1.2-1.2-1.2c0,0,0,0,0,0H22.6c-0.7,0-1.2,0.5-1.2,1.2c0,0,0,0,0,0v7.1
	c0,0.9,0.3,1.7,0.9,2.4h-9.3c-0.7,0-1.2,0.5-1.2,1.2v28.6c0,0.7,0.5,1.2,1.2,1.2c0,0,0,0,0,0h73.8c0.7,0,1.2-0.5,1.2-1.2
	c0,0,0,0,0,0V58.3C88.1,57.7,87.6,57.1,86.9,57.1C86.9,57.1,86.9,57.1,86.9,57.1z M23.8,48.8h15.5v6c0,0.7-0.5,1.2-1.1,1.2
	c0,0,0,0-0.1,0H25c-0.7,0-1.2-0.5-1.2-1.2L23.8,48.8z M31,85.7H14.3V71.4H31V85.7z M31,69.1H14.3v-9.5h3.6c0,0.6,0.5,1.2,1.1,1.2
	h7.1c0.7,0,1.2-0.5,1.2-1.2H31V69.1z M66.7,85.7H33.3V59.5h33.3V85.7z M85.7,85.7H69.1V71.4h16.7L85.7,85.7z M85.7,69.1H69.1v-9.5
	h3.6c0,0.7,0.5,1.2,1.2,1.2H81c0.7,0,1.2-0.5,1.2-1.2h3.6L85.7,69.1z M35.7,77.4h28.6c0.7,0,1.2-0.5,1.2-1.2c0,0,0,0,0,0V64.3
	c0-0.7-0.5-1.2-1.2-1.2l0,0H35.7c-0.7,0-1.2,0.5-1.2,1.2v11.9C34.5,76.8,35.1,77.4,35.7,77.4z M36.9,65.5h26.2V75H36.9L36.9,65.5z
	 M57.1,81H42.9c-0.7,0-1.2,0.5-1.2,1.2c0,0.7,0.5,1.2,1.2,1.2h14.3c0.7,0,1.2-0.5,1.2-1.2C58.3,81.5,57.8,81,57.1,81z M25,29.8h50
	c0.7,0,1.2-0.5,1.2-1.2v0V13.1c0-0.7-0.5-1.2-1.2-1.2l0,0H25c-0.7,0-1.2,0.5-1.2,1.2v0v15.5C23.8,29.2,24.3,29.8,25,29.8L25,29.8z
	 M51.2,14.3h22.6v13.1H51.2V14.3z M26.2,14.3h22.6v13.1H26.2L26.2,14.3z M41.7,20.2h-9.5c-0.7,0.1-1.1,0.6-1.1,1.3
	c0.1,0.6,0.5,1,1.1,1.1h9.5c0.7-0.1,1.1-0.6,1.1-1.3C42.7,20.7,42.2,20.3,41.7,20.2z M67.9,20.2h-9.5c-0.7,0.1-1.1,0.6-1.1,1.3
	c0.1,0.6,0.5,1,1.1,1.1h9.5c0.7-0.1,1.1-0.6,1.1-1.3C68.9,20.7,68.4,20.3,67.9,20.2z M25.5,41.3c-1,0.6-1.6,1.6-1.7,2.7
	c0,0.7,0.5,1.2,1.2,1.2c0.7,0,1.2-0.5,1.2-1.2c0-0.3,0.1-0.4,0.7-0.8c1.5-0.8,2.1-2.6,1.3-4.1c-0.3-0.6-0.8-1-1.3-1.3
	c-0.6-0.5-0.7-0.6-0.7-0.8s0.1-0.4,0.7-0.8c1-0.6,1.6-1.6,1.7-2.7c0-0.7-0.5-1.2-1.2-1.2c-0.7,0-1.2,0.5-1.2,1.2
	c0,0.3-0.1,0.4-0.7,0.8c-1.5,0.8-2.1,2.7-1.3,4.2c0.3,0.6,0.8,1,1.3,1.3c0.6,0.5,0.7,0.6,0.7,0.8S26.1,40.9,25.5,41.3z M32.8,36.1
	c1-0.6,1.6-1.6,1.7-2.7c0-0.7-0.5-1.2-1.2-1.2c-0.7,0-1.2,0.5-1.2,1.2c0,0.3-0.1,0.4-0.7,0.8c-1.5,0.8-2.1,2.6-1.3,4.1
	c0.3,0.6,0.8,1,1.3,1.3c0.6,0.5,0.7,0.6,0.7,0.8s-0.1,0.4-0.7,0.8c-1,0.6-1.6,1.6-1.7,2.7c0,0.7,0.5,1.2,1.2,1.2
	c0.7,0,1.2-0.5,1.2-1.2c0-0.3,0.1-0.4,0.7-0.8c1.5-0.8,2.1-2.6,1.3-4.1c-0.3-0.6-0.8-1-1.3-1.3c-0.6-0.5-0.7-0.6-0.7-0.8
	S32.3,36.5,32.8,36.1z M38.8,36.1c1-0.6,1.6-1.6,1.7-2.7c0-0.7-0.5-1.2-1.2-1.2c-0.7,0-1.2,0.5-1.2,1.2c0,0.3-0.1,0.4-0.7,0.8
	c-1.5,0.8-2.1,2.6-1.3,4.1c0.3,0.6,0.8,1,1.3,1.3c0.6,0.5,0.7,0.6,0.7,0.8s-0.1,0.4-0.7,0.8c-1,0.6-1.6,1.6-1.7,2.7
	c0,0.7,0.5,1.2,1.2,1.2c0.7,0,1.2-0.5,1.2-1.2l0,0c0-0.3,0.1-0.4,0.7-0.8c1.5-0.8,2.1-2.6,1.3-4.2c-0.3-0.6-0.8-1-1.3-1.3
	c-0.6-0.5-0.7-0.6-0.7-0.8S38.2,36.5,38.8,36.1z"/>
</svg>
