<svg id="Layer_1" data-name="Layer 1" xmlns="http://www.w3.org/2000/svg" viewBox="0 0 100 100"><path d="M67.69,19h3V22h-3Zm5.9,0h3V22h-3Zm5.89,0h3V22h-3ZM19,20.52H33.78A1.48,1.48,0,0,0,35.26,19v-5.9a1.47,1.47,0,0,0-1.48-1.47H19a1.47,1.47,0,0,0-1.47,1.47V19A1.48,1.48,0,0,0,19,20.52Zm1.48-5.9H32.31v3H20.52ZM50,38.21A22.11,22.11,0,1,0,72.11,60.32,22.14,22.14,0,0,0,50,38.21Zm0,41.27a19.15,19.15,0,0,1-15.66-8.14c2.55-.58,4-2.59,5.21-4.27,1.42-2,2.38-3.2,4.25-3.2s2.84,1.22,4.26,3.2,3.17,4.44,6.65,4.44,5.25-2.46,6.66-4.44,2.38-3.2,4.26-3.2a3.71,3.71,0,0,1,2.86,1.44A19.19,19.19,0,0,1,50,79.48ZM69.08,61.93a6.21,6.21,0,0,0-3.46-1c-3.48,0-5.24,2.46-6.65,4.44s-2.38,3.2-4.26,3.2-2.84-1.22-4.25-3.2-3.17-4.44-6.66-4.44-5.24,2.46-6.65,4.44-2.38,3.2-4.26,3.2h-.17a19,19,0,0,1-1.89-8.23,19.17,19.17,0,1,1,38.34,0C69.17,60.86,69.13,61.4,69.08,61.93ZM17.57,94.23H82.43a5.9,5.9,0,0,0,5.9-5.9V11.67a5.9,5.9,0,0,0-5.9-5.9H17.57a5.9,5.9,0,0,0-5.9,5.9V88.33A5.9,5.9,0,0,0,17.57,94.23Zm64.86-3H17.57a3,3,0,0,1-3-3v-59H85.38v59A3,3,0,0,1,82.43,91.28ZM17.57,8.72H82.43a3,3,0,0,1,2.95,2.95V26.41H14.62V11.67A3,3,0,0,1,17.57,8.72Zm50.12,4.42h3v2.95h-3Zm5.9,0h3v2.95h-3Zm5.89,0h3v2.95h-3ZM58.85,23.46A5.9,5.9,0,1,0,53,17.57,5.89,5.89,0,0,0,58.85,23.46Zm0-8.84a3,3,0,1,1-3,3A2.95,2.95,0,0,1,58.85,14.62ZM50,42.63v2.95a14.7,14.7,0,0,1,13.14,8l2.62-1.34A17.63,17.63,0,0,0,50,42.63Zm0-10.32a28,28,0,1,0,28,28A28,28,0,0,0,50,32.31Zm0,53.07A25.06,25.06,0,1,1,75.06,60.32,25.09,25.09,0,0,1,50,85.38Z"/></svg>