<svg id="Layer_1" data-name="Layer 1" xmlns="http://www.w3.org/2000/svg" viewBox="0 0 100 100"><path d="M77.36,22.35a37.73,37.73,0,0,0-23.15-8.49V12.35a1.31,1.31,0,1,0-2.62,0v1.51a37.73,37.73,0,0,0-23.15,8.49c-6.61,5.54-10.25,12.93-10.25,20.8a1.31,1.31,0,0,0,2.19,1c2.07-1.88,6-3.06,10.25-3.06s8.18,1.18,10.25,3.06a1.31,1.31,0,0,0,1.77,0c1.85-1.69,5.2-2.8,8.94-3V75.44H47.14L43,69.67H45.9a1.32,1.32,0,0,0,0-2.63H26.62l-6.77-9.48a4.1,4.1,0,0,0-2.68-1.66,4,4,0,0,0-3.06.71,4.1,4.1,0,0,0-1,5.73l14,19.6a4,4,0,0,0,.58.65l-1.33,8a1.32,1.32,0,0,0,1.08,1.51l.22,0A1.31,1.31,0,0,0,29,91l1.22-7.32.29,0H51.59v7.08a1.31,1.31,0,1,0,2.62,0V83.67H79.79L81,91a1.31,1.31,0,0,0,1.29,1.1l.22,0a1.31,1.31,0,0,0,1.07-1.51l-1.14-6.88a4.11,4.11,0,0,0-.15-8.22H54.21V41.1c3.74.22,7.09,1.33,8.94,3a1.31,1.31,0,0,0,1.77,0c2.06-1.88,6-3.06,10.25-3.06s8.18,1.18,10.25,3.06a1.26,1.26,0,0,0,.88.34,1.23,1.23,0,0,0,.53-.11,1.3,1.3,0,0,0,.78-1.2C87.61,35.28,84,27.89,77.36,22.35ZM39.79,69.67l4.12,5.77H32.62l-4.13-5.77Zm44,9.88A1.49,1.49,0,0,1,82.3,81H30.5a1.49,1.49,0,0,1-1.21-.62l-14-19.6a1.49,1.49,0,0,1,1.2-2.36l.25,0a1.47,1.47,0,0,1,1,.61L30.87,77.52a1.34,1.34,0,0,0,1.07.55H82.3A1.49,1.49,0,0,1,83.79,79.55ZM59.55,23.79a51.41,51.41,0,0,1,3.13,16.84,21.05,21.05,0,0,0-9.78-2.19,21.05,21.05,0,0,0-9.78,2.19,51.16,51.16,0,0,1,3.12-16.84c1.87-4.66,4.29-7.33,6.66-7.33S57.69,19.13,59.55,23.79ZM21,40.57C22.35,28.63,33.22,19,47.21,16.89a20.88,20.88,0,0,0-3.4,5.92,54.28,54.28,0,0,0-3.32,17.86,20.93,20.93,0,0,0-9.86-2.23A21.08,21.08,0,0,0,21,40.57Zm54.21-2.13a20.93,20.93,0,0,0-9.86,2.23A54.28,54.28,0,0,0,62,22.81a20.88,20.88,0,0,0-3.41-5.92c14,2.08,24.87,11.74,26.26,23.68A21.11,21.11,0,0,0,75.17,38.44Z"/></svg>