<?xml version="1.0" encoding="iso-8859-1"?>
<!-- Uploaded to: SVG Repo, www.svgrepo.com, Generator: SVG Repo Mixer Tools -->
<svg fill="#000000" height="800px" width="800px" version="1.1" id="Capa_1" xmlns="http://www.w3.org/2000/svg" xmlns:xlink="http://www.w3.org/1999/xlink" 
	 viewBox="0 0 50 50" xml:space="preserve">
<g>
	<path d="M49,0H27h-2v2v7H10c-0.552,0-1,0.447-1,1v30c0,0.553,0.448,1,1,1h30c0.552,0,1-0.447,1-1V27v-2h-2H25v2h14v12H11V11h29V9
		H27V2h21v46H2V2h11V0H1C0.448,0,0,0.447,0,1v48c0,0.553,0.448,1,1,1h48c0.552,0,1-0.447,1-1V1C50,0.447,49.552,0,49,0z"/>
</g>
</svg>