<?xml version="1.0" encoding="utf-8"?>
<!-- Generator: Adobe Illustrator 25.2.0, SVG Export Plug-In . SVG Version: 6.00 Build 0)  -->
<svg version="1.1" id="Layer_1" xmlns="http://www.w3.org/2000/svg" xmlns:xlink="http://www.w3.org/1999/xlink" x="0px" y="0px"
	 viewBox="0 0 100 100" style="enable-background:new 0 0 100 100;" xml:space="preserve">
<path d="M55.9,32c1.3-1.4,2-3.3,2-5.3v-3.2c0-4.4-3.5-7.9-7.9-7.9c-4.4,0-7.9,3.5-7.9,7.9v3.2c0,1.9,0.7,3.8,2,5.3
	c-3.1,1.1-5.2,4.1-5.2,7.4v6.3h3.2v-6.3c0-2.6,2.1-4.8,4.8-4.8h1.6v11.1h3.2V34.7h1.6c2.6,0,4.8,2.1,4.8,4.8v6.3h3.2v-6.3
	C61.1,36.1,59,33.2,55.9,32z M54.8,26.8c0,2.6-2.1,4.8-4.8,4.8s-4.8-2.1-4.8-4.8v-3.2c0-2.6,2.1-4.8,4.8-4.8s4.8,2.1,4.8,4.8l0,0
	V26.8z M45,81.3L42.1,77V64.8c0-4.4-3.5-7.9-7.9-7.9H31V60h3.2c2.6,0,4.8,2.1,4.8,4.8l0,0v12.7c0,0.3,0.1,0.6,0.3,0.9l1.5,2.3h-5
	V64.8h-3.1v17.4c0,0.9,0.7,1.6,1.6,1.6c0,0,0,0,0,0h9.5c0.9,0,1.6-0.7,1.6-1.6C45.3,81.9,45.2,81.6,45,81.3z M29.4,26.8v-3.2
	c0.2-4.4-3.3-8-7.6-8.2s-8,3.3-8.2,7.6c0,0.2,0,0.4,0,0.6v3.2c0,2.1,0.9,4.2,2.4,5.6c-2.9,1.3-4.9,4-5.4,7.2
	c-1.4-1.1-3.1-1.7-4.9-1.7H4.1c-0.9,0-1.6,0.7-1.6,1.6l0,0c0,0.1,0,0.1,0,0.2l2.8,22.1c0.3,2.4,2.2,4.3,4.5,4.6l-5.7,17l3,1l6-17.9
	h13.1v17.4h3.2v-19c0-4.4-3.6-7.9-7.9-7.9h-6.4c-0.9,0-1.6-0.7-1.6-1.6l0,0V41c0-3.5,2.8-6.3,6.3-6.3h0v17.5h3.2V35.6
	c1.9,1.1,3.1,3.2,3.2,5.4v14.3h3.2V41c0-3-1.4-5.8-3.8-7.5C28,32,29.4,29.5,29.4,26.8z M15.2,60h6.3c2,0,3.8,1.3,4.5,3.2H10.6
	c-1.1,0-2-0.8-2.1-1.9L5.9,41c2.5,0.1,4.5,2.2,4.5,4.8v9.5C10.4,57.9,12.5,60,15.2,60L15.2,60z M26.3,26.8c0,2.6-2.1,4.8-4.8,4.8
	s-4.8-2.1-4.8-4.8v-3.2c0-2.6,2.1-4.8,4.8-4.8s4.8,2.1,4.8,4.8l0,0V26.8z M32.6,49v3.2h15.8v31.7h3.2V52.1h15.8V49H32.6z M61.1,77.4
	V64.8c0-2.6,2.1-4.8,4.7-4.8c0,0,0,0,0,0H69v-3.1h-3.2c-4.4,0-7.9,3.5-7.9,7.9V77L55,81.3c-0.5,0.7-0.3,1.7,0.4,2.2c0,0,0,0,0,0
	c0.3,0.2,0.6,0.3,0.9,0.3h9.5c0.9,0,1.6-0.7,1.6-1.6c0,0,0,0,0,0V64.8h-3.1v15.8h-5l1.5-2.3C61,78.1,61.1,77.8,61.1,77.4z
	 M94.7,61.7l2.8-22.1c0.1-0.9-0.5-1.6-1.4-1.8c0,0,0,0,0,0h-1.8c-1.8,0-3.5,0.6-4.9,1.7c-0.5-3.1-2.5-5.8-5.4-7.2
	c1.5-1.5,2.4-3.5,2.4-5.6v-3.2c0.2-4.4-3.3-8-7.6-8.2c-4.4-0.2-8,3.3-8.2,7.6c0,0.2,0,0.4,0,0.6v3.2c0,2.7,1.4,5.3,3.8,6.7
	c-2.3,1.8-3.7,4.6-3.8,7.5v14.3h3.2V41c0-2.3,1.2-4.3,3.2-5.5v16.6h3.2V34.7c3.5,0,6.3,2.8,6.3,6.3v14.3c0,0.9-0.7,1.6-1.6,1.6l0,0
	h-6.3c-4.4,0-7.9,3.6-7.9,7.9v19h3.2V66.4h13.1l6,17.9l3-1l-5.7-17C92.6,66,94.4,64.1,94.7,61.7z M83.3,26.8c0,2.6-2.1,4.8-4.8,4.8
	s-4.8-2.1-4.8-4.8v-3.2c0-2.6,2.1-4.8,4.8-4.8s4.8,2.1,4.8,4.8l0,0V26.8z M89.4,63.2H74c0.7-1.9,2.5-3.2,4.5-3.2h6.3
	c2.6,0,4.8-2.1,4.8-4.8l0,0v-9.5c0-2.5,2-4.6,4.5-4.8l-2.5,20.3C91.5,62.4,90.5,63.2,89.4,63.2z"/>
</svg>
