<?xml version="1.0" encoding="utf-8"?>
<!-- Generator: Adobe Illustrator 25.2.0, SVG Export Plug-In . SVG Version: 6.00 Build 0)  -->
<svg version="1.1" id="Layer_1" xmlns="http://www.w3.org/2000/svg" xmlns:xlink="http://www.w3.org/1999/xlink" x="0px" y="0px"
	 viewBox="0 0 100 100" style="enable-background:new 0 0 100 100;" xml:space="preserve">
<path d="M50.4,20.5c-3.3,0-6,2.7-6,6s2.7,6,6,6s6-2.7,6-6S53.7,20.5,50.4,20.5z M50.4,28.9c-1.3,0-2.4-1.1-2.4-2.3s1.1-2.4,2.3-2.4
	c1.3,0,2.4,1.1,2.4,2.3c0,0,0,0,0,0C52.8,27.8,51.7,28.9,50.4,28.9z M87.9,75.8h-4.7V39.2h3.3c1,0,1.8-0.7,1.9-1.7c0,0,0,0,0,0v-8.4
	c0-0.7-0.4-1.4-1.1-1.7L51.1,12c-0.5-0.2-1-0.2-1.5,0L13.7,27.5c-0.7,0.3-1.1,1-1.1,1.7v8.4c0,0.9,0.7,1.7,1.7,1.8h3.5v36.6h-5.7
	c-1,0-1.8,0.8-1.8,1.8c0,0,0,0,0,0l0,0v8.7c0,1,0.8,1.8,1.8,1.8c0,0,0,0,0,0h75.7c1,0,1.8-0.7,1.8-1.7c0,0,0,0,0,0v-8.7
	C89.7,76.6,88.9,75.8,87.9,75.8z M16.3,35.6v-5.2l34.1-14.6l34.1,14.6v5.2H16.3z M79.5,39.2v36.6h-9V39.2H79.5z M66.8,39.2v36.6H58
	V39.2H66.8z M54.4,39.2v36.6h-8.8V39.2H54.4z M42,39.2v36.6h-8.8V39.2H42z M29.5,39.2v36.6h-8V39.2H29.5z M86.1,84.4H14v-4.9h72.1
	L86.1,84.4z"/>
</svg>
