<?xml version="1.0" encoding="utf-8"?>
<!-- Generator: Adobe Illustrator 25.2.0, SVG Export Plug-In . SVG Version: 6.00 Build 0)  -->
<svg version="1.1" id="Layer_1" xmlns="http://www.w3.org/2000/svg" xmlns:xlink="http://www.w3.org/1999/xlink" x="0px" y="0px"
	 viewBox="0 0 100 100" style="enable-background:new 0 0 100 100;" xml:space="preserve">
<path d="M76.4,66.7h2.9v2.8h-2.9V66.7z M20.6,65v10.1h5.2l4.3-7.3h6.3V65H20.6z M24.2,72.3h-0.9v-4.6h3.5L24.2,72.3z M90.1,53.5
	H47.7v-4.4h3c2.3-0.1,4.1-2.1,4-4.4c-0.1-2.2-1.8-3.9-4-4H33.5v-0.2v-0.1c-1.1-5.3-6.9-9.7-12.8-9.7h-1.6l-0.7-2.3
	c-0.7-2.6-3.4-4-6-3.3s-4,3.4-3.3,6l2.7,9.6H9.2c-2.3,0.1-4.1,2.1-4,4.4c0.1,2.2,1.8,3.9,4,4h5l4,14.3h54.3c-2.4,3.1-1.9,7.6,1.2,10
	s7.6,1.9,10-1.2c2-2.6,2-6.2,0-8.7H90c2.7,0.4,5.3-1.5,5.7-4.2c0.4-2.7-1.5-5.3-4.2-5.7C91,53.5,90.5,53.5,90.1,53.5z M20.7,33.4
	c4.5,0,9.1,3.3,10,7.3h-8.5L20,33.4H20.7z M11.8,30.3c-0.3-1.1,0.3-2.3,1.4-2.6c0.2-0.1,0.4-0.1,0.6-0.1c0.9,0,1.7,0.6,2,1.5
	l3.4,11.5h-4.6L11.8,30.3z M9.2,46.4c-0.8,0-1.5-0.7-1.5-1.5s0.7-1.5,1.5-1.5h41.5c0.8,0,1.5,0.7,1.5,1.5s-0.7,1.5-1.5,1.5H9.2z
	 M44.9,49.1v4.4H33.4v-4.4H44.9z M30.6,49.1v4.4H26l-1.3-4.4H30.6z M78.1,72.1c-2.4,0-4.3-1.9-4.3-4.3s1.9-4.4,4.3-4.4
	c2.4,0,4.3,1.9,4.3,4.4l0,0C82.4,70.2,80.5,72.1,78.1,72.1L78.1,72.1z M90.1,60.7H20.3L17,49.1h4.8l2.1,7.2h66.1
	c1.2,0,2.2,1,2.2,2.2S91.3,60.7,90.1,60.7L90.1,60.7z"/>
</svg>
