<?xml version="1.0" encoding="utf-8"?>
<!-- Generator: Adobe Illustrator 25.2.0, SVG Export Plug-In . SVG Version: 6.00 Build 0)  -->
<svg version="1.1" id="Layer_1" xmlns="http://www.w3.org/2000/svg" xmlns:xlink="http://www.w3.org/1999/xlink" x="0px" y="0px"
	 viewBox="0 0 100 100" style="enable-background:new 0 0 100 100;" xml:space="preserve">
<path d="M70.6,76.2c-0.6,0-1.2-0.5-1.2-1.1c-1.8-20.3,20.4-35.3,21.3-36c0.5-0.4,1.3-0.3,1.7,0.2c0.4,0.5,0.3,1.3-0.2,1.7
	c0,0-0.1,0.1-0.1,0.1l0,0c-0.9,0.6-21.9,14.8-20.2,33.7c0.1,0.7-0.4,1.3-1.1,1.3L70.6,76.2z M78.8,75.9c-0.6,0-1.1-0.5-1.2-1.1
	c-2.7-20,12.3-35,13-35.6c0.5-0.5,1.2-0.5,1.7,0c0,0,0,0,0,0l0,0c0.5,0.5,0.5,1.2,0,1.7l0,0C91.6,41.6,77.4,55.7,80,74.5
	c0.1,0.7-0.4,1.3-1,1.4l0,0L78.8,75.9L78.8,75.9z M72.1,64.9c-0.4,0-0.9-0.2-1.1-0.6c0-0.1-4.4-7.8-8.9-9.5c-0.6-0.2-0.9-1-0.7-1.6
	s1-0.9,1.6-0.7l0,0c5.3,2,10,10.3,10.2,10.6c0.3,0.6,0.1,1.3-0.5,1.6C72.5,64.8,72.3,64.9,72.1,64.9L72.1,64.9z M67.3,76.2
	L67.3,76.2c-0.8,0-1.3-0.6-1.2-1.3c0,0,0,0,0,0c1-12.6-5.1-18.3-5.2-18.3c-0.5-0.4-0.6-1.2-0.2-1.7c0.4-0.5,1.2-0.6,1.7-0.2
	c0,0,0,0,0,0l0,0c0.3,0.3,7,6.5,6,20.3C68.4,75.6,67.9,76.1,67.3,76.2L67.3,76.2z M49.3,76.2L49.3,76.2c-0.7,0-1.2-0.5-1.3-1.1
	c0,0,0-0.1,0-0.1l0,0c0.2-6,1.3-11.9,3.4-17.6c5.1-13.6,14.7-25.1,27.3-32.4c0.6-0.3,1.3,0,1.6,0.6c0.2,0.6,0,1.2-0.5,1.5
	c-0.2,0.1-18.5,10.1-26.1,31.1c-1.9,5.4-3,11.1-3.2,16.8C50.4,75.7,49.9,76.2,49.3,76.2L49.3,76.2z M60.2,76.2
	c-0.6,0-1.1-0.5-1.2-1.1c-0.4-6.6,0.2-13.2,1.7-19.5c2.9-12.5,8.9-22.7,17.7-30.4c0.1-0.1,0.2-0.1,0.3-0.2c0.6-0.3,1.3-0.1,1.6,0.6
	c0.2,0.5,0.1,1-0.2,1.4L80,27c-8.4,7.4-14.1,17.2-16.9,29.1c-1.5,6.1-2,12.4-1.7,18.7c0.1,0.7-0.4,1.3-1.1,1.3c0,0,0,0,0,0
	L60.2,76.2L60.2,76.2z M44.3,76.2h-0.2c-0.6-0.1-1.1-0.7-1-1.4C46.7,48.3,25.2,26.1,25,25.9c-0.5-0.5-0.4-1.3,0.1-1.7
	c0.4-0.4,1-0.4,1.5-0.2c21.3,13.4,27,32.7,27.2,33.5c0.2,0.6-0.1,1.3-0.7,1.6c-0.6,0.2-1.3-0.1-1.6-0.7c0-0.1,0-0.1-0.1-0.2
	c0-0.2-4.2-14.3-18.5-26.5c6.4,9,15.2,25,12.7,43.5C45.4,75.7,44.9,76.1,44.3,76.2L44.3,76.2z M44.2,43.3c-0.7,0-1.2-0.5-1.2-1.2
	c0-0.2,0.1-0.4,0.2-0.6c2.1-3.8,4.6-7.4,7.3-10.8c-3.2,2.3-6.2,4.9-8.9,7.8c-0.4,0.5-1.2,0.5-1.7,0.1c0,0,0,0,0,0
	c-0.5-0.5-0.5-1.2-0.1-1.7c4.4-4.9,9.7-9,15.7-11.9c0.6-0.3,1.3,0,1.6,0.6c0.2,0.4,0.1,1-0.2,1.3c-4.4,4.9-8.3,10.2-11.5,15.8
	C45.1,43,44.7,43.3,44.2,43.3z M25.9,76.2L25.9,76.2c-0.7,0-1.2-0.6-1.2-1.3l0,0c0.2-12.4,4.4-24.3,11.8-34.2
	c0.4-0.5,1.2-0.6,1.7-0.2s0.6,1.2,0.2,1.7c-7.1,9.5-11.1,21-11.3,32.8C27,75.7,26.5,76.2,25.9,76.2L25.9,76.2z M36.6,76.2
	c-0.6,0-1.1-0.4-1.2-0.9c-0.1-0.4-2.5-11.2,4.3-26.8c0.3-0.6,1-0.9,1.6-0.6c0.6,0.3,0.9,1,0.6,1.6c-6.4,14.9-4.2,25.2-4.1,25.3
	c0.2,0.7-0.2,1.3-0.9,1.5c0,0,0,0,0,0l0,0C36.8,76.2,36.7,76.2,36.6,76.2L36.6,76.2z M20.1,76.2c-0.7,0-1.2-0.5-1.2-1.2
	c0-0.1,0-0.1,0-0.2C22.5,54,7.9,40.4,7.8,40.3c-0.5-0.5-0.5-1.2,0-1.7c0.4-0.4,0.9-0.5,1.4-0.3C17.7,42.4,25,49,29.9,57.2
	c0.4,0.6,0.2,1.3-0.3,1.7c-0.6,0.4-1.3,0.2-1.7-0.3c0-0.1-0.1-0.1-0.1-0.2c-3.5-5.8-8.2-10.7-13.8-14.6c6.6,9,9.2,20.4,7.3,31.4
	C21.2,75.8,20.7,76.2,20.1,76.2z M81.7,76.2H15.9c-0.7,0.1-1.3-0.4-1.3-1.1s0.4-1.3,1.1-1.3c0.1,0,0.1,0,0.2,0h65.8
	c0.7-0.1,1.3,0.4,1.3,1.1s-0.4,1.3-1.1,1.3C81.8,76.2,81.7,76.2,81.7,76.2z"/>
</svg>
