<?xml version="1.0" encoding="utf-8"?>
<!-- Generator: Adobe Illustrator 25.2.0, SVG Export Plug-In . SVG Version: 6.00 Build 0)  -->
<svg version="1.1" id="Layer_1" xmlns="http://www.w3.org/2000/svg" xmlns:xlink="http://www.w3.org/1999/xlink" x="0px" y="0px"
	 viewBox="0 0 100 100" style="enable-background:new 0 0 100 100;" xml:space="preserve">
<path d="M83.2,63.8h-0.5V22.4c0-7.3-5.9-13.3-13.3-13.3H45c-7.3,0-13.2,5.9-13.3,13.3v8h-5.3c-0.3,0-0.7,0.2-0.9,0.4l-1.4,1.8
	c-3.1,3.9-5,8.8-5.2,13.8h-1.9c-2.2,0-4,1.7-4.1,3.9c0,0,0,0.1,0,0.1v2.9c0,0.6,0.5,1.1,1.1,1.1h42.4c0.6,0,1.1-0.5,1.1-1.1v-2.9
	c0-2.2-1.8-4.1-4-4.1c0,0,0,0,0,0h-1.8c-0.2-5-2.1-9.8-5.2-13.8l-1.4-1.8c-0.2-0.3-0.5-0.4-0.9-0.4h-5.3v-8c0-3.3,2.6-5.9,5.9-5.9
	h24.5c3.3,0,5.9,2.7,5.9,5.9v41.4h-0.5c-2,0-3.7,1.6-3.7,3.7V68h-5.1c-2,0-3.7,1.6-3.7,3.7s1.6,3.7,3.7,3.7l0,0h5.1v0.5
	c0,2,1.6,3.7,3.7,3.7h0.5v10.3c0,0.6,0.5,1.1,1.1,1.1h5.1c0.6,0,1.1-0.5,1.1-1.1V79.5h0.5c2,0,3.7-1.6,3.7-3.7v-8.4
	C86.9,65.4,85.3,63.8,83.2,63.8L83.2,63.8z M55.5,50.3v1.8H15.3v-1.8c0-1,0.8-1.8,1.8-1.8h36.6C54.7,48.5,55.5,49.3,55.5,50.3
	C55.5,50.3,55.5,50.3,55.5,50.3z M44.9,33.9c2.8,3.5,4.5,7.9,4.7,12.4H21.2c0.2-4.5,1.9-8.8,4.7-12.4l1.1-1.3h16.8L44.9,33.9z
	 M69.5,14.2H45c-4.5,0-8.1,3.7-8.2,8.2v8H34v-8c0-6.1,4.9-11,11-11h24.5c6.1,0,11,4.9,11,11v41.5h-2.8V22.4
	C77.6,17.8,74,14.2,69.5,14.2z M66.1,73.1c-0.8,0-1.4-0.6-1.4-1.4c0-0.8,0.6-1.4,1.4-1.4h5.1v2.9H66.1z M80.5,88.7h-2.9v-9.2h2.9
	V88.7z M84.7,75.8c0,0.8-0.6,1.4-1.4,1.4c0,0,0,0,0,0h-8.3c-0.8,0-1.4-0.6-1.4-1.4c0,0,0,0,0,0v-8.4c0-0.8,0.6-1.4,1.4-1.5
	c0,0,0,0,0,0h8.3c0.8,0,1.4,0.6,1.4,1.4L84.7,75.8z M20.1,58.2c-0.6,0-1.1,0.5-1.1,1.1v4.4c0,0.6,0.5,1.1,1.1,1.1
	c0.6,0,1.1-0.5,1.1-1.1v-4.4C21.2,58.7,20.7,58.2,20.1,58.2C20.1,58.2,20.1,58.2,20.1,58.2z M27.8,58.2c-0.6,0-1.1,0.5-1.1,1.1v4.4
	c0,0.6,0.5,1.1,1.1,1.1c0.6,0,1.1-0.5,1.1-1.1v-4.4C28.9,58.7,28.4,58.2,27.8,58.2z M35.4,58.2c-0.6,0-1.1,0.5-1.1,1.1v4.4
	c0,0.6,0.5,1.1,1.1,1.1c0.6,0,1.1-0.5,1.1-1.1v-4.4C36.6,58.7,36,58.2,35.4,58.2L35.4,58.2z M43.1,58.2c-0.6,0-1.1,0.5-1.1,1.1v4.4
	c0,0.6,0.5,1.1,1.1,1.1c0.6,0,1.1-0.5,1.1-1.1v-4.4C44.2,58.7,43.7,58.2,43.1,58.2L43.1,58.2z M50.8,58.2c-0.6,0-1.1,0.5-1.1,1.1
	v4.4c-0.1,0.6,0.4,1.2,1,1.2c0.6,0.1,1.2-0.4,1.2-1c0-0.1,0-0.1,0-0.2v-4.4C51.9,58.7,51.4,58.2,50.8,58.2z M20.1,71.2
	c-0.6,0-1.1,0.5-1.1,1.1v4.4c0,0.6,0.5,1.1,1.1,1.1s1.1-0.5,1.1-1.1c0,0,0,0,0,0v-4.4C21.2,71.7,20.7,71.2,20.1,71.2
	C20.1,71.2,20.1,71.2,20.1,71.2z M27.8,71.2c-0.6,0-1.1,0.5-1.1,1.1l0,0v4.4c0,0.6,0.5,1.1,1.1,1.1c0.6,0,1.1-0.5,1.1-1.1v-4.4
	C28.9,71.7,28.4,71.2,27.8,71.2L27.8,71.2z M35.4,71.2c-0.6,0-1.1,0.5-1.1,1.1l0,0v4.4c0,0.6,0.5,1.1,1.1,1.1c0.6,0,1.1-0.5,1.1-1.1
	v-4.4C36.6,71.7,36,71.2,35.4,71.2L35.4,71.2z M43.1,71.2c-0.6,0-1.1,0.5-1.1,1.1v4.4c0,0.6,0.5,1.1,1.1,1.1c0.6,0,1.1-0.5,1.1-1.1
	v-4.4C44.2,71.7,43.7,71.2,43.1,71.2L43.1,71.2L43.1,71.2z M50.8,71.2c-0.6,0-1.1,0.5-1.1,1.1l0,0v4.4c-0.1,0.6,0.4,1.2,1,1.2
	c0.6,0.1,1.2-0.4,1.2-1c0-0.1,0-0.1,0-0.2v-4.4C51.9,71.7,51.4,71.2,50.8,71.2z M20.1,84.3c-0.6,0-1.1,0.5-1.1,1.1v4.4
	c0,0.6,0.5,1.1,1.1,1.1c0.6,0,1.1-0.5,1.1-1.1v-4.4C21.2,84.8,20.7,84.3,20.1,84.3C20.1,84.3,20.1,84.3,20.1,84.3z M27.8,84.3
	c-0.6,0-1.1,0.5-1.1,1.1l0,0v4.4c0,0.6,0.5,1.1,1.1,1.1c0.6,0,1.1-0.5,1.1-1.1v-4.4C28.9,84.8,28.4,84.3,27.8,84.3L27.8,84.3z
	 M35.4,84.3c-0.6,0-1.1,0.5-1.1,1.1l0,0v4.4c0,0.6,0.5,1.1,1.1,1.1c0.6,0,1.1-0.5,1.1-1.1v-4.4C36.6,84.8,36,84.3,35.4,84.3
	L35.4,84.3z M43.1,84.3c-0.6,0-1.1,0.5-1.1,1.1v4.4c0,0.6,0.5,1.1,1.1,1.1c0.6,0,1.1-0.5,1.1-1.1v-4.4
	C44.2,84.8,43.7,84.3,43.1,84.3C43.1,84.3,43.1,84.3,43.1,84.3z M50.8,84.3c-0.6,0-1.1,0.5-1.1,1.1l0,0v4.4c0.1,0.6,0.6,1.1,1.2,1
	c0.5-0.1,1-0.5,1-1v-4.4C51.9,84.8,51.4,84.3,50.8,84.3z"/>
</svg>
