<?xml version="1.0" encoding="utf-8"?>
<!-- Generator: Adobe Illustrator 25.2.0, SVG Export Plug-In . SVG Version: 6.00 Build 0)  -->
<svg version="1.1" id="Layer_1" xmlns="http://www.w3.org/2000/svg" xmlns:xlink="http://www.w3.org/1999/xlink" x="0px" y="0px"
	 viewBox="0 0 100 100" style="enable-background:new 0 0 100 100;" xml:space="preserve">
<path d="M90.6,10.8c-2.2,0-4,1.8-4,4v1.4H83c-0.7,0.1-1.3,0.7-1.2,1.4c0.1,0.6,0.6,1.1,1.2,1.2h3.6v2.8h-19v-2.8h9.8
	c0.7-0.1,1.3-0.7,1.2-1.4c-0.1-0.6-0.6-1.1-1.2-1.2h-9.8v-1.4c0-2.2-1.8-4-4-4c-2.2,0-4,1.8-4,4v17.6h-19v-1.4c0-2.2-1.8-4-4-4
	s-4,1.8-4,4v17.6h-19v-1.4c0-2.2-1.8-4-4-4s-4,1.8-4,4v40.6c0,0.7,0.6,1.3,1.3,1.3c0,0,0,0,0,0h86.5c0.7,0,1.3-0.6,1.3-1.3v0V14.8
	C94.6,12.6,92.8,10.8,90.6,10.8L90.6,10.8z M90.6,13.4c0.8,0,1.4,0.6,1.4,1.4v0v66.3h-2.8V14.8C89.2,14,89.8,13.4,90.6,13.4
	L90.6,13.4z M86.6,24.2v62.3h-19V24.2H86.6z M62.1,86.6v-2.8h2.8v2.8H62.1z M63.5,13.4c0.8,0,1.4,0.6,1.4,1.4v66.3h-2.8V58.3
	c0.1-0.7-0.5-1.4-1.2-1.4c-0.7-0.1-1.4,0.5-1.4,1.2c0,0.1,0,0.2,0,0.2v28.3h-19V40.5h19v12.1c0.1,0.7,0.7,1.3,1.4,1.2
	c0.6-0.1,1.1-0.6,1.2-1.2V14.8C62.1,14,62.8,13.4,63.5,13.4C63.5,13.4,63.5,13.4,63.5,13.4z M59.5,35.1v2.8h-19v-2.8L59.5,35.1z
	 M36.5,29.7c0.8,0,1.4,0.6,1.4,1.4c0,0,0,0,0,0v50.1h-2.8V31.1C35.1,30.3,35.7,29.7,36.5,29.7C36.5,29.7,36.5,29.7,36.5,29.7z
	 M32.5,51.3v2.8h-6.7c-0.7-0.1-1.4,0.5-1.4,1.2c-0.1,0.7,0.5,1.4,1.2,1.4c0.1,0,0.2,0,0.2,0h6.7v29.9h-19V56.7h6.7
	c0.7,0.1,1.4-0.5,1.4-1.2c0.1-0.7-0.5-1.4-1.2-1.4c-0.1,0-0.2,0-0.2,0h-6.7v-2.8H32.5z M9.5,45.9c0.8,0,1.4,0.6,1.4,1.4l0,0v33.9H8
	V47.3C8,46.5,8.6,45.9,9.5,45.9C9.4,45.9,9.4,45.9,9.5,45.9L9.5,45.9z M8,86.6v-2.8h2.8v2.8H8z M35.1,86.6v-2.8h2.8v2.8H35.1z
	 M89.2,86.6v-2.8H92v2.8H89.2z"/>
</svg>
