<svg id="Layer_1" data-name="Layer 1" xmlns="http://www.w3.org/2000/svg" viewBox="0 0 100 100"><path d="M90,46A17.2,17.2,0,0,0,78.33,19.65a11.11,11.11,0,0,0,.24-2.31,11.24,11.24,0,1,0-21.8,3.84,16.45,16.45,0,0,0-15.46,16.4,16.27,16.27,0,0,0,4.14,10.91,14.28,14.28,0,0,0,21.79,17.8v21.6H49.62V81.74a5.65,5.65,0,0,0-2.32-10.8H14.38a5.65,5.65,0,0,0-2.33,10.8v7.81a1.67,1.67,0,0,0,1.67,1.67h6.65A1.67,1.67,0,0,0,22,89.55V82.24H39.65v5.65H38.07a1.67,1.67,0,0,0,0,3.33H76.39a1.67,1.67,0,0,0,0-3.33H70.57V66.35A14.08,14.08,0,0,0,90,46ZM18.7,87.89H15.38V82.24H18.7Zm27.6,0H43V82.24H46.3Zm1-9H14.38a2.33,2.33,0,1,1,0-4.65H47.3a2.33,2.33,0,0,1,0,4.65ZM79.76,66.44a10.77,10.77,0,0,1-9.19-5.17V53.53l0,0,9.45-9.44a1.67,1.67,0,0,0-2.35-2.36l-7.14,7.14V33.32a1.67,1.67,0,0,0-3.33,0v4.32l-1.32-1.33a1.66,1.66,0,0,0-2.35,2.35l3.67,3.68V53L62.7,48.45h0l-4-4a1.66,1.66,0,0,0-2.35,2.35l2.47,2.47-4.51,2.47a1.66,1.66,0,0,0,.8,3.12,1.61,1.61,0,0,0,.79-.21l5.37-2.93,6,6v3.54A11,11,0,0,1,47,55.47a10.82,10.82,0,0,1,2-6.25,1.69,1.69,0,0,0-.22-2.16,13,13,0,0,1-4.06-9.48A13.12,13.12,0,0,1,57.75,24.47a12.94,12.94,0,0,1,1.61.11A1.67,1.67,0,0,0,60.92,22a7.8,7.8,0,0,1-1.49-4.61A7.91,7.91,0,1,1,74.6,20.46a1.66,1.66,0,0,0,1.47,2.32A13.85,13.85,0,0,1,86.52,45.2a1.68,1.68,0,0,0,.22,2.3,10.75,10.75,0,0,1-7,18.94Z"/><path d="M84.38,88.38a1.68,1.68,0,0,0-1.18-.49,1.66,1.66,0,0,0-1.17.49,1.65,1.65,0,0,0,0,2.35,1.66,1.66,0,0,0,1.17.49,1.67,1.67,0,0,0,1.18-2.84Z"/><path d="M26.13,34.69a6.67,6.67,0,0,0-6.72,1.76,6.74,6.74,0,0,0-1.65-1.24,6.61,6.61,0,0,0-5.08-.52,1.67,1.67,0,1,0,1,3.19,3.33,3.33,0,0,1,4.17,2.24,1.67,1.67,0,0,0,3.19,0,3.34,3.34,0,0,1,4.17-2.24,1.67,1.67,0,0,0,1-3.19Z"/><path d="M36.73,22.43a6.66,6.66,0,0,0-5.08.51A6.74,6.74,0,0,0,30,24.18a7.15,7.15,0,0,0-1.64-1.24,6.68,6.68,0,0,0-5.09-.51,1.67,1.67,0,0,0,1,3.19,3.35,3.35,0,0,1,4.18,2.24,1.66,1.66,0,0,0,3.18,0,3.34,3.34,0,0,1,4.18-2.24,1.66,1.66,0,0,0,.95-3.19Z"/><path d="M57.75,27.85h0a1.67,1.67,0,1,0,1.68,1.67A1.66,1.66,0,0,0,57.73,27.85Z"/><path d="M53.05,30.81a1.67,1.67,0,0,0-2.35.06A9.69,9.69,0,0,0,48,37.58a1.66,1.66,0,0,0,3.32,0,6.4,6.4,0,0,1,1.77-4.42A1.66,1.66,0,0,0,53.05,30.81Z"/></svg>