<?xml version="1.0" encoding="utf-8"?>
<!-- Generator: Adobe Illustrator 25.2.0, SVG Export Plug-In . SVG Version: 6.00 Build 0)  -->
<svg version="1.1" id="Layer_1" xmlns="http://www.w3.org/2000/svg" xmlns:xlink="http://www.w3.org/1999/xlink" x="0px" y="0px"
	 viewBox="0 0 100 100" style="enable-background:new 0 0 100 100;" xml:space="preserve">
<path d="M91.3,83.6c0-0.3,0-0.5,0-0.8c0-4.7-3.8-8.5-8.5-8.5c-1,0-1.9,0.2-2.8,0.5v-6.2c0-1.6-1.3-2.9-2.8-2.9v-2.9
	c0-1.6-1.3-2.9-2.9-2.8c0,0,0,0,0,0V45.7c1.6,0,2.9-1.3,2.9-2.8V40c1.6,0,2.9-1.3,2.9-2.8c0,0,0,0,0,0v-2.8c0-1.6-1.3-2.9-2.8-2.9
	h-0.3C74.6,23.7,68,18.1,60,17.3v-1.6c0-1.8-1.2-3.4-2.9-4v-1.7c0-2.4-1.9-4.3-4.3-4.3h-5.7c-2.4,0-4.3,1.9-4.3,4.3v1.7
	c-1.7,0.6-2.8,2.2-2.9,4v1.6c-8,0.8-14.6,6.4-16.8,14.1h-0.3c-1.6,0-2.9,1.3-2.9,2.8c0,0,0,0,0,0v2.8c0,1.6,1.3,2.9,2.9,2.8
	c0,0,0,0,0,0v2.9c0,1.6,1.3,2.9,2.9,2.8V60c-1.6,0-2.9,1.3-2.9,2.8v2.8c-1.6,0-2.9,1.3-2.9,2.8c0,0,0,0,0,0v6.2
	c-4.4-1.6-9.3,0.8-10.9,5.2c-0.3,0.9-0.5,1.9-0.5,2.9c0,0.3,0,0.5,0,0.8c-2.7,1.5-3.7,5-2.2,7.7c1,1.8,2.9,2.9,5,2.9h77
	c3.1,0,5.7-2.5,5.7-5.7C94.2,86.5,93,84.6,91.3,83.6L91.3,83.6z M60,65.7v-2.9h14.3v2.9H60z M37.2,45.7V60h-2.9V45.7L37.2,45.7z
	 M40,60V45.7c1.6,0,2.9-1.3,2.9-2.8V40h14.3v2.9c0,1.6,1.3,2.9,2.9,2.9c0,0,0,0,0,0V60c-1.6,0-2.9,1.3-2.9,2.8v2.8H42.9v-2.9
	C42.9,61.3,41.6,60,40,60z M31.5,34.3v2.8h-2.9v-2.8H31.5z M34.3,34.3h2.8v2.8h-2.8V34.3z M57.1,17.2h-2.9v-2.9h1.4
	c0.8,0,1.4,0.6,1.4,1.4L57.1,17.2z M51.4,14.3v2.9h-2.9v-2.9L51.4,14.3z M47.5,20h4.9c4.3,2.3,7.1,6.6,7.5,11.4H40.1
	C40.4,26.6,43.2,22.3,47.5,20z M68.5,37.1v-2.8h2.9v2.8L68.5,37.1z M65.7,37.1h-2.8v-2.8h2.9L65.7,37.1z M62.8,60V45.7h2.9V60H62.8z
	 M40,37.2v-2.8h2.9v2.8H40z M45.7,34.3h2.8v2.8h-2.8L45.7,34.3z M51.4,34.3h2.8v2.8h-2.8L51.4,34.3z M60,34.3v2.8h-2.8v-2.8H60z
	 M71.4,60h-2.8V45.7h2.8V60z M74.3,42.9H60V40h14.3V42.9z M77.1,37.2h-2.9v-2.9h2.9V37.2z M73.8,31.5h-11c-0.2-4.4-2.2-8.5-5.4-11.5
	h1.1l1.1,0.1C66.2,20.8,71.7,25.2,73.8,31.5L73.8,31.5z M54.3,10.1v1.4h-2.8V8.6h1.4C53.6,8.6,54.3,9.3,54.3,10.1z M47.2,8.6h1.4
	v2.8h-2.8v-1.4C45.7,9.3,46.4,8.6,47.2,8.6z M42.9,15.8c0-0.8,0.6-1.4,1.4-1.4h1.4v2.9h-2.9L42.9,15.8z M40.4,20.1l1.1-0.1h1.1
	c-3.2,3-5.2,7.1-5.4,11.5h-11C28.3,25.2,33.9,20.8,40.4,20.1z M22.9,34.3h2.9v2.8h-2.9V34.3z M40,40v2.9H25.8V40H40z M28.6,45.7h2.9
	V60h-2.9V45.7z M25.8,62.8H40v2.9H25.8V62.8z M77.1,68.6v5.9c-3.9-3.9-10.2-4-14.1-0.1c-0.2,0.2-0.4,0.4-0.5,0.6
	c-4.4-4.5-11.6-4.6-16.1-0.3c-0.2,0.2-0.5,0.5-0.7,0.8c-2.4-1.4-5.4-1.5-7.9-0.3c-3.5-4.3-9.8-4.9-14.1-1.4
	c-0.3,0.2-0.6,0.5-0.8,0.7v-5.9H77.1z M88.5,91.4h-77c-1.6,0-2.8-1.3-2.8-2.8s1.3-2.8,2.9-2.8s2.8,1.3,2.8,2.8l0,0h2.9
	c0-3.2-2.6-5.7-5.7-5.7c0-3.1,2.5-5.7,5.7-5.7c1.2,0,2.4,0.4,3.4,1.1c-0.4,1-0.6,2.1-0.6,3.2v1.4h2.9v-1.4c0-3.9,3.2-7.1,7.1-7.1
	c2.1,0,4,0.9,5.4,2.5c-1.6,1.6-2.5,3.8-2.5,6.1V83c-2.5,0.6-4.3,2.9-4.3,5.5h2.9c0.1-1.6,1.4-2.8,3-2.7c1.4,0.1,2.6,1.2,2.7,2.7H40
	c0-2.6-1.8-4.9-4.3-5.5v-0.2c0-3.2,2.6-5.7,5.7-5.7c3.2,0,5.7,2.6,5.7,5.7H50c0-2.1-0.8-4.1-2.2-5.7c3.1-3.5,8.5-3.9,12.1-0.8
	c0.3,0.3,0.7,0.6,0.9,1c-0.4,0.9-0.6,1.8-0.8,2.7H60c-3.2,0-5.7,2.6-5.7,5.7h2.8c-0.1-1.6,1.1-2.9,2.7-3c1.6-0.1,2.9,1.1,3,2.7
	c0,0.1,0,0.2,0,0.3h2.8c0-2-1.1-3.9-2.8-4.9c0.4-3.9,3.8-6.8,7.7-6.4c3.6,0.3,6.4,3.4,6.5,7H80c0-1.1-0.2-2.1-0.5-3.2
	c2.5-1.9,6.1-1.3,8,1.2c0.7,1,1.1,2.2,1.1,3.4c-3.2,0-5.7,2.6-5.7,5.7h2.9c0-1.6,1.3-2.8,2.8-2.8s2.8,1.3,2.8,2.8
	C91.4,90.1,90.1,91.4,88.5,91.4L88.5,91.4L88.5,91.4z M50,25.7c0.8,0,1.4,0.6,1.4,1.4s-0.6,1.4-1.4,1.4s-1.4-0.6-1.4-1.4
	S49.2,25.7,50,25.7z M67.1,25.7c0.8,0,1.4,0.6,1.4,1.4s-0.6,1.4-1.4,1.4s-1.4-0.6-1.4-1.4S66.3,25.7,67.1,25.7z M32.9,25.7
	c0.8,0,1.4,0.6,1.4,1.4s-0.6,1.4-1.4,1.4s-1.4-0.6-1.4-1.4S32.1,25.7,32.9,25.7z"/>
</svg>
