<?xml version="1.0" encoding="utf-8"?>
<!-- Generator: Adobe Illustrator 25.2.0, SVG Export Plug-In . SVG Version: 6.00 Build 0)  -->
<svg version="1.1" id="Layer_1" xmlns="http://www.w3.org/2000/svg" xmlns:xlink="http://www.w3.org/1999/xlink" x="0px" y="0px"
	 viewBox="0 0 100 100" style="enable-background:new 0 0 100 100;" xml:space="preserve">
<path d="M86.3,27.9v-9.1c0-5-4.1-9.1-9.1-9.1H56.3c-5,0-9.1,4.1-9.1,9.1v9.1h2.6v7.8h-2.6v6.5h-0.6L16.5,73.6
	c-0.7,0.8-1.7,1.2-2.8,1.2H9.4c-2.2,0-3.9,1.8-3.9,3.9v11.7h14.7c1.8,0,3.5-0.7,4.7-2l22.8-24h2v26h7.8v-2.6h18.3v2.6h7.8v-26h2.6
	V35.7h-2.6v-7.8H86.3z M47.2,61.7h-0.6L23,86.6c-0.7,0.8-1.8,1.2-2.8,1.2H8.1v-9.1c0-0.7,0.6-1.3,1.3-1.3c0,0,0,0,0,0h4.3
	c1.8,0,3.5-0.7,4.7-2l28.8-30L47.2,61.7z M55,87.8h-2.6V64.3H55V87.8z M75.8,85.2H57.6v-2.6h18.2L75.8,85.2z M75.8,80H57.6v-5.2
	h18.2L75.8,80z M75.8,72.1H57.6v-2.6h18.2L75.8,72.1z M75.8,66.9H57.6v-2.6h18.2L75.8,66.9z M81,87.8h-2.6V64.3h2.6L81,87.8z
	 M83.6,61.7H49.8V38.3h33.9L83.6,61.7z M52.4,35.7v-7.9H55v7.8L52.4,35.7z M57.6,35.7v-7.9h18.3v7.8L57.6,35.7z M78.4,35.7v-7.9H81
	v7.8L78.4,35.7z M49.8,25.3v-2.6h28.7V20H49.8v-1.3c0-3.6,2.9-6.5,6.5-6.5h20.8c3.6,0,6.5,2.9,6.5,6.5V20h-2.6v2.6h2.6v2.6
	L49.8,25.3z M66.7,59.1c5,0,9.1-4.1,9.1-9.1s-4.1-9.1-9.1-9.1c-5,0-9.1,4.1-9.1,9.1C57.6,55,61.7,59.1,66.7,59.1z M66.7,43.5
	c3.6,0,6.5,2.9,6.5,6.5c0,3.6-2.9,6.5-6.5,6.5c-3.6,0-6.5-2.9-6.5-6.5C60.2,46.4,63.1,43.5,66.7,43.5z"/>
</svg>
