<?xml version="1.0" encoding="utf-8"?>
<!-- Generator: Adobe Illustrator 25.2.0, SVG Export Plug-In . SVG Version: 6.00 Build 0)  -->
<svg version="1.1" id="Layer_1" xmlns="http://www.w3.org/2000/svg" xmlns:xlink="http://www.w3.org/1999/xlink" x="0px" y="0px"
	 viewBox="0 0 100 100" style="enable-background:new 0 0 100 100;" xml:space="preserve">
<path d="M57.9,33.2V18.5c0-0.7-0.6-1.3-1.3-1.3s-1.3,0.6-1.3,1.3c0,0,0,0,0,0v3.9H43.4v-3.9c0-0.7-0.6-1.3-1.3-1.3
	c-0.7,0-1.3,0.6-1.3,1.3c0,0,0,0,0,0v14.8C25.1,34.5,11,38.9,10.7,46c0,0,0,0,0,0.1v23.6c0,0,0,0,0,0.1s0,0,0,0.1
	c0,6.3,11.2,10.4,24.8,12.1h0.1c4.8,0.6,9.6,0.9,14.4,0.9c4.8,0,9.6-0.3,14.4-0.9h0.1c13.6-1.7,24.8-5.8,24.8-12.1c0,0,0,0,0-0.1
	s0,0,0-0.1l0-23.6c0,0,0,0,0-0.1C89.1,38.7,74.1,34.3,57.9,33.2z M43.4,25.1h11.8v2.6H43.4V25.1z M43.4,30.3L43.4,30.3l11.8,0V33
	c-1.8,0-3.5,0-5.3,0c-2.2,0-4.4,0.1-6.6,0.2V30.3z M21.1,76c-5-1.8-7.9-4.1-7.9-6.2c0,0,0,0,0-0.1c0-0.1,0,0,0-0.1V51.2
	c2.3,1.9,5,3.3,7.9,4.2V76z M34.3,79.1c-3.5-0.5-7.1-1.2-10.5-2.2V56.2c3.4,1,6.9,1.7,10.5,2.2V79.1z M48.7,80.1
	c-3.9,0-7.9-0.3-11.8-0.7V58.7c3.9,0.4,7.9,0.7,11.8,0.7V80.1z M63.1,79.4c-3.9,0.4-7.9,0.7-11.8,0.7V59.4c3.9,0,7.9-0.3,11.8-0.7
	V79.4z M76.2,76.9c-3.4,1-6.9,1.7-10.5,2.2V58.4c3.5-0.5,7-1.2,10.5-2.2V76.9z M86.7,69.7C86.7,69.7,86.7,69.7,86.7,69.7
	c0,0.1,0,0.1,0,0.1c0,2.1-2.9,4.4-7.9,6.2V55.4c2.9-0.9,5.5-2.3,7.9-4.2V69.7z M50,56.8c-21.6,0-36.7-5.6-36.7-10.6
	c0-5,15.1-10.6,36.7-10.6s36.7,5.6,36.7,10.6C86.7,51.2,71.6,56.8,50,56.8z M45.7,45.4c0.5,0.5,0.6,1.3,0.1,1.8
	c-0.3,0.3-1.7,1.7-5,0.4c-1-0.4-2.2-0.1-2.9,0.7c-0.5,0.6-1.3,0.6-1.9,0.1c-0.6-0.5-0.6-1.3-0.1-1.9c1.5-1.6,3.8-2.2,5.8-1.4
	c1.4,0.6,2,0.3,2.1,0.3h0C44.4,44.9,45.1,44.9,45.7,45.4z M62.7,45.4c0.5,0.5,0.6,1.3,0.1,1.8c-0.3,0.3-1.7,1.7-5,0.4
	c-1-0.4-2.2-0.1-2.9,0.7c-0.5,0.6-1.3,0.6-1.9,0.1c-0.6-0.5-0.6-1.3-0.1-1.9c1.5-1.6,3.8-2.2,5.8-1.4c1.4,0.6,2,0.3,2.1,0.3h0
	C61.4,44.9,62.2,44.9,62.7,45.4z M50,38.2c-10.9,0-31.5,1.7-31.5,7.9s20.6,7.9,31.5,7.9s31.5-1.7,31.5-7.9S60.9,38.2,50,38.2z
	 M50,51.3c-18.7,0-28.9-3.5-28.9-5.3s10.2-5.2,28.9-5.2s28.9,3.5,28.9,5.2C78.9,47.8,68.7,51.3,50,51.3z"/>
</svg>
