<svg id="Layer_1" data-name="Layer 1" xmlns="http://www.w3.org/2000/svg" viewBox="0 0 100 100"><path d="M88.18,26.25H82.94V24.46a1.54,1.54,0,0,0-1.11-1.54,43.26,43.26,0,0,0-11.1-1.41c-6.16,0-14.55,1.38-20.75,7.69-6.16-6.37-14.61-7.69-20.76-7.69a43.37,43.37,0,0,0-11.1,1.41A1.54,1.54,0,0,0,17,24.46v1.77H11.82a1.54,1.54,0,0,0-1.54,1.54V77a1.54,1.54,0,0,0,2.3,1.34c.15-.08,15.55-8.5,37-3.08H50a2.28,2.28,0,0,0,.37,0c21.56-5.47,37,2.94,37.05,3.08A1.54,1.54,0,0,0,89.72,77V27.79A1.54,1.54,0,0,0,88.18,26.25ZM13.36,74.5V29.33H17V67.94a1.55,1.55,0,0,0,1.53,1.56l.24,0a67.58,67.58,0,0,1,9.63-.77,40,40,0,0,1,13.15,2A56.63,56.63,0,0,0,13.36,74.5Zm15.08-8.85a65.26,65.26,0,0,0-8.38.54V25.68a42.51,42.51,0,0,1,9.13-1c5.76,0,13.7,1.33,19.22,7.55l0,38.35C45.25,68.47,39,65.65,28.44,65.65ZM51.53,32.21C57,26.05,65,24.66,70.75,24.66a42.51,42.51,0,0,1,9.13,1V66.19a68.42,68.42,0,0,0-8.33-.56c-10.5,0-16.77,2.82-20,4.91ZM86.62,74.5a56.6,56.6,0,0,0-28.28-3.8,40,40,0,0,1,13.21-2,66.71,66.71,0,0,1,9.68.76A1.55,1.55,0,0,0,83,68.17a1.93,1.93,0,0,0,0-.24V29.33h3.68Z"/></svg>