<svg id="Layer_1" data-name="Layer 1" xmlns="http://www.w3.org/2000/svg" viewBox="0 0 100 100"><path d="M93.57,73a4.68,4.68,0,0,0-3.31-1.37H85.93a7.17,7.17,0,0,0,1.37-2.33L92.71,54a7.29,7.29,0,0,0-.48-6l-5.41-9.84a1.26,1.26,0,1,0-2.21,1.22l4.6,8.39-24.92,6a7.55,7.55,0,0,0-5.74,8.34l.13,1L53,63.76a3.82,3.82,0,0,0-3.12,2.38l-1.1,2.77a3.78,3.78,0,0,0-.05,2.69H23.76a4.75,4.75,0,0,1-4.44-3l-5.6-13.9L30.12,57a10,10,0,0,0,1.33.09,9.64,9.64,0,0,0,9.09-6.46l5.51-15.85,3.78-5.59a4.78,4.78,0,0,1,4-2.1H75a4.79,4.79,0,0,1,4.2,2.48l3,5.45a1.27,1.27,0,0,0,2.22-1.22l-3-5.45A7.3,7.3,0,0,0,75,24.55H53.79a7.29,7.29,0,0,0-6,3.21l-3.88,5.73a4.79,4.79,0,0,1-4,2.1h-12a7.37,7.37,0,0,0-4.42,1.48l-10.53,8a7.34,7.34,0,0,0-2.36,8.57L17,69.55a7.31,7.31,0,0,0,1.25,2h-5a4.68,4.68,0,0,0-4.67,4.68A4.68,4.68,0,0,0,13.25,81H25.71a1.27,1.27,0,1,0,0-2.53H13.25a2.15,2.15,0,0,1-2.14-2.14,2.15,2.15,0,0,1,2.14-2.15h77a2.15,2.15,0,0,1,2.15,2.15,2.15,2.15,0,0,1-2.15,2.14H30.77a1.27,1.27,0,0,0,0,2.53H90.26a4.67,4.67,0,0,0,3.31-8ZM14.45,47.08l10.53-8a4.79,4.79,0,0,1,2.89-1h12a7.18,7.18,0,0,0,2.45-.43l-4.2,12.1a7.11,7.11,0,0,1-7.68,4.69L12.69,52a4.8,4.8,0,0,1,1.76-4.93ZM51.09,69.84l1.1-2.76a1.3,1.3,0,0,1,1.05-.81l14-1.57a1.26,1.26,0,0,1,1.3.71l2.11,4.35A1.25,1.25,0,0,1,70.58,71a1.27,1.27,0,0,1-1.09.6H52.28A1.25,1.25,0,0,1,51.22,71a1.28,1.28,0,0,1-.13-1.2Zm22,1.76a3.79,3.79,0,0,0-.16-2.95l-2.11-4.34A3.81,3.81,0,0,0,67,62.18l-5.75.65-.14-1a5,5,0,0,1,3.81-5.54l25.51-6.1a4.79,4.79,0,0,1,0,3L84.91,68.42A4.77,4.77,0,0,1,80.4,71.6Zm0,0"/></svg>