<?xml version="1.0" encoding="utf-8"?>
<!-- Generator: Adobe Illustrator 25.2.0, SVG Export Plug-In . SVG Version: 6.00 Build 0)  -->
<svg version="1.1" id="Layer_1" xmlns="http://www.w3.org/2000/svg" xmlns:xlink="http://www.w3.org/1999/xlink" x="0px" y="0px"
	 viewBox="0 0 100 100" style="enable-background:new 0 0 100 100;" xml:space="preserve">
<path d="M90.4,66.9h-3.9c-0.1-2.1-1.1-4.1-2.9-5.2L82.5,61l-2.1-17.2c-0.3-2.3-1.4-4.4-3-6c-1.3-1.3-3-2.2-4.8-2.5L68,34.5l-0.3-1.7
	c0.6-0.5,1.2-1,1.7-1.7c0.9-0.2,1.8-0.4,2.7-0.7c2.4-0.8,4-3,4-5.5c0-0.9-0.2-1.8-0.6-2.6l-0.4-0.7c-0.2-0.4-0.3-0.9-0.3-1.4
	c0-5.9-4.8-10.7-10.7-10.7H62c-5.9,0-10.7,4.8-10.7,10.7c0,0,0,0,0,0c0,0.5-0.1,1-0.3,1.4l-0.4,0.7C50.2,23.2,50,24.1,50,25
	c0,2.5,1.6,4.7,4,5.5c0.9,0.3,1.8,0.5,2.7,0.7c0.5,0.6,1,1.2,1.7,1.7L58,34.5l-4.5,0.8c-0.5,0.1-1,0.2-1.5,0.4H39.7
	c0.7-0.7,1.1-1.6,1.2-2.6c0-2.5-2.7-4.4-6.6-5c0.8-0.7,1.3-1.7,1.3-2.8c0-3-3.9-5.2-9.1-5.2s-9.1,2.2-9.1,5.2c0,1.1,0.5,2.1,1.4,2.8
	c-3.9,0.6-6.6,2.6-6.6,5c0,1,0.4,1.9,1.1,2.6H9.6v7.8h2.6v23.4H9.6v10.4h2.6v10.4h46.3c0.9,1.6,2.6,2.6,4.5,2.6
	c0.8,0,1.6-0.2,2.3-0.6c0.6-0.3,1.1-0.7,1.6-1.2c1,1.1,2.4,1.8,3.9,1.8c0.8,0,1.6-0.2,2.3-0.6c0.9-0.4,1.7-1.1,2.2-2h12.4V77.4h2.6
	V66.9z M54.8,28c-1.3-0.4-2.2-1.6-2.2-3c0-0.5,0.1-1,0.3-1.4l0.4-0.7c0.4-0.8,0.6-1.7,0.6-2.6c0-4.5,3.6-8.1,8.1-8.1c0,0,0,0,0,0
	h2.1c4.5,0,8.1,3.6,8.1,8.1c0,0.9,0.2,1.8,0.6,2.6l0.4,0.7c0.2,0.4,0.3,0.9,0.3,1.4c0,1.4-0.9,2.6-2.2,3l-0.6,0.2
	c0.1-0.5,0.2-1,0.2-1.6V20h-1.5c-2,0-3.9-0.8-5.3-2.2l-1-0.9l-0.9,0.9c-1.4,1.4-3.3,2.2-5.3,2.2h-1.5v6.5c0,0.5,0.1,1.1,0.2,1.6
	L54.8,28z M57.8,22.6c1.9-0.2,3.7-1,5.2-2.1c1.5,1.2,3.3,1.9,5.2,2.1v4c0,2.9-2.3,5.2-5.2,5.2c-2.9,0-5.2-2.3-5.2-5.2c0,0,0,0,0,0
	V22.6z M53.9,37.9l6.3-1l0.6-2.9c1.5,0.5,3,0.5,4.5,0l0.6,2.8l6.3,1c1.3,0.2,2.5,0.8,3.4,1.8c1.2,1.2,2,2.8,2.2,4.5L80,62.4l2.1,1.4
	c1,0.7,1.7,1.8,1.7,3.1h-6.7l-2.5-16.6c0-0.5,0.1-0.9,0.1-1.4v-0.5c0-1.7-0.3-3.4-0.8-5l-0.2-0.5c-0.4-1.2-1.5-2-2.8-2H55.1
	c-1.3,0-2.4,0.8-2.8,2c-0.7,2-1,4.1-1,6.2v1.7l-2.4,16.2h-6.7c0-1.2,0.7-2.4,1.7-3.1l2.1-1.4l2.3-18.3c0.2-1.7,1-3.3,2.2-4.5
	C51.4,38.7,52.6,38.1,53.9,37.9z M67.5,66.9c-0.9-1.6-2.6-2.6-4.5-2.6c-0.8,0-1.6,0.2-2.3,0.6c-0.6,0.3-1.1,0.7-1.6,1.2
	c-1-1.1-2.4-1.8-3.9-1.8c-1.3,0-2.6,0.5-3.5,1.4l2.2-14.7v-2c0-1.8,0.3-3.6,0.9-5.4c0-0.1,0.2-0.2,0.3-0.2h16c0.1,0,0.2,0.1,0.3,0.2
	l0.2,0.5c0.5,1.4,0.7,2.8,0.7,4.2v0.5c0,0.4,0,0.9-0.1,1.3v0.2l2.5,16.6L67.5,66.9z M38.3,33.1c0,1.1-2.5,2.6-6.5,2.6h-2.4
	c0.7-0.7,1.1-1.6,1.1-2.6c0-0.9-0.4-1.8-1-2.4c0.7-0.1,1.5-0.2,2.3-0.2C35.7,30.5,38.3,32,38.3,33.1L38.3,33.1z M26.5,22.6
	c4,0,6.5,1.5,6.5,2.6s-2.5,2.6-6.5,2.6S20,26.3,20,25.3S22.5,22.6,26.5,22.6L26.5,22.6z M14.8,33.1c0-1.1,2.5-2.6,6.5-2.6
	s6.5,1.5,6.5,2.6s-2.5,2.6-6.5,2.6S14.8,34.1,14.8,33.1z M12.2,38.3h36c-0.7,0.8-1.3,1.7-1.7,2.6H12.2V38.3z M14.8,43.5h31
	c0,0.1,0,0.2-0.1,0.3L43.6,61l-1.1,0.7c-1.8,1.2-2.8,3.1-2.9,5.2H14.8V43.5z M12.2,69.5H50c0,0.8,0.2,1.6,0.5,2.3l1.5,2.9H12.2V69.5
	z M22.6,77.4v7.8H20v-7.8H22.6z M25.3,77.4h2.6v7.8h-2.6V77.4z M30.5,77.4h2.6v7.8h-2.6V77.4z M35.7,77.4h2.6v7.8h-2.6V77.4z
	 M40.9,77.4h2.6v7.8h-2.6L40.9,77.4z M46.1,77.4h2.6v7.8h-2.6L46.1,77.4z M51.3,77.4h2l3.9,7.8h-5.9L51.3,77.4z M14.8,77.4h2.6v7.8
	h-2.6V77.4z M64.2,87.5c-1.3,0.6-2.8,0.1-3.5-1.2l-7.8-15.6c-0.6-1.3-0.1-2.8,1.1-3.5c1.3-0.6,2.8-0.1,3.5,1.2l0.3,0.6
	c-0.1,1,0.1,2,0.5,2.9L65.4,86C65.3,86.6,64.8,87.2,64.2,87.5z M72,87.5c-1.3,0.6-2.8,0.1-3.5-1.2l-7.8-15.6
	c-0.6-1.3-0.1-2.8,1.2-3.5c0.4-0.2,0.7-0.3,1.1-0.3c1,0,1.9,0.6,2.3,1.4L73.2,84C73.8,85.3,73.3,86.9,72,87.5
	C72,87.5,72,87.5,72,87.5L72,87.5z M75.5,82.8l-2.7-5.5H80v7.8h-4C76,84.4,75.8,83.6,75.5,82.8L75.5,82.8z M85.2,85.2h-2.6v-7.8h2.6
	V85.2z M87.8,74.8H71.5l-2.6-5.2h18.9V74.8z M43.5,57.8c0-1-0.4-1.9-1-2.6c1.4-1.6,1.3-4.1-0.3-5.5c-0.7-0.6-1.7-1-2.6-1H24
	c-3.6-0.2-6.7,2.5-6.9,6.1c-0.2,3.6,2.5,6.7,6.1,6.9c0.2,0,0.5,0,0.7,0h15.6C41.7,61.7,43.5,60,43.5,57.8L43.5,57.8z M20,55.2
	c0-2.2,1.8-3.9,3.9-3.9c0,0,0,0,0.1,0h15.6c0.7,0.1,1.3,0.7,1.2,1.4c-0.1,0.6-0.6,1.1-1.2,1.2H22.6v2.6h16.9
	c0.7,0.1,1.3,0.7,1.2,1.4c-0.1,0.6-0.6,1.1-1.2,1.2H24C21.8,59.2,20.1,57.5,20,55.2C20,55.3,20,55.2,20,55.2z"/>
</svg>
