<svg id="Layer_1" data-name="Layer 1" xmlns="http://www.w3.org/2000/svg" viewBox="0 0 100 100"><path d="M17.59,55.65h9.69a1.22,1.22,0,0,0,1.22-1.21V37.58a1.22,1.22,0,0,0-1.22-1.22H17.59a1.22,1.22,0,0,0-1.21,1.22V54.44A1.21,1.21,0,0,0,17.59,55.65Zm1.21-2.42v-9.8h7.27v9.8Zm7.27-14.44V41H18.8V38.79Z"/><path d="M33.09,55.65h9.69A1.22,1.22,0,0,0,44,54.44V37.58a1.22,1.22,0,0,0-1.22-1.22H33.09a1.22,1.22,0,0,0-1.22,1.22V54.44A1.22,1.22,0,0,0,33.09,55.65Zm1.21-2.42v-9.8h7.27v9.8Zm7.27-14.44V41H34.3V38.79Z"/><path d="M31.87,77.84a1.22,1.22,0,0,0,1.22,1.21h9.69A1.22,1.22,0,0,0,44,77.84V61a1.22,1.22,0,0,0-1.22-1.21H33.09A1.22,1.22,0,0,0,31.87,61V77.84Zm2.43-1.22v-9.8h7.27v9.8Zm7.27-14.43V64.4H34.3V62.19Z"/><path d="M16.38,65.61a1.21,1.21,0,0,0,1.21,1.21h9.69a1.22,1.22,0,0,0,1.22-1.21V61a1.22,1.22,0,0,0-1.22-1.21H17.59A1.21,1.21,0,0,0,16.38,61Zm2.42-3.42h7.27V64.4H18.8Z"/><path d="M25,78a1.21,1.21,0,0,0-1.82,1.4A1.21,1.21,0,1,0,25,78Z"/><path d="M25.09,22.84a5.1,5.1,0,1,0,5.1-5.1A5.1,5.1,0,0,0,25.09,22.84Zm7.77,0a2.67,2.67,0,1,1-2.67-2.67A2.68,2.68,0,0,1,32.86,22.84Z"/><path d="M83.62,37.58a1.22,1.22,0,0,0-1.21-1.22H72.72a1.22,1.22,0,0,0-1.22,1.22V54.44a1.22,1.22,0,0,0,1.22,1.21h9.69a1.21,1.21,0,0,0,1.21-1.21ZM81.2,38.79V41H73.93V38.79ZM73.93,53.23v-9.8H81.2v9.8Z"/><path d="M68.13,37.58a1.22,1.22,0,0,0-1.22-1.22H57.22A1.22,1.22,0,0,0,56,37.58V54.44a1.22,1.22,0,0,0,1.22,1.21h9.69a1.22,1.22,0,0,0,1.22-1.21ZM65.7,38.79V41H58.43V38.79ZM58.43,53.23v-9.8H65.7v9.8Z"/><path d="M66.91,59.76H57.22A1.22,1.22,0,0,0,56,61V77.84a1.22,1.22,0,0,0,1.22,1.21h9.69a1.22,1.22,0,0,0,1.22-1.21V61A1.22,1.22,0,0,0,66.91,59.76ZM65.7,62.19V64.4H58.43V62.19ZM58.43,76.62v-9.8H65.7v9.8Z"/><path d="M82.41,59.76H72.72A1.22,1.22,0,0,0,71.5,61v4.64a1.22,1.22,0,0,0,1.22,1.21h9.69a1.21,1.21,0,0,0,1.21-1.21V61A1.21,1.21,0,0,0,82.41,59.76ZM81.2,64.4H73.93V62.19H81.2Z"/><path d="M76.78,78.56a1.22,1.22,0,0,0-2.24,0A1.25,1.25,0,0,0,74.89,80a1.22,1.22,0,0,0,1.89-1.41Z"/><path d="M64.72,22.84a5.1,5.1,0,1,0,5.09-5.1A5.09,5.09,0,0,0,64.72,22.84Zm7.76,0a2.67,2.67,0,1,1-2.67-2.67A2.67,2.67,0,0,1,72.48,22.84Z"/><path d="M89.63,42.79a1.21,1.21,0,0,0,1.21-1.21V29.86a1.25,1.25,0,0,0-.4-.88L70.62,11.26a1.22,1.22,0,0,0-1.62,0L55.85,23V16.5a1.21,1.21,0,0,0-1.21-1.21H45.36a1.21,1.21,0,0,0-1.21,1.21V23L31,11.26a1.22,1.22,0,0,0-1.62,0L9.56,29a1.25,1.25,0,0,0-.4.88V77a1.22,1.22,0,1,0,2.43,0V31.1h37.2V86.63H28.5V70.22A1.22,1.22,0,0,0,27.28,69H17.59a1.22,1.22,0,0,0-1.21,1.22V86.63H11.59V81.85a1.22,1.22,0,1,0-2.43,0v6a1.21,1.21,0,0,0,1.21,1.21H89.63a1.21,1.21,0,0,0,1.21-1.21V46.43a1.22,1.22,0,0,0-2.43,0v40.2H83.62V70.22A1.22,1.22,0,0,0,82.41,69H72.72a1.22,1.22,0,0,0-1.22,1.22V86.63H51.21V31.1h37.2V41.58A1.22,1.22,0,0,0,89.63,42.79ZM73.93,71.43H81.2v15.2H73.93ZM46.58,17.71h6.84V25.2L50,28.26,46.58,25.2V17.71Zm-33,11L30.19,13.79,46.82,28.68Zm5.25,58V71.43h7.27v15.2ZM53.18,28.68,69.81,13.79,86.45,28.68Z"/></svg>