<svg id="Layer_1" data-name="Layer 1" xmlns="http://www.w3.org/2000/svg" viewBox="0 0 100 100"><path d="M83.31,17.53A2.92,2.92,0,0,0,81,12.85H33.45A8.74,8.74,0,1,0,28,22.28L47.86,48.64a8.21,8.21,0,0,1,1.64,4.91V78.43a9.76,9.76,0,0,1-.21,2,9.87,9.87,0,0,1-7.83,7.64c-.49.08-4.78.88-5.67,4.89a1.29,1.29,0,0,0,.25,1.1,1.32,1.32,0,0,0,1,.49H57.37a1.31,1.31,0,0,0,0-2.62H39.23a5.73,5.73,0,0,1,3.16-1.38,12.43,12.43,0,0,0,9.73-12.14V53.55a8.72,8.72,0,0,0-.07-1.14h3.64a10.88,10.88,0,0,0-.06,1.14V78.43A12.43,12.43,0,0,0,65.4,90.58,5.94,5.94,0,0,1,68.51,92h-5a1.31,1.31,0,0,0,0,2.62h7.16a1.3,1.3,0,0,0,1-.49A1.33,1.33,0,0,0,72,93c-.66-3-3.28-4.38-6-5a9.8,9.8,0,0,1-7.7-9.59V53.55a8.3,8.3,0,0,1,1.64-4.91ZM24.83,20.27a6.11,6.11,0,1,1,6-7.42h-4a2.92,2.92,0,0,0-2.33,4.68l1.93,2.55A5.94,5.94,0,0,1,24.83,20.27ZM56.3,49.8H51.44a11,11,0,0,0-1-2h0a29.78,29.78,0,0,0-1.89-2.57L30.82,21.66a45.77,45.77,0,0,1,5.73.45c.89.12,1.78.27,2.67.42s1.73.32,2.6.5a1.31,1.31,0,1,0,.52-2.56,56.56,56.56,0,0,0-13.47-1.39L26.52,16a.28.28,0,0,1,0-.31.29.29,0,0,1,.27-.17H81a.28.28,0,0,1,.27.17.26.26,0,0,1,0,.31L77.73,20.6a19.64,19.64,0,0,1-4.37,2.13,29.48,29.48,0,0,1-11,1.36,80.08,80.08,0,0,1-14-2.29,1.3,1.3,0,0,0-.58,2.54,83.41,83.41,0,0,0,14.12,2.35,32.58,32.58,0,0,0,12.37-1.48l.06,0L57.79,47.07A11.31,11.31,0,0,0,56.3,49.8Z"/></svg>