<svg id="Layer_1" data-name="Layer 1" xmlns="http://www.w3.org/2000/svg" viewBox="0 0 100 100"><path d="M87.38,30.69H83.59V27.05A3.61,3.61,0,0,0,80,23.45H71.63A3.61,3.61,0,0,0,68,27.05v8.74H65.21v-.1a4.31,4.31,0,0,0-4.3-4.3,4.25,4.25,0,0,0-2.38.72,4.29,4.29,0,0,0-6.32-1.51,4.29,4.29,0,0,0-7.37,0A4.3,4.3,0,0,0,38,34.09v1.79H32V27.05a3.61,3.61,0,0,0-3.61-3.6H20a3.61,3.61,0,0,0-3.61,3.6v3.64H12.62A3.61,3.61,0,0,0,9,34.29v4.46a1.2,1.2,0,0,0,2.4,0V34.29a1.2,1.2,0,0,1,1.2-1.2h3.79V51.94H12.62a1.2,1.2,0,0,1-1.2-1.2V44A1.2,1.2,0,0,0,9,44v6.76a3.61,3.61,0,0,0,3.6,3.6h3.79V58A3.61,3.61,0,0,0,20,61.58h8.35A3.61,3.61,0,0,0,32,58V49.24h3.37a4.6,4.6,0,0,0,.4.58h0l4.33,5.4a.45.45,0,0,1,.09.25v27.3a3.6,3.6,0,0,0,3.6,3.6H56.89a3.61,3.61,0,0,0,3.61-3.6v-9.5a1.21,1.21,0,0,0-2.41,0v9.5a1.2,1.2,0,0,1-1.2,1.2H43.77a1.2,1.2,0,0,1-1.2-1.2V55.48A2.77,2.77,0,0,0,42,53.73l-4.33-5.4h0a2.11,2.11,0,0,1-.45-1.3V40.36a2.29,2.29,0,0,1,2.29-2.28H46.8a3.11,3.11,0,0,1-3.11,3H40.91a1.48,1.48,0,0,0-.18,3c1.43.18,6.08,1.15,6.08,6.11a1.2,1.2,0,0,0,2.4,0c0-.3,0-.59,0-.87H62.81v.5a2.8,2.8,0,0,1-1.2,2.3l-2.32,1.62a2.8,2.8,0,0,0-1.2,2.3V68.05a1.21,1.21,0,0,0,2.41,0V56a.39.39,0,0,1,.17-.33L63,54a5.21,5.21,0,0,0,2.22-4.27v-.5H68V58a3.61,3.61,0,0,0,3.61,3.6H80A3.61,3.61,0,0,0,83.59,58V54.34h3.79a3.61,3.61,0,0,0,3.6-3.6V34.29a3.61,3.61,0,0,0-3.6-3.6Zm-26.47,3.1a1.9,1.9,0,0,1,1.9,1.9v5.68a1.9,1.9,0,0,1-3.79,0h0V35.69a1.9,1.9,0,0,1,1.89-1.9Zm-6.19-1.6a1.91,1.91,0,0,1,1.9,1.9v7.28a1.9,1.9,0,0,1-3.8,0V34.09A1.9,1.9,0,0,1,54.72,32.19Zm-12.39,0a1.9,1.9,0,0,1,1.89,1.9v1.58H40.43V34.09A1.9,1.9,0,0,1,42.33,32.19ZM29.58,58a1.21,1.21,0,0,1-1.21,1.2H20a1.2,1.2,0,0,1-1.2-1.2V27.05a1.2,1.2,0,0,1,1.2-1.2h8.35a1.21,1.21,0,0,1,1.21,1.2V58ZM32,38.29h3.28a4.51,4.51,0,0,0-.49,2.07v6.48H32Zm14.65-2.62V32.81a1.9,1.9,0,1,1,3.79,0v8.56a1.9,1.9,0,0,1-3.49,1,5.54,5.54,0,0,0,2.28-4.47v-.48a1.65,1.65,0,0,0-1.07-1.62A3.24,3.24,0,0,0,47,35.67Zm2,11.17A7.22,7.22,0,0,0,48,45.63a4.58,4.58,0,0,0,.53,0,4.26,4.26,0,0,0,3.1-1.32,4.3,4.3,0,0,0,6.2,0,4.25,4.25,0,0,0,3.09,1.32,4.3,4.3,0,0,0,4.3-4.29V38.19H68v8.64H48.6Zm40,3.9a1.2,1.2,0,0,1-1.2,1.2H83.59V47.08a1.21,1.21,0,0,0-2.41,0V58a1.2,1.2,0,0,1-1.2,1.2H71.63A1.21,1.21,0,0,1,70.42,58V27.05a1.21,1.21,0,0,1,1.21-1.2H80a1.2,1.2,0,0,1,1.2,1.2v14.8a1.21,1.21,0,0,0,2.41,0V33.09h3.79a1.2,1.2,0,0,1,1.2,1.2Z"/></svg>