<?xml version="1.0" encoding="utf-8"?>
<!-- Generator: Adobe Illustrator 25.2.0, SVG Export Plug-In . SVG Version: 6.00 Build 0)  -->
<svg version="1.1" id="Layer_1" xmlns="http://www.w3.org/2000/svg" xmlns:xlink="http://www.w3.org/1999/xlink" x="0px" y="0px"
	 viewBox="0 0 100 100" style="enable-background:new 0 0 100 100;" xml:space="preserve">
<path d="M61.1,45.8h-1.4v-7c-0.3-12.3-10.4-22-22.7-21.8C25.1,17.4,15.5,27,15.3,38.9v7h-1.4C10,46,7.1,49.3,7.3,53.2
	c0.2,3,2.3,5.6,5.2,6.4v16.8c0,0.8,0.6,1.4,1.4,1.4h1.4V82c0,0.8,0.6,1.4,1.4,1.4h5.6c0.8,0,1.4-0.6,1.4-1.4l0,0v-4.2h25V82
	c0,0.8,0.6,1.4,1.4,1.3h5.6c0.8,0,1.4-0.6,1.4-1.3c0,0,0,0,0,0v-4.2h4.2c0.8,0,1.4-0.6,1.4-1.4V59.6c3.7-1,6-4.8,5-8.5
	C66.8,48.1,64.2,46,61.1,45.8L61.1,45.8z M18,38.9c0.2-10.7,9.2-19.3,19.9-19c10.4,0.2,18.8,8.6,19,19v7h-4.1
	c-0.8,0-1.4,0.6-1.4,1.4V57H23.6v-9.8c0-0.8-0.6-1.4-1.4-1.4H18V38.9z M51.4,75H23.6v-9.7h27.8V75z M15.3,75v-2.8h5.6V75H15.3z
	 M23.6,59.7h27.8v2.8H23.6V59.7z M9.7,52.8c0-2.3,1.9-4.2,4.2-4.2h7v20.8h-5.6V58.3c0-0.7-0.6-1.3-1.4-1.3
	C11.6,57,9.7,55.1,9.7,52.8C9.7,52.8,9.7,52.8,9.7,52.8z M18,80.6v-2.8h2.8v2.8H18z M54.1,80.6h-2.7v-2.8h2.8L54.1,80.6z M54.1,75
	v-2.8h5.6V75L54.1,75z M61.1,57c-0.8,0-1.4,0.6-1.4,1.4v11.1h-5.6V48.6h7c2.3,0,4.2,1.9,4.2,4.2C65.3,55.1,63.4,56.9,61.1,57
	C61.1,57,61.1,57,61.1,57L61.1,57z M26.4,43h2.8v2.8h-2.8V43z M26.4,26.4h2.8v2.8h-2.8V26.4z M45.8,43h2.8v2.8h-2.8V43z M45.8,26.4
	h2.8v2.8h-2.8V26.4z M93.1,58.3v-2.8h-9.7v-6.4l5.2-5.2c0.4-0.4,0.5-1,0.3-1.5c-0.2-0.5-0.7-0.9-1.3-0.9H76.4
	c-0.6,0-1.1,0.3-1.3,0.9C74.9,43,75,43.6,75.4,44l5.2,5.2v6.4h-9.7v2.8h7v22.3h-7v2.8h22.2v-2.8h-7V58.3H93.1z M84.2,44.4L82,46.7
	l-2.2-2.2H84.2z M83.4,80.6h-2.8V58.3h2.8L83.4,80.6z M36.1,34.7h2.8v2.8h-2.8V34.7z"/>
</svg>
