<?xml version="1.0" encoding="utf-8"?>
<!-- Generator: Adobe Illustrator 25.2.0, SVG Export Plug-In . SVG Version: 6.00 Build 0)  -->
<svg version="1.1" id="Layer_1" xmlns="http://www.w3.org/2000/svg" xmlns:xlink="http://www.w3.org/1999/xlink" x="0px" y="0px"
	 viewBox="0 0 100 100" style="enable-background:new 0 0 100 100;" xml:space="preserve">
<path d="M85.9,60.3c1.2-1.2,1.9-2.8,1.8-4.5c0-0.9-0.7-1.6-1.6-1.6H62.3l-3.4-2.8l-4.1-19.6c-0.7-3.5-3.1-6.4-6.4-7.8l-2.7-1.1
	c-0.2-0.1-0.4-0.2-0.6-0.3c0.9-1,1.4-2.3,1.4-3.7v-4.7c0-3.1-2.5-5.6-5.6-5.6h-1c-3.1,0-5.6,2.5-5.6,5.6v4.7c0,1.3,0.5,2.6,1.3,3.6
	l-0.8,0.3l-2.7,1.2c-3.4,1.4-5.9,4.5-6.6,8.1l-1.8,9.8c-0.1,0.7,0.3,1.3,1,1.4c0,0,0,0,0,0h0.2c0.6,0,1.1-0.4,1.2-1l1.8-9.8
	c0.5-2.8,2.4-5.2,5-6.3l2.8-1.1c0.9-0.4,1.8-0.6,2.7-0.8c0.4,0.1,0.9,0.2,1.4,0.2h1c0.4,0,0.8,0,1.3-0.1c0.9,0.1,1.8,0.4,2.6,0.8
	l2.7,1.1c2.6,1.1,4.4,3.4,5,6.1l4.1,19.6c0.1,0.5,0.4,1,0.8,1.3l1.2,1h-1.1c-1.5,0-2.8-1-3.1-2.4L50,35.3c-0.2-0.8-1-1.2-1.7-1
	c-0.6,0.2-1,0.7-1,1.3v12.5h-3.5c-0.2,0-0.4,0-0.6,0H43H33l-0.5-13c0-0.7-0.7-1.3-1.4-1.3c-0.6,0-1.1,0.5-1.2,1.1l-3.2,16.6
	c-0.3,1.6-1.7,2.7-3.3,2.7h-1.6l1.9-1.7c0.4-0.3,0.6-0.8,0.7-1.3l0.8-4c0.1-0.7-0.4-1.3-1.1-1.3c-0.6-0.1-1.1,0.3-1.3,0.9l-0.7,3.9
	l-4,3.5h-4.1c-0.4,0-0.8,0.2-1.1,0.5l0,0c-0.3,0.3-0.5,0.7-0.5,1.2c0,3,2.1,5.6,5,6.2v27h-1.5c-0.7-0.1-1.3,0.4-1.3,1.1
	s0.4,1.3,1.1,1.3c0.1,0,0.1,0,0.2,0h2.4c0.1,0,0.2,0,0.3,0h62.9c0.1,0,0.2,0,0.3,0h2.4c0.7-0.1,1.2-0.7,1.1-1.3
	c-0.1-0.6-0.5-1.1-1.1-1.1h-1.5V62C83.9,61.8,85,61.2,85.9,60.3z M36.7,18.8v-4.7c0-1.7,1.4-3.1,3.1-3.1h1c1.7,0,3.2,1.3,3.2,3.1
	c0,0,0,0,0,0v4.7c0,1.7-1.4,3.1-3.1,3.1h-1C38.1,22,36.7,20.6,36.7,18.8C36.7,18.8,36.7,18.8,36.7,18.8z M51.9,52.4
	c0.2,0.7,0.4,1.3,0.8,1.8h-1.7l-1.4-5v-5.5L51.9,52.4z M47.5,50.5l2.8,10c0.1,0.4,0.2,0.7,0.2,1.1V66c-2,0.7-4,1.3-6.1,1.6l-0.4,0.1
	c-1-1.2-2.5-3.5-2.3-6c0.2-1.1,0.5-2.2,0.9-3.3c0.2-0.6,0.5-1.2,0.9-1.7c0.2-0.4,0.5-0.8,0.7-1.2c0.7-1.5,0.9-3.2,0.7-4.9L47.5,50.5
	z M34,89c0.8-0.6,1.5-1.3,2-2.2l1.7-3l0.1,0.4l-2,4.8H34z M35.3,77.8l1.2,3l-2.7,4.8c-0.6,1-1.5,1.7-2.6,2.1l-0.4,0.1L35.3,77.8z
	 M38.6,88.8l1.7-4.2c0.1-0.3,0.1-0.6,0-0.9L39,80.4l0,0l-2.5-6.2l0,0l-1.6-4.1c1.3,0.2,2.7,0.3,4.1,0.3l1.2,4.5l0,0l2.5,9.4
	c0.1,0.4,0,0.7-0.3,1l-2.1,2.4C39.9,88.2,39.2,88.6,38.6,88.8L38.6,88.8z M41.6,70.3h0.8l-0.6,1L41.6,70.3z M42.5,50.5
	c0.2,1.3,0,2.7-0.5,3.9c-0.2,0.3-0.3,0.7-0.5,1c-0.4,0.7-0.8,1.4-1.1,2.1c-0.5,1.3-0.8,2.6-1,4c-0.1,2.3,0.5,4.6,1.9,6.5
	c-0.4,0-0.8,0-1.2,0c-2.2,0-4.4-0.2-6.6-0.7h-0.1c-1.5-0.3-3-0.7-4.5-1.3v-4.1c0-0.2,0-0.5,0.1-0.7c0-0.2,0.1-0.5,0.2-0.7l3.6-9.9
	L42.5,50.5z M29,51.9l1.5-7.4l0.2,4.6l-1.8,5.1H28C28.5,53.5,28.8,52.7,29,51.9z M14.8,56.6H28l-1.1,3v0.1h-8.4
	C16.7,59.7,15.2,58.4,14.8,56.6z M19.8,62.1h6.7v3.9c0,1,0.6,1.9,1.5,2.2c1.3,0.5,2.7,0.9,4.1,1.2l2,5.1l-5.5,12.3
	c-0.3,0.7-0.3,1.5,0.1,2.2h-8.9L19.8,62.1z M42.4,89l1.9-2.2c0.7-0.9,1-2,0.8-3.1l0,0l-2.4-8.9l2.7-4.8c2.1-0.3,4.1-0.9,6.1-1.6
	c0.9-0.4,1.5-1.2,1.5-2.2v-4.5c0-0.3,0-0.6-0.1-0.9c0-0.3-0.1-0.6-0.2-0.9l-0.9-3.3h33.4c-0.4,1.8-1.9,3.1-3.8,3.1H58
	c-0.7,0.1-1.2,0.7-1.1,1.3c0.1,0.6,0.5,1.1,1.1,1.1h22.2V89H42.4z M63.5,47c0.7,0,1.2-0.5,1.2-1.2c0,0,0,0,0,0
	c0-1.6,0.5-3.1,1.4-4.4c2.4-3.4,2.4-8,0-11.4c-0.4-0.5-1.2-0.5-1.7-0.1c-0.4,0.4-0.5,0.9-0.3,1.4c1.9,2.6,1.9,6.2,0,8.8
	c-1.2,1.6-1.9,3.6-1.8,5.7C62.3,46.4,62.8,47,63.5,47z M63.5,26.9c0.7,0,1.2-0.5,1.2-1.2l0,0c0-1.6,0.5-3.1,1.4-4.4
	c1.2-1.6,1.9-3.7,1.8-5.7c-0.1-0.7-0.7-1.2-1.3-1.1c-0.6,0.1-1.1,0.5-1.1,1.1c0,1.6-0.5,3.1-1.4,4.4c-1.2,1.6-1.9,3.7-1.8,5.7
	C62.3,26.3,62.8,26.8,63.5,26.9z M72.8,47c0.7,0,1.2-0.5,1.2-1.2c0,0,0,0,0,0c0-1.6,0.5-3.1,1.4-4.4c0.2-0.3,0.4-0.7,0.6-1
	c0.3-0.6,0.1-1.3-0.5-1.7c-0.6-0.3-1.3-0.1-1.7,0.5l0,0c-0.2,0.3-0.4,0.6-0.6,0.9c-1.2,1.6-1.9,3.6-1.8,5.7
	C71.6,46.4,72.2,47,72.8,47C72.8,47,72.8,47,72.8,47z M74.9,35.7c0,0.7,0.5,1.2,1.2,1.2s1.2-0.5,1.2-1.2c0-2.1-0.6-4.1-1.8-5.7
	c-1-1.3-1.5-2.8-1.4-4.4c0-1.6,0.5-3.1,1.4-4.4c1.2-1.6,1.9-3.6,1.8-5.7c0-0.7-0.5-1.2-1.2-1.2s-1.2,0.5-1.2,1.2l0,0
	c0,1.6-0.5,3.1-1.4,4.4c-1.2,1.6-1.9,3.7-1.8,5.7c0,2,0.6,4.1,1.8,5.7C74.4,32.6,74.9,34.1,74.9,35.7z M80.9,45.8
	c-0.1,0.7,0.4,1.3,1.1,1.3c0.7,0.1,1.3-0.4,1.3-1.1c0-0.1,0-0.1,0-0.2c0-1.6,0.5-3.1,1.4-4.4c1.2-1.6,1.9-3.6,1.8-5.7
	c0-2.1-0.6-4.1-1.8-5.7c-1-1.3-1.5-2.8-1.4-4.4c0-0.7,0.1-1.3,0.2-2c0.1-0.7-0.3-1.3-1-1.4c-0.6-0.1-1.2,0.2-1.4,0.8
	c-0.2,0.8-0.3,1.7-0.3,2.6c0,2,0.6,4.1,1.8,5.7c1.9,2.6,1.9,6.2,0,8.8C81.5,41.7,80.9,43.7,80.9,45.8z M84,20.3
	c0.2,0.1,0.4,0.1,0.6,0.1c0.5,0,0.9-0.3,1.1-0.7c0.6-1.3,1-2.7,0.9-4.2c-0.1-0.7-0.7-1.2-1.3-1.1c-0.6,0.1-1.1,0.5-1.1,1.1
	c0,1.1-0.2,2.1-0.7,3.1C83.2,19.3,83.4,20,84,20.3z"/>
</svg>
