<?xml version="1.0" encoding="utf-8"?>
<!-- Generator: Adobe Illustrator 25.2.0, SVG Export Plug-In . SVG Version: 6.00 Build 0)  -->
<svg version="1.1" id="Layer_1" xmlns="http://www.w3.org/2000/svg" xmlns:xlink="http://www.w3.org/1999/xlink" x="0px" y="0px"
	 viewBox="0 0 100 100" style="enable-background:new 0 0 100 100;" xml:space="preserve">
<path d="M49.2,17.7c-0.3,0.8,0,1.7,0.5,2.2l1.8,1.8l-0.4,2.5c-0.2,0.8,0.2,1.6,0.8,2.1c0.7,0.5,1.6,0.5,2.3,0.2l2.3-1.2l2.3,1.2
	c1.1,0.6,2.4,0.2,2.9-0.9c0.2-0.4,0.3-0.9,0.2-1.4l-0.4-2.5l1.8-1.8c0.9-0.8,0.9-2.2,0-3.1c-0.3-0.3-0.8-0.6-1.2-0.6l-2.6-0.4
	l-1.1-2.3c-0.5-1.1-1.8-1.5-2.9-1c-0.4,0.2-0.8,0.6-1,1l-1.1,2.3L51,16.2C50.2,16.3,49.5,16.9,49.2,17.7z M53.9,18.2
	c0.7-0.1,1.3-0.5,1.6-1.2l1-2.1l1,2.1c0.3,0.6,0.9,1.1,1.6,1.2l2.3,0.3l-1.6,1.6c-0.5,0.5-0.7,1.2-0.6,1.9l0.4,2.3l-2-1.1
	c-0.6-0.3-1.4-0.3-2,0l-2,1.1l0.3-2.3c0.1-0.7-0.1-1.4-0.6-1.9l-1.7-1.6L53.9,18.2z M66.9,51.8c-6.5-3.4-12.1-6.4-12.6-11.6
	c2.8-0.6,5.3-2,7.3-4c1.9-1.8,3.2-4.1,3.9-6.6c0.3-1-0.1-2-1-2.5c-0.9-0.5-2-0.4-2.7,0.4l0,0l-0.1,0.1C60,29.1,57.7,30,55.4,30l0,0
	c-4.9,0-8.9-4-8.8-8.9c0-2.3,0.9-4.5,2.6-6.2l0,0l0,0c0.7-0.7,0.9-1.8,0.4-2.7c-0.5-0.9-1.6-1.3-2.5-1c-2.5,0.7-4.7,2-6.6,3.8
	c-0.3,0.3-0.5,0.6-0.8,0.9c-0.4,0.5-0.4,1.2,0.1,1.7c0.5,0.4,1.2,0.4,1.7-0.1l0,0c0.2-0.3,0.5-0.5,0.7-0.8c1.4-1.4,3.2-2.5,5.1-3.1
	c-4.1,4.6-3.7,11.7,0.9,15.9c4.3,3.8,10.7,3.8,14.9,0c-0.6,1.9-1.7,3.7-3.2,5.1c-2.4,2.3-5.5,3.7-8.8,3.7l0,0
	c-7,0-12.7-5.7-12.7-12.6c0-1.5,0.3-3,0.8-4.5c0.2-0.6-0.2-1.3-0.8-1.5c-0.6-0.2-1.2,0.1-1.4,0.6c-2.9,7.8,1,16.5,8.8,19.4
	c0,0,0.1,0,0.1,0c-0.2,5.6-6,8.6-12.7,12.2c-8.4,4.4-17.8,9.4-17.8,20.9c0,12.4,8,18.5,8.3,18.8c0.2,0.2,0.5,0.2,0.7,0.2h51.3
	c0.3,0,0.5-0.1,0.7-0.2c1-0.8,2-1.8,2.8-2.8c0.4-0.5,0.4-1.2-0.1-1.7c0,0,0,0,0,0c-0.5-0.4-1.2-0.3-1.7,0.2
	c-0.6,0.8-1.3,1.5-2.1,2.2H24.8c-4.6-4.3-7.2-10.3-7.1-16.7c0-10.1,8.4-14.5,16.6-18.8C41,50.4,47.4,47,48.1,40.6h3.8
	c0.7,6.4,7.1,9.8,13.9,13.3c8.2,4.3,16.6,8.7,16.6,18.8c0,3.7-0.8,7.4-2.6,10.8c-0.3,0.6-0.1,1.3,0.5,1.6c0.6,0.3,1.3,0.1,1.6-0.5
	c1.9-3.7,2.9-7.7,2.8-11.8C84.7,61.2,75.2,56.2,66.9,51.8z"/>
</svg>
