<?xml version="1.0" encoding="utf-8"?>
<!-- Generator: Adobe Illustrator 25.2.0, SVG Export Plug-In . SVG Version: 6.00 Build 0)  -->
<svg version="1.1" id="Layer_1" xmlns="http://www.w3.org/2000/svg" xmlns:xlink="http://www.w3.org/1999/xlink" x="0px" y="0px"
	 viewBox="0 0 100 100" style="enable-background:new 0 0 100 100;" xml:space="preserve">
<path d="M80.5,19C71.8,10.4,57,9,44.3,15.7c-5.4-4.6-13.5-3.9-18.1,1.5c-4.3,5-4,12.5,0.5,17.2c-1,2.5-1.6,5.1-1.8,7.7
	c0,0.1-0.1,0.2-0.1,0.3c-0.1,1.4,0,2.8,0.2,4.2l0,0c0.1,0.8,0.2,1.7,0.4,2.5c0,0.1,0,0.2,0,0.3c0.2,0.8,0.4,1.6,0.7,2.4l0.1,0.3
	c0.3,0.8,0.6,1.6,1,2.4c1,2,1.2,4.3,0.7,6.5c0,0.2-0.1,0.4-0.2,0.6s-0.1,0.5-0.2,0.8s-0.2,0.5-0.3,0.7s-0.2,0.4-0.3,0.6
	s-0.3,0.5-0.4,0.8l-0.3,0.5c-0.2,0.3-0.4,0.5-0.6,0.8l-0.3,0.4c-0.2,0.3-0.5,0.6-0.7,0.8c-0.1,0.1-0.2,0.2-0.2,0.3
	c-0.3,0.3-0.6,0.6-0.9,0.8c-0.1,0.1-0.2,0.2-0.3,0.2c-0.4,0.3-0.8,0.6-1.2,0.9l-0.1,0.1c-0.5,0.3-0.9,0.6-1.4,0.9
	c-1.8,1.1-3.6,2.2-5.3,3.5l-2,1.6c-1.7,1.3-2,3.6-0.7,5.3c0.1,0.1,0.2,0.3,0.3,0.4l6.7,6.7c0.7,0.7,1.7,1.1,2.7,1.1h0.3
	c1.1-0.1,2.1-0.7,2.7-1.5l2.1-2.8c0.6-0.8,1.2-1.7,1.8-2.7c0.4-0.7,0.9-1.4,1.3-2.1c0.3-0.5,0.6-1,0.9-1.4c1.1-1.6,2.4-3,4-4.1
	l0.2-0.1c0.3-0.2,0.6-0.3,0.9-0.5c0.1-0.1,0.2-0.1,0.3-0.2c0.3-0.1,0.5-0.2,0.8-0.4l0.5-0.2l0.7-0.2c0.2-0.1,0.4-0.2,0.6-0.2
	c1.8-0.4,3.7-0.4,5.5,0.3c0.3,0.1,0.7,0.2,1,0.4l0,0c0.6,0.3,1.2,0.5,1.7,0.7c0.2,0.1,0.3,0.1,0.5,0.2c0.5,0.2,1.1,0.3,1.6,0.5h0.2
	c2.4,0.6,4.8,0.9,7.3,0.7c0.1,0,0.1,0,0.2,0c6.8-0.4,13.5-3.8,19.6-9.9C90.3,51.4,91.9,30.5,80.5,19z M28.6,18.1c4-4,10.5-4,14.6,0
	s4,10.5,0,14.6l0,0c-0.2,0.2-0.5,0.5-0.8,0.7c-0.1,0.1-0.2,0.1-0.3,0.2c-0.2,0.1-0.3,0.3-0.5,0.4l-0.4,0.2c-0.2,0.1-0.3,0.2-0.5,0.3
	l-0.4,0.2l-0.5,0.2l-0.5,0.2l-0.5,0.2l-0.5,0.1L38,35.5l-0.5,0.1L37,35.6h-0.6h-0.4h-0.6h-0.3l-0.7-0.1h-0.3c-0.2,0-0.5-0.1-0.7-0.2
	h-0.2l-0.8-0.2l-0.1,0c-0.3-0.1-0.5-0.2-0.8-0.3l0,0c-0.9-0.4-1.7-1-2.5-1.6l-0.3-0.3l-0.2-0.1C24.6,28.8,24.6,22.3,28.6,18.1
	C28.6,18.2,28.6,18.2,28.6,18.1L28.6,18.1z M23.3,85.5c-0.2,0.3-0.5,0.5-0.9,0.5c-0.3,0-0.7-0.1-0.9-0.3l-6.7-6.7
	c-0.2-0.2-0.4-0.6-0.4-0.9c0-0.3,0.2-0.7,0.5-0.9l2-1.6c1.6-1.2,3.3-2.3,5-3.3c1.1-0.6,2.2-1.4,3.2-2.2l0,0c0.5-0.4,0.9-0.8,1.3-1.2
	c0,0,0.1-0.1,0.1-0.1c0.4-0.4,0.7-0.8,1-1.2c0-0.1,0.1-0.1,0.1-0.2c0.3-0.4,0.6-0.8,0.8-1.2c0.1-0.1,0.1-0.2,0.2-0.3
	c0.2-0.4,0.5-0.8,0.6-1.2c0.1-0.1,0.1-0.3,0.2-0.4c0.2-0.4,0.4-0.8,0.5-1.2l0.1-0.4c0.1-0.4,0.3-0.8,0.4-1.2l0,0l0,0
	c0.6-2.7,0.3-5.6-1-8.1c-0.1-0.3-0.3-0.6-0.4-1c-1-2.4-1.6-4.9-1.8-7.5l27.3,27.3l0,0c-0.6,0-1.2-0.1-1.8-0.2h-0.1
	c-0.6-0.1-1.2-0.2-1.7-0.3h-0.2c-0.6-0.1-1.1-0.3-1.7-0.5L48.8,71c-0.6-0.2-1.3-0.5-1.9-0.7c-0.9-0.4-1.8-0.7-2.8-0.9l-0.3-0.1h-0.3
	l-0.7-0.1h-0.1c-0.3,0-0.6,0-0.9,0l0,0c-0.3,0-0.7,0-1,0c-0.1,0-0.2,0-0.3,0c-0.2,0-0.5,0-0.7,0.1s-0.5,0.1-0.8,0.2h-0.2l0,0
	c-0.5,0.1-1,0.3-1.5,0.5h-0.1c-0.5,0.2-0.9,0.4-1.4,0.6l-0.1,0.1c-0.4,0.2-0.8,0.5-1.2,0.7l-0.2,0.1c-0.4,0.3-0.8,0.6-1.2,0.9
	L33,72.5c-1.8,1.6-3.4,3.5-4.5,5.6c-0.9,1.6-1.9,3.1-2.9,4.6L23.3,85.5z M58.2,72.1L58.2,72.1L27.5,41.4l0,0
	c0.2-1.8,0.6-3.6,1.3-5.2c0.6,0.4,1.2,0.7,1.9,1h0.1c0.3,0.1,0.6,0.2,0.9,0.3l0.2,0.1l0.8,0.2l0.3,0.1l0.8,0.2l0.4,0.1l0.7,0.1h0.5
	h0.6H36h0.6c0.3,0,0.6,0,1-0.1l0.7-0.1l0.5-0.1l0.7-0.2l0.5-0.2l0.6-0.2l0.5-0.2l0.6-0.3l0.5-0.2l0.6-0.4l0.4-0.3
	c0.2-0.2,0.4-0.3,0.7-0.5s0.2-0.2,0.3-0.3c0.3-0.3,0.6-0.5,0.9-0.8s0.6-0.6,0.8-0.9l0.3-0.3c0.2-0.2,0.3-0.4,0.5-0.7
	s0.2-0.3,0.3-0.4s0.3-0.4,0.4-0.6s0.2-0.3,0.3-0.5s0.2-0.4,0.3-0.6s0.1-0.3,0.2-0.5l0.2-0.6c0-0.2,0.1-0.4,0.2-0.5s0.1-0.4,0.1-0.6
	s0.1-0.4,0.1-0.6s0.1-0.4,0.1-0.6s0-0.4,0.1-0.6s0-0.4,0-0.6s0-0.4,0-0.6s0-0.4,0-0.5s0-0.4,0-0.6s0-0.3-0.1-0.5s-0.1-0.5-0.1-0.7
	s-0.1-0.2-0.1-0.4c-0.2-0.9-0.5-1.8-0.9-2.6c0-0.1-0.1-0.2-0.2-0.4s-0.2-0.4-0.4-0.6l-0.3-0.4c-0.1-0.2-0.3-0.4-0.4-0.6
	c-0.1-0.1-0.1-0.2-0.2-0.3c11.6-5.8,24.8-4.5,32.6,3.2c10.4,10.5,8.8,29.8-3.6,42.2C69.7,68.4,64,71.4,58.2,72.1z M30.8,25.4
	c0-2.8,2.3-5.1,5.1-5.1c0.7,0,1.3-0.6,1.3-1.3c0-0.7-0.6-1.3-1.3-1.3c-4.3,0-7.7,3.5-7.7,7.7c0,0.7,0.6,1.3,1.3,1.3
	C30.2,26.7,30.7,26.1,30.8,25.4z"/>
</svg>
