<svg id="Layer_1" data-name="Layer 1" xmlns="http://www.w3.org/2000/svg" viewBox="0 0 100 100"><path d="M83.3,48l4.4-10.11L81,27.09l3.42-9.95L76.62,11H63L45.6,31.06H12.3V35.5H22.76a10.3,10.3,0,0,0-1.23,2.35l-9.06,32H27.7L31.25,58h4.86a9.33,9.33,0,0,0,7.1,9.2v5.3H38.48V82h-12v4.43H64.36V82h-12V72.48H47.65v-5.3a9.34,9.34,0,0,0,7.1-9.2h4.86l5.73,11.84h15.4l-9-21.07L74,44.36ZM47.94,82h-5v-5h5ZM65,15.39h10l4.13,3.27-2.06,6-7.38-2.17-7.34,8.59h-11ZM52.33,35.5a7.25,7.25,0,0,1-13.8,0ZM45.43,63a4.88,4.88,0,0,1-4.88-5h9.76A4.88,4.88,0,0,1,45.43,63Zm21.4-14.42L74,65.38h-5.9L62.39,53.55H28L24.4,65.38H18.34l7.38-26.07a6,6,0,0,1,5.55-3.81H34a11.68,11.68,0,0,0,22.94,0h7.57l6.8-8,5.85,1.73,5.58,9-1.77,4.07-9.12-3.5Z"/></svg>