<?xml version="1.0" encoding="utf-8"?>
<!-- Generator: Adobe Illustrator 25.2.0, SVG Export Plug-In . SVG Version: 6.00 Build 0)  -->
<svg version="1.1" id="Layer_1" xmlns="http://www.w3.org/2000/svg" xmlns:xlink="http://www.w3.org/1999/xlink" x="0px" y="0px"
	 viewBox="0 0 100 100" style="enable-background:new 0 0 100 100;" xml:space="preserve">
<path id="outline" d="M50,13.1c-15.6,0-28.3,12.7-28.3,28.3v44.3c0,0.7,0.6,1.2,1.2,1.2c0,0,0,0,0,0h54.1c0.7,0,1.2-0.6,1.2-1.2v0
	V41.4C78.3,25.8,65.6,13.1,50,13.1z M75.8,84.4H24.2v-43c0-14.3,11.6-25.8,25.8-25.8s25.8,11.6,25.8,25.8V84.4z M50,18
	c-12.9,0-23.4,10.5-23.4,23.4v39.4c0,0.7,0.5,1.2,1.2,1.2c0,0,0,0,0,0h44.3c0.7,0,1.2-0.6,1.2-1.2v0V41.4C73.4,28.5,62.9,18,50,18z
	 M50,20.5c9.9,0,18.4,7,20.5,16.6c-2.1,0.2-3.8,1.7-4.3,3.7c-2.2,0-4,1.9-3.9,4.1c0,2.2,1.9,4,4.1,3.9h4.6V55l-5.1-3.6
	c-1.4-1-3.4-0.8-4.5,0.5l-6.5,7.5l-10.1-5.9c-1.3-0.8-3-0.6-4.1,0.5l-6.7,6.7l-4.8-2.8v-4.2H34c2.7,0,4.9-2.2,4.9-4.9
	c0-2.4-1.8-4.5-4.2-4.8c-0.9-2.1-2.8-3.5-5-3.7h-0.6C29.8,29.1,38.9,20.5,50,20.5L50,20.5z M70.9,46.3h-4.6c-0.9,0-1.5-0.7-1.5-1.5
	c0-0.9,0.7-1.5,1.5-1.5c0,0,0,0,0,0h0.9c0.7,0,1.2-0.6,1.2-1.2c0-1.3,1.1-2.4,2.4-2.5c0,0.6,0.1,1.2,0.1,1.8L70.9,46.3z M70.9,69.7
	H49l14.2-16.2c0.3-0.4,0.8-0.4,1.2-0.2l6.5,4.6V69.7z M45.8,69.7H29.1V69l13.2-13.3c0.3-0.3,0.8-0.3,1.1-0.1l9.7,5.7L45.8,69.7z
	 M29.1,42.6h0.4c1.5,0.2,2.8,1.3,3.2,2.8c0.1,0.5,0.6,0.9,1.2,0.9H34c1.4,0,2.5,1.1,2.5,2.5c0,1.4-1.1,2.5-2.5,2.5h-4.9V42.6z
	 M29.1,60.8l3,1.7l-3,3V60.8z M29.1,79.5v-7.4h41.8v7.4L29.1,79.5z M50,45.1c-0.7,0-1.2,0.6-1.2,1.2v2.5c0,0.7,0.5,1.2,1.2,1.2
	c0.7,0,1.2-0.5,1.2-1.2c0,0,0,0,0,0v-2.5C51.2,45.6,50.7,45.1,50,45.1z M50,30.3c0.7,0,1.2-0.6,1.2-1.2v-2.5c0-0.7-0.5-1.2-1.2-1.2
	c-0.7,0-1.2,0.5-1.2,1.2c0,0,0,0,0,0v2.5C48.8,29.8,49.3,30.3,50,30.3z M43,32.5c0.5,0.5,1.3,0.5,1.7,0c0.5-0.5,0.5-1.3,0-1.7l0,0
	l0,0L43,29c-0.5-0.5-1.3-0.5-1.7,0c-0.5,0.5-0.5,1.3,0,1.7L43,32.5z M45.7,42c2.4,2.4,6.3,2.4,8.7,0s2.4-6.3,0-8.7s-6.3-2.4-8.7,0
	c-1.2,1.2-1.8,2.7-1.8,4.4C43.9,39.3,44.5,40.9,45.7,42z M47.4,35c1.4-1.4,3.8-1.4,5.2,0s1.4,3.8,0,5.2c-1.4,1.4-3.8,1.4-5.2,0l0,0
	C45.9,38.8,45.9,36.5,47.4,35C47.4,35.1,47.4,35.1,47.4,35z M38.9,38.9h2.5c0.7,0,1.2-0.6,1.2-1.2c0-0.7-0.6-1.2-1.2-1.2h-2.5
	c-0.7,0-1.2,0.6-1.2,1.2C37.7,38.4,38.3,38.9,38.9,38.9z M43,42.9l-1.7,1.7c-0.4,0.5-0.3,1.3,0.2,1.7c0.4,0.3,1.1,0.4,1.5,0l0,0
	l1.7-1.7c0.5-0.5,0.5-1.3,0-1.7C44.3,42.4,43.5,42.4,43,42.9L43,42.9z M57,42.9c-0.5-0.5-1.3-0.5-1.7,0c-0.5,0.5-0.5,1.3,0,1.7l0,0
	l0,0l1.8,1.8c0.5,0.5,1.3,0.5,1.7,0s0.5-1.3,0-1.7L57,42.9z M57.4,37.7c0,0.7,0.6,1.2,1.2,1.2h2.5c0.7,0,1.2-0.6,1.2-1.2
	c0-0.7-0.6-1.2-1.2-1.2h-2.5C57.9,36.5,57.4,37,57.4,37.7z M56.1,32.8c0.3,0,0.6-0.1,0.9-0.4l1.7-1.7c0.4-0.5,0.3-1.3-0.2-1.7
	c-0.4-0.3-1-0.3-1.5,0l-1.7,1.7c-0.5,0.5-0.5,1.3,0,1.7C55.5,32.7,55.8,32.8,56.1,32.8L56.1,32.8z M37.7,74.6h-4.9
	c-0.7,0-1.2,0.5-1.2,1.2c0,0.7,0.5,1.2,1.2,1.2c0,0,0,0,0,0h4.9c0.7,0,1.2-0.6,1.2-1.2C38.9,75.2,38.4,74.6,37.7,74.6z M45.1,74.6
	h-2.5c-0.7,0-1.2,0.5-1.2,1.2c0,0.7,0.5,1.2,1.2,1.2c0,0,0,0,0,0h2.5c0.7,0,1.2-0.6,1.2-1.2C46.3,75.2,45.8,74.6,45.1,74.6z
	 M59.8,74.6H50c-0.7,0-1.2,0.5-1.2,1.2c0,0.7,0.5,1.2,1.2,1.2c0,0,0,0,0,0h9.8c0.7,0,1.2-0.6,1.2-1.2C61.1,75.2,60.5,74.6,59.8,74.6
	z M67.2,74.6h-2.5c-0.7,0-1.2,0.6-1.2,1.2c0,0.7,0.6,1.2,1.2,1.2h2.5c0.7,0,1.2-0.5,1.2-1.2C68.5,75.2,67.9,74.6,67.2,74.6
	C67.2,74.6,67.2,74.6,67.2,74.6z"/>
</svg>
