<?xml version="1.0" encoding="utf-8"?>
<!-- Generator: Adobe Illustrator 25.2.0, SVG Export Plug-In . SVG Version: 6.00 Build 0)  -->
<svg version="1.1" id="Layer_1" xmlns="http://www.w3.org/2000/svg" xmlns:xlink="http://www.w3.org/1999/xlink" x="0px" y="0px"
	 viewBox="0 0 100 100" style="enable-background:new 0 0 100 100;" xml:space="preserve">
<style type="text/css">
	.st0{fill:#0B050C;}
</style>
<path class="st0" d="M75,32.9c-2.7-1.2-5.6-1.8-8.5-1.9v-3.4c2.9,0,5.8,0.6,8.5,1.6V32.9z M75,37.6h-8.6v-4c3,0,5.9,0.8,8.6,2.2
	C75,35.8,75,37.6,75,37.6z M75,42h-8.6v-1.9H75V42z M77.6,27.5v-6.7c0-1.3,1-2.3,2.3-2.3h3.1c0.7,0.1,1.3-0.5,1.4-1.2
	c0.1-0.7-0.5-1.3-1.2-1.4c-0.1,0-0.2,0-0.2,0h-3.1c-2.7,0-4.8,2.2-4.8,4.9v5.7c-2.7-0.9-5.6-1.4-8.5-1.4v-4.3c0-1.3,1-2.3,2.3-2.3
	h3.1c0.7-0.1,1.2-0.7,1.2-1.4C73,16.5,72.5,16,71.8,16h-3.1c-2.7,0-4.9,2.2-4.9,4.9v4.4c-4.7,0.4-9.3,2.1-13.1,4.8
	c-0.4,0.3-1,0.3-1.5,0C31.6,17.7,6.8,30,6.6,52c-0.1,15,12,27.2,27,27.3c5.6,0,11-1.7,15.6-4.8c0.4-0.3,1-0.3,1.5,0
	c10.8,7.6,25.5,6.2,34.8-3.2c0.5-0.5,0.5-1.3,0-1.8c-0.5-0.5-1.3-0.5-1.8,0C75.3,78,62,79.3,52.2,72.4c-1.3-0.9-3.1-0.9-4.4,0
	C31.7,83.7,9.2,72.2,9.2,52.3v-0.2c0.1-19.7,22.5-31.3,38.6-20c1.3,0.9,3.1,0.9,4.4,0c3.5-2.4,7.5-3.9,11.7-4.3v3.4
	c-3.5,0.4-6.8,1.6-9.7,3.7c-2.3,1.6-5.2,1.7-7.6,0.4c-0.6-0.3-1.4,0-1.7,0.6c-0.3,0.6-0.1,1.3,0.5,1.6c3.3,1.8,7.2,1.6,10.3-0.5
	c2.5-1.7,5.3-2.8,8.3-3.2v13.6c0,0.7,0.6,1.3,1.3,1.3s1.3-0.6,1.3-1.3v-2.9H75v2.9c0,0.7,0.6,1.3,1.3,1.3c0.7,0,1.3-0.6,1.3-1.3v-10
	c4.6,3.5,7.3,9,7.3,14.8c0,14.7-16.7,24-29.3,15.3c-3.4-2.3-7.8-2.3-11.2,0c-8.4,5.9-20.1,3.8-25.9-4.7S14.7,42.8,23.1,37
	c5.2-3.6,12-4.4,17.9-1.9c0.6,0.3,1.4,0,1.7-0.7c0.3-0.7,0-1.4-0.7-1.7C31.2,28.2,18.8,33.2,14.2,44c-1.1,2.6-1.6,5.3-1.7,8.1
	c0,11.7,9.4,21.3,21.2,21.3c4.3,0,8.6-1.3,12.1-3.8c2.5-1.7,5.8-1.7,8.3,0c14.2,9.9,33.3-0.6,33.3-17.4v-0.2
	c-0.1-7.2-3.8-13.9-9.9-17.8v-3.9c12,6.2,16.8,21,10.6,33c-0.4,0.8-0.8,1.5-1.3,2.3c-0.4,0.6-0.3,1.4,0.2,1.8
	c0.6,0.4,1.4,0.3,1.8-0.2c0,0,0.1-0.1,0.1-0.1c8.2-12.5,4.8-29.3-7.7-37.6C80,28.8,78.8,28.1,77.6,27.5L77.6,27.5z M32.9,45.9
	c-0.5-0.5-1.3-0.6-1.8-0.1c0,0,0,0,0,0c-0.4,0.4-1.1,0.4-1.5,0c-1.4-1.2-3.5-1.2-4.9,0c-0.4,0.4-1.1,0.4-1.5,0
	c-0.5-0.5-1.3-0.4-1.8,0.1c0,0,0,0,0,0c-1.5,1.7,2.5,4,5,1.8c0.4-0.4,1.1-0.4,1.5,0c1.4,1.2,3.5,1.2,4.9,0
	C33.3,47.3,33.4,46.4,32.9,45.9L32.9,45.9z M38,56.7c0.4-0.4,1.1-0.4,1.5,0c2.5,2.2,6.5-0.1,5-1.8c-0.5-0.5-1.3-0.6-1.8-0.1
	c0,0,0,0,0,0c-0.4,0.4-1.1,0.4-1.5,0c-1.4-1.2-3.5-1.2-4.9,0c-0.4,0.4-1.1,0.4-1.5,0c-0.5-0.5-1.3-0.4-1.8,0.1c0,0,0,0,0,0
	C31.5,56.6,35.5,58.9,38,56.7L38,56.7z M56.7,43.2c-0.4,0.4-1.1,0.4-1.5,0c-1.4-1.2-3.5-1.2-4.9,0c-0.4,0.4-1.1,0.4-1.5,0
	c-0.5-0.5-1.3-0.4-1.8,0.1c0,0,0,0,0,0c-1.5,1.7,2.5,4,5,1.8c0.4-0.4,1.1-0.4,1.5,0c2.6,2.2,6.5-0.1,5-1.8
	C58,42.8,57.2,42.7,56.7,43.2C56.7,43.2,56.7,43.2,56.7,43.2z M71.9,52.6c0.4-0.4,1.1-0.4,1.5,0c2.6,2.2,6.5-0.1,5-1.8
	c-0.5-0.5-1.3-0.6-1.8-0.1c0,0,0,0,0,0c-0.4,0.4-1.1,0.4-1.5,0c-1.4-1.2-3.5-1.2-4.9,0c-0.4,0.4-1.1,0.4-1.5,0
	c-0.5-0.5-1.3-0.4-1.8,0.1c0,0,0,0,0,0C65.4,52.5,69.4,54.8,71.9,52.6L71.9,52.6z M65.4,61.3c-0.4,0.4-1.1,0.4-1.5,0
	c-1.4-1.2-3.5-1.2-4.9,0c-0.4,0.4-1.1,0.4-1.5,0c-0.5-0.5-1.3-0.4-1.8,0.1c0,0,0,0,0,0c-1.5,1.7,2.5,4,5,1.8c0.4-0.4,1.1-0.4,1.5,0
	c2.6,2.2,6.5-0.1,5-1.8C66.8,60.8,65.9,60.8,65.4,61.3C65.4,61.3,65.4,61.3,65.4,61.3z"/>
</svg>
