<?xml version="1.0" encoding="utf-8"?>
<!-- Generator: Adobe Illustrator 25.2.1, SVG Export Plug-In . SVG Version: 6.00 Build 0)  -->
<svg version="1.1" id="Layer_1" xmlns="http://www.w3.org/2000/svg" xmlns:xlink="http://www.w3.org/1999/xlink" x="0px" y="0px"
	 viewBox="0 0 100 100" style="enable-background:new 0 0 100 100;" xml:space="preserve">
<g>
	<g>
		<path d="M81.2,31.9c-1.2-0.7-2.4-1.4-3.6-2v-6.7c0-1.3,1-2.3,2.3-2.3H83c0.7,0.1,1.3-0.5,1.4-1.2s-0.5-1.3-1.2-1.4
			c-0.1,0-0.2,0-0.2,0h-3.1c-2.7,0-4.8,2.2-4.8,4.9v5.7c-2.7-0.9-5.6-1.4-8.5-1.4v-4.3c0-1.3,1-2.3,2.3-2.3H72
			c0.7-0.1,1.2-0.7,1.2-1.4c-0.2-0.6-0.7-1.1-1.4-1.1h-3.1c-2.7,0-4.9,2.2-4.9,4.9v4.4c-4.7,0.4-9.3,2.1-13.1,4.8
			c-0.4,0.3-1,0.3-1.5,0C31.6,20.1,6.8,32.4,6.6,54.4c-0.1,15,12,27.2,27,27.3c5.6,0,11-1.7,15.6-4.8c0.4-0.3,1-0.3,1.5,0
			c10.8,7.6,25.5,6.2,34.8-3.2c0.5-0.5,0.5-1.3,0-1.8s-1.3-0.5-1.8,0c-8.4,8.5-21.7,9.8-31.5,2.9c-1.3-0.9-3.1-0.9-4.4,0
			C31.7,86.1,9.2,74.6,9.2,54.7v-0.2c0.1-19.7,22.5-31.3,38.6-20c1.3,0.9,3.1,0.9,4.4,0c3.5-2.4,7.5-3.9,11.7-4.3v3.4
			c-3.5,0.4-6.8,1.6-9.7,3.7c-2.3,1.6-5.2,1.7-7.6,0.4c-0.6-0.3-1.4,0-1.7,0.6s-0.1,1.3,0.5,1.6c3.3,1.8,7.2,1.6,10.3-0.5
			c2.5-1.7,5.3-2.8,8.3-3.2v13.6c0,0.7,0.6,1.3,1.3,1.3s1.3-0.6,1.3-1.3v-2.9H75v2.9c0,0.7,0.6,1.3,1.3,1.3s1.3-0.6,1.3-1.3v-10
			c4.6,3.5,7.3,9,7.3,14.8c0,14.7-16.7,24-29.3,15.3c-3.4-2.3-7.8-2.3-11.2,0c-8.4,5.9-20.1,3.8-25.9-4.7s-3.8-20,4.6-25.8
			c5.2-3.6,12-4.4,17.9-1.9c0.6,0.3,1.4,0,1.7-0.7s0-1.4-0.7-1.7c-10.8-4.5-23.2,0.5-27.8,11.3c-1.1,2.6-1.6,5.3-1.7,8.1
			c0,11.7,9.4,21.3,21.2,21.3c4.3,0,8.6-1.3,12.1-3.8c2.5-1.7,5.8-1.7,8.3,0c14.2,9.9,33.3-0.6,33.3-17.4v-0.2
			c-0.1-7.2-3.8-13.9-9.9-17.8v-3.9c12,6.2,16.8,21,10.6,33c-0.4,0.8-0.8,1.5-1.3,2.3c-0.4,0.6-0.3,1.4,0.2,1.8
			c0.6,0.4,1.4,0.3,1.8-0.2l0.1-0.1C97.1,57,93.7,40.2,81.2,31.9z M75,44.4h-8.6v-1.9H75V44.4z M75,40h-8.6v-4c3,0,5.9,0.8,8.6,2.2
			V40z M75,35.3c-2.7-1.2-5.6-1.8-8.5-1.9V30c2.9,0,5.8,0.6,8.5,1.6V35.3z M65.4,63.7c-0.4,0.4-1.1,0.4-1.5,0
			c-1.4-1.2-3.5-1.2-4.9,0c-0.4,0.4-1.1,0.4-1.5,0c-0.5-0.5-1.3-0.4-1.8,0.1c-1.5,1.7,2.5,4,5,1.8c0.4-0.4,1.1-0.4,1.5,0
			c2.6,2.2,6.5-0.1,5-1.8C66.8,63.2,65.9,63.2,65.4,63.7z M56.7,45.6c-0.4,0.4-1.1,0.4-1.5,0c-1.4-1.2-3.5-1.2-4.9,0
			c-0.4,0.4-1.1,0.4-1.5,0c-0.5-0.5-1.3-0.4-1.8,0.1c-1.5,1.7,2.5,4,5,1.8c0.4-0.4,1.1-0.4,1.5,0c2.6,2.2,6.5-0.1,5-1.8
			C58,45.2,57.2,45.1,56.7,45.6z M71.9,55c0.4-0.4,1.1-0.4,1.5,0c2.6,2.2,6.5-0.1,5-1.8c-0.5-0.5-1.3-0.6-1.8-0.1
			c-0.4,0.4-1.1,0.4-1.5,0c-1.4-1.2-3.5-1.2-4.9,0c-0.4,0.4-1.1,0.4-1.5,0c-0.5-0.5-1.3-0.4-1.8,0.1C65.4,54.9,69.4,57.2,71.9,55z
			 M32.9,48.3c-0.5-0.5-1.3-0.6-1.8-0.1c-0.4,0.4-1.1,0.4-1.5,0c-1.4-1.2-3.5-1.2-4.9,0c-0.4,0.4-1.1,0.4-1.5,0
			c-0.5-0.5-1.3-0.4-1.8,0.1c-1.5,1.7,2.5,4,5,1.8c0.4-0.4,1.1-0.4,1.5,0c1.4,1.2,3.5,1.2,4.9,0C33.3,49.7,33.4,48.8,32.9,48.3z
			 M38,59.1c0.4-0.4,1.1-0.4,1.5,0c2.5,2.2,6.5-0.1,5-1.8c-0.5-0.5-1.3-0.6-1.8-0.1c-0.4,0.4-1.1,0.4-1.5,0c-1.4-1.2-3.5-1.2-4.9,0
			c-0.4,0.4-1.1,0.4-1.5,0c-0.5-0.5-1.3-0.4-1.8,0.1C31.5,59,35.5,61.3,38,59.1z"/>
	</g>
</g>
</svg>
