<?xml version="1.0" encoding="iso-8859-1"?>
<!-- Uploaded to: SVG Repo, www.svgrepo.com, Generator: SVG Repo Mixer Tools -->
<svg fill="#000000" height="800px" width="800px" version="1.1" id="Capa_1" xmlns="http://www.w3.org/2000/svg" xmlns:xlink="http://www.w3.org/1999/xlink" 
	 viewBox="0 0 463 463" xml:space="preserve">
<path d="M455.5,352.001c-7.384,0-11.44-2.063-15.61-4.91c9.674-10.833,15.106-24.849,15.106-39.591
	c0-20.306-10.231-38.26-25.803-49.002c1.121-1.311,1.803-3.009,1.803-4.87c0-30.824-19.647-58.083-48.89-67.831l-68.851-22.951
	c-7.16-2.385-14.73,0.656-18.334,6.988l-23.699-8.284l5.445-15.576c1.367-3.91-0.695-8.188-4.605-9.555s-8.188,0.696-9.555,4.605
	l-15.839,45.312c-1.367,3.91,0.695,8.188,4.605,9.555c0.819,0.286,1.654,0.422,2.475,0.422c3.099,0,6-1.936,7.08-5.027l5.444-15.575
	l23.296,8.143l-17.462,48.019C268.6,241.519,259.347,248,249.083,248h-58.086v-40.5c0-12.958-10.542-23.5-23.5-23.5h-32
	c-9.098,0-16.5-7.402-16.5-16.5v-40c0-17.369-14.131-31.5-31.5-31.5h-48c-4.142,0-7.5,3.358-7.5,7.5v156.281
	c-14.556,10.857-24,28.205-24,47.719c0,14.73,5.445,28.771,15.128,39.61c-4.17,2.838-8.236,4.891-15.625,4.891
	c-4.142,0-7.5,3.358-7.5,7.5s3.358,7.5,7.5,7.5c13.614,0,20.915-5.209,26.781-9.395c5.172-3.69,9.258-6.605,18.069-6.605
	s12.896,2.915,18.069,6.605c5.866,4.186,13.167,9.395,26.781,9.395c13.607,0,20.904-5.209,26.767-9.396
	c5.167-3.689,9.25-6.604,18.052-6.604c8.791,0,12.868,2.914,18.029,6.602c5.859,4.187,13.151,9.397,26.75,9.397
	c13.604,0,20.899-5.21,26.761-9.396c5.166-3.689,9.245-6.603,18.043-6.603c8.794,0,12.873,2.914,18.037,6.603
	c5.861,4.187,13.154,9.397,26.756,9.397s20.896-5.21,26.756-9.397c5.164-3.689,9.242-6.603,18.036-6.603
	c8.794,0,12.873,2.914,18.036,6.603c5.861,4.187,13.154,9.397,26.756,9.397c13.598,0,20.888-5.211,26.747-9.398
	c5.161-3.688,9.237-6.602,18.025-6.602c8.782,0,12.856,2.913,18.013,6.601c5.856,4.188,13.144,9.399,26.737,9.399
	c4.142,0,7.5-3.358,7.5-7.5S459.643,352.001,455.5,352.001z M286.205,236.999l21.68-59.618c0.092-0.252,0.375-0.388,0.628-0.303
	l68.852,22.951c22.472,7.491,37.768,28.069,38.594,51.598c-6.383-2.345-13.275-3.625-20.46-3.625H280.042
	C282.632,244.739,284.734,241.044,286.205,236.999z M46.997,111h40.5c9.098,0,16.5,7.402,16.5,16.5v40
	c0,17.369,14.131,31.5,31.5,31.5h32c4.687,0,8.5,3.813,8.5,8.5V248h-108.5c-7.201,0-14.106,1.287-20.5,3.641V111z M67.497,263h328
	c23.365,0,42.567,18.103,44.351,41.018c-0.117-0.005-0.232-0.018-0.351-0.018h-416c-0.118,0-0.234,0.012-0.351,0.018
	C24.93,281.103,44.132,263,67.497,263z M384.003,345.399c-5.161,3.688-9.237,6.602-18.025,6.602c-8.794,0-12.873-2.914-18.036-6.603
	c-5.86-4.187-13.154-9.397-26.756-9.397c-13.602,0-20.896,5.21-26.756,9.397c-5.164,3.689-9.242,6.603-18.036,6.603
	c-8.794,0-12.873-2.914-18.036-6.603c-5.861-4.187-13.154-9.397-26.756-9.397c-13.604,0-20.899,5.21-26.761,9.396
	c-5.166,3.689-9.245,6.603-18.043,6.603c-8.791,0-12.868-2.914-18.03-6.602c-5.859-4.187-13.151-9.397-26.75-9.397
	c-13.607,0-20.904,5.21-26.768,9.396c-5.167,3.689-9.25,6.604-18.051,6.604c-8.811,0-12.896-2.915-18.069-6.605
	c-5.866-4.186-13.167-9.395-26.781-9.395c-6.747,0-11.941,1.281-16.18,3.081c-5.635-5.59-9.634-12.521-11.655-20.083H438.48
	c-2.017,7.555-6.006,14.473-11.634,20.061c-4.222-1.788-9.39-3.059-16.096-3.059C397.152,336.001,389.861,341.212,384.003,345.399z"
	/>
</svg>