<svg id="Layer_1" data-name="Layer 1" xmlns="http://www.w3.org/2000/svg" viewBox="0 0 100 100"><path d="M92.36,89.43H71.54l3.38-.53a8.55,8.55,0,0,0-1.35-17h-.15L62.47,73c-.79-2-2.25-6-2.25-9.11,0-3.38,1.7-7.8,2.45-9.57a7.52,7.52,0,0,0,6.17-5.1l5.33-16a4,4,0,0,0-1.37-4.45L57.07,15.51l-2.8-6.95a1.47,1.47,0,0,0-1.35-.92H47.08a1.46,1.46,0,0,0-1.35.92l-2.8,7L27.2,28.75a4,4,0,0,0-1.37,4.45l5.33,16a7.54,7.54,0,0,0,6.17,5.1c.75,1.75,2.45,6.17,2.45,9.57C39.78,67,38.32,71,37.51,73L26.56,71.93h-.15a8.54,8.54,0,0,0-1.33,17l3.38.53H7.64a1.47,1.47,0,0,0,0,2.93H92.36a1.47,1.47,0,0,0,0-2.93ZM39.78,52.61v-7h3.06a7.31,7.31,0,0,0,14.32,0h3.06v7a44.09,44.09,0,0,0-1.75,4.69H41.53a43.29,43.29,0,0,0-1.75-4.69ZM61.12,42.7H57.3a7.28,7.28,0,0,0,1.46-4.38V33.93a7.57,7.57,0,0,0-3-6.22A5.73,5.73,0,0,0,55.79,26l8.56,7Zm-14-16.07a2.92,2.92,0,0,1,5.84,0v0a4,4,0,0,0-.49,0H47.55l-.49,0A0,0,0,0,0,47.08,26.63Zm.49,2.92h4.88c1.88,0,3.41,2,3.41,4.38v.77l-5.29-2.12a1.44,1.44,0,0,0-1.08,0l-5.3,2.12v-.77c0-2.41,1.5-4.38,3.38-4.38ZM50,35.5l5.84,2.34v.48a4.39,4.39,0,0,1-4.38,4.38H48.54a4.39,4.39,0,0,1-4.38-4.38v-.48ZM48.54,45.62h2.92a7.41,7.41,0,0,0,2.83-.57,4.38,4.38,0,0,1-8.58,0A7.41,7.41,0,0,0,48.54,45.62ZM44.27,27.71a7.61,7.61,0,0,0-3,6.22v4.39A7.28,7.28,0,0,0,42.7,42.7H38.88L35.63,33l8.56-7A5.71,5.71,0,0,0,44.27,27.71ZM54.49,17a1.69,1.69,0,0,0,.42.58L71,31l.05.06a1.08,1.08,0,0,1,.39,1.22l-5.33,16a4.56,4.56,0,0,1-2.93,2.92V45.86l4-12a2.91,2.91,0,0,0-.91-3.18L51.46,18.64V10.57h.48ZM36.86,51.22a4.56,4.56,0,0,1-2.93-2.92l-5.33-16A1.08,1.08,0,0,1,29,31.07L29,31,45.09,17.52a1.38,1.38,0,0,0,.42-.58l2.55-6.39h.48v8.07L33.79,30.68a2.91,2.91,0,0,0-.91,3.18l4,12ZM42.7,63.88a19.65,19.65,0,0,0-.42-3.66H57.72a19.65,19.65,0,0,0-.42,3.66,29,29,0,0,0,2.16,9.42l-.77.07H41.31l-.77-.07a29,29,0,0,0,2.16-9.42ZM20.79,80.45a5.63,5.63,0,0,1,5.57-5.62l14.75,1.46H58.93l14.75-1.46A5.63,5.63,0,0,1,74.5,86L64.22,87.65l-1.29-1.94a1.58,1.58,0,0,0-.83-.6l-3.46-1,8-3.58a1.47,1.47,0,1,0-1.19-2.68l-11.24,5-2.38-.67a1.48,1.48,0,0,0-.86,0l-3.85,1.28-12.63-5.6a1.47,1.47,0,1,0-1.19,2.68L45.6,86V89.2L25.52,86A5.6,5.6,0,0,1,20.79,80.45Zm27.75,9V86.11l3-1,9.27,2.64,1.12,1.66Z"/></svg>