<?xml version="1.0" encoding="UTF-8"?>
<svg id="Layer_1" data-name="Layer 1" xmlns="http://www.w3.org/2000/svg" viewBox="0 0 18.57 17.33">
  <defs>
    <style>
      .cls-1 {
        fill: #2b2b2b;
        stroke-width: 0px;
      }
    </style>
  </defs>
  <path class="cls-1" d="M17.64,9.29h-.31V2.79c0-1.55-1.24-2.79-2.79-2.79-1.37,0-2.36,1.02-2.47,2.5-.72.14-1.25.76-1.25,1.52,0,.19.12.31.31.31h2.48c.19,0,.31-.12.31-.31,0-.76-.52-1.37-1.22-1.52.09-.98.68-1.89,1.84-1.89s2.17.96,2.17,2.17v6.5H7.4c-.14-.71-.76-1.24-1.52-1.24-.31-.37-.74-.62-1.24-.62-.59,0-1.11.34-1.36.84-.25-.12-.53-.22-.8-.22-.76,0-1.38.52-1.52,1.24h-.03c-.53,0-.93.4-.93.93s.4.93.93.93h.37l.84,3.31c.25.96,1.11,1.64,2.1,1.64h.25l-.4.8c-.09.15-.03.34.12.4.03.03.09.03.12.03.12,0,.22-.06.28-.15l.54-1.08h8.59l.53,1.05c.06.12.15.19.28.19.06,0,.09,0,.12-.06.12-.06.19-.25.12-.4l-.39-.78c.96-.03,1.79-.7,2.03-1.61l.84-3.34h.36c.53,0,.93-.4.93-.93s-.4-.93-.93-.93ZM13.28,3.71h-1.76c.12-.37.5-.62.9-.62s.74.25.87.62ZM2.48,8.67c.28,0,.53.12.74.34.06.09.19.12.31.09s.19-.12.22-.25c.09-.46.46-.8.93-.8.34,0,.65.15.8.46.06.12.22.19.34.15h.09c.4,0,.74.25.87.62H1.61c.12-.37.46-.62.87-.62ZM15.88,14.3c-.19.68-.8,1.18-1.52,1.18H4.27c-.71,0-1.33-.5-1.52-1.18l-.8-3.16h14.67l-.74,3.16ZM17.64,10.52H.93c-.19,0-.31-.12-.31-.31s.12-.31.31-.31h16.71c.19,0,.31.12.31.31s-.12.31-.31.31Z"/>
  <path class="cls-1" d="M11.14,5.73c.19,0,.31-.12.31-.31v-.15c0-.19-.12-.31-.31-.31s-.31.12-.31.31v.15c0,.19.12.31.31.31Z"/>
  <path class="cls-1" d="M11.14,7.15c.19,0,.31-.15.31-.31v-.34c0-.19-.12-.31-.31-.31s-.31.12-.31.31v.34c0,.19.12.31.31.31Z"/>
  <path class="cls-1" d="M11.14,8.36c.19,0,.31-.12.31-.31v-.15c0-.19-.12-.31-.31-.31s-.31.12-.31.31v.15c0,.19.12.31.31.31Z"/>
  <path class="cls-1" d="M12.38,5.73c.19,0,.31-.12.31-.31v-.15c0-.19-.12-.31-.31-.31s-.31.12-.31.31v.15c0,.19.12.31.31.31Z"/>
  <path class="cls-1" d="M12.07,6.84c0,.19.12.31.31.31s.31-.15.31-.31v-.34c0-.19-.12-.31-.31-.31s-.31.12-.31.31v.34Z"/>
  <path class="cls-1" d="M12.07,8.05c0,.19.12.31.31.31s.31-.12.31-.31v-.15c0-.19-.12-.31-.31-.31s-.31.12-.31.31v.15Z"/>
  <path class="cls-1" d="M13.62,5.73c.19,0,.31-.12.31-.31v-.15c0-.19-.12-.31-.31-.31s-.31.12-.31.31v.15c0,.19.12.31.31.31Z"/>
  <path class="cls-1" d="M13.31,6.84c0,.19.12.31.31.31s.31-.15.31-.31v-.34c0-.19-.12-.31-.31-.31s-.31.12-.31.31v.34h0Z"/>
  <path class="cls-1" d="M13.31,8.05c0,.19.12.31.31.31s.31-.12.31-.31v-.15c0-.19-.12-.31-.31-.31s-.31.12-.31.31v.15Z"/>
</svg>