<?xml version="1.0" encoding="UTF-8"?><svg id="Layer_2" xmlns="http://www.w3.org/2000/svg" xmlns:xlink="http://www.w3.org/1999/xlink" viewBox="0 0 25.48 25.48"><defs><style>.cls-1{fill:#f7fafc;}.cls-2{fill:url(#linear-gradient);}</style><linearGradient id="linear-gradient" x1="-.84" y1="-14.42" x2="25.29" y2="37.84" gradientUnits="userSpaceOnUse"><stop offset="0" stop-color="#4654a7"/><stop offset=".33" stop-color="#9ba2e4"/><stop offset=".44" stop-color="#8b90dd"/><stop offset=".67" stop-color="#7273d2"/><stop offset=".86" stop-color="#6361cc"/><stop offset="1" stop-color="#5e5bca"/></linearGradient></defs><g id="Layer_1-2"><g><circle class="cls-2" cx="12.74" cy="12.74" r="12.74"/><path class="cls-1" d="M18.54,6.76c.11,.07,.25,.13,.34,.23,.17,.19,.16,.42,.07,.65-.45,1.09-.89,2.18-1.34,3.27-1.31,3.2-2.62,6.4-3.93,9.6-.01,.03-.03,.07-.04,.1-.12,.25-.35,.4-.61,.37-.26-.03-.47-.21-.52-.48-.17-.9-.33-1.8-.5-2.7-.2-1.09-.4-2.18-.59-3.28-.02-.11-.07-.15-.17-.17-1.81-.32-3.61-.65-5.42-.98-.16-.03-.33-.06-.49-.09-.28-.04-.45-.21-.55-.47v-.25c.07-.21,.2-.36,.42-.45,3.62-1.48,7.25-2.96,10.87-4.44,.74-.3,1.48-.61,2.22-.91,.08,0,.17,0,.25,0Z"/></g></g></svg>