<svg xmlns="http://www.w3.org/2000/svg" xmlns:xlink="http://www.w3.org/1999/xlink" id="Layer_1" x="0px" y="0px" viewBox="0 0 103.5 65.7" style="enable-background:new 0 0 103.5 65.7;" xml:space="preserve">
<style type="text/css">
	.st0{clip-path:url(#SVGID_2_);}
	.st1{fill:none;stroke:#FFFFFF;stroke-width:0.61;stroke-miterlimit:10;}
	.st2{fill:#FFFFFF;}
	.st3{clip-path:url(#SVGID_4_);}
</style>
<g id="Layer_2_1_">
	<g id="Layer_1-2">
		<g>
			<defs>
				<rect id="SVGID_1_" x="-3.2" width="109.8" height="67.5"></rect>
			</defs>
			<clipPath id="SVGID_2_">
				<use xlink:href="#SVGID_1_" style="overflow:visible;"></use>
			</clipPath>
			<g class="st0">
				<path class="st1" d="M0.3,32.7v-8.9C12,19,24.4,15.8,37,14.4v9.4h4.7v4h-6.5v4.8L0.3,32.7z"></path>
				<path class="st1" d="M37,14.4c9.7-1,19.5-1,29.2,0.1v14.7h-5V32h-2.3v-4.1H46.8v3.7h-2.5v-3.8h-2.6v-4H37V14.4z"></path>
				<path class="st1" d="M66.2,14.4c0,0,20.5,2.1,37,9.5v8.5H66.4h-0.1L66.2,14.4z"></path>
				<path class="st1" d="M0.4,36.3v8.9c0,0,18.9,7.9,36.6,9.3v-9.3h4.7v-3.5h-6.3v-5.4H0.4z"></path>
				<path class="st1" d="M44,36v5.7h-2.4v3.5H37v9.3c0,0,16.1,1.9,29.1,0V41.6h-4.8v-5.1H59v4.6H46.8v-3.8h-2.1V36H44z"></path>
				<path class="st1" d="M69,36.4v5.3h-2.9v12.9c0,0,19.3-1.9,36.9-9.4v-8.7H69"></path>
				<line class="st1" x1="20.8" y1="32.6" x2="20.8" y2="36.2"></line>
				<line class="st1" x1="82.4" y1="32.5" x2="82.4" y2="36.4"></line>
			</g>
		</g>
		<path class="st2" d="M37.8,4l-0.5,0.5v0.7h-0.4V2.4h0.4V4l1.5-1.6h0.5l-1.2,1.3l1.3,1.5h-0.5L37.8,4z"></path>
		<path class="st2" d="M39.8,2.4h0.4v2.4h1.5v0.3h-1.9V2.4z"></path>
		<path class="st2" d="M41.9,3.8c0-0.8,0.6-1.4,1.4-1.4c0,0,0.1,0,0.1,0c0.4,0,0.7,0.2,1,0.4l-0.3,0.3c-0.2-0.2-0.5-0.3-0.8-0.3    c-0.6-0.1-1.1,0.4-1.2,1s0.4,1.1,1,1.2c0.1,0,0.1,0,0.2,0c0.3,0,0.6-0.1,0.8-0.3l0.3,0.3c-0.3,0.3-0.7,0.4-1.1,0.4    C42.5,5.3,41.9,4.6,41.9,3.8C41.9,3.9,41.9,3.8,41.9,3.8z"></path>
		<path class="st2" d="M44.7,3.8c0-0.8,0.6-1.4,1.4-1.4c0,0,0.1,0,0.1,0c0.4,0,0.8,0.1,1,0.4L47,3.1c-0.2-0.2-0.5-0.3-0.8-0.3    c-0.6-0.1-1.1,0.4-1.2,1s0.4,1.1,1,1.2c0.1,0,0.1,0,0.2,0c0.3,0,0.6-0.1,0.8-0.3l0.3,0.3c-0.6,0.6-1.5,0.6-2.1,0    C44.9,4.5,44.7,4.2,44.7,3.8L44.7,3.8z"></path>
		<path class="st2" d="M48.8,2.4H50c0.8,0,1.4,0.6,1.4,1.4S50.8,5.2,50,5.2h-1.2V2.4z M50,4.9c0.5,0.1,1-0.3,1.1-0.9    c0,0,0-0.1,0-0.1c0-0.6-0.4-1-1-1c0,0-0.1,0-0.1,0h-0.8v2H50z"></path>
		<path class="st2" d="M52.1,2.4h0.4v2.8h-0.4V2.4z"></path>
		<path class="st2" d="M55.2,5.2l-0.6-0.8h-0.9v0.8h-0.4V2.4h1.1c0.7,0,1.2,0.4,1.2,1c0,0.4-0.2,0.8-0.6,0.9l0.7,0.9L55.2,5.2z     M55.2,3.4c0-0.4-0.3-0.6-0.8-0.6h-0.7V4h0.7C54.9,4,55.2,3.8,55.2,3.4L55.2,3.4z"></path>
		<path class="st2" d="M58.2,4.9v0.3h-2V2.4h2v0.3h-1.6v0.8H58V4h-1.4v0.9L58.2,4.9z"></path>
		<path class="st2" d="M58.6,3.8c0-0.8,0.6-1.4,1.4-1.4c0,0,0.1,0,0.1,0c0.4,0,0.7,0.2,1,0.4l-0.3,0.3c-0.2-0.2-0.5-0.3-0.8-0.3    c-0.6-0.1-1.1,0.4-1.2,1s0.4,1.1,1,1.2c0.1,0,0.1,0,0.2,0c0.3,0,0.6-0.1,0.8-0.3l0.3,0.3c-0.3,0.3-0.7,0.4-1.1,0.4    C59.3,5.3,58.6,4.6,58.6,3.8C58.6,3.8,58.6,3.8,58.6,3.8z"></path>
		<path class="st2" d="M62.3,2.8h-1V2.4h2.3v0.3h-1v2.4h-0.4L62.3,2.8z"></path>
		<path class="st2" d="M64,2.4h0.4v2.8H64V2.4z"></path>
		<path class="st2" d="M65,3.8c0-0.8,0.7-1.5,1.5-1.5S68,3,68,3.8s-0.7,1.5-1.5,1.5S65,4.7,65,3.8z M67.6,3.8c0-0.6-0.5-1.1-1.1-1.1    s-1.1,0.5-1.1,1.1s0.5,1.1,1.1,1.1S67.6,4.4,67.6,3.8z"></path>
		<path class="st2" d="M71,2.4v2.8h-0.3L69,3.2v2.1h-0.4V2.4h0.3l1.7,2.1V2.4H71z"></path>
		<path class="st2" d="M18.8,65.7l-0.6-0.8h-0.9v0.8h-0.4v-2.8H18c0.7,0,1.2,0.4,1.2,1c0,0.4-0.2,0.8-0.6,0.9l0.7,0.9L18.8,65.7z     M18.8,63.9c0-0.4-0.3-0.6-0.8-0.6h-0.7v1.3H18C18.5,64.5,18.7,64.3,18.8,63.9L18.8,63.9z"></path>
		<path class="st2" d="M19.5,64.3c0-0.8,0.6-1.5,1.4-1.5c0.8,0,1.5,0.6,1.5,1.4c0,0.8-0.6,1.5-1.4,1.5c0,0,0,0,0,0    C20.2,65.8,19.6,65.2,19.5,64.3C19.6,64.3,19.5,64.3,19.5,64.3z M22.1,64.3c0-0.6-0.5-1.1-1.1-1.1c-0.6,0-1.1,0.5-1.1,1.1    c0,0.6,0.5,1.1,1.1,1.1c0,0,0,0,0,0c0.6,0,1-0.4,1.1-0.9C22.1,64.4,22.1,64.4,22.1,64.3z"></path>
		<path class="st2" d="M24,64.7v1h-0.4v-1l-1.1-1.8H23l0.9,1.5l0.9-1.5h0.4L24,64.7z"></path>
		<path class="st2" d="M27.1,65h-1.5l-0.3,0.7H25l1.3-2.8h0.4l1.2,2.8h-0.4L27.1,65z M27,64.7l-0.6-1.4l-0.6,1.4H27z"></path>
		<path class="st2" d="M28.3,62.9h0.4v2.4h1.5v0.3h-1.9V62.9z"></path>
		<path class="st2" d="M31.5,65.4l0.2-0.3c0.3,0.2,0.6,0.3,0.9,0.3c0.5,0,0.7-0.2,0.7-0.4c0-0.7-1.7-0.3-1.7-1.3    c0-0.4,0.3-0.8,1.1-0.8c0.3,0,0.6,0.1,0.9,0.3l-0.1,0.3c-0.2-0.2-0.5-0.2-0.8-0.2c-0.5,0-0.7,0.2-0.7,0.4c0,0.7,1.7,0.3,1.7,1.3    c0,0.4-0.3,0.8-1.1,0.8C32.1,65.7,31.8,65.6,31.5,65.4z"></path>
		<path class="st2" d="M36.2,65.3v0.3h-2v-2.8h2v0.3h-1.6v0.9H36v0.3h-1.4v0.9H36.2z"></path>
		<path class="st2" d="M36.8,62.9h0.4v2.4h1.5v0.3h-1.9V62.9z"></path>
		<path class="st2" d="M41,65h-1.5l-0.3,0.7h-0.4l1.3-2.8h0.4l1.3,2.8h-0.4L41,65z M40.8,64.7l-0.6-1.4l-0.6,1.4H40.8z"></path>
		<path class="st2" d="M44.5,62.9v2.8h-0.3l-1.7-2.1v2.1h-0.4v-2.8h0.3l1.7,2.1v-2.1H44.5z"></path>
		<path class="st2" d="M47.2,64.3h0.4v1.1c-0.3,0.2-0.6,0.4-1,0.4c-0.8,0-1.4-0.7-1.4-1.5c0-0.8,0.7-1.4,1.5-1.4    c0.4,0,0.7,0.2,1,0.4l-0.3,0.3c-0.2-0.2-0.5-0.3-0.8-0.3c-0.6-0.1-1.1,0.4-1.2,1c-0.1,0.6,0.4,1.1,1,1.2c0.1,0,0.1,0,0.2,0    c0.2,0,0.5-0.1,0.7-0.2L47.2,64.3z"></path>
		<path class="st2" d="M48.1,64.3c0-0.8,0.6-1.5,1.4-1.5c0.8,0,1.5,0.6,1.5,1.4c0,0.8-0.6,1.5-1.4,1.5c0,0,0,0,0,0    C48.8,65.8,48.2,65.2,48.1,64.3C48.1,64.4,48.1,64.3,48.1,64.3z M50.7,64.3c0-0.6-0.5-1.1-1.1-1.1s-1.1,0.5-1.1,1.1    c0,0.6,0.5,1.1,1.1,1.1c0,0,0,0,0,0c0.6,0,1-0.4,1.1-0.9C50.7,64.4,50.7,64.3,50.7,64.3z"></path>
		<path class="st2" d="M53.5,65.7l-0.6-0.8h-0.9v0.8h-0.4v-2.8h1.1c0.7,0,1.2,0.4,1.2,1c0,0.4-0.2,0.8-0.6,0.9l0.7,0.9L53.5,65.7z     M53.5,63.9c0-0.4-0.3-0.6-0.8-0.6h-0.7v1.3h0.7C53.3,64.5,53.5,64.3,53.5,63.9L53.5,63.9z"></path>
		<path class="st2" d="M57.5,64.3h0.4v1.1c-0.3,0.2-0.7,0.4-1,0.4c-0.8,0.1-1.5-0.5-1.5-1.3c-0.1-0.8,0.5-1.5,1.3-1.5    c0.1,0,0.2,0,0.2,0c0.4,0,0.8,0.1,1.1,0.4l-0.2,0.3c-0.2-0.2-0.5-0.3-0.8-0.3c-0.6-0.1-1.1,0.4-1.2,1c-0.1,0.6,0.4,1.1,1,1.2    c0.1,0,0.1,0,0.2,0c0.2,0,0.5-0.1,0.7-0.2L57.5,64.3z"></path>
		<path class="st2" d="M58.5,64.3c0-0.8,0.6-1.5,1.4-1.5c0.8,0,1.5,0.6,1.5,1.4c0,0.8-0.6,1.5-1.4,1.5c0,0,0,0,0,0    C59.2,65.8,58.5,65.2,58.5,64.3C58.5,64.3,58.5,64.3,58.5,64.3z M61,64.3c0-0.6-0.5-1.1-1.1-1.1s-1.1,0.5-1.1,1.1    c0,0.6,0.5,1.1,1.1,1.1c0,0,0,0,0,0c0.6,0,1-0.4,1.1-0.9C61,64.4,61,64.3,61,64.3z"></path>
		<path class="st2" d="M62,62.9h0.4v2.4h1.5v0.3H62V62.9z"></path>
		<path class="st2" d="M64.8,63.3v1h1.4v0.3h-1.4v1.1h-0.4v-2.8h2v0.3H64.8z"></path>
		<path class="st2" d="M67.9,62.9h1.2c0.8-0.1,1.4,0.5,1.5,1.3c0.1,0.8-0.5,1.4-1.3,1.5c-0.1,0-0.2,0-0.2,0h-1.2V62.9z M69.1,65.3    c0.6,0,1-0.5,1-1c0-0.6-0.5-1-1-1h-0.8v2.1H69.1z"></path>
		<path class="st2" d="M71.2,62.9h0.4v2.8h-0.4V62.9z"></path>
		<path class="st2" d="M74.3,65.7l-0.6-0.8h-0.9v0.8h-0.4v-2.8h1.1c0.7,0,1.2,0.4,1.2,1c0,0.4-0.2,0.8-0.6,0.9l0.7,0.9L74.3,65.7z     M74.3,63.9c0-0.4-0.3-0.6-0.8-0.6h-0.7v1.3h0.7C74,64.5,74.3,64.3,74.3,63.9L74.3,63.9z"></path>
		<path class="st2" d="M77.3,65.3v0.3h-2v-2.8h2v0.3h-1.6v0.9h1.4v0.3h-1.4v0.9H77.3z"></path>
		<path class="st2" d="M77.7,64.3c0-0.8,0.6-1.4,1.4-1.4c0,0,0,0,0.1,0c0.4,0,0.8,0.1,1.1,0.4L80,63.6c-0.2-0.2-0.5-0.3-0.8-0.3    c-0.6,0-1.1,0.5-1.1,1.1c0,0.6,0.5,1.1,1.1,1.1c0.3,0,0.6-0.1,0.8-0.3l0.3,0.3c-0.6,0.6-1.5,0.6-2.1,0    C77.9,65,77.8,64.7,77.7,64.3L77.7,64.3z"></path>
		<path class="st2" d="M81.4,63.3h-1v-0.3h2.3v0.3h-1v2.4h-0.4L81.4,63.3z"></path>
		<path class="st2" d="M83.1,62.9h0.4v2.8h-0.4V62.9z"></path>
		<path class="st2" d="M84.1,64.3c0-0.8,0.6-1.5,1.4-1.5c0.8,0,1.5,0.6,1.5,1.4c0,0.8-0.6,1.5-1.4,1.5c0,0,0,0,0,0    C84.8,65.8,84.2,65.2,84.1,64.3C84.1,64.3,84.1,64.3,84.1,64.3z M86.7,64.3c0-0.6-0.5-1.1-1.1-1.1s-1.1,0.5-1.1,1.1    c0,0.6,0.5,1.1,1.1,1.1c0,0,0,0,0,0c0.6,0,1-0.4,1.1-0.9C86.7,64.4,86.7,64.4,86.7,64.3z"></path>
		<path class="st2" d="M90.1,62.9v2.8h-0.3l-1.7-2.1v2.1h-0.4v-2.8H88l1.7,2.1v-2.1H90.1z"></path>
		<g>
			<defs>
				<rect id="SVGID_3_" x="-3.2" width="109.8" height="67.5"></rect>
			</defs>
			<clipPath id="SVGID_4_">
				<use xlink:href="#SVGID_3_" style="overflow:visible;"></use>
			</clipPath>
			<g class="st3">
				<path class="st2" d="M69,36.4v5.3h-2.9v12.9c0,0,19.3-1.9,36.9-9.4v-8.7H69"></path>
			</g>
		</g>
	</g>
</g>
<g>
	<path class="st2" d="M101.1,15.7l-2.8-6c-0.1-0.1-0.2-0.2-0.3-0.2c-0.1,0-0.2,0.1-0.3,0.2l-2.9,6c-0.1,0.1,0,0.3,0.1,0.4   c0.1,0.1,0.2,0.1,0.4,0l2.8-1.7l2.7,1.8c0.1,0,0.1,0,0.2,0c0.1,0,0.1,0,0.2-0.1C101.2,16,101.2,15.8,101.1,15.7 M97.7,11.2l0,2.6   l-1.8,1.1L97.7,11.2z M98.3,13.8l0-2.6l1.8,3.9L98.3,13.8z"></path>
	<g>
		<path class="st2" d="M96.4,7.4v-4h0.5L99,6.5V3.4h0.5v4H99l-2.1-3.2v3.2H96.4z"></path>
	</g>
</g>
</svg>