<svg xmlns="http://www.w3.org/2000/svg" xmlns:xlink="http://www.w3.org/1999/xlink" id="Layer_1" x="0px" y="0px" viewBox="0 0 104.6 66.9" style="enable-background:new 0 0 104.6 66.9;" xml:space="preserve">
<style type="text/css">
	.st0{clip-path:url(#SVGID_2_);}
	.st1{fill:none;stroke:#FFFFFF;stroke-width:0.48;stroke-miterlimit:10;}
	.st2{fill:#FFFFFF;}
	.st3{clip-path:url(#SVGID_4_);}
</style>
<g id="Layer_2_1_">
	<g id="Layer_1-2">
		<g>
			<g>
				<defs>
					<rect id="SVGID_1_" x="-2.6" width="109.8" height="68.8"></rect>
				</defs>
				<clipPath id="SVGID_2_">
					<use xlink:href="#SVGID_1_" style="overflow:visible;"></use>
				</clipPath>
				<g class="st0">
					<path class="st1" d="M0.3,33.2v-8.9c0,0,7.2-3.3,20.7-6.7v9.3h4.4v1.6H26v4.8h-0.3v0.6h-3v-0.6L0.3,33.2z"></path>
					<path class="st1" d="M104.3,33.2v-8.9c0,0-7.2-3.3-20.7-6.7v9.3h-4.5v1.6h-0.7v4.8h0.3v0.6h3v-0.6L104.3,33.2z"></path>
					<path class="st1" d="M21,17.5c5.5-1.2,11-2.2,16.6-2.9v7.6h0.3V25h4.2v3.3h-6.5v4.8h-3.4v0.8h-3.1v-0.7h-3v-4.8h-0.7v-1.6H21       V17.5z"></path>
					<path class="st1" d="M37.6,14.7c0,0,9.8-1,14.8-0.8v14.5h-4.8v4.7H45v-4.7h-2.9V25h-4.2v-2.8h-0.3V14.7z"></path>
					<path class="st1" d="M52.3,13.9c4.9,0,9.9,0.3,14.8,0.8v7.5h-0.6v2.6h-4.3v7.7h-2.5v-4.2h-7.4V13.9z"></path>
					<path class="st1" d="M67.2,14.7c0,0,11.8,1.4,16.5,2.9v9.3h-4.5l0.1,1.6h-0.7v4.7h-3v0.6h-3.1v-0.6h-4.8v-3.5h-5.3v-4.9h4.3       v-2.6h0.6L67.2,14.7L67.2,14.7z"></path>
					<path class="st1" d="M0.3,36.9v9C7,48.6,14,50.8,21,52.6v-9.2h4.7V37h-0.3v-0.6h-2.9V37L0.3,36.9z"></path>
					<path class="st1" d="M104.4,36.9v9c-6.7,2.7-13.7,4.9-20.7,6.7v-9.2H79V37h0.3v-0.6h3V37L104.4,36.9z"></path>
					<path class="st1" d="M25.6,37h1.8v-0.6h3.2V37h2.6v4.3h-1.1v3h-0.8v2.5h0.8v8c0,0-9.2-1.6-11.2-2.2v-9.2h4.7       C25.6,43.4,25.6,37,25.6,37z"></path>
					<path class="st1" d="M33,36.9v-0.6h3v6h6.2v13.6c0,0-8.1-0.8-10-1.1v-8h-0.8v-2.5h0.8v-3h1.1V37L33,36.9z"></path>
					<path class="st1" d="M44.7,37.4h2.9v4.4h4.6v14.5c0,0-9.8-0.3-10-0.4V42.3h2.5V37.4z"></path>
					<path class="st1" d="M59.8,37.6h2.4v4.8h0.9v2.8h-0.7v10.7c0,0-9.5,0.5-10.2,0.4V41.8h7.5L59.8,37.6L59.8,37.6z"></path>
					<path class="st1" d="M63.1,42.4h6.8v-6h3.2v1.2h-0.6v1.7h0.7v1.9h-0.8v3.2H73v2.2h-0.7v8.2c0,0-7.9,1.2-9.9,1.2V45.2h0.7       L63.1,42.4z"></path>
					<path class="st1" d="M73.1,36.3H76v0.5h3v6.4h4.6v9.3c0,0-9.1,2.3-11.4,2.2v-8.2H73v-2.2h-0.6v-3.2h0.8v-1.9h-0.7v-1.7h0.6       L73.1,36.3z"></path>
					<line class="st1" x1="20.9" y1="33.2" x2="20.9" y2="37"></line>
					<line class="st1" x1="83.6" y1="33.2" x2="83.6" y2="37"></line>
				</g>
			</g>
		</g>
		<path class="st2" d="M38,4.1l-0.5,0.5v0.7h-0.4V2.5h0.4v1.6L39,2.5h0.5l-1.2,1.3l1.3,1.5h-0.5L38,4.1z"></path>
		<path class="st2" d="M40,2.5h0.4V5h1.5v0.3H40V2.5z"></path>
		<path class="st2" d="M42.1,3.9c0-0.8,0.6-1.4,1.4-1.4h0.1c0.4,0,0.8,0.1,1.1,0.4l-0.3,0.3c-0.2-0.2-0.5-0.4-0.8-0.3    c-0.6,0-1.1,0.4-1.1,1c0,0,0,0,0,0.1c0,0.6,0.4,1.1,1,1.1h0.1c0.3,0,0.6-0.1,0.8-0.3l0.3,0.3c-0.3,0.3-0.7,0.5-1.1,0.4    C42.8,5.4,42.1,4.8,42.1,3.9C42.1,4,42.1,3.9,42.1,3.9z"></path>
		<path class="st2" d="M45,3.9c0-0.8,0.6-1.4,1.4-1.4h0.1c0.4,0,0.8,0.1,1.1,0.4l-0.3,0.3c-0.2-0.2-0.5-0.4-0.8-0.3    c-0.6,0-1.1,0.5-1.1,1.1l0,0c0,0.6,0.4,1.1,1,1.1l0,0c0.3,0,0.6-0.1,0.8-0.3l0.3,0.3c-0.3,0.3-0.7,0.5-1.1,0.4    C45.7,5.4,45,4.8,45,3.9C45,4,45,3.9,45,3.9z"></path>
		<path class="st2" d="M49.2,2.5h1.2c0.8,0,1.4,0.6,1.4,1.4s-0.6,1.4-1.4,1.4l0,0h-1.2V2.5z M50.4,5c0.5,0.1,1-0.3,1.1-0.9    c0-0.1,0-0.1,0-0.2c0-0.6-0.4-1-0.9-1.1c-0.1,0-0.1,0-0.2,0h-0.8V5H50.4z"></path>
		<path class="st2" d="M52.5,2.5h0.4v2.8h-0.4V2.5z"></path>
		<path class="st2" d="M55.7,5.3L55,4.5h-0.9v0.9h-0.4V2.5h1.1c0.7,0,1.2,0.4,1.2,1c0,0.4-0.2,0.8-0.6,0.9l0.7,1L55.7,5.3z     M55.7,3.5c0-0.4-0.3-0.6-0.8-0.6h-0.7v1.3h0.7C55.4,4.1,55.6,3.9,55.7,3.5L55.7,3.5z"></path>
		<path class="st2" d="M58.8,5v0.3h-2V2.5h2v0.3h-1.6v0.9h1.4V4h-1.4v1H58.8z"></path>
		<path class="st2" d="M59.2,3.9c0-0.8,0.6-1.4,1.4-1.4h0.1c0.4,0,0.8,0.1,1.1,0.4l-0.3,0.3C61.3,3,61,2.8,60.7,2.9    c-0.6,0-1.1,0.4-1.1,1c0,0,0,0,0,0.1c0,0.6,0.4,1.1,1,1.1h0.1c0.3,0,0.6-0.1,0.8-0.3l0.3,0.3c-0.3,0.3-0.7,0.5-1.1,0.4    C59.9,5.4,59.2,4.8,59.2,3.9C59.2,4,59.2,3.9,59.2,3.9z"></path>
		<path class="st2" d="M62.8,2.8h-1V2.5h2.3v0.3h-1v2.5h-0.4L62.8,2.8z"></path>
		<path class="st2" d="M64.7,2.5h0.4v2.8h-0.4V2.5z"></path>
		<path class="st2" d="M65.7,3.9c0-0.8,0.6-1.5,1.4-1.6c0.8,0,1.5,0.6,1.6,1.4c0,0.8-0.6,1.5-1.4,1.6c0,0,0,0-0.1,0    C66.4,5.3,65.7,4.7,65.7,3.9L65.7,3.9z M68.3,3.9c-0.1-0.6-0.6-1-1.2-1c-0.5,0.1-0.9,0.5-1,1c0.1,0.6,0.6,1,1.2,1    C67.8,4.9,68.2,4.4,68.3,3.9z"></path>
		<path class="st2" d="M71.7,2.5v2.8h-0.3l-1.7-2.1v2.1h-0.4V2.5h0.3l1.7,2.1V2.5H71.7z"></path>
		<path class="st2" d="M18.5,66.9L17.9,66H17v0.8h-0.4V64h1.1c0.7,0,1.2,0.4,1.2,1c0,0.4-0.2,0.8-0.6,0.9l0.7,0.9L18.5,66.9z     M18.5,65.1c0-0.4-0.3-0.6-0.8-0.6H17v1.3h0.7C18.3,65.7,18.5,65.5,18.5,65.1L18.5,65.1z"></path>
		<path class="st2" d="M19.4,65.5c0-0.8,0.6-1.5,1.4-1.5s1.5,0.6,1.5,1.4s-0.6,1.5-1.4,1.5l0,0C20.1,67,19.4,66.4,19.4,65.5    L19.4,65.5z M22,65.5c0-0.6-0.5-1.1-1.1-1.1s-1.1,0.5-1.1,1.1s0.5,1.1,1.1,1.1l0,0C21.5,66.6,21.9,66.1,22,65.5    C21.9,65.5,21.9,65.5,22,65.5L22,65.5z"></path>
		<path class="st2" d="M23.9,65.9v1h-0.4v-1l-1.1-1.8h0.4l0.9,1.5l0.9-1.5H25L23.9,65.9z"></path>
		<path class="st2" d="M27.1,66.2h-1.5l-0.3,0.7h-0.4l1.3-2.8h0.4l1.3,2.8h-0.4L27.1,66.2z M27,65.9l-0.6-1.4l-0.6,1.4H27z"></path>
		<path class="st2" d="M28.3,64.1h0.4v2.5h1.5v0.3h-1.9V64.1z"></path>
		<path class="st2" d="M31.5,66.6l0.2-0.3c0.3,0.2,0.6,0.3,0.9,0.3c0.5,0,0.7-0.2,0.7-0.4c0-0.7-1.7-0.3-1.7-1.3    c0-0.4,0.3-0.8,1.1-0.8c0.3,0,0.6,0.1,0.9,0.3l-0.1,0.3c-0.2-0.1-0.5-0.2-0.8-0.2c-0.5,0-0.7,0.2-0.7,0.4c0,0.7,1.7,0.3,1.7,1.3    c0,0.4-0.3,0.8-1.1,0.8C32.2,67,31.8,66.8,31.5,66.6z"></path>
		<path class="st2" d="M36.3,66.6v0.3h-2v-2.8h2v0.4h-1.6v0.9h1.4v0.3h-1.4v0.9C34.7,66.6,36.3,66.6,36.3,66.6z"></path>
		<path class="st2" d="M36.9,64.1h0.4v2.5h1.5v0.3h-1.9V64.1z"></path>
		<path class="st2" d="M41.1,66.2h-1.5l-0.3,0.7h-0.4l1.3-2.8h0.4l1.3,2.8h-0.4L41.1,66.2z M41,65.9l-0.6-1.4l-0.6,1.4H41z"></path>
		<path class="st2" d="M44.7,64.1v2.8h-0.3l-1.7-2.1v2.1h-0.4v-2.8h0.3l1.7,2.1v-2.1H44.7z"></path>
		<path class="st2" d="M47.5,65.5h0.4v1.1c-0.3,0.2-0.7,0.4-1.1,0.4c-0.8,0.1-1.5-0.5-1.6-1.3s0.5-1.5,1.3-1.6c0.1,0,0.2,0,0.2,0    c0.4,0,0.8,0.1,1.1,0.4l-0.3,0.3c-0.2-0.2-0.5-0.3-0.8-0.3c-0.6-0.1-1.1,0.4-1.2,1c-0.1,0.6,0.4,1.1,1,1.2c0.1,0,0.1,0,0.2,0    c0.2,0,0.5-0.1,0.7-0.2L47.5,65.5z"></path>
		<path class="st2" d="M48.5,65.5c0-0.8,0.6-1.5,1.4-1.5c0.8,0,1.5,0.6,1.5,1.4s-0.6,1.5-1.4,1.5l0,0C49.2,67,48.5,66.4,48.5,65.5    C48.5,65.6,48.5,65.5,48.5,65.5z M51.1,65.5c0-0.6-0.5-1.1-1.1-1.1s-1.1,0.5-1.1,1.1s0.5,1.1,1.1,1.1l0,0    C50.5,66.6,51,66.1,51.1,65.5L51.1,65.5z"></path>
		<path class="st2" d="M54,66.9L53.4,66h-0.9v0.8h-0.4V64h1.1c0.7,0,1.2,0.4,1.2,1c0,0.4-0.2,0.8-0.6,0.9l0.7,0.9L54,66.9z M54,65.1    c0-0.4-0.3-0.6-0.8-0.6h-0.7v1.3h0.7C53.7,65.7,54,65.5,54,65.1L54,65.1z"></path>
		<path class="st2" d="M58.1,65.5h0.3v1.1c-0.3,0.2-0.7,0.4-1.1,0.4c-0.8,0.1-1.5-0.5-1.6-1.3s0.5-1.5,1.3-1.6c0.1,0,0.2,0,0.2,0    c0.4,0,0.8,0.1,1.1,0.4L58,64.8c-0.2-0.2-0.5-0.3-0.8-0.3c-0.6-0.1-1.1,0.4-1.2,1c-0.1,0.6,0.4,1.1,1,1.2c0.1,0,0.1,0,0.2,0    c0.2,0,0.5-0.1,0.7-0.2L58.1,65.5z"></path>
		<path class="st2" d="M59,65.5c0-0.8,0.6-1.5,1.4-1.5c0.8,0,1.5,0.6,1.5,1.4s-0.6,1.5-1.4,1.5l0,0C59.7,67,59,66.4,59,65.5    C59,65.6,59,65.5,59,65.5z M61.6,65.5c0-0.6-0.5-1.1-1.1-1.1s-1.1,0.5-1.1,1.1s0.5,1.1,1.1,1.1l0,0C61.1,66.6,61.6,66.1,61.6,65.5    L61.6,65.5z"></path>
		<path class="st2" d="M62.6,64.1H63v2.5h1.5v0.3h-1.9V64.1z"></path>
		<path class="st2" d="M65.4,64.4v1h1.4v0.3h-1.4v1.1H65V64h2v0.4H65.4z"></path>
		<path class="st2" d="M68.6,64.1h1.2c0.8,0,1.4,0.6,1.4,1.4s-0.6,1.4-1.4,1.4l0,0h-1.2V64.1z M69.8,66.6c0.6,0.1,1.1-0.4,1.2-1    s-0.4-1.1-1-1.2c-0.1,0-0.1,0-0.2,0H69v2.1L69.8,66.6L69.8,66.6z"></path>
		<path class="st2" d="M72,64.1h0.4v2.8H72V64.1z"></path>
		<path class="st2" d="M75.1,66.9L74.5,66h-0.9v0.8h-0.4V64h1.1c0.7,0,1.2,0.4,1.2,1c0,0.4-0.2,0.8-0.6,0.9l0.7,0.9L75.1,66.9z     M75.1,65.1c0-0.4-0.3-0.6-0.8-0.6h-0.7v1.3h0.7C74.8,65.7,75.1,65.5,75.1,65.1L75.1,65.1z"></path>
		<path class="st2" d="M78.2,66.6v0.3h-2v-2.8h2v0.4h-1.6v0.9H78v0.3h-1.4v0.9C76.6,66.6,78.2,66.6,78.2,66.6z"></path>
		<path class="st2" d="M78.6,65.5c0-0.8,0.6-1.4,1.4-1.4h0.1c0.4,0,0.8,0.1,1.1,0.4l-0.3,0.3c-0.2-0.2-0.5-0.4-0.8-0.3    c-0.6-0.1-1.1,0.4-1.2,1s0.4,1.1,1,1.2c0.1,0,0.1,0,0.2,0c0.3,0,0.6-0.1,0.8-0.3l0.3,0.3c-0.3,0.3-0.7,0.5-1.1,0.4    c-0.8,0-1.4-0.6-1.5-1.3C78.6,65.6,78.6,65.5,78.6,65.5z"></path>
		<path class="st2" d="M82.3,64.4h-1V64h2.3v0.4h-1v2.5h-0.3V64.4z"></path>
		<path class="st2" d="M84.1,64.1h0.4v2.8h-0.4V64.1z"></path>
		<path class="st2" d="M85.1,65.5c0-0.8,0.6-1.5,1.4-1.5s1.5,0.6,1.5,1.4s-0.6,1.5-1.4,1.5l0,0C85.8,67,85.2,66.4,85.1,65.5    L85.1,65.5z M87.7,65.5c0-0.6-0.5-1.1-1.1-1.1s-1.1,0.5-1.1,1.1s0.5,1.1,1.1,1.1l0,0C87.2,66.6,87.7,66.1,87.7,65.5L87.7,65.5z"></path>
		<path class="st2" d="M91.2,64.1v2.8h-0.3l-1.7-2.1v2.1h-0.4v-2.8h0.3l1.7,2.1v-2.1H91.2z"></path>
		<g>
			<g>
				<defs>
					<rect id="SVGID_3_" x="-2.6" width="109.8" height="68.8"></rect>
				</defs>
				<clipPath id="SVGID_4_">
					<use xlink:href="#SVGID_3_" style="overflow:visible;"></use>
				</clipPath>
				<g class="st3">
					<path class="st2" d="M21,17.5c5.5-1.2,11-2.2,16.6-2.9v7.6h0.3V25h4.2v3.3h-6.5v4.8h-3.4v0.8h-3.1v-0.7h-3v-4.8h-0.7v-1.6H21       V17.5z"></path>
				</g>
			</g>
		</g>
	</g>
</g>
<g>
	<path class="st2" d="M102.1,15.7l-2.8-6c-0.1-0.1-0.2-0.2-0.3-0.2c-0.1,0-0.2,0.1-0.3,0.2l-2.9,6c-0.1,0.1,0,0.3,0.1,0.4   c0.1,0.1,0.2,0.1,0.4,0l2.8-1.7l2.7,1.8c0.1,0,0.1,0,0.2,0c0.1,0,0.1,0,0.2-0.1C102.2,16,102.2,15.8,102.1,15.7 M98.7,11.2l0,2.6   l-1.8,1.1L98.7,11.2z M99.3,13.8l0-2.6l1.8,3.9L99.3,13.8z"></path>
	<g>
		<path class="st2" d="M97.4,7.4v-4h0.5l2.1,3.2V3.4h0.5v4H100l-2.1-3.2v3.2H97.4z"></path>
	</g>
</g>
</svg>