<svg xmlns="http://www.w3.org/2000/svg" xmlns:xlink="http://www.w3.org/1999/xlink" id="Layer_1" x="0px" y="0px" viewBox="0 0 104.6 67.7" style="enable-background:new 0 0 104.6 67.7;" xml:space="preserve">
<style type="text/css">
	.st0{clip-path:url(#SVGID_2_);}
	.st1{fill:none;stroke:#FFFFFF;stroke-width:0.49;stroke-miterlimit:10;}
	.st2{fill:#FFFFFF;}
	.st3{clip-path:url(#SVGID_4_);}
</style>
<g id="Layer_2_1_">
	<g id="Layer_1-2">
		<g>
			<g>
				<defs>
					<rect id="SVGID_1_" x="-2.6" width="109.8" height="69.6"></rect>
				</defs>
				<clipPath id="SVGID_2_">
					<use xlink:href="#SVGID_1_" style="overflow:visible;"></use>
				</clipPath>
				<g class="st0">
					<path class="st1" d="M0.2,24.2v9.1h22.5v0.6h3.1v-0.7H26v-6.3h-5.1v-9.4c0,0-7.7,2.1-10.3,2.9S0.2,24.2,0.2,24.2z"></path>
					<path class="st1" d="M104.3,24.3v9H81.8v0.6h-3.1v-0.6h-0.3V27h5.1v-9.4c0,0,7.7,2.1,10.3,2.9S104.3,24.3,104.3,24.3z"></path>
					<path class="st1" d="M20.9,17.5c0,0,12.2-2.5,16.6-2.8v7.5h0.4V25h4.4v3.4h-6.6v4.9h-3.4v0.6H29v-0.7h-3v-6.3h-5.1V17.5z"></path>
					<path class="st1" d="M37.5,14.7c0,0,11.1-1,14.9-0.8v14.4h-4.8v4.8H45v-4.8h-2.7V25h-4.4v-2.8h-0.4       C37.5,22.2,37.5,14.7,37.5,14.7z"></path>
					<path class="st1" d="M67.1,14.7v7.5h-0.4V25h-4.3v4.7h-0.2v2.9h-2.3v-4.2h-7.5V13.9C52.4,13.9,60.5,14,67.1,14.7z"></path>
					<path class="st1" d="M67.1,14.7c0,0,13.2,1.8,16.5,2.9V27h-5.1v6.3h-3v0.6h-3.1v-0.7h-3V31h-0.7v-0.6h-1.1v-0.7h-5.3V25h4.3       v-2.8H67L67.1,14.7z"></path>
					<path class="st1" d="M0.4,37h22v-0.6h3.1V37h0.1v6.3H21v9.4c0,0-10.1-2.8-11.8-3.4c0,0-8.7-3-8.9-3.4L0.4,37z"></path>
					<path class="st1" d="M104.3,37h-22v-0.6h-3.2v0.7H79v6.3h4.6v9.4c0,0,10.1-2.7,11.8-3.4c0,0,8.7-3,8.9-3.4V37z"></path>
					<path class="st1" d="M25.6,37h1.9v-0.7h3.2V37h2.6v4.3h-1.2v2.9h-0.8v2.6h0.8v8c0,0-8.7-1.5-11.2-2.1v-9.3h4.6L25.6,37z"></path>
					<path class="st1" d="M33.3,37v-0.6h2.6v6h6.3V56c0,0-8.6-0.8-10.1-1.2v-8h-0.8v-2.6h0.8v-2.9h1.2V37z"></path>
					<path class="st1" d="M44.6,37.5h3V42h4.6v14.4c0,0-9.4-0.2-10-0.3V42.4h2.4V37.5z"></path>
					<path class="st1" d="M59.8,37.7h2.3v4.8h1v2.9h-0.7V56c0,0-9.3,0.6-10.2,0.4V42h7.6C59.8,42,59.8,37.6,59.8,37.7z"></path>
					<path class="st1" d="M72.5,36.4v3h0.8v2h-0.8v3h0.8V47h-0.9v8c0,0-8.7,1.1-10,1V45.4h0.7v-2.9H70v-6.1H72.5z"></path>
					<path class="st1" d="M72.5,36.4h3.6V37H79v6.3h4.6v9.4c0,0-10.8,2.2-11.2,2.2v-8h0.9v-2.6h-0.8v-3h0.8v-2h-0.8V36.4z"></path>
					<line class="st1" x1="20.8" y1="33.2" x2="20.8" y2="37.1"></line>
					<line class="st1" x1="83.9" y1="33.2" x2="83.9" y2="37.1"></line>
				</g>
			</g>
		</g>
		<path class="st2" d="M37.9,4.1l-0.6,0.5v0.7H37V2.5h0.4v1.6l1.5-1.6h0.5l-1.2,1.3l1.3,1.6H39L37.9,4.1z"></path>
		<path class="st2" d="M39.9,2.5h0.4V5h1.5v0.4h-2L39.9,2.5z"></path>
		<path class="st2" d="M42.1,4c0-0.8,0.6-1.5,1.4-1.5h0.1c0.4,0,0.8,0.2,1.1,0.5l-0.3,0.2c-0.2-0.2-0.5-0.4-0.8-0.3    c-0.6-0.1-1.1,0.4-1.2,1s0.4,1.1,1,1.2c0.1,0,0.1,0,0.2,0c0.3,0,0.6-0.1,0.8-0.3L44.7,5c-0.3,0.3-0.7,0.5-1.1,0.4    C42.8,5.5,42.1,4.9,42.1,4C42.1,4.1,42.1,4,42.1,4z"></path>
		<path class="st2" d="M45,4c0-0.8,0.7-1.5,1.6-1.5c0.4,0,0.7,0.2,1,0.5l-0.3,0.3c-0.2-0.2-0.5-0.4-0.8-0.3c-0.6,0-1.1,0.4-1.1,1    c0,0,0,0,0,0.1c0,0.6,0.5,1.1,1.1,1.1c0,0,0,0,0.1,0c0.3,0,0.6-0.1,0.8-0.3L47.6,5c-0.3,0.3-0.7,0.5-1.1,0.4C45.7,5.5,45,4.9,45,4    C45,4.1,45,4,45,4z"></path>
		<path class="st2" d="M49.2,2.5h1.2c0.8,0,1.5,0.5,1.6,1.3c0,0.1,0,0.1,0,0.2c0,0.8-0.6,1.4-1.4,1.4c-0.1,0-0.1,0-0.2,0h-1.2    L49.2,2.5z M50.4,5c0.6,0.1,1.1-0.4,1.2-0.9c0,0,0,0,0-0.1c0-0.6-0.4-1.1-1-1.1h-0.1h-0.8V5H50.4z"></path>
		<path class="st2" d="M52.6,2.5H53v2.9h-0.4V2.5z"></path>
		<path class="st2" d="M55.8,5.4l-0.6-0.9h-0.9v0.9h-0.4V2.5H55c0.7,0,1.2,0.4,1.2,1c0,0.4-0.2,0.8-0.6,0.9l0.7,1H55.8z M55.8,3.5    c0-0.4-0.3-0.6-0.8-0.6h-0.7v1.3H55C55.5,4.2,55.8,3.9,55.8,3.5L55.8,3.5z"></path>
		<path class="st2" d="M58.9,5v0.4h-2.1V2.5h2v0.3h-1.6v0.9h1.4V4h-1.4v1H58.9z"></path>
		<path class="st2" d="M59.4,4c0-0.8,0.7-1.5,1.6-1.5c0.4,0,0.7,0.2,1,0.5l-0.3,0.3c-0.2-0.2-0.5-0.4-0.8-0.3    c-0.6-0.1-1.1,0.4-1.2,1s0.4,1.1,1,1.2c0.1,0,0.1,0,0.2,0c0.3,0,0.6-0.1,0.8-0.3L62,5c-0.3,0.3-0.7,0.5-1.1,0.4    C60.1,5.4,59.4,4.8,59.4,4C59.4,4.1,59.4,4,59.4,4z"></path>
		<path class="st2" d="M63.1,2.9h-1V2.5h2.4v0.3h-1v2.5H63L63.1,2.9z"></path>
		<path class="st2" d="M64.9,2.5h0.4v2.9h-0.4V2.5z"></path>
		<path class="st2" d="M65.9,4c0-0.8,0.6-1.5,1.5-1.6c0.8,0,1.5,0.6,1.6,1.5c0,0.8-0.6,1.5-1.5,1.6c0,0,0,0-0.1,0    C66.6,5.5,65.9,4.9,65.9,4L65.9,4z M68.5,4c-0.1-0.6-0.7-1-1.3-0.9c-0.4,0.1-0.8,0.4-0.9,0.9c0,0.6,0.5,1.1,1.1,1.1    S68.6,4.6,68.5,4L68.5,4z"></path>
		<path class="st2" d="M72,2.5v2.9h-0.3L70,3.3v2.1h-0.4V2.5h0.3l1.7,2.1V2.5H72z"></path>
		<g>
			<g>
				<defs>
					<rect id="SVGID_3_" x="-2.6" width="109.8" height="69.6"></rect>
				</defs>
				<clipPath id="SVGID_4_">
					<use xlink:href="#SVGID_3_" style="overflow:visible;"></use>
				</clipPath>
				<g class="st3">
					<path class="st2" d="M18.2,67.7l-0.6-0.9h-0.9v0.9h-0.4v-2.8h1.1c0.7,0,1.2,0.4,1.2,1c0,0.4-0.2,0.8-0.6,0.9l0.7,1L18.2,67.7z        M18.2,65.8c0-0.4-0.3-0.6-0.8-0.6h-0.7v1.3h0.7C18,66.5,18.2,66.2,18.2,65.8L18.2,65.8z"></path>
					<path class="st2" d="M19.1,66.3c0-0.8,0.6-1.5,1.4-1.6c0.8,0,1.5,0.6,1.6,1.4c0,0.8-0.6,1.5-1.4,1.6c0,0,0,0-0.1,0       C19.8,67.7,19.1,67.1,19.1,66.3L19.1,66.3z M21.7,66.3c0-0.6-0.5-1.1-1.1-1.1s-1.1,0.5-1.1,1.1s0.5,1.1,1.1,1.1l0,0       C21.2,67.4,21.7,66.9,21.7,66.3L21.7,66.3z"></path>
					<path class="st2" d="M23.7,66.7v1h-0.4v-1l-1.1-1.9h0.4l0.9,1.5l0.9-1.5h0.4L23.7,66.7z"></path>
					<path class="st2" d="M26.9,67h-1.5L25,67.7h-0.4l1.3-2.8h0.5l1.3,2.8h-0.4L26.9,67z M26.7,66.7l-0.6-1.4l-0.6,1.4H26.7z"></path>
					<path class="st2" d="M28.1,64.8h0.4v2.5H30v0.3h-1.9V64.8z"></path>
					<path class="st2" d="M31.4,67.3l0.1-0.3c0.3,0.2,0.6,0.3,0.9,0.3c0.5,0,0.7-0.2,0.7-0.4c0-0.7-1.7-0.3-1.7-1.3       c0-0.4,0.3-0.8,1.1-0.8c0.3,0,0.6,0.1,0.9,0.2l-0.1,0.3c-0.2-0.2-0.5-0.2-0.8-0.2c-0.5,0-0.7,0.2-0.7,0.5       c0,0.7,1.7,0.3,1.7,1.3c0,0.4-0.3,0.8-1.1,0.8C32,67.7,31.7,67.6,31.4,67.3z"></path>
					<path class="st2" d="M36.2,67.3v0.3h-2.1v-2.8h2v0.4h-1.6v0.9h1.4v0.3h-1.4v0.9C34.5,67.3,36.2,67.3,36.2,67.3z"></path>
					<path class="st2" d="M36.8,64.8h0.4v2.5h1.5v0.3h-2L36.8,64.8z"></path>
					<path class="st2" d="M41.1,67h-1.5l-0.3,0.7h-0.4l1.3-2.8h0.4l1.3,2.8h-0.4L41.1,67z M41,66.7l-0.6-1.4l-0.6,1.4H41z"></path>
					<path class="st2" d="M44.7,64.8v2.8h-0.4l-1.7-2.1v2.1h-0.4v-2.8h0.3l1.8,2.2v-2.2H44.7z"></path>
					<path class="st2" d="M47.5,66.2h0.4v1.1c-0.3,0.2-0.7,0.4-1.1,0.4c-0.8,0-1.4-0.7-1.4-1.5s0.7-1.4,1.5-1.4c0.4,0,0.7,0.2,1,0.4       l-0.3,0.3c-0.2-0.2-0.5-0.3-0.8-0.3c-0.6-0.1-1.1,0.4-1.2,1c-0.1,0.6,0.4,1.1,1,1.2c0.1,0,0.1,0,0.2,0c0.2,0,0.5-0.1,0.7-0.2       L47.5,66.2z"></path>
					<path class="st2" d="M48.5,66.3c0-0.8,0.6-1.5,1.4-1.6c0.8,0,1.5,0.6,1.6,1.4c0,0.8-0.6,1.5-1.4,1.6c0,0,0,0-0.1,0       C49.2,67.7,48.5,67.1,48.5,66.3L48.5,66.3z M51.1,66.3c0-0.6-0.5-1.1-1.1-1.1s-1.1,0.5-1.1,1.1s0.5,1.1,1.1,1.1l0,0       C50.6,67.4,51.1,66.9,51.1,66.3L51.1,66.3z"></path>
					<path class="st2" d="M54.1,67.7l-0.6-0.9h-0.9v0.9h-0.4v-2.8h1.1c0.7,0,1.2,0.4,1.2,1c0,0.4-0.2,0.8-0.6,0.9l0.7,1L54.1,67.7z        M54.1,65.8c0-0.4-0.3-0.6-0.8-0.6h-0.7v1.3h0.7C53.8,66.5,54,66.2,54.1,65.8L54.1,65.8z"></path>
					<path class="st2" d="M58.2,66.2h0.4v1.1c-0.3,0.2-0.7,0.4-1.1,0.4c-0.8,0.1-1.5-0.5-1.6-1.3s0.5-1.5,1.3-1.6c0.1,0,0.2,0,0.2,0       c0.4,0,0.8,0.1,1.1,0.4l-0.3,0.3c-0.2-0.2-0.5-0.3-0.8-0.3c-0.6-0.1-1.1,0.4-1.2,1c-0.1,0.6,0.4,1.1,1,1.2c0.1,0,0.1,0,0.2,0       c0.2,0,0.5-0.1,0.7-0.2L58.2,66.2z"></path>
					<path class="st2" d="M59.1,66.3c0-0.8,0.6-1.5,1.4-1.6c0.8,0,1.5,0.6,1.6,1.4c0,0.8-0.6,1.5-1.4,1.6c0,0,0,0-0.1,0       C59.9,67.7,59.2,67.1,59.1,66.3L59.1,66.3z M61.8,66.3c0-0.6-0.5-1.1-1.1-1.1s-1.1,0.5-1.1,1.1s0.5,1.1,1.1,1.1l0,0       C61.3,67.4,61.7,66.9,61.8,66.3L61.8,66.3z"></path>
					<path class="st2" d="M62.8,64.8h0.4v2.5h1.6v0.3h-2L62.8,64.8z"></path>
					<path class="st2" d="M65.6,65.2v1H67v0.3h-1.4v1.2h-0.4v-2.9h2v0.4H65.6z"></path>
					<path class="st2" d="M68.9,64.8h1.2c0.8-0.1,1.5,0.5,1.5,1.3c0.1,0.8-0.5,1.5-1.3,1.5c-0.1,0-0.2,0-0.2,0h-1.2V64.8z        M70.1,67.3c0.6,0,1.1-0.5,1.1-1.1s-0.5-1.1-1.1-1.1l0,0h-0.7v2.1L70.1,67.3L70.1,67.3z"></path>
					<path class="st2" d="M72.3,64.8h0.4v2.8h-0.4V64.8z"></path>
					<path class="st2" d="M75.4,67.7l-0.6-0.9h-0.9v0.9h-0.4v-2.8h1.1c0.8,0,1.2,0.4,1.2,1c0,0.4-0.2,0.8-0.6,0.9l0.7,1L75.4,67.7z        M75.4,65.8c0-0.4-0.3-0.6-0.8-0.6H74v1.3h0.7C75.2,66.5,75.4,66.2,75.4,65.8L75.4,65.8z"></path>
					<path class="st2" d="M78.6,67.3v0.3h-2.1v-2.8h2v0.4h-1.6v0.9h1.4v0.3h-1.4v0.9C76.9,67.3,78.6,67.3,78.6,67.3z"></path>
					<path class="st2" d="M79,66.3c0.1-0.8,0.8-1.5,1.6-1.4c0.4,0,0.7,0.2,1,0.4l-0.3,0.3c-0.2-0.2-0.5-0.3-0.8-0.3       c-0.6-0.1-1.1,0.4-1.2,1s0.4,1.1,1,1.2c0.1,0,0.1,0,0.2,0c0.3,0,0.6-0.1,0.8-0.4l0.3,0.3C81,68,80,68,79.4,67.4       C79.2,67,79.1,66.6,79,66.3L79,66.3z"></path>
					<path class="st2" d="M82.7,65.2h-1v-0.4h2.4v0.4h-1v2.5h-0.4V65.2z"></path>
					<path class="st2" d="M84.6,64.8H85v2.8h-0.4V64.8z"></path>
					<path class="st2" d="M85.6,66.3c0.1-0.8,0.9-1.4,1.7-1.3c0.6,0.1,1.1,0.6,1.3,1.3c-0.1,0.8-0.9,1.4-1.7,1.3       C86.2,67.4,85.7,66.9,85.6,66.3z M88.2,66.3c0-0.6-0.5-1.1-1.1-1.1S86,65.6,86,66.3s0.5,1.1,1.1,1.1S88.2,66.9,88.2,66.3       L88.2,66.3z"></path>
					<path class="st2" d="M91.7,64.8v2.8h-0.3l-1.7-2.1v2.1h-0.4v-2.8h0.3l1.7,2.2v-2.2H91.7z"></path>
					<path class="st2" d="M25.6,37h1.9v-0.7h3.2V37h2.6v4.3h-1.2v2.9h-0.8v2.6h0.8v8c0,0-8.7-1.5-11.2-2.1v-9.3h4.6L25.6,37z"></path>
				</g>
			</g>
		</g>
	</g>
</g>
<g>
	<path class="st2" d="M101.7,15.7l-2.8-6c-0.1-0.1-0.2-0.2-0.3-0.2c-0.1,0-0.2,0.1-0.3,0.2l-2.9,6c-0.1,0.1,0,0.3,0.1,0.4   c0.1,0.1,0.2,0.1,0.4,0l2.8-1.7l2.7,1.8c0.1,0,0.1,0,0.2,0c0.1,0,0.1,0,0.2-0.1C101.8,16,101.8,15.8,101.7,15.7 M98.3,11.2l0,2.6   l-1.8,1.1L98.3,11.2z M98.9,13.8l0-2.6l1.8,3.9L98.9,13.8z"></path>
	<g>
		<path class="st2" d="M97,7.4v-4h0.5l2.1,3.2V3.4h0.5v4h-0.5l-2.1-3.2v3.2H97z"></path>
	</g>
</g>
</svg>