<svg xmlns="http://www.w3.org/2000/svg" viewBox="0 0 103.48 65.63"><defs><style>.cls-1{fill:#fff;}.cls-2{fill:none;stroke:#fff;stroke-miterlimit:10;stroke-width:0.61px;}</style></defs><g id="Layer_2" data-name="Layer 2"><g id="Layer_1-2" data-name="Layer 1"><polygon class="cls-1" points="97.06 0 97.46 0 99.88 3.08 99.88 0 100.3 0 100.3 3.84 99.96 3.84 97.48 0.69 97.48 3.84 97.06 3.84 97.06 0"></polygon><path class="cls-1" d="M101.75,11.85,99,6a.31.31,0,0,0-.54,0l-2.8,5.82a.29.29,0,0,0,.07.35.29.29,0,0,0,.35,0l2.65-1.7,2.65,1.7a.3.3,0,0,0,.16,0,.27.27,0,0,0,.19-.08.29.29,0,0,0,.07-.35m-3.36-4.4V10l-1.8,1.15ZM99,10V7.45l1.8,3.72Z"></path><path class="cls-2" d="M.32,32.37V23.53A142.57,142.57,0,0,1,20.8,16.9v9.27h4.93v6.2h-.36V33H22.6v-.7Z"></path><path class="cls-2" d="M103.18,32.37V23.53A142,142,0,0,0,82.7,17v9.17l-5.15,0V32.4h.37V33h2.79v-.7Z"></path><path class="cls-2" d="M20.8,16.89s11.87-2.83,21-3.2V27.53H35.24V32.4h-3.4V33H28.77v-.67h-3v-6.2H20.8Z"></path><path class="cls-2" d="M41.81,13.69s6.67-.46,9.91-.43V27.6H47v4.67H44.45v-4.7H41.81Z"></path><path class="cls-2" d="M51.72,13.26s7.73.1,9.94.43V24.07h.73v2.26h-.9v5.41h-2.4V27.6H51.72Z"></path><path class="cls-2" d="M61.66,13.69A124.77,124.77,0,0,1,82.7,17v9.17H77.53V32.4H74.66V33H71.53v-.66H68.69V30.2H66.82V28.8H61.49V26.33h1V24.07h-.8Z"></path><path class="cls-2" d="M.3,36.06V45s12.21,4.83,20.44,6.58V42.36h4.5V36.11h-.3v-.65h-2.8v.67Z"></path><path class="cls-2" d="M103.05,36.06V45s-12.2,4.83-20.43,6.58V42.36H78.11V36.11h.3v-.65h2.81v.67Z"></path><path class="cls-2" d="M25.24,36.11h2v-.6h3.05v.6h2.55v4.22h-1v2.88H31v2.6h.82v7.86S21.59,52,20.74,51.54V42.36h4.5Z"></path><path class="cls-2" d="M32.3,36.06v-.58h3.1v6h6.35V54.79s-8.88-.82-9.93-1.12V45.81H31v-2.6h.82V40.33h1V36.11Z"></path><path class="cls-2" d="M41.75,41.46H44.1V36.58H47v4.35h4.65V55.24S43,55,41.75,54.79Z"></path><path class="cls-2" d="M51.68,40.93h7.41V36.71h2.35v4.8h.92v4.25h-.75v9.06s-8.35.42-9.93.42Z"></path><path class="cls-2" d="M62.36,41.51h6.83v-6h3.08v.75h-.7v2.2h.75v1.77h-.8v3h.77v2.56h-.77v7.9s-8.26,1-9.91,1.13V45.76h.75Z"></path><path class="cls-2" d="M72.27,35.46H75.2v.7h3v6.2h4.43v9.23s-10.19,2.1-11.06,2.1v-7.9h.77V43.24h-.77V40.18h.8V38.41h-.75v-2.2h.7Z"></path><line class="cls-2" x1="82.6" y1="32.33" x2="82.6" y2="36.11"></line><line class="cls-2" x1="21.19" y1="32.3" x2="21.19" y2="36.08"></line><path class="cls-1" d="M38,3.82l-.51.52v.72H37V2.28h.4V3.83L39,2.28h.45L38.21,3.53l1.27,1.53H39Z"></path><path class="cls-1" d="M39.9,2.28h.39V4.71H41.8v.35H39.9Z"></path><path class="cls-1" d="M42.74,4.9a1.32,1.32,0,0,1-.52-.5A1.4,1.4,0,0,1,42,3.67a1.4,1.4,0,0,1,.19-.73,1.41,1.41,0,0,1,.52-.51,1.61,1.61,0,0,1,.76-.18,1.44,1.44,0,0,1,.59.11,1.16,1.16,0,0,1,.46.32l-.26.25a1,1,0,0,0-.78-.33,1.19,1.19,0,0,0-.56.14,1.09,1.09,0,0,0-.39.38,1.15,1.15,0,0,0-.14.55,1.09,1.09,0,0,0,.14.54A1.12,1.12,0,0,0,43,4.6a1.19,1.19,0,0,0,.56.14,1,1,0,0,0,.78-.34l.26.25a1.29,1.29,0,0,1-.46.33,1.64,1.64,0,0,1-.6.11A1.49,1.49,0,0,1,42.74,4.9Z"></path><path class="cls-1" d="M45.56,4.9A1.34,1.34,0,0,1,45,4.4a1.5,1.5,0,0,1,0-1.46,1.44,1.44,0,0,1,.53-.51,1.57,1.57,0,0,1,.75-.18,1.46,1.46,0,0,1,.6.11,1.23,1.23,0,0,1,.46.32l-.26.25a1,1,0,0,0-.78-.33,1.16,1.16,0,0,0-.56.14,1,1,0,0,0-.39.38,1.15,1.15,0,0,0-.14.55,1.09,1.09,0,0,0,.14.54,1,1,0,0,0,.39.39,1.16,1.16,0,0,0,.56.14,1,1,0,0,0,.78-.34l.26.25a1.39,1.39,0,0,1-.46.33,1.68,1.68,0,0,1-.6.11A1.44,1.44,0,0,1,45.56,4.9Z"></path><path class="cls-1" d="M49,2.28h1.17a1.79,1.79,0,0,1,.78.17,1.22,1.22,0,0,1,.53.5,1.34,1.34,0,0,1,.19.72,1.34,1.34,0,0,1-.19.72,1.2,1.2,0,0,1-.53.49,1.66,1.66,0,0,1-.78.18H49Zm1.15,2.43a1.25,1.25,0,0,0,.59-.13.93.93,0,0,0,.39-.37,1,1,0,0,0,.14-.54,1,1,0,0,0-.14-.55.91.91,0,0,0-.39-.36,1.25,1.25,0,0,0-.59-.13H49.4V4.71Z"></path><path class="cls-1" d="M52.28,2.28h.39V5.06h-.39Z"></path><path class="cls-1" d="M55.36,5.06l-.6-.86H53.9v.85h-.39V2.28h1.08a1.31,1.31,0,0,1,.85.26.89.89,0,0,1,.31.71,1,1,0,0,1-.16.55.87.87,0,0,1-.45.32l.65.94Zm-.21-1.35a.57.57,0,0,0,.2-.46.56.56,0,0,0-.2-.46.86.86,0,0,0-.57-.16H53.9V3.87h.68A.86.86,0,0,0,55.15,3.71Z"></path><path class="cls-1" d="M58.4,4.71v.35h-2V2.28h2v.35H56.79v.85h1.39v.34H56.79v.89Z"></path><path class="cls-1" d="M59.54,4.9A1.34,1.34,0,0,1,59,4.4a1.4,1.4,0,0,1-.19-.73A1.4,1.4,0,0,1,59,2.94a1.44,1.44,0,0,1,.53-.51,1.54,1.54,0,0,1,.75-.18,1.46,1.46,0,0,1,.6.11,1.23,1.23,0,0,1,.46.32l-.26.25a1,1,0,0,0-.78-.33,1.16,1.16,0,0,0-.56.14,1,1,0,0,0-.39.38,1,1,0,0,0-.14.55,1,1,0,0,0,.14.54,1,1,0,0,0,.39.39,1.16,1.16,0,0,0,.56.14,1,1,0,0,0,.78-.34l.26.25a1.33,1.33,0,0,1-.47.33,1.63,1.63,0,0,1-.59.11A1.44,1.44,0,0,1,59.54,4.9Z"></path><path class="cls-1" d="M62.46,2.63h-1V2.28h2.3v.35h-1V5.06h-.4Z"></path><path class="cls-1" d="M64.24,2.28h.4V5.06h-.4Z"></path><path class="cls-1" d="M66,4.9a1.24,1.24,0,0,1-.53-.51,1.34,1.34,0,0,1-.2-.72,1.4,1.4,0,0,1,.2-.73A1.37,1.37,0,0,1,66,2.43a1.54,1.54,0,0,1,.75-.18,1.61,1.61,0,0,1,.76.18,1.41,1.41,0,0,1,.52.51,1.4,1.4,0,0,1,.19.73A1.4,1.4,0,0,1,68,4.4a1.32,1.32,0,0,1-.52.5,1.51,1.51,0,0,1-.76.19A1.44,1.44,0,0,1,66,4.9Zm1.3-.3a1.12,1.12,0,0,0,.39-.39,1.09,1.09,0,0,0,.14-.54,1.15,1.15,0,0,0-.14-.55,1.08,1.08,0,0,0-.94-.52,1.12,1.12,0,0,0-.55.14,1,1,0,0,0-.39.38,1.15,1.15,0,0,0-.14.55,1.09,1.09,0,0,0,.14.54,1,1,0,0,0,.39.39,1.12,1.12,0,0,0,.55.14A1.1,1.1,0,0,0,67.27,4.6Z"></path><path class="cls-1" d="M71.19,2.28V5.06h-.33L69.2,3V5.06h-.4V2.28h.33l1.66,2.07V2.28Z"></path><path class="cls-1" d="M18.82,65.6l-.6-.85h-.86v.85H17V62.82H18a1.31,1.31,0,0,1,.85.26.86.86,0,0,1,.31.71.9.9,0,0,1-.16.55.86.86,0,0,1-.45.33l.66.93Zm-.21-1.35a.55.55,0,0,0,.19-.46.56.56,0,0,0-.19-.46.91.91,0,0,0-.58-.16h-.67v1.25H18A.91.91,0,0,0,18.61,64.25Z"></path><path class="cls-1" d="M20.34,65.45a1.44,1.44,0,0,1-.53-.51,1.4,1.4,0,0,1-.19-.73,1.34,1.34,0,0,1,.19-.72,1.3,1.3,0,0,1,.53-.51,1.6,1.6,0,0,1,1.51,0,1.41,1.41,0,0,1,.53.5,1.5,1.5,0,0,1,0,1.46,1.44,1.44,0,0,1-.53.51,1.6,1.6,0,0,1-.75.18A1.58,1.58,0,0,1,20.34,65.45Zm1.3-.31a1,1,0,0,0,.39-.38,1.15,1.15,0,0,0,.14-.55,1.09,1.09,0,0,0-.14-.54,1,1,0,0,0-.39-.39,1.09,1.09,0,0,0-.54-.14,1.16,1.16,0,0,0-.56.14,1.12,1.12,0,0,0-.39.39,1.09,1.09,0,0,0-.14.54,1.15,1.15,0,0,0,.14.55,1.09,1.09,0,0,0,.39.38,1.16,1.16,0,0,0,.56.14A1.09,1.09,0,0,0,21.64,65.14Z"></path><path class="cls-1" d="M24.23,64.64v1h-.39v-1l-1.11-1.81h.43l.89,1.47.89-1.47h.39Z"></path><path class="cls-1" d="M27.3,64.91H25.83l-.31.69h-.41l1.26-2.78h.39L28,65.6h-.41Zm-.14-.32-.6-1.36L26,64.59Z"></path><path class="cls-1" d="M28.44,62.82h.39v2.43h1.5v.35H28.44Z"></path><path class="cls-1" d="M32.06,65.53a1.12,1.12,0,0,1-.46-.25l.15-.31a1,1,0,0,0,.41.23,1.44,1.44,0,0,0,.51.09,1,1,0,0,0,.51-.11.36.36,0,0,0,.17-.31.32.32,0,0,0-.09-.24A.58.58,0,0,0,33,64.5l-.39-.11a3.91,3.91,0,0,1-.5-.15.86.86,0,0,1-.33-.23.65.65,0,0,1-.14-.43.72.72,0,0,1,.12-.4.84.84,0,0,1,.35-.28,1.48,1.48,0,0,1,.59-.11,1.61,1.61,0,0,1,.49.07,1.28,1.28,0,0,1,.41.18l-.13.32a1.17,1.17,0,0,0-.38-.17,1.32,1.32,0,0,0-.39-.06.86.86,0,0,0-.5.12.39.39,0,0,0-.17.32.29.29,0,0,0,.1.23.59.59,0,0,0,.23.14,3.33,3.33,0,0,0,.38.1l.51.16a.79.79,0,0,1,.32.23.55.55,0,0,1,.14.41.7.7,0,0,1-.12.4.81.81,0,0,1-.36.29,1.49,1.49,0,0,1-.59.1A1.81,1.81,0,0,1,32.06,65.53Z"></path><path class="cls-1" d="M36.33,65.25v.35h-2V62.82h2v.35H34.72V64h1.39v.34H34.72v.89Z"></path><path class="cls-1" d="M37,62.82h.39v2.43h1.51v.35H37Z"></path><path class="cls-1" d="M41.12,64.91H39.64l-.3.69h-.41l1.26-2.78h.39l1.26,2.78h-.42ZM41,64.59l-.6-1.36-.6,1.36Z"></path><path class="cls-1" d="M44.64,62.82V65.6h-.33l-1.66-2.07V65.6h-.4V62.82h.33l1.66,2.07V62.82Z"></path><path class="cls-1" d="M47.4,64.2h.38v1.08a1.59,1.59,0,0,1-.48.26,1.88,1.88,0,0,1-.57.09,1.58,1.58,0,0,1-.76-.18,1.37,1.37,0,0,1-.53-.51,1.5,1.5,0,0,1,0-1.46A1.44,1.44,0,0,1,46,63a1.61,1.61,0,0,1,.76-.18,1.66,1.66,0,0,1,.61.11,1.23,1.23,0,0,1,.46.32l-.25.25a1.09,1.09,0,0,0-.8-.33,1.2,1.2,0,0,0-.57.14,1,1,0,0,0-.39.38,1,1,0,0,0-.15.55,1.06,1.06,0,0,0,.15.55,1,1,0,0,0,.39.38,1.25,1.25,0,0,0,1.22,0Z"></path><path class="cls-1" d="M49,65.45a1.44,1.44,0,0,1-.53-.51,1.4,1.4,0,0,1-.19-.73,1.34,1.34,0,0,1,.19-.72A1.3,1.3,0,0,1,49,63a1.6,1.6,0,0,1,1.51,0,1.41,1.41,0,0,1,.53.5,1.5,1.5,0,0,1,0,1.46,1.44,1.44,0,0,1-.53.51,1.67,1.67,0,0,1-1.51,0Zm1.31-.31a1,1,0,0,0,.38-.38,1.15,1.15,0,0,0,.14-.55,1.09,1.09,0,0,0-.14-.54,1,1,0,0,0-.38-.39,1.17,1.17,0,0,0-1.11,0,1.12,1.12,0,0,0-.39.39,1.09,1.09,0,0,0-.14.54,1.15,1.15,0,0,0,.14.55,1.09,1.09,0,0,0,.39.38,1.17,1.17,0,0,0,1.11,0Z"></path><path class="cls-1" d="M53.72,65.6l-.6-.85h-.86v.85h-.4V62.82H53a1.31,1.31,0,0,1,.85.26.89.89,0,0,1,.31.71,1,1,0,0,1-.16.55.93.93,0,0,1-.46.33l.66.93Zm-.21-1.35a.56.56,0,0,0,.2-.46.57.57,0,0,0-.2-.46.86.86,0,0,0-.57-.16h-.68v1.25h.68A.86.86,0,0,0,53.51,64.25Z"></path><path class="cls-1" d="M57.74,64.2h.38v1.08a1.59,1.59,0,0,1-.48.26,1.79,1.79,0,0,1-.57.09,1.58,1.58,0,0,1-.76-.18,1.37,1.37,0,0,1-.53-.51,1.5,1.5,0,0,1,0-1.46,1.52,1.52,0,0,1,.53-.51,1.62,1.62,0,0,1,.77-.18,1.64,1.64,0,0,1,.6.11,1.23,1.23,0,0,1,.46.32l-.24.25a1.12,1.12,0,0,0-.81-.33,1.2,1.2,0,0,0-.57.14,1,1,0,0,0-.39.38,1,1,0,0,0-.15.55,1.06,1.06,0,0,0,.15.55,1,1,0,0,0,.39.38,1.25,1.25,0,0,0,1.22,0Z"></path><path class="cls-1" d="M59.37,65.45a1.52,1.52,0,0,1-.53-.51,1.4,1.4,0,0,1-.19-.73,1.34,1.34,0,0,1,.19-.72,1.37,1.37,0,0,1,.53-.51,1.51,1.51,0,0,1,.76-.19,1.44,1.44,0,0,1,.75.19,1.34,1.34,0,0,1,.53.5,1.5,1.5,0,0,1,0,1.46,1.37,1.37,0,0,1-.53.51,1.54,1.54,0,0,1-.75.18A1.61,1.61,0,0,1,59.37,65.45Zm1.31-.31a1,1,0,0,0,.38-.38,1,1,0,0,0,.14-.55,1,1,0,0,0-.14-.54,1,1,0,0,0-.38-.39,1.12,1.12,0,0,0-.55-.14,1.1,1.1,0,0,0-.55.14,1,1,0,0,0-.39.39,1,1,0,0,0-.14.54,1,1,0,0,0,.14.55,1,1,0,0,0,.39.38,1.1,1.1,0,0,0,.55.14A1.12,1.12,0,0,0,60.68,65.14Z"></path><path class="cls-1" d="M62.21,62.82h.39v2.43h1.51v.35h-1.9Z"></path><path class="cls-1" d="M65,63.17v1h1.39v.34H65V65.6h-.4V62.82h2v.35Z"></path><path class="cls-1" d="M68.15,62.82h1.17a1.66,1.66,0,0,1,.78.18,1.26,1.26,0,0,1,.53.49,1.43,1.43,0,0,1,.19.72,1.47,1.47,0,0,1-.19.73,1.23,1.23,0,0,1-.53.48,1.66,1.66,0,0,1-.78.18H68.15Zm1.14,2.43a1.29,1.29,0,0,0,.6-.13.91.91,0,0,0,.39-.36,1.1,1.1,0,0,0,.14-.55,1.06,1.06,0,0,0-.14-.54.93.93,0,0,0-.39-.37,1.29,1.29,0,0,0-.6-.13h-.75v2.08Z"></path><path class="cls-1" d="M71.42,62.82h.4V65.6h-.4Z"></path><path class="cls-1" d="M74.51,65.6l-.6-.85h-.86v.85h-.4V62.82h1.08a1.29,1.29,0,0,1,.85.26.86.86,0,0,1,.31.71.9.9,0,0,1-.16.55.86.86,0,0,1-.45.33l.66.93Zm-.21-1.35a.56.56,0,0,0,.2-.46.57.57,0,0,0-.2-.46.89.89,0,0,0-.58-.16h-.67v1.25h.67A.89.89,0,0,0,74.3,64.25Z"></path><path class="cls-1" d="M77.55,65.25v.35h-2V62.82h2v.35H75.93V64h1.39v.34H75.93v.89Z"></path><path class="cls-1" d="M78.68,65.45a1.34,1.34,0,0,1-.52-.51,1.5,1.5,0,0,1,0-1.46,1.32,1.32,0,0,1,.52-.5,1.51,1.51,0,0,1,.76-.19,1.63,1.63,0,0,1,.59.11,1.16,1.16,0,0,1,.46.32l-.26.25a1,1,0,0,0-.78-.33,1.19,1.19,0,0,0-.56.14,1.12,1.12,0,0,0-.39.39,1.09,1.09,0,0,0-.14.54,1.15,1.15,0,0,0,.14.55,1.09,1.09,0,0,0,.39.38,1.19,1.19,0,0,0,.56.14,1,1,0,0,0,.78-.33l.26.25a1.16,1.16,0,0,1-.46.32,1.64,1.64,0,0,1-.6.11A1.6,1.6,0,0,1,78.68,65.45Z"></path><path class="cls-1" d="M81.61,63.17h-1v-.35H83v.35H82V65.6h-.39Z"></path><path class="cls-1" d="M83.39,62.82h.39V65.6h-.39Z"></path><path class="cls-1" d="M85.11,65.45a1.52,1.52,0,0,1-.53-.51,1.4,1.4,0,0,1-.19-.73,1.34,1.34,0,0,1,.19-.72,1.37,1.37,0,0,1,.53-.51,1.51,1.51,0,0,1,.76-.19,1.44,1.44,0,0,1,.75.19,1.34,1.34,0,0,1,.53.5,1.5,1.5,0,0,1,0,1.46,1.37,1.37,0,0,1-.53.51,1.54,1.54,0,0,1-.75.18A1.61,1.61,0,0,1,85.11,65.45Zm1.31-.31a1,1,0,0,0,.38-.38,1,1,0,0,0,.14-.55,1,1,0,0,0-.14-.54,1,1,0,0,0-.38-.39,1.15,1.15,0,0,0-1.1,0,1,1,0,0,0-.39.39,1,1,0,0,0-.14.54,1,1,0,0,0,.14.55,1,1,0,0,0,.39.38,1.15,1.15,0,0,0,1.1,0Z"></path><path class="cls-1" d="M90.33,62.82V65.6H90l-1.67-2.07V65.6H88V62.82h.32l1.67,2.07V62.82Z"></path><path class="cls-1" d="M.3,36.06V45s12.21,4.83,20.44,6.58V42.36h4.5V36.11h-.3v-.65h-2.8v.67Z"></path><path class="cls-1" d="M103.05,36.06V45s-12.2,4.83-20.43,6.58V42.36H78.11V36.11h.3v-.65h2.81v.67Z"></path></g></g></svg>