<?xml version="1.0" encoding="UTF-8"?>
<svg id="Layer_1" data-name="Layer 1" xmlns="http://www.w3.org/2000/svg" viewBox="0 0 12.33 16.44" fill="#f4901d">
  <defs>
    <style>
      .cls-1 {
        stroke-width: 0px;
      }
    </style>
  </defs>
  <path class="cls-1" d="M12.28,15.49l-.86-2.09c.58-.63.91-1.46.9-2.32v-5.2c-1.29,2.56-3.44,5.08-6.16,5.08S1.3,8.44,0,5.88v5.2c0,.86.32,1.69.91,2.32L.05,15.49c-.15.35.01.75.36.9.35.15.75-.01.9-.36,0,0,0-.01,0-.02l.73-1.8c1.29.6,2.69.89,4.11.86,1.42.03,2.82-.26,4.11-.86l.74,1.8c.14.35.54.52.89.37.35-.14.52-.54.38-.89ZM6.16,13.69c-.38,0-.68-.31-.68-.68s.31-.68.68-.68.68.31.68.68-.31.68-.68.68ZM6.16,9.59c2.93,0,5.23-4.31,5.93-6.88-.37-.98-1.16-1.73-2.15-2.05C8.73.24,7.45.02,6.16,0c-1.29.02-2.56.24-3.78.65C1.39.97.6,1.73.23,2.7c.71,2.58,3.01,6.88,5.93,6.88ZM4.8,2.05h2.74c.38,0,.68.31.68.68s-.31.68-.68.68h-2.74c-.38,0-.68-.31-.68-.68s.31-.68.68-.68Z"/>
</svg>