<?xml version="1.0" encoding="UTF-8"?>
<svg id="Layer_1" data-name="Layer 1" xmlns="http://www.w3.org/2000/svg" viewBox="0 0 21.97 15.59">
  <defs>
    <style>
      .cls-1 {
        fill: #2b2b2b;
        stroke-width: 0px;
      }
    </style>
  </defs>
  <path class="cls-1" d="M21.61,11.69h-.35v-2.83c0-.78-.63-1.42-1.42-1.42V1.42c0-.78-.63-1.42-1.42-1.42H3.54c-.78,0-1.42.63-1.42,1.42v6.02c-.78,0-1.42.63-1.42,1.42v2.83h-.35c-.2,0-.35.16-.35.35v1.42c0,.2.16.35.35.35h.35v1.42c0,.2.16.35.35.35h1.06c.17,0,.31-.12.35-.28l.3-1.49h16.43l.3,1.49c.03.17.18.28.35.28h1.06c.2,0,.35-.16.35-.35v-1.42h.35c.2,0,.35-.16.35-.35v-1.42c0-.2-.16-.35-.35-.35ZM2.83,1.42c0-.39.32-.71.71-.71h14.88c.39,0,.71.32.71.71v6.02h-.71v-1.42c0-.78-.63-1.42-1.42-1.42h-4.25c-.78,0-1.42.63-1.42,1.42v1.42h-.71v-1.42c0-.78-.63-1.42-1.42-1.42h-4.25c-.78,0-1.42.63-1.42,1.42v1.42h-.71V1.42ZM17.71,6.02v1.42h-5.67v-1.42c0-.39.32-.71.71-.71h4.25c.39,0,.71.32.71.71ZM9.92,6.02v1.42h-5.67v-1.42c0-.39.32-.71.71-.71h4.25c.39,0,.71.32.71.71ZM1.42,8.86c0-.39.32-.71.71-.71h17.71c.39,0,.71.32.71.71v2.83H1.42v-2.83ZM1.84,14.88h-.42v-1.06h.63l-.21,1.06ZM20.55,14.88h-.42l-.21-1.06h.63v1.06ZM21.26,13.11H.71v-.71h20.55v.71Z"/>
</svg>