<?xml version="1.0" encoding="UTF-8"?><svg id="Layer_2" xmlns="http://www.w3.org/2000/svg" viewBox="0 0 12.27 10.78"><defs><style>.cls-1{fill:#f7fafc;}</style></defs><g id="Layer_1-2"><g><path class="cls-1" d="M12.27,6.06c-.03,.2-.06,.39-.1,.59-.11,.5-.32,.96-.61,1.38-.04,.06-.05,.12-.03,.19,.22,.68,.43,1.36,.65,2.04,.05,.17,.05,.32-.09,.44-.14,.12-.3,.11-.46,.02-.65-.33-1.3-.66-1.95-.99-.09-.04-.16-.05-.24-.01-1.59,.59-3.12,.46-4.56-.45-.26-.17-.49-.4-.74-.59-.05-.04-.12-.08-.19-.09-.39-.06-.77-.15-1.14-.31-.09-.04-.17-.03-.26,.01-.65,.33-1.3,.67-1.95,.99-.08,.04-.19,.07-.28,.06-.23-.03-.33-.25-.26-.5,.22-.68,.44-1.37,.65-2.05,.02-.07,.02-.12-.02-.19C-.41,4.93-.19,2.77,1.25,1.37,2.09,.55,3.1,.1,4.26,.02c1.49-.11,2.79,.34,3.87,1.39,.04,.04,.1,.06,.16,.07,1.55,.25,2.75,1.01,3.51,2.4,.25,.46,.39,.96,.44,1.48,0,.03,.01,.05,.02,.08v.62Zm-1.02,3.64s-.02-.08-.03-.11c-.14-.45-.28-.9-.43-1.34-.06-.19-.03-.34,.09-.5,.99-1.32,.88-3.11-.25-4.31-.73-.77-1.63-1.19-2.68-1.27-1.25-.09-2.36,.27-3.25,1.16-.9,.89-1.24,1.98-.93,3.22,.25,1.04,.91,1.79,1.84,2.29,1.22,.64,2.48,.67,3.75,.13,.17-.07,.32-.08,.49,.01,.4,.21,.8,.41,1.2,.61,.07,.03,.13,.07,.22,.11ZM7.05,1.44s-.02-.02-.03-.02c-.04-.03-.08-.05-.12-.08-.57-.35-1.19-.55-1.86-.61-1.13-.09-2.14,.2-3.02,.92C.55,2.85,.3,4.83,1.42,6.35c.1,.13,.12,.27,.07,.43-.15,.46-.29,.92-.44,1.38-.01,.03-.02,.06-.03,.12,.47-.24,.93-.46,1.37-.7,.2-.11,.38-.12,.59-.01,.14,.07,.29,.11,.46,.18-.04-.07-.06-.11-.08-.15-.53-1.08-.6-2.19-.16-3.3,.54-1.35,1.56-2.19,2.93-2.62,.29-.09,.6-.14,.92-.21Z"/><path class="cls-1" d="M6.49,5.75c0,.19-.16,.36-.36,.36-.2,0-.36-.17-.36-.37,0-.19,.17-.35,.36-.35,.19,0,.36,.17,.35,.36Z"/><path class="cls-1" d="M9.37,5.74c0,.19-.16,.36-.36,.36-.2,0-.37-.17-.36-.36,0-.19,.17-.35,.36-.35,.19,0,.36,.16,.36,.36Z"/><path class="cls-1" d="M7.57,5.39c.19,0,.36,.16,.36,.36,0,.2-.17,.36-.37,.36-.19,0-.35-.17-.35-.36,0-.19,.17-.35,.36-.35Z"/></g></g></svg>