<?xml version="1.0" encoding="UTF-8"?><svg id="Layer_2" xmlns="http://www.w3.org/2000/svg" viewBox="0 0 12.9 12.9"><defs><style>.cls-1{fill:#f7fafc;}</style></defs><g id="Layer_1-2"><g><path class="cls-1" d="M6.45,0C2.89,0,0,2.89,0,6.45s2.89,6.45,6.45,6.45,6.45-2.89,6.45-6.45C12.9,2.89,10.01,0,6.45,0Zm0,11.29c-2.67,0-4.84-2.17-4.84-4.84S3.78,1.61,6.45,1.61s4.84,2.17,4.84,4.84c0,2.67-2.17,4.84-4.84,4.84Z"/><path class="cls-1" d="M6.21,5.13h-.16c-.44-.01-.81,.31-.86,.75-.03,.44,.3,.82,.73,.86v2.5c0,.45,.36,.81,.81,.81s.81-.36,.81-.81v-2.79c0-.73-.59-1.32-1.32-1.32Z"/><path class="cls-1" d="M6.36,4.55c.51,0,.92-.41,.92-.92s-.41-.92-.92-.92c-.51,0-.92,.41-.92,.92h0c0,.51,.41,.92,.92,.92h0Z"/></g></g></svg>