<?xml version="1.0" encoding="UTF-8"?><svg id="Layer_2" xmlns="http://www.w3.org/2000/svg" viewBox="0 0 11.11 13.25"><defs><style>.cls-1{opacity:.9;}.cls-2{fill:#f7fafc;}</style></defs><g id="Layer_1-2"><g class="cls-1"><path class="cls-2" d="M5.55,0C2.49,0,0,2.49,0,5.56c0,2.91,4.51,6.8,5.02,7.24l.53,.45,.53-.45c.51-.43,5.02-4.33,5.02-7.24C11.11,2.49,8.62,0,5.55,0Zm0,11.06c-1.69-1.54-3.9-4.04-3.9-5.51,0-2.15,1.74-3.9,3.9-3.9,2.15,0,3.9,1.74,3.9,3.9h0c0,1.46-2.21,3.97-3.9,5.51Z"/><circle class="cls-2" cx="5.55" cy="5.51" r="1.65"/></g></g></svg>