<?xml version="1.0" encoding="UTF-8"?><svg id="Layer_2" xmlns="http://www.w3.org/2000/svg" viewBox="0 0 43.65 13.63"><defs><style>.cls-1{font-family:MuseoSans-500, 'Museo Sans';font-size:10.34px;}.cls-1,.cls-2{fill:#9b9b9b;}</style></defs><g id="Layer_1-2"><g><path class="cls-2" d="M41.66,0c.1,.02,.2,.04,.3,.07,1.02,.26,1.74,1.22,1.69,2.24-.06,1.1-.84,1.98-1.91,2.13-.7,.1-1.32-.1-1.85-.59-.04-.04-.08-.07-.12-.12-1.22,.76-2.44,1.51-3.67,2.27,.2,.54,.2,1.08,0,1.62,1.22,.76,2.44,1.51,3.66,2.27,.07-.07,.15-.14,.22-.2,.72-.61,1.73-.69,2.55-.22,.8,.46,1.25,1.4,1.09,2.28-.17,.96-.88,1.68-1.82,1.85-1.64,.29-3.01-1.27-2.51-2.86,.04-.12,.02-.17-.09-.24-1.14-.7-2.29-1.41-3.43-2.12-.09-.05-.13-.04-.2,.02-.67,.66-1.66,.83-2.5,.43-.84-.39-1.36-1.25-1.29-2.17,.08-.92,.56-1.59,1.42-1.92,.86-.34,1.65-.16,2.34,.46,.03,.03,.06,.06,.1,.09,0,0,0,0,.02,0,.02-.01,.05-.02,.08-.04,1.16-.72,2.33-1.44,3.49-2.16,.07-.05,.09-.08,.06-.17-.43-1.35,.41-2.69,1.82-2.91,.02,0,.04-.01,.06-.02,.16,0,.32,0,.48,0Zm-.24,12.81c.79,0,1.42-.64,1.41-1.43,0-.78-.64-1.41-1.42-1.41-.78,0-1.42,.64-1.41,1.43,0,.78,.64,1.41,1.42,1.4Zm-1.42-10.58c0,.78,.63,1.41,1.41,1.42,.78,0,1.42-.63,1.42-1.42,0-.79-.64-1.42-1.42-1.41-.78,0-1.41,.63-1.41,1.42Zm-7.4,4.58c0,.78,.62,1.41,1.4,1.42,.79,0,1.43-.63,1.43-1.41,0-.78-.62-1.41-1.4-1.42-.79,0-1.42,.62-1.43,1.41Z"/><text class="cls-1" transform="translate(0 9.9)"><tspan x="0" y="0">Share</tspan></text></g></g></svg>