<?xml version="1.0" encoding="UTF-8"?>
<svg id="Layer_1" data-name="Layer 1" xmlns="http://www.w3.org/2000/svg" viewBox="0 0 16.24 16.24">
  <defs>
    <style>
      .cls-1 {
        fill: #2b2b2b;
        stroke-width: 0px;
      }
    </style>
  </defs>
  <path class="cls-1" d="M16.24,8.12c0,2.01,0,4.01,0,6.02,0,1.01-.62,1.81-1.58,2.04-.18.04-.37.06-.55.06-4,0-7.99,0-11.99,0C.87,16.24,0,15.36,0,14.1c0-3.99,0-7.98,0-11.96C0,.87.88,0,2.15,0c3.98,0,7.96,0,11.95,0,1.28,0,2.15.87,2.15,2.15,0,1.99,0,3.97,0,5.96ZM.82,8.1c0,2,0,4,0,6,0,.82.49,1.32,1.32,1.32,3.99,0,7.98,0,11.97,0,.83,0,1.32-.49,1.32-1.32,0-3.99,0-7.98,0-11.96,0-.83-.49-1.32-1.32-1.32-3.99,0-7.98,0-11.97,0-.12,0-.25,0-.37.03-.58.13-.94.61-.94,1.25,0,2,0,4,0,6Z"/>
  <path class="cls-1" d="M3.25,12.4c.08-.08.14-.12.18-.17.76-.76,1.51-1.51,2.27-2.27.05-.05.09-.1.14-.14.17-.13.38-.11.52.03.15.14.17.35.05.52-.04.06-.09.11-.15.16-.75.75-1.5,1.5-2.25,2.25-.05.05-.12.09-.17.13,0,.02.02.03.03.05.05,0,.11.01.16.01.64,0,1.28,0,1.92,0,.06,0,.12,0,.18,0,.21.02.36.2.36.4,0,.21-.15.38-.37.39-.24.01-.48,0-.71,0-.83,0-1.65,0-2.48,0-.36,0-.5-.13-.5-.48,0-1.03,0-2.06,0-3.09,0-.3.16-.48.41-.48.25,0,.4.18.4.49,0,.65,0,1.29,0,1.94,0,.06,0,.13,0,.23Z"/>
  <path class="cls-1" d="M12.99,3.83c-.09.08-.14.13-.19.18-.75.75-1.49,1.49-2.24,2.24-.04.04-.08.09-.13.12-.18.16-.41.16-.57,0-.16-.16-.16-.39,0-.57.04-.04.08-.09.12-.13.75-.75,1.49-1.49,2.24-2.24.05-.05.1-.1.17-.18-.08,0-.14-.01-.2-.01-.67,0-1.35,0-2.02,0-.3,0-.5-.25-.42-.51.06-.18.18-.29.38-.29,1.09,0,2.18,0,3.27,0,.23,0,.39.15.39.39,0,1.09,0,2.18,0,3.27,0,.24-.18.4-.41.39-.22,0-.39-.17-.39-.41,0-.73,0-1.46,0-2.25Z"/>
</svg>