<?xml version="1.0" encoding="UTF-8"?>
<svg id="Layer_1" data-name="Layer 1" xmlns="http://www.w3.org/2000/svg" viewBox="0 0 19.11 16.72">
  <defs>
    <style>
      .cls-1 {
        fill: #9ba2e4;
        stroke-width: 0px;
      }
    </style>
  </defs>
  <path class="cls-1" d="M10.94,3.08h0,0s0,0,0,0ZM10.94,3.08L6.68.39c-.58-.43-1.36-.51-2.02-.21l-1.99.91,4.41,3.83,3.87-1.85ZM0,16.72h19.11v-1.59H0v1.59ZM.64,9.62l3.85,2.74,14.62-7-.83-1.8c-.46-1-1.65-1.43-2.64-.97L4.62,7.91l-2.58-.95c-.37-.14-.8-.12-1.16.05-.5.23-.82.69-.87,1.23-.05.54.19,1.06.63,1.38Z"/>
</svg>