<?xml version="1.0" encoding="UTF-8"?>
<svg id="Layer_1" data-name="Layer 1" xmlns="http://www.w3.org/2000/svg" viewBox="0 0 19.37 17.05">
  <defs>
    <style>
      .cls-1 {
        fill: #9ba2e4;
        stroke-width: 0px;
      }
    </style>
  </defs>
  <path class="cls-1" d="M13.51,8.53c0,.18,0,.34,0,.49,0,.62.36,1.09.95,1.26.12.03.15.09.15.2,0,1.54,0,3.08,0,4.62,0,.12-.04.16-.15.19-.58.17-.93.64-.94,1.25,0,.16,0,.31,0,.5-.43,0-.84,0-1.24,0-.03,0-.08-.06-.09-.11-.02-.05,0-.11,0-.16,0-1.47,0-2.93,0-4.4,0-1.17-.75-2.14-1.85-2.41-1.54-.38-3.04.77-3.05,2.36-.01,1.49,0,2.97,0,4.46,0,.08,0,.16,0,.27-.42,0-.82,0-1.22,0-.04,0-.1-.08-.1-.13-.02-.14,0-.29-.01-.43-.04-.6-.38-1.02-.97-1.18-.03,0-.06-.02-.11-.04,0-.06-.01-.12-.01-.18,0-1.52,0-3.04,0-4.56,0-.13.02-.2.17-.24.52-.14.87-.58.91-1.12,0-.06,0-.12,0-.18q0-.44.44-.44c.46,0,.92,0,1.38,0,.33,0,.54-.16.54-.41,0-.26-.21-.42-.55-.42-2.49,0-4.99,0-7.48,0-.08,0-.16,0-.25,0v-1.23h19.37v1.23h-.23c-2.48,0-4.96,0-7.44,0-.06,0-.12,0-.18,0-.26.01-.44.19-.44.42,0,.23.18.4.45.4.58,0,1.15,0,1.73,0,.07,0,.15,0,.26,0ZM9.69,8.53c.22,0,.41-.18.42-.4,0-.22-.19-.42-.41-.43-.22,0-.42.2-.42.42,0,.21.19.4.41.4Z"/>
  <path class="cls-1" d="M12.69,3.9h-5.99c-.25-1.91.6-3.37,2.3-3.81,1.74-.46,3.57.88,3.7,2.68.02.34.01.68.02,1.03,0,.03-.01.07-.02.11Z"/>
  <path class="cls-1" d="M0,8.53c.1,0,.18,0,.26,0,.28,0,.56,0,.87,0,0,.17,0,.33,0,.48,0,.65.33,1.08.95,1.28.06.02.13.1.13.16,0,1.56,0,3.11,0,4.67,0,.11-.04.15-.14.18-.59.17-.93.63-.94,1.24q0,.5-.52.5c-.2,0-.39,0-.6,0v-8.52Z"/>
  <path class="cls-1" d="M18.32,8.54h1.05v8.49h-1.05c0-.18,0-.34,0-.5,0-.59-.36-1.07-.93-1.23-.12-.03-.16-.08-.16-.21,0-1.53,0-3.07,0-4.6,0-.12.02-.18.15-.21.58-.16.93-.64.94-1.25,0-.16,0-.31,0-.49Z"/>
  <path class="cls-1" d="M11.31,13.15c0,.07.01.13.01.19,0,1.16,0,2.31,0,3.47,0,.17-.05.22-.22.22-.92,0-1.85,0-2.77,0-.16,0-.22-.05-.21-.21,0-1.16,0-2.33,0-3.49,0-.11.01-.19.16-.19.97,0,1.94,0,2.92,0,.03,0,.07,0,.11.01Z"/>
  <path class="cls-1" d="M.39,5.59c.29-.44.56-.85.83-1.26.27-.41.53-.81.8-1.21.04-.06.13-.13.2-.13,1.16,0,2.31,0,3.47,0,.03,0,.07,0,.11.02v.9c-.06,0-.12.01-.18.01-.33,0-.49.16-.5.49,0,.35,0,.7,0,1.05,0,.12-.05.17-.17.17-1.48,0-2.96,0-4.44,0-.03,0-.06-.01-.13-.03Z"/>
  <path class="cls-1" d="M13.57,3.9v-.91c.07,0,.13-.01.2-.01,1.11,0,2.22,0,3.33,0,.08,0,.19.04.24.1.54.8,1.07,1.61,1.6,2.41.01.02.02.05.05.1-.09,0-.16.02-.23.02-1.42,0-2.83,0-4.25,0-.18,0-.26-.05-.25-.24.02-.25,0-.51,0-.76,0-.6-.07-.68-.68-.72Z"/>
  <path class="cls-1" d="M5.98,5.62v-.86h7.4v.86h-7.4Z"/>
  <path class="cls-1" d="M3.05,10.34h.94v4.9h-.94v-4.9Z"/>
  <path class="cls-1" d="M16.38,15.25h-.93v-4.9h.93v4.9Z"/>
  <path class="cls-1" d="M11.33,12.27h-3.22c.02-.56.27-.99.73-1.29.58-.37,1.18-.36,1.76,0,.46.29.69.73.73,1.29Z"/>
  <path class="cls-1" d="M17.49,8.54c0,.2.01.39,0,.58-.02.23-.2.38-.44.38-.75,0-1.5,0-2.26,0-.24,0-.41-.15-.44-.38-.02-.19,0-.38,0-.58h3.14Z"/>
  <path class="cls-1" d="M17.49,17.04h-3.14c0-.2-.02-.39,0-.58.02-.22.19-.37.42-.37.76,0,1.52,0,2.28,0,.24,0,.42.17.43.41.01.18,0,.35,0,.55Z"/>
  <path class="cls-1" d="M1.96,17.04c0-.19,0-.37,0-.55.01-.23.18-.4.41-.4.77,0,1.54,0,2.32,0,.21,0,.38.15.39.35.02.2,0,.39,0,.6H1.96Z"/>
  <path class="cls-1" d="M1.96,8.54h3.12c0,.21.02.42,0,.62-.02.19-.2.34-.41.34-.77,0-1.53,0-2.3,0-.24,0-.4-.18-.41-.42,0-.12,0-.25,0-.37,0-.05,0-.1,0-.16Z"/>
</svg>