<?xml version="1.0" encoding="UTF-8"?>
<svg id="Layer_1" data-name="Layer 1" xmlns="http://www.w3.org/2000/svg" viewBox="0 0 17.63 17.63">
  <defs>
    <style>
      .cls-1 {
        fill: #9ba2e4;
        stroke-width: 0px;
      }
    </style>
  </defs>
  <path class="cls-1" d="M8.81,0C3.95,0,0,3.96,0,8.82s3.95,8.82,8.81,8.82,8.81-3.96,8.81-8.82S13.67,0,8.81,0ZM8.81,16.76c-4.38,0-7.94-3.56-7.94-7.94S4.44.88,8.81.88s7.93,3.56,7.93,7.94-3.56,7.94-7.93,7.94ZM13.07,7.11c-.81,0-1.62,0-2.43,0h-.12v-.11c0-.8,0-1.61,0-2.41,0-.17-.05-.28-.2-.35h-3c-.15.07-.2.18-.2.35,0,.8,0,1.61,0,2.41v.12h-.12c-.8,0-1.61,0-2.41,0-.17,0-.28.05-.35.2v3c.07.15.18.2.35.2.8,0,1.6,0,2.41,0h.12v.11c0,.81,0,1.63,0,2.44,0,.23.1.33.33.33.91,0,1.81,0,2.72,0,.25,0,.37-.11.37-.36,0-.8,0-1.6,0-2.4v-.12h.11c.81,0,1.62,0,2.43,0,.24,0,.33-.09.33-.33,0-.92,0-1.84,0-2.75,0-.23-.1-.32-.33-.32Z"/>
</svg>