<?xml version="1.0" encoding="UTF-8"?>
<svg id="Layer_1" data-name="Layer 1" xmlns="http://www.w3.org/2000/svg" viewBox="0 0 16.79 17.21">
  <defs>
    <style>
      .cls-1 {
        fill: #9ba2e4;
        stroke-width: 0px;
      }
    </style>
  </defs>
  <path class="cls-1" d="M5.02,14.34c-.79,0-1.43.64-1.43,1.43s.64,1.43,1.43,1.43,1.43-.64,1.43-1.43-.64-1.43-1.43-1.43ZM16.28,2.92c-.41-.49-1.01-.77-1.65-.77H3.04l-.03-.25C2.88.82,1.97,0,.88,0h-.16c-.4,0-.72.32-.72.72s.32.72.72.72h.16c.36,0,.67.27.71.63l.99,8.39c.21,1.81,1.74,3.17,3.56,3.17h7.49c.4,0,.72-.32.72-.72s-.32-.72-.72-.72h-7.49c-.91,0-1.72-.58-2.02-1.43h8.55c1.73,0,3.22-1.24,3.53-2.95l.56-3.12c.11-.63-.06-1.27-.47-1.76ZM12.19,14.34c-.79,0-1.43.64-1.43,1.43s.64,1.43,1.43,1.43,1.43-.64,1.43-1.43-.64-1.43-1.43-1.43Z"/>
</svg>