<?xml version="1.0" encoding="UTF-8"?>
<svg id="Layer_2" data-name="Layer 2" xmlns="http://www.w3.org/2000/svg" viewBox="0 0 15.62 15.61">
  <defs>
    <style>
      .cls-1 {
        fill: #fff;
      }

      .cls-2 {
        opacity: .8;
      }
    </style>
  </defs>
  <g id="Layer_1-2" data-name="Layer 1">
    <g class="cls-2">
      <path class="cls-1" d="M9.71,7.2c1.55.01,3.1.02,4.64,0,.77,0,1.25-.49,1.26-1.27.01-1.55.02-3.09,0-4.64,0-.78-.48-1.27-1.26-1.27-1.55-.02-3.1-.01-4.64,0-.82,0-1.28.48-1.3,1.31-.01.75,0,1.5,0,2.25s0,1.55,0,2.32c.01.83.48,1.31,1.29,1.31ZM9.66,1.24h4.71v4.71h-4.71V1.24ZM5.95,8.41c-1.55-.02-3.1-.01-4.64,0-.82,0-1.29.48-1.3,1.31-.01,1.52-.01,3.04,0,4.57,0,.83.48,1.31,1.29,1.31,1.55.01,3.1.02,4.64,0,.77,0,1.24-.49,1.26-1.27.02-.77,0-1.55,0-2.32s.01-1.55,0-2.32c-.02-.78-.48-1.27-1.26-1.27ZM5.97,14.34H1.23v-4.69h4.74v4.69ZM1.4,7.2c.72,0,1.45,0,2.17,0,.77,0,1.55.01,2.32,0,.82-.01,1.3-.48,1.31-1.3.01-1.52.01-3.04,0-4.57,0-.86-.48-1.32-1.36-1.33C4.35,0,2.85,0,1.36,0,.48.02.02.48,0,1.35c-.01,1.5,0,2.99,0,4.49,0,.91.47,1.36,1.39,1.37ZM1.24,1.26h4.74v4.7H1.24V1.26ZM14.28,8.41c-1.52-.01-3.05-.01-4.57,0-.82,0-1.29.48-1.3,1.31-.01.75,0,1.5,0,2.25s0,1.55,0,2.32c.01.83.47,1.31,1.29,1.32,1.55.01,3.1.02,4.64,0,.78,0,1.25-.49,1.26-1.27.02-1.55.02-3.09,0-4.64,0-.81-.49-1.27-1.33-1.28ZM14.38,14.36h-4.71v-4.7h4.71v4.7Z"/>
    </g>
  </g>
</svg>