<?xml version="1.0" encoding="UTF-8"?>
<svg id="Layer_2" data-name="Layer 2" xmlns="http://www.w3.org/2000/svg" viewBox="0 0 15.12 15.58">
  <defs>
    <style>
      .cls-1 {
        fill: #fff;
      }

      .cls-2 {
        opacity: .8;
      }
    </style>
  </defs>
  <g id="Layer_1-2" data-name="Layer 1">
    <g class="cls-2">
      <path class="cls-1" d="M4.92,6.81c-1.6-2.33-1.57-4.38.07-5.83,1.47-1.31,3.69-1.31,5.13,0,1.67,1.52,1.72,3.48.1,5.81.23.09.45.18.67.26,2.51.92,4.18,3.23,4.24,5.89.01.63-.29,1.09-.89,1.33-4.45,1.76-8.9,1.76-13.35,0-.66-.26-.93-.77-.86-1.48.28-3,1.8-5,4.72-5.88.06-.02.12-.05.18-.08ZM7.53,14.38c1.99,0,3.91-.4,5.78-1.06.47-.17.62-.42.55-.89-.3-1.98-1.31-3.46-3.2-4.17-2.11-.79-4.27-.75-6.37.07-1.84.72-2.77,2.2-3.04,4.12-.06.42.04.69.5.85,1.87.67,3.79,1.08,5.78,1.08ZM7.55,6.47c1.44.15,2.66-1.19,2.68-2.61.01-1.44-1.22-2.66-2.67-2.66-1.46,0-2.66,1.19-2.67,2.66,0,1.48,1.15,2.61,2.66,2.61Z"/>
    </g>
  </g>
</svg>