<?xml version="1.0" encoding="UTF-8"?>
<svg id="Layer_2" data-name="Layer 2" xmlns="http://www.w3.org/2000/svg" viewBox="0 0 15.62 15.63">
  <defs>
    <style>
      .cls-1 {
        fill: #fff;
      }

      .cls-2 {
        opacity: .8;
      }
    </style>
  </defs>
  <g id="Layer_1-2" data-name="Layer 1">
    <g class="cls-2">
      <path class="cls-1" d="M2.24,9.59c-.48-.23-.92-.45-1.37-.68-.09-.05-.19-.09-.28-.14C.2,8.57,0,8.24,0,7.8c0-.43.21-.76.61-.96.49-.24.97-.48,1.46-.72.05-.02.1-.05.17-.09-.47-.23-.92-.46-1.37-.68-.08-.04-.17-.08-.25-.12C.21,5.03,0,4.7,0,4.26c0-.44.21-.77.61-.97.85-.42,1.71-.84,2.56-1.26,1.19-.58,2.38-1.17,3.56-1.76.7-.35,1.4-.36,2.11-.01,2.04,1,4.08,2.01,6.11,3.01.42.2.66.53.66,1,0,.46-.23.8-.65,1-.52.25-1.03.51-1.58.78.06.03.11.06.15.08.48.24.95.47,1.43.7.41.2.64.53.64.99,0,.46-.23.8-.65,1-.47.23-.94.46-1.42.7-.05.02-.1.05-.16.09.55.27,1.08.53,1.61.79.47.24.69.67.6,1.18-.07.39-.31.64-.65.8-.81.39-1.61.79-2.42,1.19-1.23.61-2.47,1.21-3.7,1.82-.69.34-1.38.33-2.06,0-2.04-1-4.07-2.01-6.11-3.01C.24,12.16,0,11.83,0,11.36c0-.46.23-.79.65-1,.52-.25,1.03-.51,1.58-.78ZM1.86,4.26c.05.03.07.04.1.05,1.8.89,3.61,1.77,5.41,2.67.31.15.6.15.9,0,1.69-.84,3.38-1.67,5.07-2.5.14-.07.27-.14.43-.21-.04-.02-.06-.04-.09-.05-1.82-.9-3.65-1.8-5.47-2.69-.27-.14-.54-.12-.81.01-1.31.65-2.61,1.29-3.92,1.93-.53.26-1.06.52-1.62.8ZM13.77,7.81c-.65-.32-1.25-.61-1.86-.92-.1-.05-.18-.05-.28,0-.91.45-1.83.9-2.74,1.35-.72.36-1.43.37-2.16,0-.91-.45-1.83-.9-2.74-1.35-.1-.05-.19-.06-.29,0-.56.28-1.13.56-1.7.84-.04.02-.08.05-.14.08.05.03.08.05.12.06,1.8.89,3.61,1.78,5.41,2.67.29.14.56.13.84,0,1.55-.77,3.11-1.53,4.67-2.3.28-.14.55-.27.86-.43ZM13.77,11.37c-.67-.33-1.3-.64-1.94-.95-.05-.02-.13,0-.18.03-.92.45-1.83.89-2.74,1.35-.74.37-1.47.37-2.22,0-.9-.46-1.82-.9-2.73-1.35-.09-.04-.16-.04-.25,0-.57.29-1.14.56-1.71.85-.05.02-.09.05-.14.08.05.03.08.05.12.07,1.78.88,3.56,1.75,5.34,2.63.34.17.64.17.98,0,1.26-.63,2.52-1.25,3.79-1.87.55-.27,1.1-.54,1.69-.83Z"/>
    </g>
  </g>
</svg>