<?xml version="1.0" encoding="UTF-8"?>
<svg id="Layer_2" data-name="Layer 2" xmlns="http://www.w3.org/2000/svg" viewBox="0 0 15.33 15.4">
  <defs>
    <style>
      .cls-1 {
        fill: #fff;
      }

      .cls-2 {
        opacity: .8;
      }
    </style>
  </defs>
  <g id="Layer_1-2" data-name="Layer 1">
    <g class="cls-2">
      <path class="cls-1" d="M7.71,4.14c-1.99-.02-3.65,1.61-3.64,3.58,0,1.97,1.59,3.59,3.54,3.6,2,.02,3.63-1.58,3.65-3.57.01-1.94-1.61-3.59-3.54-3.61ZM7.7,10.11c-1.34.02-2.44-1.06-2.43-2.4,0-1.3,1.08-2.37,2.39-2.38,1.29,0,2.38,1.07,2.4,2.37.02,1.3-1.05,2.39-2.35,2.41ZM15.31,6.31c0-.51-.3-.7-.78-.68-.42.02-.84,0-1.26,0-.06-.07-.12-.14-.17-.21.27-.33.52-.68.83-.97.44-.4.5-.8.09-1.22-.56-.6-1.15-1.17-1.72-1.75-.51-.51-.97-.5-1.44.08-.24.29-.59.48-.89.72-.07-.05-.13-.1-.2-.15,0-.42-.01-.84,0-1.25.02-.52-.2-.8-.73-.81-.79-.02-1.6-.12-2.38-.04-1.09.1-1.07.16-1.09,1.24,0,.3-.11.6-.16.9-.28-.17-.56-.34-.84-.51-.06-.04-.11-.1-.16-.16-.39-.49-.81-.55-1.27-.1-.62.61-1.24,1.22-1.84,1.85-.38.39-.34.77.06,1.17.3.3.51.68.76,1.03-.42.06-.84.18-1.26.18C.29,5.62,0,5.83,0,6.4c0,.92,0,1.83.01,2.75,0,.51.3.7.78.68.42-.01.84,0,1.26,0,.06.07.12.14.18.21-.28.33-.52.68-.83.97-.44.4-.5.79-.09,1.22.56.59,1.14,1.17,1.72,1.76.51.51.97.49,1.45-.08.24-.29.59-.48.89-.72.07.05.13.1.2.15,0,.42.02.84,0,1.25-.02.53.2.8.73.81.87,0,1.73,0,2.6.02.68,0,.91-.34.88-.99-.02-.37.1-.75.16-1.12.33.22.71.4.98.68.43.45.82.54,1.28.09.6-.59,1.2-1.19,1.79-1.79.44-.44.4-.85-.06-1.28-.29-.27-.47-.65-.71-.98.4-.06.79-.19,1.19-.17.63.02.94-.22.93-.86,0-.89,0-1.78-.02-2.68ZM14.21,8.52c-.73.33-1.7-.3-2.2,1-.48,1.24.41,1.51.94,2.3-.4.36-.82.74-1.25,1.13-.71-.42-.99-1.41-2.25-.88-1.23.52-.72,1.4-.96,2.18h-1.65c-.29-.74.3-1.7-1-2.19-1.25-.48-1.5.45-2.3.95-.36-.4-.74-.82-1.08-1.19.21-.76,1.31-.85.99-1.91-.37-1.21-1.12-1.51-2.31-1.23v-1.89c1.26.33,2.04-.12,2.34-1.39.21-.91-.75-1.02-1.01-1.72.36-.36.76-.77,1.13-1.15.71.21.8,1.3,1.81,1,1.19-.35,1.67-1.05,1.25-2.33h1.94c-.37,1.3.14,2.06,1.4,2.35.9.21,1-.77,1.77-1.05.34.34.75.75,1.09,1.09-.24.78-1.28.86-1.03,1.82.32,1.24,1.06,1.71,2.37,1.34v1.76Z"/>
    </g>
  </g>
</svg>