<?xml version="1.0" encoding="UTF-8"?>
<svg id="Layer_2" data-name="Layer 2" xmlns="http://www.w3.org/2000/svg" viewBox="0 0 15.55 15.61">
  <defs>
    <style>
      .cls-1 {
        fill: #fff;
      }

      .cls-2 {
        opacity: .8;
      }
    </style>
  </defs>
  <g id="Layer_1-2" data-name="Layer 1">
    <g class="cls-2">
      <path class="cls-1" d="M14.21,0c-1.15-.01-2.3-.01-3.45,0-.5,0-1.2-.16-1.18.63.02.72.7.55,1.17.56,1.19.01,2.37,0,3.57,0v13.19c-1.36,0-2.65,0-3.94,0-.45,0-.88.13-.79.63.04.23.5.53.79.55,1.27.06,2.55.03,3.82.02.87,0,1.34-.48,1.34-1.35,0-4.29,0-8.59,0-12.88,0-.88-.47-1.34-1.33-1.35ZM12.28,7.25c-.29-.28-.58-.55-.86-.83-.95-.95-1.91-1.9-2.86-2.86-.3-.3-.63-.59-1.02-.21-.43.41-.12.76.2,1.07.3.3.6.6.9.9.58.59,1.17,1.17,1.88,1.88-3.23,0-6.25,0-9.27,0-.49,0-1.22-.2-1.24.56-.02.84.75.62,1.25.62,3.02.01,6.03,0,9.05,0l.09.17c-.89.87-1.77,1.74-2.66,2.61-.33.32-.62.67-.18,1.07.4.37.72.07,1.02-.23,1.24-1.23,2.48-2.46,3.72-3.69.38-.37.37-.73,0-1.09Z"/>
    </g>
  </g>
</svg>