<?xml version="1.0" encoding="UTF-8"?>
<svg id="Layer_2" data-name="Layer 2" xmlns="http://www.w3.org/2000/svg" viewBox="0 0 18.19 18.24">
  <defs>
    <style>
      .cls-1 {
        fill: #fff;
      }

      .cls-2 {
        opacity: .8;
      }
    </style>
  </defs>
  <g id="Layer_1-2" data-name="Layer 1">
    <g class="cls-2">
      <path class="cls-1" d="M11.71,6.45c-.19.04-.34.3-.5.47-.96,1-1.93,2.01-2.93,3.06-.77-.67-1.33-1.23-1.98-1.67-.23-.15-.66,0-1,0,.03.34-.07.8.11.99.73.74,1.53,1.43,2.37,2.06.2.15.74.13.92-.03,1.36-1.27,2.68-2.59,3.97-3.93.17-.17.05-.61.07-.93-.34-.01-.69-.09-1.01-.02ZM16.43,7.09c.17-.35.37-.71.53-1.08.48-1.11-.1-2.15-1.31-2.13-1.04.01-1.33-.35-1.32-1.35,0-1.21-1.03-1.78-2.15-1.28-.37.16-.72.35-1.08.52-1.75-2.54-2.56-2.19-4.03,0-.3-.15-.61-.31-.91-.45-1.29-.62-2.33-.06-2.32,1.37,0,.94-.36,1.16-1.22,1.17-1.37.02-1.93,1.05-1.34,2.3.16.33.33.65.49.98C1.02,7.75,0,8.01,0,9.14c0,1.16,1.15,1.35,1.75,1.99-.2.4-.4.76-.56,1.13-.46,1.07.11,2.01,1.28,2.12q1.23.12,1.35,1.36c.11,1.16,1.05,1.72,2.13,1.26.39-.17.77-.36,1.14-.54,1.88,2.37,2.15,2.37,4-.02.35.18.65.34.96.49,1.24.59,2.3.02,2.28-1.35-.01-.98.36-1.21,1.27-1.22,1.31,0,1.88-1.05,1.32-2.25-.16-.33-.33-.66-.49-.98q2.35-1.94.01-4.04ZM15.13,10.7c-.18.65.25,1.47.44,2.3-1.91-.24-2.87.67-2.59,2.73q-2.44-.84-3.96,1.1c-.79-1.92-2.05-2.31-3.7-1.03q-.53-2.59-2.92-2.87c1.14-1.62,1.04-2.95-1.23-3.8,2.18-.86,2.5-2.14,1.21-3.78q2.57-.44,2.89-2.82,2.19.85,3.8-.97,1.72,1.84,3.9.93c-.24,2.04.63,3.03,2.7,2.73q-.76,2.51.96,3.83c-.53.54-1.32,1.01-1.5,1.65Z"/>
    </g>
  </g>
</svg>