<?xml version="1.0" encoding="UTF-8"?><svg id="Layer_2" xmlns="http://www.w3.org/2000/svg" viewBox="0 0 19.42 21.43"><defs><style>.cls-1{fill:#2941a3;}</style></defs><g id="Layer_1-2"><path class="cls-1" d="M4.01,21.43c-.36-.12-.58-.38-.73-.72-.71-1.55-1.25-3.15-1.51-4.83-.21-1.35-.11-2.7.2-4.03.32-1.36.81-2.66,1.39-3.93.17-.36.45-.54.84-.55.07,0,.14,0,.2,0,.06-.16.09-.31.16-.45.24-.45.63-.66,1.13-.66,1.19,0,2.39,0,3.58,0,.08,0,.15,0,.26,0,0-.35,0-.69,0-1.03,0-.04-.06-.09-.1-.1-.79-.33-1.12-.98-.89-1.8,0-.02,0-.04,0-.08-.06,0-.11.01-.16.02-2.62.65-5.24,1.31-7.87,1.96-.05.01-.09.03-.14.03-.17.02-.31,0-.36-.2-.04-.17.04-.3.23-.36.42-.11.85-.22,1.28-.33C7.3,2.94,13.09,1.49,18.87.04c.05-.01.1-.02.14-.03.2-.04.34.03.39.21.04.16-.04.3-.24.35-.84.21-1.68.42-2.51.63-1.93.48-3.87.96-5.8,1.43-.05.01-.11.03-.19.05.44.38.62.85.5,1.41-.12.55-.5.89-1.02,1.04v1.1h.23c1.01,0,2.02,0,3.04,0,.73,0,1.12.3,1.33.99.01.05.1.1.15.11.17.02.34,0,.5.04.27.06.46.23.58.48.96,2.01,1.66,4.1,1.73,6.35.04,1.3-.21,2.57-.61,3.8-.32.96-.72,1.9-1.08,2.85-.12.3-.35.48-.64.58H4.01ZM9.68,20.77c1.79,0,3.59,0,5.38,0,.19,0,.33-.05.42-.24.54-1.18.98-2.38,1.29-3.64.28-1.15.42-2.3.28-3.48-.21-1.8-.78-3.49-1.53-5.12-.11-.23-.25-.31-.5-.31-1.34,0-2.68,0-4.02,0-2.23,0-4.45,0-6.68,0-.2,0-.35.04-.44.24-.53,1.14-.95,2.32-1.27,3.53-.43,1.67-.46,3.33-.05,5.01.31,1.27.74,2.5,1.28,3.69.11.24.25.33.51.33,1.78,0,3.56,0,5.34,0ZM5.04,7.36h9.15c-.05-.1-.07-.17-.12-.24-.16-.23-.4-.26-.65-.26-2.55,0-5.09,0-7.64,0-.1,0-.2,0-.29.03-.24.05-.39.2-.45.46ZM10.6,3.8c0-.43-.33-.77-.76-.78-.42,0-.79.36-.79.78,0,.43.35.76.78.76.43,0,.77-.33.77-.76Z"/><path class="cls-1" d="M9.69,14.65c-2.09,0-4.17,0-6.26,0-.41,0-.47-.07-.46-.48.05-1.32.38-2.59.85-3.82.16-.43.37-.84.54-1.27.17-.41.47-.59.91-.58,2.26,0,4.52,0,6.78,0,.68,0,1.37,0,2.05,0,.45,0,.73.2.92.59.55,1.16.99,2.36,1.22,3.63.09.49.12,1,.16,1.49.03.35-.06.43-.42.43-2.1,0-4.2,0-6.3,0ZM9.52,9.12c-.06,0-.09-.01-.12-.01-1.4,0-2.79,0-4.19,0-.16,0-.23.08-.3.21-.45.92-.82,1.88-1.06,2.88-.14.61-.23,1.22-.34,1.85h6v-4.92ZM15.81,14.05s.01-.05.01-.07c-.02-.21-.03-.42-.06-.62-.21-1.42-.67-2.76-1.29-4.04-.07-.15-.18-.21-.35-.2-1.27,0-2.54,0-3.81,0-.05,0-.11,0-.17,0v4.93h5.66Z"/></g></svg>