<?xml version="1.0" encoding="UTF-8"?><svg id="Layer_2" xmlns="http://www.w3.org/2000/svg" viewBox="0 0 19.42 21.43"><defs><style>.cls-1{fill:#2941a3;}</style></defs><g id="Layer_1-2"><path class="cls-1" d="M4.92,9.32c-.45.92-.82,1.88-1.06,2.88-.14.61-.23,1.22-.34,1.85h6v-4.92c-.06,0-.09-.01-.12-.01-1.4,0-2.79,0-4.19,0-.16,0-.23.08-.3.21Z"/><path class="cls-1" d="M15.82,13.98c-.02-.21-.03-.42-.06-.62-.21-1.42-.67-2.76-1.29-4.04-.07-.15-.18-.21-.35-.2-1.27,0-2.54,0-3.81,0-.05,0-.11,0-.17,0v4.93h5.66s.01-.05.01-.07Z"/><path class="cls-1" d="M19.02.01s-.1.02-.14.03C13.09,1.49,7.3,2.94,1.52,4.39c-.43.11-.85.21-1.28.33-.2.05-.27.19-.23.36.05.2.19.22.36.2.05,0,.1-.02.14-.03,2.62-.66,5.24-1.31,7.87-1.96.05-.01.1-.01.16-.02,0,.04,0,.06,0,.08-.22.82.1,1.48.89,1.8.04.02.1.07.1.1,0,.34,0,.68,0,1.03h-.26c-1.19,0-2.39,0-3.58,0-.5,0-.89.21-1.13.66-.07.13-.1.29-.16.45-.06,0-.13,0-.2,0-.39.01-.67.19-.84.55-.58,1.27-1.07,2.57-1.39,3.93-.31,1.33-.42,2.67-.2,4.03.26,1.68.8,3.28,1.51,4.83.16.34.37.6.73.72h11.35c.3-.1.53-.28.64-.58.37-.95.77-1.88,1.08-2.85.4-1.23.65-2.5.61-3.8-.07-2.25-.77-4.34-1.73-6.35-.12-.24-.31-.42-.58-.48-.16-.04-.33-.01-.5-.04-.06,0-.14-.06-.15-.11-.21-.69-.6-.99-1.33-.99-1.01,0-2.02,0-3.04,0h-.23v-1.1c.53-.16.91-.49,1.02-1.04.12-.55-.07-1.02-.5-1.41.08-.02.13-.04.19-.05,1.93-.48,3.87-.96,5.8-1.43.84-.21,1.68-.41,2.51-.63.2-.05.28-.19.24-.35-.05-.18-.19-.25-.39-.21ZM12.06,8.51c.68,0,1.37,0,2.05,0,.45,0,.73.2.92.59.55,1.16.99,2.36,1.22,3.63.09.49.12,1,.16,1.49.03.35-.06.43-.42.43-2.1,0-4.2,0-6.3,0s-4.17,0-6.26,0c-.41,0-.47-.07-.46-.48.05-1.32.38-2.59.85-3.82.16-.43.37-.84.54-1.27.17-.41.47-.59.91-.58,2.26,0,4.52,0,6.78,0ZM9.83,4.56c-.43,0-.77-.34-.78-.76,0-.42.37-.79.79-.78.43,0,.76.35.76.78,0,.43-.34.76-.77.76Z"/></g></svg>