<?xml version="1.0" encoding="UTF-8"?><svg id="Layer_2" xmlns="http://www.w3.org/2000/svg" viewBox="0 0 20.94 16.9"><defs><style>.cls-1{fill:#2941a3;}</style></defs><g id="Layer_1-2"><path class="cls-1" d="M10.45,6.29c-1.37,0-2.49-1.12-2.49-2.49,0-.7.3-1.37.81-1.84.07-.07.19-.07.27,0,.08.06.1.17.05.26-.12.23-.19.48-.19.74,0,.85.7,1.55,1.55,1.55s1.55-.7,1.55-1.55c0-.26-.07-.52-.19-.74-.05-.09-.03-.2.05-.26.08-.06.19-.06.27,0,.52.47.81,1.14.81,1.84,0,1.37-1.12,2.49-2.49,2.49ZM8.49,3.11c-.08.22-.12.46-.12.7,0,1.14.93,2.08,2.08,2.08s2.08-.93,2.08-2.08c0-.24-.04-.47-.12-.7-.07,1.01-.92,1.82-1.96,1.82-1.03,0-1.88-.8-1.96-1.82Z"/><path class="cls-1" d="M18.1,16.9H2.85l.02-2h15.23v2ZM3.27,16.49h14.42v-1.18H3.28v1.18Z"/><path class="cls-1" d="M3.91,15.31c-.07,0-.14-.04-.18-.11l-1.26-2.3c-.04-.07-.83-1.69-.24-2.92.29-.61.87-1.01,1.71-1.18,2.94-.62,4.36-.89,6.52-.98h0s0,0,0,0c0,0,0,0,0,0h0s0,0,0,0h0c2.16.09,3.58.35,6.52.98.84.18,1.42.58,1.71,1.18.59,1.23-.2,2.84-.24,2.91l-1.26,2.31c-.05.1-.18.14-.28.08s-.14-.18-.08-.28l1.26-2.3s.73-1.5.23-2.54c-.24-.49-.71-.81-1.42-.96-2.92-.62-4.32-.88-6.44-.97-2.12.09-3.53.35-6.44.97-.71.15-1.19.47-1.42.96-.5,1.05.23,2.53.23,2.55l1.25,2.29c.05.1.02.22-.08.28-.03.02-.07.03-.1.03Z"/><path class="cls-1" d="M3.07,15.31c-.08,0-.15-.04-.19-.12,0-.02-.88-1.92-2.06-3.03-.75-.7-1.03-1.99-.66-3,.23-.63.92-1.7,2.94-1.79.95-.04,1.88-.04,2.7-.03,2.02.02,3.62.03,3.69-.74.01-.11.11-.2.22-.19.11.01.2.11.19.22-.1,1.15-1.78,1.14-4.1,1.11-.81,0-1.74-.02-2.67.03-1.32.06-2.24.6-2.58,1.53-.32.86-.08,1.96.55,2.56,1.24,1.16,2.12,3.08,2.16,3.16.05.1,0,.23-.1.27-.03.01-.06.02-.09.02Z"/><path class="cls-1" d="M17.87,15.31s-.06,0-.09-.02c-.1-.05-.15-.17-.1-.27.04-.08.92-2,2.16-3.16.63-.59.87-1.69.55-2.56-.34-.92-1.26-1.46-2.58-1.53-.94-.04-1.86-.04-2.67-.03-2.32.02-4,.04-4.1-1.11-.01-.11.07-.21.19-.22.11-.01.21.07.22.19.07.77,1.67.76,3.69.74.82,0,1.75-.02,2.7.03,2.02.09,2.71,1.16,2.95,1.79.37,1.01.09,2.3-.66,3-1.18,1.11-2.06,3.01-2.06,3.03-.03.08-.11.12-.19.12Z"/><path class="cls-1" d="M9.02,7.5c-.49,0-.88-.4-.88-.88s.4-.88.88-.88.88.4.88.88c0,.49-.4.88-.88.88ZM9.02,6.15c-.26,0-.47.21-.47.47s.21.47.47.47.47-.21.47-.47c0-.26-.21-.47-.47-.47Z"/><path class="cls-1" d="M11.89,7.41c-.49,0-.88-.4-.88-.88s.4-.88.88-.88.88.4.88.88-.4.88-.88.88ZM11.89,6.06c-.26,0-.47.21-.47.47s.21.47.47.47.47-.21.47-.47-.21-.47-.47-.47Z"/><path class="cls-1" d="M11.37,3.88s-.07,0-.1-.02l-.8-.42-.8.42c-.07.04-.15.03-.22-.02-.06-.05-.1-.12-.08-.2l.15-.89-.65-.63c-.06-.05-.08-.14-.05-.21s.09-.13.17-.14l.9-.13.4-.81c.07-.14.3-.14.37,0l.4.81.9.13c.08.01.14.07.17.14.02.07,0,.16-.05.21l-.65.63.15.89c.01.08-.02.16-.08.2-.04.03-.08.04-.12.04ZM9.46,2.11l.43.42s.07.12.06.18l-.1.59.53-.28c.06-.03.13-.03.19,0l.53.28-.1-.59c-.01-.07.01-.13.06-.18l.43-.42-.59-.09c-.07,0-.13-.05-.16-.11l-.26-.54-.26.54c-.03.06-.09.1-.16.11l-.59.09Z"/><path class="cls-1" d="M8.89,15.31c-.11,0-.2-.09-.21-.2,0-.03-.09-2.67-.07-4.25.02-1.43-1.96-2.23-1.98-2.24-.11-.04-.16-.16-.12-.27.04-.11.16-.16.27-.12.09.04,2.27.91,2.24,2.62-.02,1.57.07,4.21.07,4.23,0,.11-.09.21-.2.21h0Z"/><path class="cls-1" d="M12.02,15.31h0c-.11,0-.2-.1-.2-.21,0-.03.09-2.66.07-4.23-.02-1.71,2.15-2.59,2.24-2.62.1-.04.23.01.27.12.04.11,0,.23-.12.27-.02,0-2,.81-1.98,2.24.02,1.58-.07,4.23-.07,4.25,0,.11-.1.2-.21.2Z"/><path class="cls-1" d="M7.3,13.95s-.03,0-.05,0l-1.71-.38-.77.37c-.06.03-.12.03-.18,0-.06-.03-.1-.08-.11-.14l-.28-1.11-1.2-.9c-.07-.05-.1-.14-.08-.22.02-.08.09-.14.18-.15l1.13-.12.24-1.53c.01-.09.08-.15.16-.17.08-.02.17.02.22.09l.9,1.46,1.62-.04c.08,0,.15.04.19.11s.03.16-.02.22l-.96,1.22.84.92c.05.04.08.1.08.17,0,.11-.09.21-.21.21,0,0,0,0,0,0ZM3.67,11.76l.84.63s.07.07.08.12l.23.94.61-.29s.09-.02.13-.02l1.15.26-.54-.59c-.07-.07-.07-.19,0-.27l.8-1.01-1.3.03c-.07,0-.14-.04-.18-.1l-.68-1.09-.18,1.14c-.01.09-.09.16-.18.17l-.76.08Z"/><path class="cls-1" d="M13.51,13.75c-.07,0-.14-.04-.18-.1-.04-.08-.03-.18.03-.24l.86-.95-.96-1.22c-.05-.06-.06-.15-.02-.22.04-.07.11-.11.19-.11l1.62.04.91-1.46c.05-.07.13-.11.22-.09.08.02.15.08.16.17l.24,1.53,1.13.12c.08,0,.15.07.18.15.02.08,0,.17-.07.22l-1.2.9-.28,1.11c-.01.06-.06.11-.11.14-.06.03-.12.03-.18,0l-.77-.37-1.71.38s-.03,0-.05,0ZM15.29,12.94s.06,0,.09.02l.61.29.23-.94s.04-.09.08-.11l.84-.63-.76-.08c-.09,0-.17-.08-.18-.17l-.18-1.14-.68,1.09c-.04.06-.11.1-.18.1l-1.3-.03.8,1.01c.06.08.06.19,0,.27l-.54.59,1.15-.26s.03,0,.04,0Z"/><path class="cls-1" d="M10.48,9.95c-.9,0-1.63-.73-1.63-1.63,0-.11.09-.21.21-.21s.21.09.21.21c0,.67.55,1.22,1.22,1.22s1.22-.55,1.22-1.22c0-.11.09-.21.21-.21s.21.09.21.21c0,.9-.73,1.63-1.63,1.63Z"/><path class="cls-1" d="M11.09,15.19c-.11,0-.21-.09-.21-.21v-3.56c0-.22-.18-.4-.4-.4s-.4.18-.4.4v3.56c0,.11-.09.21-.21.21s-.21-.09-.21-.21v-3.56c0-.45.36-.81.81-.81s.81.36.81.81v3.56c0,.11-.09.21-.21.21Z"/><path class="cls-1" d="M7.26,2.87s-.07,0-.1-.03l-2.18-1.22c-.1-.06-.13-.18-.08-.28.06-.1.18-.13.28-.08l2.18,1.22c.1.06.13.18.08.28-.04.07-.11.11-.18.11Z"/><path class="cls-1" d="M7.86,2.03c-.06,0-.12-.03-.16-.08l-1.24-1.62c-.07-.09-.05-.22.04-.29.09-.07.22-.05.29.04l1.24,1.62c.07.09.05.22-.04.29-.04.03-.08.04-.13.04Z"/><path class="cls-1" d="M6.68,3.83s-.02,0-.04,0l-1.91-.34c-.11-.02-.19-.13-.17-.24s.13-.19.24-.17l1.91.34c.11.02.19.13.17.24-.02.1-.1.17-.2.17Z"/><path class="cls-1" d="M13.62,3.11c-.07,0-.14-.04-.18-.1-.06-.1-.02-.22.08-.28l2.17-1.23c.1-.06.22-.02.28.08.06.1.02.22-.08.28l-2.17,1.23s-.07.03-.1.03Z"/><path class="cls-1" d="M14.03,4.06c-.1,0-.19-.08-.2-.18-.01-.11.07-.21.18-.23l2.03-.22c.11-.01.21.07.23.18s-.07.21-.18.23l-2.03.22s-.01,0-.02,0Z"/><path class="cls-1" d="M13.11,2.12s-.1-.02-.14-.05c-.09-.08-.09-.21-.02-.29l1.28-1.45c.08-.09.21-.09.29-.02.09.08.09.21.02.29l-1.28,1.45s-.1.07-.15.07Z"/></g></svg>