<?xml version="1.0" encoding="UTF-8"?><svg id="Layer_2" xmlns="http://www.w3.org/2000/svg" viewBox="0 0 47.43 47.44"><defs><style>.cls-1{fill:#253fad;stroke:#4654a7;stroke-linecap:round;stroke-linejoin:round;stroke-width:.15px;}</style></defs><g id="Layer_1-2"><path class="cls-1" d="M.08,22.25c.12-.88.21-1.77.37-2.64.99-5.45,3.58-10,7.72-13.66C11.71,2.82,15.85.92,20.53.3c6.01-.79,11.58.49,16.56,3.95,5.5,3.82,8.92,9.06,9.94,15.68,1.24,8.02-1.1,14.97-6.84,20.71-3.68,3.67-8.17,5.79-13.31,6.52-.56.08-1.12.14-1.69.21h-2.96c-.12-.03-.24-.07-.35-.08-3.6-.28-6.95-1.34-10.07-3.13-.17-.1-.44-.11-.63-.05-1.65.53-3.29,1.09-4.93,1.65-1.57.53-3.13,1.08-4.69,1.62h-.65c-.28-.28-.55-.55-.83-.83,0-.22,0-.43,0-.65.04-.08.08-.16.11-.25,1.04-3.08,2.08-6.16,3.13-9.24.11-.33.1-.59-.08-.9-1.4-2.41-2.35-5-2.8-7.75-.14-.85-.24-1.7-.35-2.55,0-.99,0-1.97,0-2.96ZM2.54,44.9c.26-.08.43-.13.6-.18,2.48-.84,4.95-1.66,7.42-2.51.6-.21,1.11-.15,1.66.18,5.85,3.5,12.04,4.23,18.51,2.09,10.57-3.5,16.82-14.62,14.39-25.49C42.05,5.19,26.9-2.17,14.21,3.96,2.49,9.63-1.75,24.08,5.05,35.21c.34.55.39,1.06.18,1.66-.86,2.48-1.69,4.98-2.53,7.47-.05.16-.09.32-.16.56Z"/><path class="cls-1" d="M14.69,30.03c-.95,0-1.47-.63-1.33-1.3.03-.15.1-.3.16-.45,1.93-4.15,3.85-8.31,5.79-12.46.1-.22.25-.45.43-.6.59-.47,1.34-.23,1.71.57.86,1.83,1.71,3.68,2.56,5.52,1.04,2.23,2.07,4.46,3.11,6.69.07.14.15.29.2.43.24.66.03,1.24-.56,1.49-.55.24-1.12.03-1.42-.57-.45-.92-.89-1.85-1.29-2.79-.17-.39-.39-.52-.82-.52-1.92.03-3.83.02-5.75,0-.41,0-.61.14-.77.5-.4.92-.8,1.84-1.27,2.72-.19.36-.59.6-.76.76ZM18.01,23.83h4.77c-.8-1.71-1.57-3.36-2.39-5.13-.83,1.79-1.59,3.43-2.38,5.13Z"/><path class="cls-1" d="M29.54,22.5c0-2.1-.03-4.2.03-6.3.01-.37.33-.85.65-1.07.23-.15.83-.08,1.04.13.27.26.44.74.45,1.14.05,1.34.02,2.69.02,4.04,0,2.62,0,5.25,0,7.87,0,.23,0,.46-.02.68-.08.64-.56,1.07-1.15,1.03-.56-.03-.99-.46-1.01-1.09-.03-.75-.01-1.51-.01-2.26,0-1.39,0-2.78,0-4.18h0Z"/></g></svg>