<?xml version="1.0" encoding="UTF-8"?><svg id="Layer_2" xmlns="http://www.w3.org/2000/svg" viewBox="0 0 45.24 43.86"><defs><style>.cls-1{fill:#253fad;stroke:#4654a7;stroke-linecap:round;stroke-linejoin:round;stroke-width:.23px;}</style></defs><g id="Layer_1-2"><path class="cls-1" d="M22.57,43.74c-4.84,0-9.68,0-14.52,0-4.46,0-7.9-3.41-7.92-7.88-.02-5.86-.01-11.71,0-17.57,0-2.77,1.17-4.96,3.42-6.55,4.81-3.39,9.64-6.76,14.46-10.13,2.86-2,6.31-2.02,9.18-.03,4.85,3.37,9.68,6.75,14.5,10.15,2.27,1.6,3.42,3.81,3.42,6.6,0,5.82.02,11.65,0,17.47-.01,4.53-3.44,7.92-7.97,7.93-4.86,0-9.71,0-14.57,0ZM30.9,42.34c.02-.08.05-.14.05-.19,0-3.81.09-7.63-.05-11.43-.17-4.43-4.57-8.03-8.99-7.54-4.52.5-7.61,3.94-7.63,8.48-.01,3.37,0,6.74,0,10.11,0,.19.02.38.03.58h16.58Z"/></g></svg>