<?xml version="1.0" encoding="UTF-8"?><svg id="Layer_2" xmlns="http://www.w3.org/2000/svg" viewBox="0 0 39.43 39.43"><defs><style>.cls-1{fill:#253fad;}</style></defs><g id="Layer_1-2"><path class="cls-1" d="M6.57,0h4.93c3.63,0,6.57,2.94,6.57,6.57v4.93c0,3.63-2.94,6.57-6.57,6.57h-4.93c-3.63,0-6.57-2.94-6.57-6.57v-4.93C0,2.94,2.94,0,6.57,0Z"/><path class="cls-1" d="M27.93,0h4.93c3.63,0,6.57,2.94,6.57,6.57v4.93c0,3.63-2.94,6.57-6.57,6.57h-4.93c-3.63,0-6.57-2.94-6.57-6.57v-4.93c0-3.63,2.94-6.57,6.57-6.57Z"/><path class="cls-1" d="M6.57,21.36h4.93c3.63,0,6.57,2.94,6.57,6.57v4.93c0,3.63-2.94,6.57-6.57,6.57h-4.93c-3.63,0-6.57-2.94-6.57-6.57v-4.93c0-3.63,2.94-6.57,6.57-6.57Z"/><path class="cls-1" d="M27.93,21.36h4.93c3.63,0,6.57,2.94,6.57,6.57v4.93c0,3.63-2.94,6.57-6.57,6.57h-4.93c-3.63,0-6.57-2.94-6.57-6.57v-4.93c0-3.63,2.94-6.57,6.57-6.57Z"/></g></svg>