<?xml version="1.0" encoding="UTF-8"?><svg id="Layer_2" xmlns="http://www.w3.org/2000/svg" viewBox="0 0 41.43 41.43"><defs><style>.cls-1{fill:#253fad;}</style></defs><g id="Layer_1-2"><path class="cls-1" d="M7.57,20.07c-2.02,0-3.92-.79-5.35-2.22-1.43-1.43-2.22-3.33-2.22-5.35v-4.93C0,3.4,3.4,0,7.57,0h4.93c4.18,0,7.57,3.4,7.57,7.57v4.93c0,4.17-3.4,7.57-7.57,7.57h-4.93ZM7.57,2c-3.07,0-5.57,2.5-5.57,5.57v4.93c0,1.49.58,2.89,1.63,3.94,1.05,1.05,2.45,1.63,3.94,1.63h4.93c3.07,0,5.57-2.5,5.57-5.57v-4.93c0-3.07-2.5-5.57-5.57-5.57h-4.93Z"/><path class="cls-1" d="M33.86,20.07h-4.93c-4.18,0-7.57-3.4-7.57-7.57v-4.93c0-4.18,3.4-7.57,7.57-7.57h4.93c4.18,0,7.57,3.4,7.57,7.57v4.93c0,4.17-3.4,7.57-7.57,7.57ZM28.93,2c-3.07,0-5.57,2.5-5.57,5.57v4.93c0,3.07,2.5,5.57,5.57,5.57h4.93c3.07,0,5.57-2.5,5.57-5.57v-4.93c0-3.07-2.5-5.57-5.57-5.57h-4.93Z"/><path class="cls-1" d="M12.5,41.43h-4.93c-4.18,0-7.57-3.4-7.57-7.57v-4.93c0-4.18,3.4-7.57,7.57-7.57h4.93c4.18,0,7.57,3.4,7.57,7.57v4.93c0,4.18-3.4,7.57-7.57,7.57ZM7.57,23.36c-3.07,0-5.57,2.5-5.57,5.57v4.93c0,3.07,2.5,5.57,5.57,5.57h4.93c3.07,0,5.57-2.5,5.57-5.57v-4.93c0-3.07-2.5-5.57-5.57-5.57h-4.93Z"/><path class="cls-1" d="M33.86,41.43h-4.93c-4.18,0-7.57-3.4-7.57-7.57v-4.93c0-4.18,3.4-7.57,7.57-7.57h4.93c4.18,0,7.57,3.4,7.57,7.57v4.93c0,4.18-3.4,7.57-7.57,7.57ZM28.93,23.36c-3.07,0-5.57,2.5-5.57,5.57v4.93c0,3.07,2.5,5.57,5.57,5.57h4.93c3.07,0,5.57-2.5,5.57-5.57v-4.93c0-3.07-2.5-5.57-5.57-5.57h-4.93Z"/></g></svg>