<?xml version="1.0" encoding="utf-8"?>
<!-- Generator: Adobe Illustrator 25.2.0, SVG Export Plug-In . SVG Version: 6.00 Build 0)  -->
<svg version="1.1" id="Layer_1" xmlns="http://www.w3.org/2000/svg" xmlns:xlink="http://www.w3.org/1999/xlink" x="0px" y="0px"
	 viewBox="0 0 100 100" style="enable-background:new 0 0 100 100;" xml:space="preserve">
<g>
	<g>
		<path d="M18.7,84h10.9c0.8,0,1.4-0.6,1.4-1.4s-0.6-1.4-1.4-1.4v-9.5c0-0.8-0.6-1.4-1.4-1.4H20c-0.8,0-1.4,0.6-1.4,1.4v9.5
			c-0.8,0-1.4,0.6-1.4,1.4S17.9,84,18.7,84z M21.4,73.1h5.4v8.2h-5.4V73.1z M18.7,67.7h10.9c0.8,0,1.4-0.6,1.4-1.4S30.3,65,29.6,65
			v-9.5c0-0.8-0.6-1.4-1.4-1.4H20c-0.8,0-1.4,0.6-1.4,1.4V65c-0.8,0-1.4,0.6-1.4,1.4C17.3,67.1,17.9,67.7,18.7,67.7z M21.4,56.8h5.4
			V65h-5.4V56.8z M18.7,51.4h10.9c0.8,0,1.4-0.6,1.4-1.4s-0.6-1.4-1.4-1.4v-9.5c0-0.8-0.6-1.4-1.4-1.4H20c-0.8,0-1.4,0.6-1.4,1.4
			v9.5c-0.8,0-1.4,0.6-1.4,1.4S17.9,51.4,18.7,51.4z M21.4,40.5h5.4v8.2h-5.4V40.5z M70.4,84h10.9c0.8,0,1.4-0.6,1.4-1.4
			s-0.6-1.4-1.4-1.4v-9.5c0-0.8-0.6-1.4-1.4-1.4h-8.2c-0.8,0-1.4,0.6-1.4,1.4v9.5c-0.8,0-1.4,0.6-1.4,1.4S69.7,84,70.4,84z
			 M73.1,73.1h5.4v8.2h-5.4V73.1z M89.5,88.1h-1.4V33.7h1.4c0.8,0,1.4-0.6,1.4-1.4S90.2,31,89.5,31H65.4l-14-10.2v-3.1l6.6,1.1
			c0.7,0.1,1.4-0.4,1.6-1.1c0-0.1,0-0.2,0-0.2v-5.4c0-0.7-0.5-1.2-1.1-1.3l-8.2-1.4c-0.7-0.1-1.4,0.4-1.6,1.1c0,0.1,0,0.2,0,0.2
			v10.2l-14,10.2H10.5c-0.8,0-1.4,0.6-1.4,1.4s0.6,1.4,1.4,1.4h1.4v54.4h-1.4c-0.8,0-1.4,0.6-1.4,1.4s0.6,1.4,1.4,1.4h78.9
			c0.8,0,1.4-0.6,1.4-1.4C90.8,88.7,90.2,88.1,89.5,88.1z M51.4,12.1l5.4,0.9v2.7l-5.4-0.9V12.1z M33.7,88.1H14.6V33.7h19.1V88.1z
			 M48.6,88.1h-5.4v-15c0-3.2,2.3-6,5.4-6.7V88.1z M56.8,88.1h-5.4V66.5c3.2,0.7,5.4,3.4,5.4,6.7V88.1z M63.6,88.1h-4.1v-15
			c0-5.3-4.3-9.5-9.5-9.5c-5.3,0-9.5,4.3-9.5,9.5v15h-4.1V33L50,23.1L63.6,33V88.1z M85.4,88.1H66.3V33.7h19.1V88.1z M70.4,67.7
			h10.9c0.8,0,1.4-0.6,1.4-1.4S82.1,65,81.3,65v-9.5c0-0.8-0.6-1.4-1.4-1.4h-8.2c-0.8,0-1.4,0.6-1.4,1.4V65c-0.8,0-1.4,0.6-1.4,1.4
			C69.1,67.1,69.7,67.7,70.4,67.7z M73.1,56.8h5.4V65h-5.4V56.8z M70.4,51.4h10.9c0.8,0,1.4-0.6,1.4-1.4s-0.6-1.4-1.4-1.4v-9.5
			c0-0.8-0.6-1.4-1.4-1.4h-8.2c-0.8,0-1.4,0.6-1.4,1.4v9.5c-0.8,0-1.4,0.6-1.4,1.4S69.7,51.4,70.4,51.4z M73.1,40.5h5.4v8.2h-5.4
			V40.5z M48.6,37.8v2.7c0,0.8,0.6,1.4,1.4,1.4h1.4c0.8,0,1.4-0.6,1.4-1.4s-0.6-1.4-1.4-1.4v-1.4c0-0.8-0.6-1.4-1.4-1.4
			S48.6,37,48.6,37.8z M41.8,40.5c0,4.5,3.7,8.2,8.2,8.2c4.5,0,8.2-3.7,8.2-8.2s-3.7-8.2-8.2-8.2S41.8,36,41.8,40.5z M55.4,40.5
			c0,3-2.4,5.4-5.4,5.4s-5.4-2.4-5.4-5.4c0-3,2.4-5.4,5.4-5.4C53,35,55.4,37.5,55.4,40.5z M39.1,52.7v5.4c0,0.8,0.6,1.4,1.4,1.4
			h19.1c0.8,0,1.4-0.6,1.4-1.4v-5.4c0-0.8-0.6-1.4-1.4-1.4H40.5C39.7,51.4,39.1,52,39.1,52.7z M41.8,54.1h16.3v2.7H41.8V54.1z"/>
	</g>
</g>
</svg>
