<?xml version="1.0" encoding="utf-8"?>
<!-- Generator: Adobe Illustrator 25.2.0, SVG Export Plug-In . SVG Version: 6.00 Build 0)  -->
<svg version="1.1" id="Layer_1" xmlns="http://www.w3.org/2000/svg" xmlns:xlink="http://www.w3.org/1999/xlink" x="0px" y="0px"
	 viewBox="0 0 100 100" style="enable-background:new 0 0 100 100;" xml:space="preserve">
<path d="M80.6,69.3l0.4,4c0.1,0.7,0.6,1.2,1.3,1.2h0.1c0.7-0.1,1.3-0.7,1.2-1.5l-0.4-4c0-0.8-0.7-1.3-1.5-1.3
	C81.1,67.9,80.6,68.6,80.6,69.3z M84.5,82.6c-0.1-0.7-0.7-1.3-1.5-1.2c-0.7,0.1-1.3,0.7-1.2,1.5l1.1,12.4h-7.4l-5.6-64.5l8,6.7
	l0.8,9.2c0.1,0.7,0.6,1.2,1.4,1.2h0.1c0.7-0.1,1.3-0.7,1.2-1.5l-0.8-9.8c0-0.4-0.2-0.7-0.5-0.9L69.6,27l-0.8-8.8
	c0-0.4-0.2-0.7-0.5-0.9L52.1,3.7c-0.1-0.1-0.2-0.2-0.4-0.2h-0.1c-0.1,0-0.2-0.1-0.3-0.1h-0.1c-0.1,0-0.2,0-0.3,0c0,0,0,0-0.1,0
	s-0.2,0-0.3,0.1c0,0-0.1,0-0.1,0.1c-0.1,0-0.1,0.1-0.2,0.1l-16,13.4c-0.3,0.2-0.4,0.6-0.5,0.9l-2.3,26.7l-10,7.5
	c-0.3,0.2-0.5,0.5-0.5,0.9l-6.8,43.2c-0.1,0.8,0.5,1.6,1.3,1.6h12.8h23h23h10.1c0.8,0,1.4-0.7,1.3-1.5L84.5,82.6z M27,95.2H17
	L23.4,54l7.6-5.7l-1,11.4l0,0L27,95.2z M49.9,95.2H29.7l0.3-3.9l19.8-12.6v16.5H49.9z M49.9,75.4L30.4,87.9l1-12l18.5-11.8V75.4z
	 M49.9,60.9L31.7,72.5l1-12l17.2-10.9V60.9z M49.9,46.4L33,57.2l1-11.9l15.8-10.1v11.2H49.9z M49.9,31.9l-15.5,9.9l1-11.9l14.5-9.3
	V31.9z M49.9,17.5l-14.2,9.1l0.7-7.7L49.9,7.6V17.5z M52.6,95.2V76.4V76V61.9v-0.4V18.4V18V7.6l13.6,11.3l0.7,8.6c0,0.1,0,0.3,0,0.4
	l5.8,67.3C72.7,95.2,52.6,95.2,52.6,95.2z M79.5,56l0.3,3.9c0.1,0.7,0.6,1.2,1.3,1.2h0.1c0.7-0.1,1.3-0.7,1.2-1.5l-0.3-3.9
	C82,54,79.4,54.2,79.5,56z"/>
</svg>
