<?xml version="1.0" encoding="utf-8"?>
<!-- Generator: Adobe Illustrator 24.3.0, SVG Export Plug-In . SVG Version: 6.00 Build 0)  -->
<svg version="1.1" id="Layer_1" xmlns="http://www.w3.org/2000/svg" xmlns:xlink="http://www.w3.org/1999/xlink" x="0px" y="0px"
	 viewBox="0 0 100 100" style="enable-background:new 0 0 100 100;" xml:space="preserve">
<style type="text/css">
	.st0{fill:url(#SVGID_1_);}
</style>
<g>
	<g>
		<linearGradient id="SVGID_1_" gradientUnits="userSpaceOnUse" x1="9.4664" y1="50" x2="90.5336" y2="50">
			<stop  offset="0" style="stop-color:#00E7ED"/>
			<stop  offset="0.4615" style="stop-color:#51C1F0"/>
			<stop  offset="1" style="stop-color:#8776FF"/>
		</linearGradient>
		<path class="st0" d="M55.98,59.92c-0.49-1.48-1.92-2.44-3.48-2.33c-2.97,0.19-6.91,0.74-6.91,3.36c0,1.9,1.26,4.35,7.26,5.23
			c0.16,0.02,0.33,0.03,0.49,0.04c1,0,1.95-0.45,2.6-1.22c0.77-0.91,1.01-2.16,0.63-3.29L55.98,59.92z M53.88,63.26
			c-0.15,0.19-0.39,0.28-0.63,0.24c-1.12-0.16-4.66-0.8-4.93-2.36c1.38-0.59,2.86-0.88,4.36-0.86c0.33-0.02,0.64,0.18,0.74,0.49
			l0.59,1.78C54.1,62.8,54.05,63.06,53.88,63.26z M89.93,88.06l-9.2-6.13c7.73-1.66,8.45-7.09,8.45-8.96V36.49
			c0-4.31-0.99-7.42-2.94-9.24c-0.81-0.77-1.82-1.29-2.91-1.49l-0.01-0.01c-0.08-0.15-0.19-0.32-0.3-0.5l-0.09-0.14
			c-0.3-0.43-0.64-0.84-1.02-1.2l-0.16-0.15c-0.49-0.45-1.04-0.82-1.63-1.13c-0.08-0.04-0.16-0.08-0.25-0.12
			c-0.35-0.17-0.72-0.32-1.09-0.44c-0.42-0.12-0.84-0.22-1.27-0.29c-0.11-0.02-0.23-0.04-0.34-0.05c-0.5-0.07-1-0.11-1.5-0.11h-2.95
			L89.84,12c0.54-0.3,0.8-0.93,0.65-1.52c-0.16-0.59-0.69-1.01-1.31-1.01H37.84c-0.31,0-0.6,0.1-0.84,0.3L9.97,31.38
			c-0.02,0.02-0.03,0.04-0.05,0.06c-0.07,0.07-0.13,0.14-0.18,0.21c-0.05,0.06-0.1,0.13-0.14,0.2c-0.03,0.08-0.06,0.15-0.07,0.23
			c-0.03,0.09-0.05,0.18-0.06,0.27c0,0.03-0.02,0.05-0.02,0.08v40.53c0,0.44,0.21,0.85,0.57,1.1l22.97,16.21
			c0.23,0.16,0.5,0.25,0.78,0.25h55.4c0.6,0,1.12-0.39,1.29-0.96C90.65,89,90.43,88.39,89.93,88.06z M83.34,33.95v-0.03
			c0.14-1.13,0.24-2.28,0.32-3.46v-0.14c0.03-0.53,0.06-1.05,0.08-1.59c0.26,0.15,0.5,0.33,0.71,0.54c0.93,0.89,2.03,2.87,2.03,7.21
			v36.48c0,4-3.43,6.41-9.46,6.72v-5.37c0-2.24-1.81-4.05-4.05-4.05H58.11c-2.24,0-4.05,1.81-4.05,4.05v5.4c-4.14,0-7.21-0.9-9-2.55
			c-0.25-0.23-0.49-0.48-0.7-0.75c-0.03-0.04-0.06-0.09-0.09-0.14c-0.18-0.25-0.33-0.51-0.46-0.79c-0.03-0.07-0.07-0.14-0.1-0.21
			c-0.13-0.31-0.23-0.64-0.31-0.97c-0.02-0.08-0.03-0.16-0.04-0.23c-0.07-0.37-0.1-0.74-0.11-1.12V36.49c0-4.33,1.1-6.31,2.03-7.21
			c0.11-0.11,0.23-0.21,0.35-0.3c0.06-0.05,0.12-0.08,0.19-0.12c0.06-0.04,0.1-0.07,0.15-0.1l0.03-0.01
			c0.02,0.53,0.04,1.06,0.08,1.58v0.14c0.07,1.17,0.18,2.33,0.32,3.46v0.02c0.7,5.55,2.01,11.01,3.91,16.28
			c0.82,2.29,2.99,3.82,5.43,3.82h18.3c2.43-0.01,4.6-1.53,5.42-3.82C81.33,44.96,82.64,39.5,83.34,33.95z M74.32,74.32v5.4H56.76
			v-5.4c0-0.75,0.6-1.35,1.35-1.35h14.86C73.71,72.97,74.32,73.57,74.32,74.32z M64.86,47.3c-2.46,0-4.61,1.67-5.21,4.05h-3.94
			c-1.29-0.01-2.44-0.82-2.88-2.03c-1.65-4.6-2.84-9.35-3.57-14.18h31.2c-0.72,4.83-1.91,9.58-3.56,14.18
			c-0.44,1.22-1.59,2.03-2.88,2.03h-3.94C69.47,48.97,67.32,47.3,64.86,47.3z M67.2,51.35h-4.68C63.01,50.52,63.9,50,64.86,50
			C65.83,50,66.72,50.52,67.2,51.35z M75.67,24.33L75.67,24.33c0.47,0,0.94,0.04,1.4,0.12c0.14,0.02,0.24,0.06,0.36,0.09l0.04,0.01
			c0.25,0.05,0.5,0.13,0.75,0.21c0.14,0.05,0.26,0.11,0.39,0.17c0.18,0.08,0.37,0.17,0.54,0.27c0.11,0.07,0.22,0.14,0.32,0.21
			c0.14,0.1,0.28,0.21,0.41,0.31c0.09,0.07,0.17,0.15,0.25,0.23c0.11,0.11,0.2,0.21,0.29,0.31c0.06,0.07,0.12,0.14,0.18,0.21
			c0.08,0.1,0.14,0.2,0.2,0.29c0.04,0.06,0.08,0.12,0.11,0.17c0.05,0.09,0.09,0.16,0.12,0.23c0.02,0.04,0.04,0.08,0.06,0.11
			c0,0.76-0.03,1.54-0.07,2.33c-0.01,0.14-0.01,0.28-0.02,0.43c-0.05,0.79-0.11,1.59-0.19,2.4H48.93c-0.08-0.81-0.14-1.62-0.19-2.41
			c-0.01-0.14-0.01-0.28-0.02-0.42c-0.04-0.78-0.06-1.56-0.07-2.32c0.26-0.54,0.62-1.03,1.06-1.45c0.1-0.09,0.19-0.18,0.3-0.27
			l0.03-0.02c0.2-0.15,0.41-0.29,0.63-0.41c0.03-0.02,0.06-0.04,0.09-0.06c0.25-0.13,0.51-0.25,0.78-0.34l0.16-0.06
			c0.31-0.1,0.64-0.18,0.96-0.24l0.17-0.02c0.4-0.06,0.81-0.09,1.21-0.09H75.67z M12.17,33.09l26.15-20.92h45.71l-16.81,9.46H54.05
			c-0.5,0-1,0.04-1.5,0.11c-0.12,0.01-0.23,0.03-0.34,0.05c-0.82,0.13-1.61,0.37-2.36,0.72c-0.08,0.04-0.16,0.08-0.24,0.12
			c-0.51,0.26-0.99,0.58-1.42,0.95L18.22,33.87l-5.11,1.76c-0.33,0.12-0.65,0.26-0.95,0.44V33.09z M40.58,73.64
			c0.02,0.37,0.07,0.74,0.14,1.11l-11.75-6.62c-0.41-1.5-0.6-3.06-0.58-4.62v-4.53l4.68,1.3c0.81,0.23,1.69,0.06,2.36-0.45
			c0.67-0.51,1.07-1.3,1.07-2.15V42.23c0-0.82-0.37-1.6-1.01-2.11c-0.64-0.51-1.48-0.71-2.28-0.53l-4.82,1.07v-1.47
			c-0.1-2.21,0.35-4.42,1.32-6.41l12.8-4.4c-0.07,0.1-0.13,0.21-0.19,0.31c-0.06,0.1-0.12,0.18-0.18,0.28
			c-0.12,0.22-0.24,0.44-0.35,0.68c-0.04,0.08-0.08,0.15-0.11,0.23c-0.14,0.33-0.27,0.67-0.38,1.01c-0.03,0.09-0.05,0.19-0.08,0.27
			c-0.08,0.27-0.16,0.55-0.22,0.84c-0.03,0.14-0.06,0.28-0.09,0.42c-0.05,0.26-0.1,0.53-0.14,0.81c-0.02,0.15-0.04,0.31-0.06,0.47
			c-0.04,0.3-0.06,0.6-0.09,0.91c-0.01,0.15-0.02,0.29-0.03,0.44c-0.03,0.46-0.04,0.95-0.04,1.44v36.49
			C40.55,73.16,40.56,73.39,40.58,73.64z M28.38,56.18V43.43l5.4-1.2v15.45L28.38,56.18z M18.92,56.35l6.76,1.88v5.28
			c0,0.96,0.06,1.92,0.19,2.87l-6.5-3.66c-0.29-1.06-0.44-2.16-0.44-3.26V56.35z M18.92,53.55v-8.02l6.76-1.5v11.4L18.92,53.55z
			 M25.68,39.19v2.07l-6.76,1.5v-2.22c-0.01-1.48,0.24-2.94,0.76-4.32l6.69-2.3C25.9,35.64,25.66,37.41,25.68,39.19z M12.17,40.73
			c0-1.15,0.73-2.18,1.82-2.55l2.55-0.88c-0.22,1.07-0.33,2.15-0.32,3.24v2.82l-4.05,0.9V40.73z M12.17,47.03l4.05-0.9v6.67
			l-4.05-1.13V47.03z M12.17,54.48l4.05,1.13v3.85c0,0.52,0.02,1.03,0.07,1.53l-2.75-1.55c-0.85-0.48-1.38-1.38-1.38-2.35V54.48z
			 M34.21,87.83L12.17,72.27v-3.65l31.65,19.21H34.21z M49.03,87.83L49.03,87.83L12.17,65.45v-3.69c0.02,0.01,0.03,0.02,0.05,0.03
			l14.95,8.43l16.36,9.21c1.97,1.68,5.2,2.99,10.53,2.99h21.62c0.31,0,0.59-0.02,0.89-0.03l8.16,5.44H49.03z M55.4,29.73h18.92
			c0.75,0,1.35-0.6,1.35-1.35s-0.6-1.35-1.35-1.35H55.4c-0.75,0-1.35,0.6-1.35,1.35S54.66,29.73,55.4,29.73z M73.74,59.92
			l-0.59,1.78c-0.38,1.13-0.14,2.39,0.63,3.3c0.64,0.77,1.59,1.22,2.6,1.22c0.17,0,0.33-0.01,0.5-0.04c6-0.88,7.26-3.33,7.26-5.23
			c-0.01-2.63-3.95-3.18-6.92-3.36C75.66,57.48,74.23,58.44,73.74,59.92z M76.48,63.5c-0.24,0.04-0.48-0.05-0.63-0.24
			c-0.17-0.19-0.22-0.46-0.14-0.7l0.59-1.78c0.11-0.31,0.41-0.52,0.74-0.49c1.5-0.02,2.98,0.27,4.36,0.86
			C81.14,62.7,77.59,63.34,76.48,63.5z"/>
	</g>
</g>
</svg>
