<?xml version="1.0" encoding="utf-8"?>
<!-- Generator: Adobe Illustrator 24.3.0, SVG Export Plug-In . SVG Version: 6.00 Build 0)  -->
<svg version="1.1" id="Layer_1" xmlns="http://www.w3.org/2000/svg" xmlns:xlink="http://www.w3.org/1999/xlink" x="0px" y="0px"
	 viewBox="0 0 100 100" style="enable-background:new 0 0 100 100;" xml:space="preserve">
<style type="text/css">
	.st0{fill:url(#SVGID_1_);}
</style>
<g>
	<g>
		<linearGradient id="SVGID_1_" gradientUnits="userSpaceOnUse" x1="9.7577" y1="50" x2="90.2422" y2="50">
			<stop  offset="0" style="stop-color:#00E7ED"/>
			<stop  offset="0.4615" style="stop-color:#51C1F0"/>
			<stop  offset="1" style="stop-color:#8776FF"/>
		</linearGradient>
		<path class="st0" d="M43.29,37.93h2.68v-2.68h-2.68V37.93z M28.54,44.63h-2.68v2.68h2.68V44.63z M23.17,36.59h2.68V33.9h-2.68
			V36.59z M17.81,82.19h-2.68v2.68h2.68V82.19z M28.54,50h-2.68v2.68h2.68V50z M17.81,76.83h-2.68v2.68h2.68V76.83z M56.71,35.24
			h-2.68v2.68h2.68V35.24z M56.71,45.98h-2.68v2.68h2.68V45.98z M43.29,48.66h2.68v-2.68h-2.68V48.66z M43.29,43.29h2.68v-2.68
			h-2.68V43.29z M17.81,36.59h2.68V33.9h-2.68V36.59z M56.71,40.61h-2.68v2.68h2.68V40.61z M51.34,40.61h-2.68v2.68h2.68V40.61z
			 M17.81,71.46h-2.68v2.68h2.68V71.46z M51.34,35.24h-2.68v2.68h2.68V35.24z M23.17,66.1h-2.68v2.68h2.68V66.1z M28.54,82.19h-2.68
			v2.68h2.68V82.19z M23.17,50h-2.68v2.68h2.68V50z M28.54,55.37h-2.68v2.68h2.68V55.37z M23.17,60.73h-2.68v2.68h2.68V60.73z
			 M17.81,66.1h-2.68v2.68h2.68V66.1z M28.54,66.1h-2.68v2.68h2.68V66.1z M28.54,71.46h-2.68v2.68h2.68V71.46z M28.54,76.83h-2.68
			v2.68h2.68V76.83z M23.17,55.37h-2.68v2.68h2.68V55.37z M17.81,55.37h-2.68v2.68h2.68V55.37z M17.81,50h-2.68v2.68h2.68V50z
			 M17.81,60.73h-2.68v2.68h2.68V60.73z M17.81,44.63h-2.68v2.68h2.68V44.63z M23.17,82.19h-2.68v2.68h2.68V82.19z M28.54,60.73
			h-2.68v2.68h2.68V60.73z M23.17,71.46h-2.68v2.68h2.68V71.46z M23.17,76.83h-2.68v2.68h2.68V76.83z M23.17,44.63h-2.68v2.68h2.68
			V44.63z M79.51,71.46h-2.68v2.68h2.68V71.46z M79.51,66.1h-2.68v2.68h2.68V66.1z M79.51,76.83h-2.68v2.68h2.68V76.83z
			 M79.51,60.73h-2.68v2.68h2.68V60.73z M79.51,44.63h-2.68v2.68h2.68V44.63z M84.88,82.19h-2.68v2.68h2.68V82.19z M79.51,82.19
			h-2.68v2.68h2.68V82.19z M79.51,50h-2.68v2.68h2.68V50z M79.51,55.37h-2.68v2.68h2.68V55.37z M74.15,60.73h-2.68v2.68h2.68V60.73z
			 M74.15,82.19h-2.68v2.68h2.68V82.19z M51.34,45.98h-2.68v2.68h2.68V45.98z M74.15,71.46h-2.68v2.68h2.68V71.46z M74.15,44.63
			h-2.68v2.68h2.68V44.63z M88.9,39.27h-1.34v-9.39c0-0.74-0.6-1.34-1.34-1.34h-16.1c-0.74,0-1.34,0.6-1.34,1.34v9.39h-1.34
			c-0.74,0-1.34,0.6-1.34,1.34v20.56l-2.68-1.44v-28.5c0-0.24-0.07-0.48-0.19-0.69l-4.02-6.71c-0.24-0.4-0.68-0.65-1.15-0.65h-1.34
			v-5.37c0-0.74-0.6-1.34-1.34-1.34h-4.02V9.76h-2.68v6.71h-4.02c-0.74,0-1.34,0.6-1.34,1.34v5.37h-1.34
			c-0.47,0-0.91,0.25-1.15,0.65l-4.02,6.71c-0.12,0.21-0.19,0.45-0.19,0.69v28.5l-2.68,1.44V40.61c0-0.74-0.6-1.34-1.34-1.34h-1.34
			v-9.39c0-0.74-0.6-1.34-1.34-1.34h-16.1c-0.74,0-1.34,0.6-1.34,1.34v9.39H11.1c-0.74,0-1.34,0.6-1.34,1.34V88.9
			c0,0.74,0.6,1.34,1.34,1.34h77.8c0.74,0,1.34-0.6,1.34-1.34V40.61C90.24,39.87,89.64,39.27,88.9,39.27z M15.12,31.22h13.41v8.05
			H15.12V31.22z M31.22,87.56H12.44V41.95h18.78V87.56z M45.98,19.15h8.05v4.02h-8.05V19.15z M42.71,25.85h14.58l2.41,4.02H40.3
			L42.71,25.85z M39.27,32.56h21.46v25.72l-10.1-5.44c-0.4-0.21-0.87-0.21-1.27,0l-10.1,5.44V32.56z M50,55.55l12.12,6.52H37.88
			L50,55.55z M55.37,87.56H44.63v-6.71h10.73V87.56z M66.1,87.56h-8.05v-8.05c0-0.74-0.6-1.34-1.34-1.34H43.29
			c-0.74,0-1.34,0.6-1.34,1.34v8.05H33.9v-22.8H66.1V87.56z M71.46,31.22h13.41v8.05H71.46V31.22z M87.56,87.56H68.78V41.95h18.78
			V87.56z M74.15,50h-2.68v2.68h2.68V50z M74.15,55.37h-2.68v2.68h2.68V55.37z M74.15,66.1h-2.68v2.68h2.68V66.1z M84.88,76.83
			h-2.68v2.68h2.68V76.83z M74.15,76.83h-2.68v2.68h2.68V76.83z M45.98,67.44h-2.68v2.68h2.68V67.44z M51.34,72.8h-2.68v2.68h2.68
			V72.8z M40.61,67.44h-2.68v2.68h2.68V67.44z M51.34,67.44h-2.68v2.68h2.68V67.44z M45.98,72.8h-2.68v2.68h2.68V72.8z M56.71,72.8
			h-2.68v2.68h2.68V72.8z M62.07,72.8h-2.68v2.68h2.68V72.8z M62.07,67.44h-2.68v2.68h2.68V67.44z M84.88,71.46h-2.68v2.68h2.68
			V71.46z M56.71,67.44h-2.68v2.68h2.68V67.44z M84.88,55.37h-2.68v2.68h2.68V55.37z M84.88,60.73h-2.68v2.68h2.68V60.73z M84.88,50
			h-2.68v2.68h2.68V50z M84.88,66.1h-2.68v2.68h2.68V66.1z M84.88,44.63h-2.68v2.68h2.68V44.63z M40.61,72.8h-2.68v2.68h2.68V72.8z
			 M74.15,36.59h2.68V33.9h-2.68V36.59z M79.51,36.59h2.68V33.9h-2.68V36.59z"/>
	</g>
</g>
</svg>
