<?xml version="1.0" encoding="utf-8"?>
<!-- Generator: Adobe Illustrator 25.2.1, SVG Export Plug-In . SVG Version: 6.00 Build 0)  -->
<svg version="1.1" id="Layer_1" xmlns="http://www.w3.org/2000/svg" xmlns:xlink="http://www.w3.org/1999/xlink" x="0px" y="0px"
	 viewBox="0 0 100 100" style="enable-background:new 0 0 100 100;" xml:space="preserve">
<path d="M63.4,58V73c-0.1,0.8,0.5,1.4,1.3,1.5c0.8,0.1,1.4-0.5,1.5-1.3c0-0.1,0-0.2,0-0.2V57c0-0.6-0.4-1.1-1-1.3
	c-3.1-1-5.9-2.9-7.8-5.5c-2-2.7-3.1-5.9-3.1-9.3c0-8.5,6.9-15.4,15.4-15.4c1.5,0,3.1,0.2,4.6,0.7c-0.4,1.6-1,3.1-1.9,4.5
	c-3-1.4-6.7-0.1-8.1,2.9c-1.4,3-0.1,6.7,2.9,8.1c3,1.4,6.7,0.1,8.1-2.9c1-2.1,0.7-4.6-0.7-6.4c1-1.6,1.8-3.3,2.3-5.1
	c1.8,1,3.4,2.3,4.7,3.9c0.5,0.6,1.4,0.6,1.9,0.1c0.5-0.5,0.6-1.3,0.2-1.8c-1.7-2.1-3.9-3.8-6.3-4.9c0.1-0.8,0.2-1.6,0.2-2.4
	c0-10.5-8.4-19-18.9-19s-19,8.4-19,18.9c0,2.9,0.6,5.7,1.9,8.3c-3.9,5.8-4.1,13.2-0.7,19.3L28.1,62.2c-0.5,0.5-0.5,1.4,0,1.9
	c0.5,0.5,1.4,0.5,1.9,0l0,0l13.4-13.4c0.5-0.5,0.5-1.2,0.2-1.7c-4.7-7.1-2.8-16.6,4.3-21.4c3.6-2.4,7.9-3.1,12.1-2.2
	c-1.8,1.1-3.4,2.6-4.7,4.2c-5.9,0.7-10.2,6-9.6,11.9c0.5,4.8,4.1,8.6,8.8,9.5c0.2,0.3,0.3,0.5,0.5,0.8c1.1,1.4,2.4,2.7,3.9,3.8
	c-3.8,0.6-7.8-0.2-11-2.4c-0.5-0.4-1.3-0.3-1.7,0.2L33.6,66.1c-0.6,0.5-0.6,1.4,0,2c0,0,0,0,0,0l3,3c0.7,0.8,0.7,2-0.1,2.7
	c-0.7,0.7-1.9,0.7-2.6,0l-3-3c-0.5-0.5-1.4-0.5-2,0l-3.6,3.5c-0.6,0.5-0.6,1.4,0,2c0,0,0,0,0,0l3,3c0.7,0.8,0.7,2-0.1,2.7
	c-0.7,0.7-1.9,0.7-2.6,0l-3-3c-0.5-0.5-1.4-0.5-2,0L16.7,83c-0.8,0.8-2,0.8-2.8,0s-0.8-2,0-2.8L26.2,68c0.5-0.5,0.5-1.4,0-1.9
	c-0.5-0.5-1.4-0.5-1.9,0L12.1,78.3c-1.8,1.8-1.8,4.8,0,6.6c1.8,1.8,4.8,1.8,6.6,0l0,0l2.9-2.9l2,2c1.8,1.8,4.8,1.9,6.6,0
	c1.8-1.8,1.9-4.8,0-6.7l-2-2l1.6-1.6l2,2c1.9,1.8,4.9,1.6,6.6-0.3c1.6-1.8,1.6-4.5,0-6.3l-2-2l10.8-10.9c4.6,2.6,10.1,3.2,15.1,1.4
	L63.4,58L63.4,58z M69.7,32.9c0.3,0,0.6,0,0.9,0.1c-1.2,1.3-2.6,2.5-4.2,3.3v-0.1C66.3,34.4,67.8,32.9,69.7,32.9L69.7,32.9z
	 M73,36.2c0,1.8-1.5,3.3-3.3,3.3c-0.8,0-1.5-0.3-2.1-0.8c1.9-1,3.6-2.4,5.1-4C72.9,35.2,73,35.7,73,36.2z M43.6,27.7l-0.3,0.3
	c-3.2-8.4,1-17.7,9.3-20.9s17.7,1,20.9,9.3c0.7,1.9,1.1,3.9,1.1,5.9c0,0.5,0,0.9-0.1,1.4c-1.7-0.5-3.4-0.7-5.1-0.7c-2,0-4.1,0.3-6,1
	C56.7,20.9,48.8,22.4,43.6,27.7L43.6,27.7z M53.2,33.1c-0.6,1.2-1,2.5-1.3,3.8c-0.7-0.3-1.4-0.7-2-1.1
	C50.7,34.6,51.8,33.7,53.2,33.1L53.2,33.1z M50.8,46.2c-2.1-2.1-2.9-5.1-2.1-7.9c0.9,0.5,1.8,1,2.8,1.4c0,0.4,0,0.8,0,1.2
	c0,2.3,0.4,4.6,1.2,6.7C52,47.3,51.3,46.8,50.8,46.2L50.8,46.2z M86.6,34.6c-0.3-0.7-1.1-1.1-1.8-0.8s-1.1,1.1-0.8,1.8
	c0.7,1.7,1,3.5,1,5.4c0,6.7-4.3,12.6-10.7,14.6c-0.6,0.2-1,0.7-1,1.3v7.6l-3.9,3c-0.6,0.5-0.7,1.3-0.2,1.9c0.1,0.1,0.2,0.2,0.2,0.2
	l3,2.3l-3,2.3c-0.6,0.5-0.7,1.3-0.2,1.9c0.1,0.1,0.2,0.2,0.2,0.2l3,2.3l-3,2.3c-0.6,0.5-0.7,1.3-0.2,1.9c0.1,0.1,0.2,0.2,0.2,0.2
	l3.9,3v3.3l-3.8,3.8l-3.5-3.7V78.5c-0.1-0.8-0.7-1.3-1.5-1.3c-0.7,0.1-1.2,0.6-1.3,1.3v11.9c0,0.3,0.1,0.7,0.4,0.9l4.8,5.2
	c0.5,0.6,1.4,0.6,2,0c0,0,0,0,0,0l5.2-5.2c0.3-0.3,0.4-0.6,0.4-1v-4.5c0-0.4-0.2-0.8-0.5-1.1l-3-2.3l3-2.3c0.6-0.5,0.7-1.3,0.2-1.9
	c-0.1-0.1-0.1-0.2-0.2-0.2l-3-2.3l3-2.3c0.6-0.5,0.7-1.3,0.2-1.9c-0.1-0.1-0.1-0.2-0.2-0.2l-3-2.3l3-2.3c0.3-0.3,0.5-0.7,0.5-1.1
	v-7.3C85.3,54.3,90,43.9,86.6,34.6z"/>
</svg>
