<?xml version="1.0" encoding="utf-8"?>
<!-- Generator: Adobe Illustrator 24.3.0, SVG Export Plug-In . SVG Version: 6.00 Build 0)  -->
<svg version="1.1" id="Layer_1" xmlns="http://www.w3.org/2000/svg" xmlns:xlink="http://www.w3.org/1999/xlink" x="0px" y="0px"
	 viewBox="0 0 100 100" style="enable-background:new 0 0 100 100;" xml:space="preserve">
<style type="text/css">
	.st0{fill:url(#SVGID_1_);}
</style>
<g>
	<g>
		<linearGradient id="SVGID_1_" gradientUnits="userSpaceOnUse" x1="5.05" y1="50" x2="94.95" y2="50">
			<stop  offset="0" style="stop-color:#00E7ED"/>
			<stop  offset="0.4615" style="stop-color:#51C1F0"/>
			<stop  offset="1" style="stop-color:#8776FF"/>
		</linearGradient>
		<path class="st0" d="M6.68,35.53h1.45c0.8,0,1.45-0.65,1.45-1.45s-0.65-1.45-1.45-1.45H6.68c-0.8,0-1.45,0.65-1.45,1.45
			S5.88,35.53,6.68,35.53z M93.32,76.05L93.32,76.05c-2.01,0-2.92-0.55-4.08-1.24c-1.29-0.78-2.76-1.65-5.57-1.65
			c-2.81,0-4.28,0.88-5.57,1.65c-1.16,0.69-2.07,1.24-4.08,1.24c-2.01,0-2.92-0.55-4.08-1.24c-1.29-0.78-2.76-1.65-5.57-1.65
			c-2.81,0-4.28,0.88-5.57,1.65c-1.15,0.69-2.07,1.24-4.08,1.24s-2.92-0.55-4.08-1.24c-1.29-0.78-2.76-1.65-5.57-1.65
			c-2.81,0-4.28,0.88-5.57,1.65c-1.16,0.69-2.07,1.24-4.08,1.24c-2.01,0-2.92-0.55-4.08-1.24c-1.29-0.78-2.76-1.65-5.57-1.65
			c-2.81,0-4.28,0.88-5.57,1.65c-1.16,0.69-2.07,1.24-4.08,1.24c-2.01,0-2.92-0.55-4.08-1.24c-1.29-0.78-2.76-1.65-5.57-1.65
			c-0.8,0-1.45,0.65-1.45,1.45s0.65,1.45,1.45,1.45c2.01,0,2.92,0.55,4.08,1.24c1.29,0.78,2.76,1.65,5.57,1.65
			c2.81,0,4.28-0.88,5.57-1.65c1.16-0.69,2.07-1.24,4.08-1.24c2.01,0,2.92,0.55,4.08,1.24c1.29,0.78,2.76,1.65,5.57,1.65
			c2.81,0,4.28-0.88,5.57-1.65c1.16-0.69,2.07-1.24,4.08-1.24c2.01,0,2.92,0.55,4.08,1.24c1.29,0.78,2.76,1.65,5.57,1.65
			c2.81,0,4.28-0.88,5.57-1.65c1.16-0.69,2.07-1.24,4.08-1.24c2.01,0,2.92,0.55,4.08,1.24c1.29,0.78,2.76,1.65,5.57,1.65
			c2.81,0,4.28-0.88,5.57-1.65c1.16-0.69,2.07-1.24,4.08-1.24c2.01,0,2.92,0.55,4.08,1.24c1.29,0.78,2.76,1.65,5.57,1.65
			c0.8,0,1.45-0.65,1.45-1.45S94.12,76.05,93.32,76.05z M93.32,58.68c-2.01,0-2.92-0.55-4.08-1.24c-1.29-0.77-2.75-1.65-5.57-1.65
			c-2.81,0-4.28,0.88-5.57,1.65c-1.02,0.61-1.85,1.11-3.42,1.22V35.53H93.5c0.8,0,1.45-0.65,1.45-1.45s-0.65-1.45-1.45-1.45h-7.24
			v-4.34c0-4-3.24-7.24-7.24-7.24c-4,0-7.24,3.24-7.24,7.24v4.34h-4.34v-4.34c0-4-3.24-7.24-7.24-7.24s-7.24,3.24-7.24,7.24v4.34
			H12.47c-0.8,0-1.45,0.65-1.45,1.45s0.65,1.45,1.45,1.45h40.52V58.5c-0.92-0.22-1.57-0.61-2.33-1.06
			c-1.29-0.77-2.75-1.65-5.57-1.65c-2.81,0-4.28,0.88-5.57,1.65c-1.16,0.69-2.07,1.24-4.08,1.24c-2.01,0-2.92-0.55-4.08-1.24
			c-1.29-0.77-2.75-1.65-5.57-1.65c-2.81,0-4.28,0.88-5.57,1.65c-1.16,0.69-2.07,1.24-4.08,1.24c-2.01,0-2.92-0.55-4.08-1.24
			c-1.29-0.77-2.76-1.65-5.57-1.65c-0.8,0-1.45,0.65-1.45,1.45s0.65,1.45,1.45,1.45c2.01,0,2.92,0.55,4.08,1.24
			c1.29,0.77,2.76,1.65,5.57,1.65c2.81,0,4.28-0.88,5.57-1.65c1.16-0.69,2.07-1.24,4.08-1.24c2.01,0,2.92,0.55,4.08,1.24
			c1.29,0.77,2.75,1.65,5.57,1.65c2.81,0,4.28-0.88,5.57-1.65c1.16-0.69,2.07-1.24,4.08-1.24c2.01,0,2.92,0.55,4.08,1.24
			c1.22,0.73,2.59,1.55,5.11,1.64c0.05,0.01,0.11,0.01,0.16,0.01c0.03,0,0.06,0,0.09,0c0.07,0,0.14,0,0.22,0
			c2.81,0,4.28-0.88,5.57-1.65c1.15-0.69,2.07-1.24,4.08-1.24c2.01,0,2.92,0.55,4.08,1.24c1.29,0.77,2.76,1.65,5.57,1.65
			c2.81,0,4.28-0.88,5.57-1.65c1.16-0.69,2.07-1.24,4.08-1.24c2.01,0,2.92,0.55,4.08,1.24c1.29,0.77,2.75,1.65,5.57,1.65
			c0.8,0,1.45-0.65,1.45-1.45S94.12,58.68,93.32,58.68z M74.69,28.29c0-2.4,1.94-4.34,4.34-4.34c2.4,0,4.34,1.94,4.34,4.34v4.34
			h-8.68V28.29z M55.88,28.29c0-2.4,1.94-4.34,4.34-4.34s4.34,1.94,4.34,4.34v4.34h-8.68V28.29z M71.8,58.36
			c-0.65-0.23-1.27-0.54-1.85-0.92c-1.29-0.77-2.76-1.65-5.57-1.65c-2.81,0-4.28,0.88-5.57,1.65c-0.91,0.55-1.67,1-2.93,1.17v-5.72
			H71.8V58.36z M71.8,50H55.88v-2.89H71.8V50z M71.8,44.21H55.88v-2.89H71.8V44.21z M71.8,38.42H55.88v-2.89H71.8V38.42z
			 M93.32,70.26L93.32,70.26c-2.01,0-2.92-0.55-4.08-1.24c-1.29-0.78-2.76-1.65-5.57-1.65c-2.81,0-4.28,0.88-5.57,1.65
			c-1.16,0.69-2.07,1.24-4.08,1.24c-2.01,0-2.92-0.55-4.08-1.24c-1.29-0.78-2.76-1.65-5.57-1.65c-2.81,0-4.28,0.88-5.57,1.65
			c-1.15,0.69-2.07,1.24-4.08,1.24s-2.92-0.55-4.08-1.24c-1.29-0.78-2.76-1.65-5.57-1.65c-2.81,0-4.28,0.88-5.57,1.65
			c-1.16,0.69-2.07,1.24-4.08,1.24c-2.01,0-2.92-0.55-4.08-1.24c-1.29-0.78-2.76-1.65-5.57-1.65c-2.81,0-4.28,0.88-5.57,1.65
			c-1.16,0.69-2.07,1.24-4.08,1.24c-2.01,0-2.92-0.55-4.08-1.24c-1.29-0.78-2.76-1.65-5.57-1.65c-0.8,0-1.45,0.65-1.45,1.45
			s0.65,1.45,1.45,1.45c2.01,0,2.92,0.55,4.08,1.24c1.29,0.78,2.76,1.65,5.57,1.65c2.81,0,4.28-0.88,5.57-1.65
			c1.16-0.69,2.07-1.24,4.08-1.24c2.01,0,2.92,0.55,4.08,1.24c1.29,0.78,2.76,1.65,5.57,1.65c2.81,0,4.28-0.88,5.57-1.65
			c1.16-0.69,2.07-1.24,4.08-1.24c2.01,0,2.92,0.55,4.08,1.24c1.29,0.78,2.76,1.65,5.57,1.65c2.81,0,4.28-0.88,5.57-1.65
			c1.16-0.69,2.07-1.24,4.08-1.24c2.01,0,2.92,0.55,4.08,1.24c1.29,0.78,2.76,1.65,5.57,1.65c2.81,0,4.28-0.88,5.57-1.65
			c1.16-0.69,2.07-1.24,4.08-1.24c2.01,0,2.92,0.55,4.08,1.24c1.29,0.78,2.76,1.65,5.57,1.65c0.8,0,1.45-0.65,1.45-1.45
			S94.12,70.26,93.32,70.26z M93.32,64.47L93.32,64.47c-2.01,0-2.92-0.55-4.08-1.24c-1.29-0.78-2.76-1.65-5.57-1.65
			c-2.81,0-4.28,0.88-5.57,1.65c-1.16,0.69-2.07,1.24-4.08,1.24c-2.01,0-2.92-0.55-4.08-1.24c-1.29-0.78-2.76-1.65-5.57-1.65
			c-2.81,0-4.28,0.88-5.57,1.65c-1.15,0.69-2.07,1.24-4.08,1.24s-2.92-0.55-4.08-1.24c-1.29-0.78-2.76-1.65-5.57-1.65
			c-2.81,0-4.28,0.88-5.57,1.65c-1.16,0.69-2.07,1.24-4.08,1.24c-2.01,0-2.92-0.55-4.08-1.24c-1.29-0.78-2.76-1.65-5.57-1.65
			c-2.81,0-4.28,0.88-5.57,1.65c-1.16,0.69-2.07,1.24-4.08,1.24c-2.01,0-2.92-0.55-4.08-1.24c-1.29-0.78-2.76-1.65-5.57-1.65
			c-0.8,0-1.45,0.65-1.45,1.45s0.65,1.45,1.45,1.45c2.01,0,2.92,0.55,4.08,1.24c1.29,0.78,2.76,1.65,5.57,1.65
			c2.81,0,4.28-0.88,5.57-1.65c1.16-0.69,2.07-1.24,4.08-1.24c2.01,0,2.92,0.55,4.08,1.24c1.29,0.78,2.76,1.65,5.57,1.65
			c2.81,0,4.28-0.88,5.57-1.65c1.16-0.69,2.07-1.24,4.08-1.24c2.01,0,2.92,0.55,4.08,1.24c1.29,0.78,2.76,1.65,5.57,1.65
			c2.81,0,4.28-0.88,5.57-1.65c1.16-0.69,2.07-1.24,4.08-1.24c2.01,0,2.92,0.55,4.08,1.24c1.29,0.78,2.76,1.65,5.57,1.65
			c2.81,0,4.28-0.88,5.57-1.65c1.16-0.69,2.07-1.24,4.08-1.24c2.01,0,2.92,0.55,4.08,1.24c1.29,0.78,2.76,1.65,5.57,1.65
			c0.8,0,1.45-0.65,1.45-1.45S94.12,64.47,93.32,64.47z"/>
	</g>
</g>
<text transform="matrix(1 0 0 1 -2.9601 -8.0566)" style="fill:#FFFFFF; font-family:'MyriadPro-Regular'; font-size:12px;">Facilities</text>
</svg>
