<?xml version="1.0" encoding="utf-8"?>
<!-- Generator: Adobe Illustrator 25.1.0, SVG Export Plug-In . SVG Version: 6.00 Build 0)  -->
<svg version="1.1" id="Layer_1" xmlns="http://www.w3.org/2000/svg" xmlns:xlink="http://www.w3.org/1999/xlink" x="0px" y="0px"
	 viewBox="0 0 100 100" style="enable-background:new 0 0 100 100;" xml:space="preserve">
<g>
	<g>
		<path d="M95.2,37.1c-1.9-1.9-4.1-2.4-5.2-2.6c-1.3-0.3-2.6-0.3-3.9-0.2c-5.3-12.3-19.5-20.7-36-20.7c-15.6,0-29.4,8.4-35,20.9
			c-1.6-0.3-3.3-0.3-5,0c-1.1,0.2-3.3,0.7-5.2,2.6c-0.3,0.3-3.4,3.5-2.7,8c0.7,4.5,4.6,7.3,7.9,8c1.1,0.3,2.3,0.2,3.4,0
			c0.1,0,0.2,0,0.3-0.1c0.3,0.6,1.4,3.5-1.2,16.4c-0.1,0.3,0,0.7,0.1,1c1.5,4.9,4,7.2,8,7.7c0.1,0,0.1,0,0.2,0v6.2
			c0,1.1,0.9,2.1,2.1,2.1s2.1-0.9,2.1-2.1v-6.2H75v6.2c0,1.1,0.9,2.1,2.1,2.1s2.1-0.9,2.1-2.1v-6.2c0.1,0,0.2,0,0.2,0
			c4-0.5,6.5-2.8,8-7.7c0.1-0.3,0.1-0.7,0.1-1c-2.6-12.8-1.5-15.8-1.2-16.4c0.1,0,0.2,0,0.3,0.1c1.1,0.3,2.3,0.3,3.4,0
			c3.3-0.7,7.2-3.5,7.9-8C98.5,40.6,95.5,37.4,95.2,37.1z M50,17.7c14.7,0,27.3,7.2,32.1,17.8c-0.7,0.4-1.4,0.8-2,1.3
			c-1.8,1.3-3.4,2.8-4.7,4.7c-1,1.4-1.8,3-2.3,4.6c-1.6,4.4-2,9.6-2.2,13.2H29.2c-0.1-3.6-0.6-8.8-2.2-13.2
			c-0.6-1.6-1.4-3.2-2.3-4.6c-1.3-1.8-2.9-3.4-4.7-4.7c-0.4-0.3-0.8-0.5-1.2-0.8C23.8,25.1,36.1,17.7,50,17.7z M93.8,44.5
			c-0.4,2.7-3,4.2-4.6,4.5c-0.6,0.1-1.2,0.1-1.8,0c-0.7-0.2-1.7-0.3-2.8,0.2c-3.5,1.6-3.8,7.5-1.3,20.5c-1.3,3.8-3,4.1-4.2,4.3H21
			c-1.3-0.2-2.9-0.4-4.2-4.3c2.6-13,2.2-18.9-1.3-20.5c-1.1-0.5-2.1-0.3-2.8-0.2c-0.6,0.2-1.2,0.2-1.8,0c-1.6-0.3-4.2-1.8-4.6-4.5
			C5.9,42,7.8,40,7.8,40c1.1-1.1,2.3-1.3,3.1-1.5c1.1-0.3,2.2-0.3,3.3,0c1.4,0.3,2.2,0.9,3.4,1.8c1.4,1,2.7,2.2,3.6,3.6
			c0.8,1.1,1.4,2.4,1.8,3.7c1.7,4.7,2,10.7,2,13.9c0,1.1,0.9,2.1,2.1,2.1h45.8c1.1,0,2.1-0.9,2.1-2.1c0-3.2,0.3-9.2,2-13.9
			c0.5-1.3,1.1-2.5,1.8-3.7c1-1.4,2.2-2.7,3.6-3.6c1.2-0.8,2.1-1.4,3.4-1.8c1.1-0.2,2.2-0.2,3.3,0c0.8,0.2,2.1,0.5,3.1,1.5
			C92.3,40,94.1,42,93.8,44.5z"/>
	</g>
</g>
</svg>
