<?xml version="1.0" encoding="utf-8"?>
<!-- Generator: Adobe Illustrator 24.3.0, SVG Export Plug-In . SVG Version: 6.00 Build 0)  -->
<svg version="1.1" id="Layer_1" xmlns="http://www.w3.org/2000/svg" xmlns:xlink="http://www.w3.org/1999/xlink" x="0px" y="0px"
	 viewBox="0 0 100 100" style="enable-background:new 0 0 100 100;" xml:space="preserve">
<path d="M89.7,57.4h-4.4V42.6c0-4.1-3.3-7.3-7.4-7.4H54.4c-4.1,0-7.3,3.3-7.4,7.4v14.7h-4.4c-2.4,0-4.4,2-4.4,4.4v14.7
	c0,3.9,3,7.1,6.9,7.3L43,91.2H29.3c-0.7-3.4-3.7-5.9-7.2-5.9h-2.9V17.6c0-4.6,3.6-8.4,8.1-8.7c4.6-0.3,8.6,2.9,9.3,7.5l0,0.2
	c-1.9,0.8-3,2.8-2.7,4.8l0.4,2.4l-3.9,6.8c-0.5,0.9-0.5,2,0,2.9c0.5,0.9,1.5,1.5,2.5,1.5c0.2,0,0.3,0,0.5,0l14.1-2.4
	c1.1-0.2,2-1,2.3-2.1c0.3-1.1-0.1-2.3-0.9-3L43,22.2l-0.4-2.4c-0.3-1.7-1.5-3-3.1-3.5l-0.1-0.4c-0.9-6.1-6.3-10.5-12.4-10
	c-6.1,0.4-10.9,5.5-10.9,11.7v67.7h-2.9v-1.5c0-0.8-0.7-1.5-1.5-1.5c-0.8,0-1.5,0.7-1.5,1.5v2.1c-2.7,1.2-4.4,3.8-4.4,6.7
	c0,0.8,0.7,1.5,1.5,1.5h85.3c0.8,0,1.5-0.7,1.5-1.5c0-0.8-0.7-1.5-1.5-1.5h-3.3l-2.1-7.4c3.9-0.2,6.9-3.4,6.9-7.3V61.8
	C94.1,59.3,92.1,57.4,89.7,57.4z M47.1,29.5l-14.1,2.4l3.9-6.6l4.4-0.8L47.1,29.5L47.1,29.5z M40,21.8l-2.9,0.5l-0.2-1.4
	c-0.1-0.8,0.4-1.6,1.2-1.7c0.1,0,0.2,0,0.2,0c0.7,0,1.3,0.5,1.4,1.2L40,21.8z M54.4,38.2h23.5c2.4,0,4.4,2,4.4,4.4v15
	c-1.8,0.6-2.9,2.3-2.9,4.1v3c-1.3-1-2.8-1.5-4.4-1.5h-5.3l3.4-3.4c0.6-0.6,0.5-1.5,0-2.1c-0.6-0.6-1.5-0.6-2.1,0l-3.4,3.4v-6.7
	c0-0.8-0.7-1.5-1.5-1.5c-0.8,0-1.5,0.7-1.5,1.5v6.7l-3.4-3.4c-0.6-0.6-1.5-0.5-2.1,0c-0.6,0.6-0.6,1.5,0,2.1l3.4,3.4h-5.3
	c-1.6,0-3.1,0.5-4.4,1.5v-3c0-1.9-1.2-3.5-2.9-4.1v-15C50,40.2,52,38.2,54.4,38.2z M75,66.2c2.4,0,4.4,2,4.4,4.4v1.5H52.9v-1.5
	c0-2.4,2-4.4,4.4-4.4H75z M77.1,83.8l4.2,7.4H51.1l4.2-7.4H77.1z M79.4,80.9H52.9V75h26.5V80.9z M41.2,76.5V61.8
	c0-0.8,0.7-1.5,1.5-1.5h5.9c0.8,0,1.5,0.7,1.5,1.5v19.1h-4.4C43.2,80.9,41.2,78.9,41.2,76.5z M9.1,91.2c0.6-1.8,2.3-2.9,4.2-2.9h8.8
	c1.9,0,3.5,1.2,4.2,2.9H9.1z M46.1,91.2l2.1-7.4h3.7l-4.2,7.4H46.1z M84.7,91.2l-4.2-7.4h3.7l2.1,7.4H84.7z M91.2,76.5
	c0,2.4-2,4.4-4.4,4.4h-4.4V61.8c0-0.8,0.7-1.5,1.5-1.5h5.9c0.8,0,1.5,0.7,1.5,1.5V76.5z"/>
</svg>
