<svg id="Layer_1" data-name="Layer 1" xmlns="http://www.w3.org/2000/svg" viewBox="0 0 100 100"><path d="M50,45.45A2.42,2.42,0,0,0,52.42,43V38.19a2.42,2.42,0,0,0-4.84,0V43A2.42,2.42,0,0,0,50,45.45Z"/><path d="M52.42,85.6V80.76a2.42,2.42,0,0,0-4.84,0V85.6a2.42,2.42,0,0,0,4.84,0Z"/><path d="M50,73.5a2.42,2.42,0,0,0,2.42-2.42V66.24a2.42,2.42,0,0,0-4.84,0v4.84A2.42,2.42,0,0,0,50,73.5Z"/><path d="M50,59a2.42,2.42,0,0,0,2.42-2.42V51.73a2.42,2.42,0,0,0-4.84,0v4.83A2.42,2.42,0,0,0,50,59Z"/><path d="M88.87,20.12H63.53l-1.48-7.87a2.41,2.41,0,0,0-2.37-2H40.32a2.41,2.41,0,0,0-2.37,2l-1.48,7.87H11.13a2.42,2.42,0,0,0-2.42,2.41v9.68a2.42,2.42,0,0,0,2.42,2.42,2.42,2.42,0,0,1,2.42,2.42v9.68A2.42,2.42,0,0,0,16,49.15h9.84a2.43,2.43,0,0,0,2.42-2.42V37.05a2.42,2.42,0,0,1,2.42-2.42h3.13L23.43,90a2.42,2.42,0,0,0,2.38,2.86H74.19A2.42,2.42,0,0,0,76.57,90L66.22,34.63h3.13a2.42,2.42,0,0,1,2.42,2.42v9.68a2.43,2.43,0,0,0,2.42,2.42H84a2.42,2.42,0,0,0,2.42-2.42V37.05a2.42,2.42,0,0,1,2.42-2.42,2.42,2.42,0,0,0,2.42-2.42V22.53A2.42,2.42,0,0,0,88.87,20.12Zm-47.49-7H58.62l1.06,7H40.32ZM72.71,90.24H27.29L37.35,34.63H62.77Zm14.58-59c-2.88,1.18-5,2.49-5,6.21V46H76.19V39.07c0-4.72-2.3-8.56-6.39-8.56H30.2c-4.09,0-6.52,3.84-6.52,8.56V46h-6V37.43c0-3.72-2.07-5-4.95-6.21v-8H87.29Z"/></svg>