<?xml version="1.0" encoding="utf-8"?>
<!-- Generator: Adobe Illustrator 25.2.0, SVG Export Plug-In . SVG Version: 6.00 Build 0)  -->
<svg version="1.1" id="Layer_1" xmlns="http://www.w3.org/2000/svg" xmlns:xlink="http://www.w3.org/1999/xlink" x="0px" y="0px"
	 viewBox="0 0 100 100" style="enable-background:new 0 0 100 100;" xml:space="preserve">
<path d="M83.8,60.3l-1.4-1.4v-9.5l-1.5-1.5l-1.3-8l-1.3-1.3l-1.4-6.8l-1.3-1.4l-1.2-5.8c1.6-1.5,1.8-4.1,0.1-5.7
	c-0.4-0.5-0.9-0.8-1.6-1.1V9.4h-2.7v8.4c-2.2,0.7-3.2,3-2.4,5.1c0.3,0.7,0.5,1.2,1.1,1.6l-1.3,5.8l-1.4,1.4l-1.3,6.8L63.5,40
	L62.1,48l-1.4,1.5V59l-1.4,1.4v14.9l-1.4,1.4v1.9h-16v-1.9l-1.3-1.6V60.3l-1.4-1.4v-9.5l-1.5-1.5l-1.4-8.1L35,38.5l-1.4-6.8
	l-1.4-1.4l-1.1-5.8c1.6-1.5,1.8-4.1,0.1-5.7c-0.4-0.5-0.9-0.8-1.6-1.1V9.4h-2.7v8.4c-2.2,0.7-3.2,3-2.4,5.1c0.3,0.7,0.5,1.2,1.1,1.6
	l-1.2,5.8L23,31.7l-1.4,6.8L20.2,40L18.8,48l-1.2,1.4V59l-1.4,1.4v14.9l-1.4,1.4v13.9h2.8v-13l0.5-0.5h3.5v13.5h2.7v-13l0.5-0.5h7
	l0.5,0.5v13H35V77.1h3.5l0.5,0.5v13h2.7v-0.8l8.1-8.1l8.1,8.1v0.8h2.7v-13l0.5-0.5h3.5v13.5h3v-13l0.5-0.5h7l0.5,0.5v13h2.7V77.1
	h3.5l0.5,0.5v13H85V76.5l-1.4-1.4V60.3H83.8z M31.2,33l0.9,4.7h-2.4v-5.4h0.9L31.2,33z M28.4,20.3c0.8,0,1.4,0.5,1.4,1.4
	c0,0.8-0.5,1.4-1.4,1.4S27,22.5,27,21.6S27.6,20.3,28.4,20.3z M27.6,50h1.6l0.5,0.5V58H27v-7.5L27.6,50z M27.3,29.8l0.8-4.1h0.5
	l0.8,4.1H27.3z M25.6,33l0.7-0.7h0.8v5.4h-2.5L25.6,33z M23,74.4h-4.1v-13l0.5-0.5h3.5v13.5H23z M24.3,58.1h-4.1v-7.6l0.5-0.5h3.5
	v8.1H24.3z M21.9,47.3l1.1-6.1l0.5-0.7H27v6.8H21.9z M31.1,74.4h-5.4v-13l0.5-0.5h4.4l0.5,0.5V74.4z M29.7,47.3v-6.7h3.5l0.7,0.7
	l0.9,6.1L29.7,47.3L29.7,47.3z M32.4,50h3.5l0.5,0.5V58h-4.1V50H32.4z M37.9,74.4h-4.1V60.8h3.5l0.5,0.5L37.9,74.4L37.9,74.4z
	 M41.9,86v-4.9h4.9L41.9,86z M58.1,86l-4.9-4.9h4.9V86z M74.5,33l0.9,4.7H73v-5.4h0.8L74.5,33z M71.7,20.3c0.8,0,1.4,0.5,1.4,1.4
	c0,0.8-0.5,1.4-1.4,1.4c-0.8,0-1.4-0.5-1.4-1.4S70.8,20.3,71.7,20.3z M70.8,50h1.6l0.5,0.5V58h-2.7v-7.5L70.8,50z M70.6,29.8
	l0.8-4.1h0.5l0.8,4.1H70.6z M68.8,33l0.7-0.7h0.8v5.4h-2.4L68.8,33z M66.2,74.4h-4.1v-13l0.5-0.5h3.5L66.2,74.4L66.2,74.4z
	 M67.6,58.1h-4.1v-7.6L64,50h3.6V58.1z M65.2,47.3l1.1-6.1l0.5-0.7h3.5v6.8H65.2z M74.4,74.4H69v-13l0.5-0.5h4.3l0.5,0.5L74.4,74.4
	L74.4,74.4z M73,47.3v-6.7h3.5l0.7,0.7l0.9,6.1L73,47.3L73,47.3z M75.7,50h3.5l0.5,0.5V58h-4.1L75.7,50L75.7,50z M81.1,74.4H77V60.8
	h3.6l0.5,0.5V74.4z M46,31h12.2c2.3,0,4.1-1.8,4.1-4.1s-1.8-4.1-4.1-4.1c-0.8,0-1.4-0.5-1.4-1.4c0-2.3-1.8-4.1-4.1-4.1h-1.4
	c-2.3,0-4.1,1.8-4.1,4.1c0,0.8-0.5,1.4-1.4,1.4c-2.3,0-4.1,1.8-4.1,4.1C41.9,29.3,43.7,31,46,31z M46,25.6c2.3,0,4.1-1.8,4.1-4.1
	c0-0.8,0.5-1.4,1.4-1.4h1.4c0.8,0,1.4,0.5,1.4,1.4c0,2.3,1.8,4.1,4.1,4.1c0.8,0,1.4,0.5,1.4,1.4c0,0.8-0.5,1.4-1.4,1.4H46
	c-0.8,0-1.4-0.5-1.4-1.4C44.6,26.3,45.2,25.6,46,25.6z M43.9,47.3h12.2c1.9,0,3.4-1.5,3.4-3.4v-1.3c0-1.9-1.5-3.4-3.4-3.4h-1.4
	c-0.4,0-0.7-0.3-0.7-0.7c0-1.9-1.5-3.4-3.4-3.4h-1.4c-1.9,0-3.4,1.5-3.4,3.4c0,0.4-0.3,0.7-0.7,0.7h-1.4c-1.9,0-3.4,1.5-3.4,3.4V44
	C40.6,45.8,42,47.3,43.9,47.3z M43.3,42.5c0-0.4,0.3-0.7,0.7-0.7h1.4c1.9,0,3.4-1.5,3.4-3.4c0-0.4,0.3-0.7,0.7-0.7h1.4
	c0.4,0,0.7,0.3,0.7,0.7c0,1.9,1.5,3.4,3.4,3.4h1.4c0.4,0,0.7,0.3,0.7,0.7V44c0,0.4-0.3,0.7-0.7,0.7H43.9c-0.4,0-0.7-0.3-0.7-0.7
	v-1.4H43.3z M87.2,32.5h-1.4c-0.4,0-0.7-0.3-0.7-0.7c0-1.9-1.5-3.4-3.4-3.4h-3.4V31h3.4c0.4,0,0.7,0.3,0.7,0.7
	c0,1.9,1.5,3.4,3.4,3.4h1.4c0.4,0,0.7,0.3,0.7,0.7v1.4c0,0.4-0.3,0.7-0.7,0.7h-4.7v2.6h4.7c1.9,0,3.4-1.5,3.4-3.4v-1.4
	C90.6,34,89.1,32.5,87.2,32.5z M20.3,29.8h-7.4c-0.4,0-0.7-0.3-0.7-0.7v-1.4c0-0.4,0.3-0.7,0.7-0.7c1.9,0,3.4-1.5,3.4-3.4v-1.4
	c0-0.4,0.3-0.7,0.7-0.7h4.6v-2.7h-4.7c-1.9,0-3.4,1.5-3.4,3.4v1.4c0,0.4-0.3,0.7-0.7,0.7c-1.9,0-3.4,1.5-3.4,3.4V29
	c0,1.9,1.5,3.4,3.4,3.4h7.4v-2.7H20.3z"/>
</svg>
