<?xml version="1.0" encoding="utf-8"?>
<!-- Generator: Adobe Illustrator 24.3.0, SVG Export Plug-In . SVG Version: 6.00 Build 0)  -->
<svg version="1.1" id="Layer_1" xmlns="http://www.w3.org/2000/svg" xmlns:xlink="http://www.w3.org/1999/xlink" x="0px" y="0px"
	 viewBox="0 0 100 100" style="enable-background:new 0 0 100 100;" xml:space="preserve">
<path d="M89.1,9H28C27.5,9,27,9.5,27,10.1v34.7c0,0.6,0.5,1.1,1.1,1.1h17.9v25.3c0,0.6,0.5,1.1,1.1,1.1h42.1c0.6,0,1.1-0.5,1.1-1.1
	V10.1C90.1,9.5,89.7,9,89.1,9z M88,70.1H48V44.8c0-0.6-0.5-1.1-1.1-1.1H29.1V11.1h59V70.1z M32.2,41.6H47c0.6,0,1.1-0.5,1.1-1.1
	v-6.3h2.1v6.3c0,0.6,0.5,1.1,1.1,1.1h13.7v2.1H51.2c-0.6,0-1.1,0.5-1.1,1.1v22.1c0,0.6,0.5,1.1,1.1,1.1h15.7c0,0,0.1,0,0.1,0h0
	l6.3,0h11.6c0.6,0,1.1-0.5,1.1-1.1V44.8c0-0.6-0.5-1.1-1.1-1.1h-4.2v-2.1h4.2c0.6,0,1.1-0.5,1.1-1.1V14.3c0-0.6-0.5-1.1-1.1-1.1
	H51.2c-0.6,0-1.1,0.5-1.1,1.1v4.2H48v-4.2c0-0.6-0.5-1.1-1.1-1.1H32.2c-0.6,0-1.1,0.5-1.1,1.1v26.3C31.2,41.2,31.7,41.6,32.2,41.6z
	 M52.2,50.1h4.2v11.6h-4.2V50.1z M68,52.2l10.5,0l0,8.4l-5.3,0l-5.3,0L68,52.2z M74.4,62.7l4.2,0l0,3.2l-4.2,0L74.4,62.7z
	 M68.1,62.7l4.2,0l0,3.2h-4.2L68.1,62.7z M63.8,19.5h2.1v4.2h-2.1V19.5z M68,19.5h6.3v3.2H68V19.5z M76.5,19.5h2.1v4.2h-2.1V19.5z
	 M79.6,15.3v2.1H62.8v-2.1H79.6z M45.9,15.3v4.2c0,0.6,0.5,1.1,1.1,1.1h3.7l8.1,10.1c0.4,0.5,1,0.5,1.5,0.2c0.5-0.4,0.5-1,0.2-1.5
	l-8.2-10.2v-3.8h8.4v3.2c0,0.6,0.5,1.1,1.1,1.1v5.3c0,0.6,0.5,1.1,1.1,1.1H67c0.6,0,1.1-0.5,1.1-1.1h6.3c0,0.6,0.5,1.1,1.1,1.1h4.2
	c0.6,0,1.1-0.5,1.1-1.1v-5.3c0.6,0,1.1-0.5,1.1-1.1v-3.2h2.1v24.2h-3.9l-10.3-7.2c-0.5-0.3-1.1-0.2-1.5,0.3
	c-0.3,0.5-0.2,1.1,0.2,1.5l10.1,7.1v3.7c0,0.6,0.5,1.1,1.1,1.1h4.2v20h-3.1l0-4.2c0,0,0,0,0,0s0,0,0,0l0-10.5c0-0.6-0.5-1-1.1-1h0
	l-12.6,0.1c-0.3,0-0.5,0.1-0.7,0.3c-0.2,0.2-0.3,0.5-0.3,0.7L66,65.9H52.2v-2.1h5.3c0.6,0,1.1-0.5,1.1-1.1V49c0-0.6-0.5-1.1-1.1-1.1
	h-5.3v-2.1h13.7c0.6,0,1.1-0.5,1.1-1.1v-4.2c0-0.6-0.5-1.1-1.1-1.1H52.2v-6.3c0-0.6-0.5-1.1-1.1-1.1H47c-0.6,0-1.1,0.5-1.1,1.1v6.3
	H33.3v-2.1h5.3c0.6,0,1.1-0.5,1.1-1.1V18.5c0-0.6-0.5-1.1-1.1-1.1h-5.3v-2.1H45.9z M33.3,19.5h4.2v15.8h-4.2V19.5z M21.5,70.8
	c-0.6-0.6-1.7-0.6-2.4,0l-1.6,1.6V13.9l1.6,1.6c0.3,0.3,0.8,0.5,1.2,0.5c0.4,0,0.9-0.2,1.2-0.5c0.6-0.6,0.6-1.7,0-2.4L17,8.7
	c-0.6-0.6-1.7-0.6-2.4,0l-4.5,4.5c-0.6,0.6-0.6,1.7,0,2.4c0.6,0.6,1.7,0.6,2.4,0l1.6-1.6v58.5l-1.6-1.6c-0.6-0.6-1.7-0.6-2.4,0
	c-0.6,0.6-0.6,1.7,0,2.4l4.5,4.5c0.3,0.3,0.8,0.5,1.2,0.5s0.9-0.2,1.2-0.5l4.5-4.5C22.1,72.5,22.1,71.4,21.5,70.8z M73.8,84.4H32.4
	l1.2-1.2c0.6-0.6,0.6-1.7,0-2.4c-0.6-0.6-1.7-0.6-2.4,0l-4.1,4.1c-0.6,0.6-0.6,1.7,0,2.4l4.1,4.1c0.3,0.3,0.8,0.5,1.2,0.5
	s0.9-0.2,1.2-0.5c0.6-0.6,0.6-1.7,0-2.4l-1.2-1.2h41.3c0.9,0,1.7-0.7,1.7-1.7S74.7,84.4,73.8,84.4z M80.6,84.4H80
	c-0.9,0-1.7,0.7-1.7,1.7s0.7,1.7,1.7,1.7h0.7c0.9,0,1.7-0.7,1.7-1.7C82.3,85.1,81.5,84.4,80.6,84.4z M89.9,84.9l-4.1-4.1
	c-0.7-0.6-1.7-0.6-2.4,0c-0.6,0.6-0.6,1.7,0,2.4l2.9,2.9l-2.9,2.9c-0.6,0.6-0.6,1.7,0,2.4c0.3,0.3,0.8,0.5,1.2,0.5s0.9-0.2,1.2-0.5
	l4.1-4.1c0.3-0.3,0.5-0.7,0.5-1.2C90.4,85.6,90.2,85.2,89.9,84.9z"/>
</svg>
