<?xml version="1.0" encoding="utf-8"?>
<!-- Generator: Adobe Illustrator 24.3.0, SVG Export Plug-In . SVG Version: 6.00 Build 0)  -->
<svg version="1.1" id="Layer_1" xmlns="http://www.w3.org/2000/svg" xmlns:xlink="http://www.w3.org/1999/xlink" x="0px" y="0px"
	 viewBox="0 0 100 100" style="enable-background:new 0 0 100 100;" xml:space="preserve">
<style type="text/css">
	.st0{fill:url(#SVGID_1_);}
</style>
<g>
	<g>
		<linearGradient id="SVGID_1_" gradientUnits="userSpaceOnUse" x1="2.4211" y1="50" x2="97.5789" y2="50">
			<stop  offset="0" style="stop-color:#00E7ED"/>
			<stop  offset="0.4615" style="stop-color:#51C1F0"/>
			<stop  offset="1" style="stop-color:#8776FF"/>
		</linearGradient>
		<path class="st0" d="M89.9,31.58c-3.71,0-6.81,2.64-7.52,6.14H67.65l2.3-3.07c1.98-2.64,3.07-5.91,3.07-9.21
			c0-8.46-6.89-15.35-15.35-15.35c-8.46,0-15.35,6.89-15.35,15.35c0,3.3,1.09,6.57,3.07,9.21l2.3,3.07H17.61
			c-0.71-3.5-3.81-6.14-7.52-6.14c-4.23,0-7.67,3.44-7.67,7.67v42.97c0,4.23,3.44,7.67,7.67,7.67H89.9c4.23,0,7.67-3.44,7.67-7.67
			V39.26C97.58,35.02,94.14,31.58,89.9,31.58z M76.09,40.79h6.14v18.42h-4.6c-0.85,0-1.53-0.69-1.53-1.53V40.79z M45.4,25.44
			c0-6.77,5.51-12.28,12.28-12.28s12.28,5.51,12.28,12.28c0,2.64-0.87,5.26-2.46,7.37l-9.82,13.09l-9.82-13.09
			C46.27,30.7,45.4,28.08,45.4,25.44z M62.28,48.47L62.28,48.47c0,1.66-2.11,3.07-4.6,3.07s-4.6-1.41-4.6-3.07
			c0-0.74,0.44-1.45,1.18-2.01l2.2,2.93c0.29,0.39,0.74,0.61,1.23,0.61s0.94-0.23,1.23-0.61l2.2-2.93
			C61.83,47.02,62.28,47.73,62.28,48.47z M46.93,40.79H50l2.4,3.2c-1.51,1.14-2.4,2.75-2.4,4.47c0,3.39,3.44,6.14,7.67,6.14
			s7.67-2.75,7.67-6.14c0-1.73-0.89-3.33-2.4-4.47l2.4-3.2h1.53v16.88c0,0.85-0.69,1.53-1.53,1.53h-30.7
			c-0.85,0-1.53-0.69-1.53-1.53v-1.96l6.47-2.16c4.39-1.46,7.35-5.56,7.35-10.19V40.79z M17.77,40.79h19.95v1.29
			c0,1.32-0.84,2.49-2.1,2.91l-7.51,2.5c-2.51,0.84-4.2,3.18-4.2,5.82v4.36c0,0.85-0.69,1.53-1.53,1.53h-4.6V40.79z M5.49,39.26
			c0-2.54,2.07-4.6,4.6-4.6s4.6,2.07,4.6,4.6v36.84c-1.28-0.97-2.88-1.54-4.6-1.54c-1.73,0-3.32,0.57-4.6,1.54V39.26z M16.98,86.84
			H10.1c-2.54,0-4.6-2.07-4.6-4.6s2.07-4.6,4.6-4.6s4.6,2.07,4.6,4.6c0,0.85,0.69,1.53,1.53,1.53s1.53-0.69,1.53-1.53V68.42h6.1
			c-0.29,6.15-2.32,12.02-5.92,17.06L16.98,86.84z M40.79,86.84h-12.6c3.18-5.62,4.87-11.92,4.93-18.42h7.68V86.84z M66.88,86.84H50
			V69.95c0-0.85,0.69-1.53,1.53-1.53h13.81c0.85,0,1.53,0.69,1.53,1.53V86.84z M73.02,83.77v3.07h-3.07V69.95
			c0-2.54-2.07-4.6-4.6-4.6H51.53c-2.54,0-4.6,2.07-4.6,4.6v16.88h-3.07V66.88c0-0.85-0.69-1.53-1.53-1.53H31.58
			c-0.85,0-1.53,0.69-1.53,1.53v1.21c0,6.67-1.9,13.12-5.46,18.74h-3.86c4.08-5.89,6.25-12.77,6.25-19.95
			c0-0.85-0.69-1.53-1.53-1.53h-7.67v-3.07h4.6c2.54,0,4.6-2.07,4.6-4.6v-4.36c0-1.32,0.84-2.49,2.1-2.91l7.51-2.5
			c2.51-0.84,4.2-3.18,4.2-5.82v-1.29h3.07v2.57c0,3.31-2.11,6.23-5.25,7.28l-6.47,2.15c-1.26,0.42-2.1,1.59-2.1,2.91v1.96
			c0,2.54,2.07,4.6,4.6,4.6h30.7c2.54,0,4.6-2.07,4.6-4.6V40.79h3.07v16.88c0,2.54,2.07,4.6,4.6,4.6h4.6v3.07h-6.14
			c-1.69,0-3.07,1.38-3.07,3.07v6.14c0,1.69,1.38,3.07,3.07,3.07h6.14v3.07h-6.14C74.4,80.7,73.02,82.07,73.02,83.77z M82.23,68.42
			v6.14h-6.14v-6.14H82.23z M89.9,86.84H76.09v-3.07h7.67c0.85,0,1.53-0.69,1.53-1.53c0-2.54,2.07-4.6,4.6-4.6s4.6,2.07,4.6,4.6
			S92.44,86.84,89.9,86.84z M94.51,76.09c-1.28-0.97-2.88-1.54-4.6-1.54c-1.73,0-3.32,0.57-4.6,1.54V39.26c0-2.54,2.07-4.6,4.6-4.6
			s4.6,2.07,4.6,4.6V76.09z M57.67,31.58c4.23,0,7.67-3.44,7.67-7.67c0-4.23-3.44-7.67-7.67-7.67S50,19.68,50,23.91
			C50,28.14,53.44,31.58,57.67,31.58z M57.67,19.3c2.54,0,4.6,2.07,4.6,4.6s-2.07,4.6-4.6,4.6s-4.6-2.07-4.6-4.6
			S55.14,19.3,57.67,19.3z"/>
	</g>
</g>
</svg>
