<?xml version="1.0" encoding="utf-8"?>
<!-- Generator: Adobe Illustrator 25.2.0, SVG Export Plug-In . SVG Version: 6.00 Build 0)  -->
<svg version="1.1" id="Layer_1" xmlns="http://www.w3.org/2000/svg" xmlns:xlink="http://www.w3.org/1999/xlink" x="0px" y="0px"
	 viewBox="0 0 100 100" style="enable-background:new 0 0 100 100;" xml:space="preserve">
<path d="M76.9,50c5.1-0.5,9.2-4.9,9.2-10.2c0-5.6-4.6-10.2-10.2-10.2c-5.6,0-10.2,4.6-10.2,10.2c0,5.3,4,9.6,9.2,10.2
	c-2.9,0.2-5.5,1-7.9,2.3c-4.4-4.8-10.2-7.2-16.2-7.4c6.7-0.4,12-6,12-12.9c0-7.1-5.8-12.8-12.8-12.8S37.2,25,37.2,32
	c0,6.7,5.3,12.4,12,12.9c-5.9,0.2-11.8,2.7-16.2,7.4c-2.4-1.4-5-2.1-7.8-2.3c5.1-0.5,9.2-4.9,9.2-10.2c0-5.6-4.6-10.2-10.2-10.2
	c-5.6,0-10.2,4.6-10.2,10.2c0,5.3,4,9.6,9.2,10.2c-9.5,0.6-17,8.4-17,18v7.7c0,1.4,1.1,2.6,2.6,2.6h18.1c0,1.4,1.1,2.6,2.6,2.6h41.1
	c1.4,0,2.6-1.1,2.6-2.6h18.1c1.4,0,2.6-1.1,2.6-2.6V68C93.8,58.4,86.3,50.6,76.9,50z M70.7,39.9c0-2.8,2.3-5.1,5.1-5.1
	s5.1,2.3,5.1,5.1c0,2.8-2.3,5.1-5.1,5.1S70.7,42.7,70.7,39.9z M42.3,32c0-4.2,3.5-7.7,7.7-7.7s7.7,3.5,7.7,7.7s-3.5,7.7-7.7,7.7
	S42.3,36.2,42.3,32z M19.1,39.9c0-2.8,2.3-5.1,5.1-5.1s5.1,2.3,5.1,5.1c0,2.8-2.3,5.1-5.1,5.1S19.1,42.7,19.1,39.9z M26.9,73.1H11.3
	V68c0-9.6,10.1-15.7,18.6-11.5C25.7,63.7,27.1,69.9,26.9,73.1z M68,75.7H32V68c0-9.9,8.1-18,18-18s18,8.1,18,18V75.7z M88.7,73.1
	H73.1c-0.3-3.2,1.1-9.3-3-16.6c8.5-4.3,18.6,1.9,18.6,11.5V73.1z"/>
</svg>
