<svg id="Layer_1" data-name="Layer 1" xmlns="http://www.w3.org/2000/svg" viewBox="0 0 100 100"><defs><style>.cls-1,.cls-2{fill:#1d1d1b;stroke:#1d1d1b;stroke-miterlimit:10;}.cls-1{stroke-width:0.5px;}</style></defs><path class="cls-1" d="M99.21,29.67s0,0,0,0,0,0,0,0a.43.43,0,0,0,0-.16.15.15,0,0,0,0-.07v0a1.14,1.14,0,0,0-.1-.19h0a1.07,1.07,0,0,0-.16-.14l-.06,0-.16,0,0,0L84,26.93,64.63,13.15V9.21A1.59,1.59,0,0,0,63,7.62h-.46A1.59,1.59,0,0,0,61,9.21v4L46.69,24H21.28s0,0,0-.05v-5.3a1.3,1.3,0,0,0-1.3-1.3h-.5a1.3,1.3,0,0,0-1.3,1.3v5.3a1.44,1.44,0,0,0,.07.36l-.05.06-3,6.36H3A1.3,1.3,0,0,0,1.74,32v1.49a1.28,1.28,0,0,0,.9,1.22s0,0,.07.06l8.22,4.89s.05,0,.07,0V60L4.81,63.32a.66.66,0,0,0-.32.73.65.65,0,0,0,.63.5H10a1.14,1.14,0,0,0-.07.33V83.19a1.3,1.3,0,0,0,1.3,1.3H33.18v3.75a1.3,1.3,0,0,0,1.3,1.3H88.34a1.3,1.3,0,0,0,1.3-1.3V64.88a1.14,1.14,0,0,0-.06-.33h6.83a.65.65,0,0,0,.64-.57.66.66,0,0,0-.48-.72l-8.73-2.18A1.28,1.28,0,0,0,88.45,60V38.14L99,30.06a.8.8,0,0,0,.15-.17.17.17,0,0,0,0-.05A.58.58,0,0,0,99.21,29.67ZM55.61,18.91v8H44.94Zm13.08,8H64.6c0-.06,0-.11,0-.17v-12l4.14,3Zm1.08-8.51,12,8.51h-12ZM62,17.26a3.4,3.4,0,0,0,.45,0h.7a3.19,3.19,0,0,0,.45,0v9.82H62Zm.8-4.52,1,.71v3c0,.22-.25.39-.56.39h-.88c-.3,0-.55-.17-.55-.39V13.57ZM61,16.05V26.73a1,1,0,0,0,0,.17H56.68l-.08-8.73L61,14.88ZM43.3,27.94H83.94l9,1.41-58.32.27ZM62.4,8.55h.82c.28,0,.52.16.52.36v3.37a3.16,3.16,0,0,0-.87-.13,3.2,3.2,0,0,0-1,.17V8.91C61.89,8.71,62.12,8.55,62.4,8.55ZM18.87,18.61h1.74v5.3H18.87Zm.34,6.65H45l-2.24,1.68-10.44,2H29.17a.63.63,0,0,0-.58.36.66.66,0,0,0,.07.69l.49.61H16.69ZM67.08,60V40.81H85V60ZM37.86,60V40.81h17.6V60Zm34.07-20.5H62.16v-3c0-.22-.11.6-.28.48H71.93Zm-11.07-3v3h-10V37H61.15C61,37.08,60.86,36.26,60.86,36.48Zm-4.1,4.33h9V60h-9ZM85,39.51H73.23V37a1.3,1.3,0,0,0-1.3-1.3h-21A1.3,1.3,0,0,0,49.6,37v2.55H37.86a1.3,1.3,0,0,0-1.3,1.3V60H35.29V34.82a1.92,1.92,0,0,0-.17-.76h52V60h-.89V40.81A1.3,1.3,0,0,0,85,39.51ZM24,60H19.49V42.42H24Zm1.3-17.59H28.8V60H25.33V42.42Zm4.77,0h3.6V60H30.1V42.42Zm3.6-1.3H19.49a1.3,1.3,0,0,0-1.3,1.3V60H12.3V34.82H33.7ZM3,32H30.28l.17.2v1.29H3Zm2.24,2.79H11s0,0,0,0v3.37ZM11.65,61.1a1.22,1.22,0,0,0,.65.21H34a1.18,1.18,0,0,0,.5-.11,1.26,1.26,0,0,0,.51.11h2.66l-6.37,1.94H7.69Zm-.39,22.09V64.88H33.18v1.36H17.58a1.3,1.3,0,0,0-1.3,1.3V83.19Zm16.4,0H23.82V67.54h3.84V83.19ZM17.58,67.54h4.93V83.19H17.58ZM29,83.19h0V67.54h4.22V83.19Zm43.28,4.92H66.77V67.54h5.47ZM65.47,67.54V88.11h-9V67.54h9Zm-10.32,0V88.11H50.59V67.54Zm33.19,20.7H73.51s0-.09,0-.13V67.54a1.3,1.3,0,0,0-1.3-1.3H50.59a1.3,1.3,0,0,0-1.3,1.3V88.11s0,.08,0,.13H34.48V83.42a1.89,1.89,0,0,0,.05-.23V67.54h0V64.88H88.34Zm-52.59-25L42,61.35l.08,0H83.5l.11,0,7.53,1.89ZM88.45,36.5V34.21a1.3,1.3,0,0,0-1.3-1.3H35a1.28,1.28,0,0,0-1.08.61H31.74s0,0,0,0V32.1a.63.63,0,0,0-.06-.38,1.27,1.27,0,0,0-.65-.87l-.52-.65H96.67Z"/><path class="cls-2" d="M37.6,81.65h8.82a1,1,0,0,0,1-1.05V69.41a1,1,0,0,0-1-1H37.6a1,1,0,0,0-1.05,1V80.6A1,1,0,0,0,37.6,81.65Zm0-12.24h8.82V80.6H37.6Z"/><path class="cls-2" d="M76.37,81.65h8.82a1,1,0,0,0,1-1.05V69.41a1,1,0,0,0-1-1H76.37a1,1,0,0,0-1,1V80.6A1,1,0,0,0,76.37,81.65Zm0-12.24h8.82V80.6H76.37Z"/></svg>