<svg id="Layer_1" data-name="Layer 1" xmlns="http://www.w3.org/2000/svg" viewBox="0 0 100 100"><path d="M84.73,71.09H78.35a4.94,4.94,0,0,0-4.78-3.72V58.65a6.12,6.12,0,0,0,3.72,1.27,6.21,6.21,0,0,0,6.2-6.2,5.81,5.81,0,0,0-.12-1.17A6.16,6.16,0,0,0,84,43a6.09,6.09,0,0,0-.86-7.05,5.86,5.86,0,0,0,.37-2.06A6.21,6.21,0,0,0,78,27.72a6.17,6.17,0,0,0-11.37,0,6.21,6.21,0,0,0-5.48,6.16,6.09,6.09,0,0,0,.37,2.06,6.08,6.08,0,0,0-1.35,2.48A8,8,0,0,0,55,36.36a8.39,8.39,0,0,0-6.23,3A7.25,7.25,0,0,0,46.64,35l-3.57-3.58h5.69V28.9a3.66,3.66,0,0,0-1.55-3A32.53,32.53,0,0,1,36.75,13.39a3.17,3.17,0,0,0-5.75,0A32.53,32.53,0,0,1,20.54,25.93a3.66,3.66,0,0,0-1.55,3v2.49h5.69L21.11,35A7.24,7.24,0,0,0,19,40.08v1.24h5.69l-3.57,3.57A7.25,7.25,0,0,0,19,50v1.24H32.63v5a6.2,6.2,0,0,0-6.15,5.48A6.19,6.19,0,0,0,24,71.09a3.73,3.73,0,0,0-3.72,3.72A1.24,1.24,0,0,1,19,76.05H15.27a3.72,3.72,0,1,0,0,7.44H21.7a3.64,3.64,0,0,0-.23,1.24,3.73,3.73,0,0,0,3.72,3.72H73.57a3.72,3.72,0,1,0,0-7.44H69.85a1.24,1.24,0,1,1,0-2.48H84.73a3.72,3.72,0,1,0,0-7.44Zm-9,0H59.05A2.46,2.46,0,0,1,60.35,70l.86-.3,0-.91a.62.62,0,0,0,0-.18,3.71,3.71,0,0,1,7-1.82l.29.53.6.09a2.47,2.47,0,0,1,2,1.79l.36,1.35,1.3-.52a2.49,2.49,0,0,1,3,1.06ZM56.2,63.53C59,63.05,61.38,61,63,58.05a6.24,6.24,0,0,0,4.42,1.87,6.12,6.12,0,0,0,3.72-1.27v6.94a4.86,4.86,0,0,0-1.12-.5A6.18,6.18,0,0,0,58.71,68a5,5,0,0,0-2.35,3.06H56.2ZM63.8,37.2l.81-.65-.5-.91a3.69,3.69,0,0,1,3.17-5.49l1.21.06.25-1a3.7,3.7,0,0,1,7.18,0l.25,1,1,0c.07,0,.13,0,.12,0A3.73,3.73,0,0,1,81,33.88a3.69,3.69,0,0,1-.47,1.76l-.5.91.81.65a3.65,3.65,0,0,1,.5,5.27l-.95,1.12,1.26.75a3.69,3.69,0,0,1-.28,6.52l-1,.49.4,1.06a3.72,3.72,0,1,1-7.19,1.31V50.44l4.69-5.87L76.32,43l-2.75,3.44V33.88H71.09V41.5l-2.76-3.44L66.4,39.61l4.69,5.87v8.24a3.72,3.72,0,0,1-7,1.7A17.84,17.84,0,0,0,64.88,50a16.73,16.73,0,0,0-2.48-9v-.93a3.7,3.7,0,0,1,1.4-2.88ZM55,38.84c4.11,0,7.44,5,7.44,11.16,0,5.52-2.68,10.11-6.2,11V51.68l4.69-5.87L59,44.26,56.2,47.7V43.8H53.72v9.55l-2.69-4L49,50.69l4.75,7.13V61c-3.51-.89-6.2-5.48-6.2-11,0-6.16,3.34-11.16,7.44-11.16Zm-7.65,2.48A15.18,15.18,0,0,0,46,44.23l-2.91-2.91ZM22.86,46.64l5.33-5.32h2V38.84H21.64a4.86,4.86,0,0,1,1.22-2.12l5.33-5.33h2V28.91H21.47a1.21,1.21,0,0,1,.51-1A35,35,0,0,0,33.25,14.45a.7.7,0,0,1,1.25,0A35,35,0,0,0,45.77,27.94a1.21,1.21,0,0,1,.51,1H37.6v2.48h2l5.33,5.33a4.68,4.68,0,0,1,1.22,2.12H37.6v2.48h2l5.33,5.32a5.2,5.2,0,0,1,.38.44c-.08.55-.15,1.11-.19,1.68H21.64A4.86,4.86,0,0,1,22.86,46.64Zm12.26,4.6h10c.42,6.38,4.05,11.49,8.64,12.29v7.56h-5a6.19,6.19,0,0,0-4.94-9.93,5.81,5.81,0,0,0-1.17.12,6.14,6.14,0,0,0-5-2.6h0a6.34,6.34,0,0,0-2.45-1.94ZM28,63.77l1-.24,0-1c0-.06,0-.12,0-.12h0a3.71,3.71,0,0,1,7-1.81l.52.73.84-.12c.13,0,.25,0,.38,0a3.67,3.67,0,0,1,3.33,2.12l.5,1,1.06-.4a3.71,3.71,0,0,1,3.77,6.26l-.72.93H27.32l-.87-.93A3.71,3.71,0,0,1,28,63.77ZM84.73,76.05H69.85a3.73,3.73,0,0,0-3.73,3.72A3.64,3.64,0,0,0,66.35,81H63.64v2.48h9.93a1.24,1.24,0,1,1,0,2.48H25.19a1.24,1.24,0,0,1,0-2.48h7.44V81H15.27a1.24,1.24,0,0,1,0-2.48H19a3.73,3.73,0,0,0,3.72-3.72A1.24,1.24,0,0,1,24,73.57H84.73a1.24,1.24,0,0,1,0,2.48Z"/><path d="M40.08,79.15a3.1,3.1,0,0,0-3.1-3.1H32.63v2.48H37a.62.62,0,0,1,.62.62,3.1,3.1,0,0,0,3.1,3.1H45V79.77H40.7A.62.62,0,0,1,40.08,79.15Z"/></svg>