<?xml version="1.0" ?>
<!-- Uploaded to: SVG Repo, www.svgrepo.com, Generator: SVG Repo Mixer Tools -->
<svg width="800px" height="800px" viewBox="0 0 24 24" version="1.1" xml:space="preserve" xmlns="http://www.w3.org/2000/svg" xmlns:xlink="http://www.w3.org/1999/xlink">
<style type="text/css">
	.st0{opacity:0.2;fill:none;stroke:#000000;stroke-width:5.000000e-02;stroke-miterlimit:10;}
</style>
<g id="Layer_Grid"/>
<g id="Layer_2">
<path d="M3.6,18.9C3.7,19,3.9,19,4,19c0.4,0,0.7-0.2,0.9-0.6L10.5,7h3.1l5.6,11.4c0.2,0.4,0.5,0.6,0.9,0.6c0.1,0,0.3,0,0.4-0.1   c0.5-0.2,0.7-0.8,0.5-1.3L15.8,7H19c0.6,0,1-0.4,1-1s-0.4-1-1-1H5C4.4,5,4,5.4,4,6s0.4,1,1,1h3.2L3.1,17.6   C2.9,18.1,3.1,18.7,3.6,18.9z"/>
<path d="M13,10c0-0.6-0.4-1-1-1s-1,0.4-1,1v1c0,0.6,0.4,1,1,1s1-0.4,1-1V10z"/>
<path d="M12,14c-0.6,0-1,0.4-1,1v1c0,0.6,0.4,1,1,1s1-0.4,1-1v-1C13,14.4,12.6,14,12,14z"/>
</g>
</svg>