<?xml version="1.0" encoding="utf-8"?>
<!-- Generator: Adobe Illustrator 25.2.0, SVG Export Plug-In . SVG Version: 6.00 Build 0)  -->
<svg version="1.1" id="Capa_1" xmlns="http://www.w3.org/2000/svg" xmlns:xlink="http://www.w3.org/1999/xlink" x="0px" y="0px"
	 viewBox="0 0 100 100" style="enable-background:new 0 0 100 100;" xml:space="preserve">
<path d="M90.9,46.7L43.6,19.6c-3.7-2.1-8.6-1-11.1,2.5l-9.2,13.1c-0.9,1.3-1.4,2.8-1.4,4.4c0,2.7,1.5,5.2,3.8,6.6l10,5.8l-1.8,2.4
	c-1,1.3-1.5,2.9-1.5,4.5c0,1.7,0.6,3.2,1.6,4.6l-2.7,4H18.5v-5.3c0-1-0.8-1.7-1.7-1.7h-7c-1,0-1.7,0.8-1.7,1.7v17.5
	c0,1,0.8,1.7,1.7,1.7h7c1,0,1.7-0.8,1.7-1.7V78h12.9c3.5,0,6.8-1.7,8.7-4.7L43,69c0.6,0.1,1.1,0.2,1.7,0.2c2.8,0,5.4-1.5,6.8-3.9
	l1.9-3.2l14.9,8.6c0.3,0.2,0.6,0.2,0.9,0.2c0.2,0,0.3,0,0.5-0.1c0.5-0.1,0.8-0.5,1.1-0.9l1.3-2.6c0.2,0,0.4,0.1,0.6,0.1
	c6.7,0,12.2-5.5,12.2-12.2c0-0.7-0.1-1.5-0.3-2.3l6.3-3.1c0.6-0.3,0.9-0.9,1-1.5C91.8,47.6,91.5,47,90.9,46.7z M15,77.9h-3.5V64H15
	V77.9L15,77.9z M37.2,71.3c-1.3,1.9-3.5,3.1-5.8,3.1H18.5V71h12.9c1.2,0,2.3-0.6,2.9-1.6l2.4-3.6l3,1.8L37.2,71.3z M48.5,63.5
	c-1.2,2-4.1,2.8-6.1,1.5l-4.5-2.6c-1.2-0.7-2-2.1-2-3.5c0-0.9,0.3-1.7,0.8-2.4l2.1-2.7l11.5,6.7L48.5,63.5z M68.4,66.8L27.5,43.2
	c-1.3-0.7-2.1-2.1-2.1-3.6c0-0.9,0.3-1.7,0.7-2.4l4.4-6.3l43.2,24.9L68.4,66.8z M73.7,63.9l3.7-7.3l3.9-1.9c0,0.2,0.1,0.4,0.1,0.6
	C81.3,59.7,78,63.3,73.7,63.9z M76.1,53.3L32.6,28.1l2.8-4c0.9-1.3,2.4-2.1,4-2.1c0.9,0,1.7,0.2,2.4,0.6L86.3,48L76.1,53.3z
	 M65.6,57c0.9,0,1.7,0.8,1.7,1.7s-0.8,1.7-1.7,1.7s-1.7-0.8-1.7-1.7S64.7,57,65.6,57z"/>
</svg>
