<?xml version="1.0" encoding="utf-8"?>
<!-- Generator: Adobe Illustrator 25.2.1, SVG Export Plug-In . SVG Version: 6.00 Build 0)  -->
<svg version="1.1" id="Layer_1" xmlns="http://www.w3.org/2000/svg" xmlns:xlink="http://www.w3.org/1999/xlink" x="0px" y="0px"
	 viewBox="0 0 100 100" style="enable-background:new 0 0 100 100;" xml:space="preserve">
<path d="M93.4,44c0.3,0.1,0.6,0.2,0.9,0.2c0.3,0,0.6-0.1,0.9-0.3c0.6-0.3,0.9-0.9,0.9-1.5v-9.7c0-0.7-0.4-1.3-0.9-1.6l-44.3-25
	c-0.5-0.3-1.2-0.3-1.8,0l-44.3,25c-0.6,0.3-0.9,0.9-0.9,1.6v9.7c0,1,0.8,1.8,1.8,1.8c0.3,0,0.6-0.1,0.9-0.2l5.8-3.3V82H5.7
	c-1,0-1.8,0.8-1.8,1.8v8.5c0,1,0.8,1.7,1.8,1.7h36.2c1,0,1.8-0.8,1.8-1.8c0-1-0.8-1.8-1.8-1.8c0,0,0,0,0,0H7.5v-4.8h85v4.9H58.1
	c-1,0-1.8,0.8-1.8,1.8c0,1,0.8,1.8,1.8,1.8c0,0,0,0,0,0h36.2c1,0,1.8-0.8,1.8-1.8v-8.5c0-1-0.8-1.8-1.8-1.8h-6.7V40.8L93.4,44z
	 M7.5,33.8L50,9.8l42.5,24v5.6L50.9,15.9c-0.5-0.3-1.2-0.3-1.8,0L7.5,39.4V33.8z M84,82H16V38.8l34-19.2l34,19.2V82z M50,90.4
	c1,0,1.8,0.8,1.8,1.8S51,94,50,94s-1.8-0.8-1.8-1.8S49,90.4,50,90.4z M41.8,39.8c-1.5,1.5-2.6,3.3-3.1,5.3c-3.9-1.3-8.2,0.8-9.5,4.8
	c-1.3,3.9,0.8,8.2,4.8,9.5c0.8,0.3,1.6,0.4,2.4,0.4h1.1v4.1l-4.8,1.6c-1.8-2.4-5.2-2.8-7.6-0.9c-2.4,1.8-2.8,5.2-0.9,7.6
	c1.8,2.4,5.2,2.8,7.6,0.9c1.3-1,2-2.5,2.1-4.2l6-2c0.7-0.3,1.2-0.9,1.2-1.7v-5.4h7.2v3.9c-2.8,1-4.3,4.1-3.3,6.9
	c1,2.8,4.1,4.3,6.9,3.3s4.3-4.1,3.3-6.9c-0.5-1.5-1.8-2.7-3.3-3.3v-3.9H59v5.4c0,0.8,0.5,1.5,1.2,1.7l6,2c0.1,3,2.5,5.4,5.5,5.3
	c3-0.1,5.4-2.5,5.3-5.5c-0.1-3-2.5-5.4-5.5-5.3c-1.6,0-3.2,0.8-4.2,2.1l-4.8-1.6v-4.1h1.1c4.2,0,7.5-3.4,7.5-7.5s-3.4-7.5-7.5-7.5
	c-0.8,0-1.6,0.1-2.4,0.4c-1.7-6.2-8.1-10-14.3-8.3C45,37.4,43.2,38.4,41.8,39.8z M28.4,70.6c-1,0-1.8-0.8-1.8-1.8
	c0-1,0.8-1.8,1.8-1.8s1.8,0.8,1.8,1.8S29.4,70.6,28.4,70.6L28.4,70.6z M50,70.6c-1,0-1.8-0.8-1.8-1.8c0-1,0.8-1.8,1.8-1.8
	c1,0,1.8,0.8,1.8,1.8C51.8,69.8,51,70.6,50,70.6z M71.6,67c1,0,1.8,0.8,1.8,1.8s-0.8,1.8-1.8,1.8s-1.8-0.8-1.8-1.8S70.6,67,71.6,67
	L71.6,67z M58.1,48c0,0.7,0.4,1.3,1.1,1.6c0.6,0.3,1.4,0.2,1.9-0.3c1.6-1.4,4.1-1.3,5.5,0.4c1.4,1.6,1.3,4.1-0.4,5.5
	c-0.7,0.6-1.6,1-2.6,1H36.3c-2.2,0-3.9-1.8-3.9-3.9s1.8-3.9,3.9-3.9c0.9,0,1.9,0.3,2.6,1c0.5,0.5,1.3,0.6,1.9,0.3
	c0.6-0.3,1.1-0.9,1.1-1.6c0-4.5,3.6-8.1,8.1-8.1C54.5,39.9,58.1,43.5,58.1,48z"/>
</svg>
