<svg xmlns="http://www.w3.org/2000/svg" width="64" height="32" viewBox="0 0 64 32">
  <!-- First Icon (Left) -->
  <g transform="translate(0,0)">
    <path fill="#cc2b1d" d="M1 11H31V21H1z"></path>
    <path d="M5,4H27c2.208,0,4,1.792,4,4v4H1v-4c0-2.208,1.792-4,4-4Z"></path>
    <path d="M5,20H27c2.208,0,4,1.792,4,4v4H1v-4c0-2.208,1.792-4,4-4Z" transform="rotate(180 16 24)" fill="#f8d147"></path>
    <path d="M27,4H5c-2.209,0-4,1.791-4,4V24c0,2.209,1.791,4,4,4H27c2.209,0,4-1.791,4-4V8c0-2.209-1.791-4-4-4Zm3,20c0,1.654-1.346,3-3,3H5c-1.654,0-3-1.346-3-3V8c0-1.654,1.346-3,3-3H27c1.654,0,3,1.346,3,3V24Z" opacity=".15"></path>
    <path d="M27,5H5c-1.657,0-3,1.343-3,3v1c0-1.657,1.343-3,3-3H27c1.657,0,3,1.343,3,3v-1c0-1.657-1.343-3-3-3Z" fill="#fff" opacity=".2"></path>
  </g>

  <!-- Second Icon (Right) -->
  <g transform="translate(32,0)">
    <path fill="#fff" d="M10 4H22V28H10z"></path>
    <path d="M5,4h6V28H5c-2.208,0-4-1.792-4-4V8c0-2.208,1.792-4,4-4Z" fill="#2c6748"></path>
    <path d="M25,4h6V28h-6c-2.208,0-4-1.792-4-4V8c0-2.208,1.792-4,4-4Z" transform="rotate(180 26 16)" fill="#be2a2c"></path>
    <path d="M27,4H5c-2.209,0-4,1.791-4,4V24c0,2.209,1.791,4,4,4H27c2.209,0,4-1.791,4-4V8c0-2.209-1.791-4-4-4Zm3,20c0,1.654-1.346,3-3,3H5c-1.654,0-3-1.346-3-3V8c0-1.654,1.346-3,3-3H27c1.654,0,3,1.346,3,3V24Z" opacity=".15"></path>
    <path d="M27,5H5c-1.657,0-3,1.343-3,3v1c0-1.657,1.343-3,3-3H27c1.657,0,3,1.343,3,3v-1c0-1.657-1.343-3-3-3Z" fill="#fff" opacity=".2"></path>
  </g>
</svg>
