<?xml version="1.0" encoding="UTF-8"?>
<svg id="Layer_1" data-name="Layer 1" xmlns="http://www.w3.org/2000/svg" viewBox="0 0 17.9 17.9">
  <defs>
    <style>
      .cls-1 {
        fill: #5e5bca;
        stroke-width: 0px;
      }
    </style>
  </defs>
  <path class="cls-1" d="M16.34,6.51L2.96.21C2.2-.16,1.31-.03.68.53.05,1.09-.16,1.97.13,2.76c.01.03,3.29,6.19,3.29,6.19,0,0-3.22,6.15-3.23,6.19-.29.79-.07,1.67.56,2.23.39.35.88.53,1.37.53.31,0,.61-.07.9-.21l13.33-6.29c.96-.45,1.55-1.39,1.55-2.44,0-1.06-.6-2-1.55-2.44h0ZM1.51,2.21c-.09-.31.1-.51.17-.57.07-.06.31-.24.62-.09,0,0,13.41,6.31,13.41,6.31.18.08.33.2.44.34H4.71L1.51,2.21ZM15.71,10.04l-13.34,6.3c-.32.16-.56-.03-.62-.09-.06-.06-.26-.26-.17-.57l3.13-5.99h11.44c-.11.15-.26.27-.45.35h0Z"/>
</svg>