<?xml version="1.0" encoding="UTF-8"?>
<svg id="Layer_2" data-name="Layer 2" xmlns="http://www.w3.org/2000/svg" viewBox="0 0 118.41 21.9">
  <defs>
    <style>
      .cls-1 {
        fill: #0094ff;
      }

      .cls-2 {
        fill: #efefef;
      }
    </style>
  </defs>
  <g id="Layer_1-2" data-name="Layer 1">
    <g>
      <g>
        <path class="cls-2" d="M19.56,10.35v11.04h-3.41c-.19-.87-.28-1.49-.28-1.87v-.34c-1.44,1.82-3.47,2.73-6.1,2.73-3.12,0-5.59-1.11-7.41-3.32-1.57-1.93-2.36-4.36-2.36-7.29C0,7.88,1.08,5.17,3.24,3.17,5.11,1.43,7.46.56,10.3.56c2.57,0,4.71.78,6.41,2.33,1.48,1.34,2.32,3.04,2.53,5.08h-5.14c-.45-2.02-1.75-3.04-3.89-3.04-1.55,0-2.74.55-3.58,1.66-.83,1.11-1.25,2.69-1.25,4.75,0,4.13,1.68,6.19,5.05,6.19,2.48,0,3.9-1.14,4.26-3.41h-3.69v-3.78h8.54Z"/>
        <path class="cls-2" d="M31.65.56c3.16,0,5.68,1.12,7.55,3.35,1.61,1.95,2.41,4.39,2.41,7.32,0,3.39-1.04,6.07-3.12,8.06-1.82,1.74-4.1,2.61-6.84,2.61-3.22,0-5.77-1.12-7.66-3.35-1.63-1.93-2.44-4.37-2.44-7.32,0-3.39,1-6.04,3.01-7.95,1.93-1.82,4.3-2.73,7.1-2.73ZM31.62,4.93c-1.53,0-2.73.64-3.58,1.93-.74,1.1-1.11,2.55-1.11,4.34,0,2.1.47,3.72,1.42,4.85.83.98,1.93,1.48,3.29,1.48,1.44,0,2.56-.56,3.38-1.69.81-1.13,1.22-2.7,1.22-4.73s-.47-3.64-1.42-4.74c-.81-.96-1.88-1.45-3.21-1.45Z"/>
      </g>
      <g>
        <g>
          <path class="cls-1" d="M48.8,13.67v7.88h-5.05V.33h8.36c1.87,0,3.29.2,4.28.6.99.4,1.87,1.11,2.65,2.14.78,1.03,1.17,2.29,1.17,3.78,0,1.05-.21,2.07-.62,3.06-.41,1-1,1.78-1.76,2.35-.76.57-1.49.95-2.2,1.13-.71.19-1.82.28-3.33.28h-3.5ZM48.63,9.81h3.23c1.23,0,2.1-.28,2.6-.85s.75-1.22.75-1.96c0-.86-.28-1.54-.83-2.05-.55-.51-1.4-.76-2.53-.76h-3.22v5.63Z"/>
          <path class="cls-1" d="M67.37,13.14v8.41h-5.01V.33h9.33c1.72,0,3.1.2,4.14.6,1.04.4,1.9,1.13,2.59,2.2.68,1.07,1.03,2.25,1.03,3.56,0,2.55-1.23,4.38-3.68,5.48l3.92,9.38h-5.49l-3.26-8.41h-3.56ZM67.37,4.1v5.41h3.05c1,0,1.72-.07,2.17-.21.45-.14.85-.45,1.2-.93.35-.48.53-1.03.53-1.66s-.18-1.12-.53-1.59c-.35-.47-.74-.75-1.15-.86-.41-.11-1.19-.16-2.33-.16h-2.94Z"/>
          <path class="cls-1" d="M90.2,21.87c-2.86,0-5.07-1.07-6.63-3.22-1.56-2.15-2.35-4.74-2.35-7.79s.79-5.68,2.38-7.76c1.58-2.07,3.84-3.11,6.77-3.11s5.2,1.11,6.7,3.32c1.51,2.21,2.26,4.74,2.26,7.59,0,3.08-.78,5.67-2.33,7.79-1.55,2.11-3.82,3.17-6.8,3.17ZM90.34,4.06c-2.61,0-3.91,2.29-3.91,6.87s1.3,6.89,3.91,6.89,3.79-2.29,3.79-6.87-1.26-6.89-3.79-6.89Z"/>
          <path class="cls-1" d="M107,13.67v7.88h-5.05V.33h8.36c1.87,0,3.29.2,4.28.6.99.4,1.87,1.11,2.65,2.14.78,1.03,1.17,2.29,1.17,3.78,0,1.05-.21,2.07-.62,3.06-.41,1-1,1.78-1.76,2.35-.76.57-1.49.95-2.2,1.13-.71.19-1.82.28-3.33.28h-3.5ZM106.83,9.81h3.23c1.23,0,2.1-.28,2.6-.85.5-.57.75-1.22.75-1.96,0-.86-.28-1.54-.83-2.05-.55-.51-1.4-.76-2.53-.76h-3.22v5.63Z"/>
        </g>
        <g>
          <path class="cls-1" d="M48.8,13.67v7.88h-5.05V.33h8.36c1.87,0,3.29.2,4.28.6.99.4,1.87,1.11,2.65,2.14.78,1.03,1.17,2.29,1.17,3.78,0,1.05-.21,2.07-.62,3.06-.41,1-1,1.78-1.76,2.35-.76.57-1.49.95-2.2,1.13-.71.19-1.82.28-3.33.28h-3.5ZM48.63,9.81h3.23c1.23,0,2.1-.28,2.6-.85s.75-1.22.75-1.96c0-.86-.28-1.54-.83-2.05-.55-.51-1.4-.76-2.53-.76h-3.22v5.63Z"/>
          <path class="cls-1" d="M67.37,13.14v8.41h-5.01V.33h9.33c1.72,0,3.1.2,4.14.6,1.04.4,1.9,1.13,2.59,2.2.68,1.07,1.03,2.25,1.03,3.56,0,2.55-1.23,4.38-3.68,5.48l3.92,9.38h-5.49l-3.26-8.41h-3.56ZM67.37,4.1v5.41h3.05c1,0,1.72-.07,2.17-.21.45-.14.85-.45,1.2-.93.35-.48.53-1.03.53-1.66s-.18-1.12-.53-1.59c-.35-.47-.74-.75-1.15-.86-.41-.11-1.19-.16-2.33-.16h-2.94Z"/>
          <path class="cls-1" d="M90.2,21.87c-2.86,0-5.07-1.07-6.63-3.22-1.56-2.15-2.35-4.74-2.35-7.79s.79-5.68,2.38-7.76c1.58-2.07,3.84-3.11,6.77-3.11s5.2,1.11,6.7,3.32c1.51,2.21,2.26,4.74,2.26,7.59,0,3.08-.78,5.67-2.33,7.79-1.55,2.11-3.82,3.17-6.8,3.17ZM90.34,4.06c-2.61,0-3.91,2.29-3.91,6.87s1.3,6.89,3.91,6.89,3.79-2.29,3.79-6.87-1.26-6.89-3.79-6.89Z"/>
          <path class="cls-1" d="M107,13.67v7.88h-5.05V.33h8.36c1.87,0,3.29.2,4.28.6.99.4,1.87,1.11,2.65,2.14.78,1.03,1.17,2.29,1.17,3.78,0,1.05-.21,2.07-.62,3.06-.41,1-1,1.78-1.76,2.35-.76.57-1.49.95-2.2,1.13-.71.19-1.82.28-3.33.28h-3.5ZM106.83,9.81h3.23c1.23,0,2.1-.28,2.6-.85.5-.57.75-1.22.75-1.96,0-.86-.28-1.54-.83-2.05-.55-.51-1.4-.76-2.53-.76h-3.22v5.63Z"/>
        </g>
      </g>
    </g>
  </g>
</svg>