<?xml version="1.0" encoding="UTF-8"?><svg id="Layer_2" xmlns="http://www.w3.org/2000/svg" viewBox="0 0 38.17 23.23"><defs><style>.cls-1{fill:#4654a7;}</style></defs><g id="Layer_1-2"><path class="cls-1" d="M14.94,9.98c.09.27.21.51.34.72.13.2.29.39.45.56.3.29.65.52,1.04.68.4.16.87.24,1.4.24.45,0,.88-.07,1.28-.22.4-.14.75-.35,1.04-.62.3-.27.53-.59.7-.96.17-.37.26-.79.26-1.23s-.08-.85-.25-1.2c-.16-.35-.39-.65-.67-.89-.28-.24-.62-.42-.99-.55-.59-.19-1.34-.24-1.89-.1-.2.05-.4.12-.57.2-.13.06-.25.13-.35.2.02-.13.05-.25.09-.37.08-.29.2-.54.35-.75.14-.2.31-.36.51-.47.45-.24,1.09-.2,1.52,0,.25.12.51.28.78.49.05.04.12.06.19.05.07,0,.13-.05.17-.1l.77-1.1c.08-.11.05-.26-.05-.34-.38-.3-.77-.53-1.18-.7-.42-.17-.91-.25-1.47-.25-.61,0-1.16.12-1.63.37-.47.25-.87.59-1.18,1.02-.31.42-.54.92-.7,1.49-.15.56-.23,1.17-.23,1.82,0,.42.02.8.07,1.13.04.33.11.63.2.9ZM16.81,8.76c.06-.15.15-.27.27-.37.12-.11.27-.2.44-.26.17-.07.38-.1.6-.1.45,0,.8.11,1.05.34h0c.25.22.37.49.37.84s-.12.65-.36.88c-.24.24-.58.35-1.03.35s-.8-.12-1.06-.35c-.25-.23-.38-.52-.38-.87,0-.16.03-.31.1-.46ZM31.78,4.86c.21.26.47.47.77.62.3.15.64.23,1.01.23s.71-.08,1.02-.23c.3-.15.56-.36.77-.62.21-.26.38-.56.49-.91.11-.34.17-.71.17-1.1s-.06-.75-.17-1.09c-.11-.34-.28-.65-.49-.91-.21-.26-.47-.47-.77-.62-.61-.3-1.42-.3-2.03,0-.3.15-.56.36-.78.62-.21.26-.37.56-.49.91-.11.34-.17.71-.17,1.1s.06.75.17,1.09c.11.34.28.65.49.91ZM32.62,2.21c.05-.19.13-.36.22-.5.09-.13.2-.23.32-.31.12-.07.25-.1.4-.1s.28.04.4.11c.13.08.24.18.33.32.1.14.17.31.22.5.05.2.08.42.08.64s-.03.44-.08.63c-.05.19-.13.36-.22.5-.09.13-.2.23-.32.31-.23.14-.57.14-.8,0-.13-.08-.24-.18-.33-.31-.1-.14-.17-.31-.22-.5-.05-.2-.08-.41-.08-.64s.03-.44.08-.64ZM32.27,7.93c-.12-.05-.27.01-.32.14-.05.12,0,.27.13.32,1.48.67,2.57,1.46,3.17,2.3.6.66.91,1.34.91,2.03,0,3.21-6.69,5.98-15.23,6.31-.11,0-.2.08-.23.18-.02.06,0,.11.02.16l-1.89-1.09-2.59-1.49c-.08-.04-.17-.04-.25,0-.08.04-.12.13-.12.22v1.93c-7.78-.59-13.62-3.25-13.62-6.22,0-.31.06-.62.2-.97.21-1.2,1.44-2.35,3.54-3.32.12-.06.18-.2.13-.32-.05-.12-.19-.19-.32-.14-3.73,1.41-5.79,3.33-5.79,5.4,0,3.69,6.66,6.79,15.86,7.39v2.22c0,.09.05.17.12.22.04.02.08.03.12.03s.09-.01.12-.03l4.67-2.7s-.02.1,0,.15c.03.1.13.17.24.17h.01c9.7-.41,17.01-3.61,17.01-7.46,0-2.09-2.09-4.03-5.9-5.44ZM21.52,20.03s.01-.03.01-.04,0-.03-.01-.04l.06.04-.06.04ZM23.32,10.86c.33.41.73.73,1.2.96.47.23.99.35,1.57.35s1.1-.12,1.57-.36c.47-.24.87-.56,1.2-.97.33-.4.58-.88.76-1.42h0c.18-.54.27-1.12.27-1.72s-.09-1.18-.26-1.72c-.17-.54-.43-1.02-.76-1.42-.33-.41-.74-.73-1.2-.96-.93-.47-2.19-.47-3.14,0-.47.24-.87.56-1.2.97-.33.4-.58.88-.76,1.42-.18.54-.27,1.12-.27,1.72s.09,1.18.26,1.72c.17.54.43,1.02.76,1.42ZM24.41,6.63c.09-.33.22-.61.38-.85.16-.23.35-.41.57-.54.21-.13.45-.19.73-.19s.51.06.73.2c.22.14.42.32.58.56.17.24.29.53.38.85.09.33.14.7.14,1.07s-.05.74-.14,1.07c-.09.33-.22.61-.38.85-.16.23-.35.42-.57.55-.43.26-1.02.25-1.46,0-.22-.13-.42-.32-.58-.55-.17-.24-.29-.53-.38-.86-.09-.33-.14-.69-.14-1.08s.05-.74.14-1.07ZM8.75,11.74c.54.29,1.2.43,1.95.43.45,0,.86-.07,1.24-.21.38-.14.71-.34.98-.59.27-.25.49-.55.64-.9.15-.35.23-.73.23-1.14s-.08-.78-.22-1.09c-.15-.3-.35-.56-.59-.76-.24-.2-.52-.36-.84-.47-.16-.06-.32-.1-.48-.14l1.94-1.99s.07-.11.07-.17v-1.07c0-.14-.11-.25-.25-.25h-5.38c-.14,0-.25.11-.25.25v1.24c0,.14.11.25.25.25h2.94l-1.8,1.92c-.06.06-.08.15-.06.23l.23.89c.03.11.13.19.24.19h.66c.53,0,.95.1,1.24.29.26.17.39.4.39.73,0,.3-.1.54-.31.71-.22.19-.5.28-.84.28-.41,0-.77-.08-1.07-.24-.31-.17-.6-.42-.88-.74-.04-.05-.11-.08-.18-.09-.08,0-.14.02-.19.07l-1,.93c-.1.09-.11.24-.02.34.37.44.83.81,1.36,1.09Z"/></g></svg>