<?xml version="1.0" encoding="UTF-8"?>
<svg xmlns="http://www.w3.org/2000/svg" version="1.1" viewBox="0 0 18.1 18.1">
  <defs>
    <style>
      .cls-1 {
        fill: #5e5bca;
      }
    </style>
  </defs>
  <!-- Generator: Adobe Illustrator 28.6.0, SVG Export Plug-In . SVG Version: 1.2.0 Build 709)  -->
  <g>
    <g id="Layer_1">
      <g id="Layer_2">
        <g id="Layer_1-2">
          <path class="cls-1" d="M18.1,11.4c-.1.3-.4.4-.7.4h-1.9v.9c0,.4-.2.6-.5.6s-.5-.2-.5-.6v-.9h-4.3c-.4,0-.6-.2-.6-.6v-1.6c0-.4.2-.6.5-.6s.5.2.5.6v1.2h6.4V1.1h-6.5v5.3c0,.3-.3.5-.6.4-.3,0-.5-.2-.5-.6V1.1H1.1v11.7h5.5c.3,0,.4.3.4.6s-.2.5-.5.5H1.1v3.2h13.3v-1c0-.3.2-.5.5-.5s.5.2.5.5v1.6c0,.3-.2.4-.4.5H.4c-.3-.1-.4-.4-.4-.7V.7C0,.2.2,0,.7,0h16.7c.3,0,.6,0,.7.4v11h0Z"/>
        </g>
      </g>
    </g>
  </g>
</svg>