<?xml version="1.0" encoding="UTF-8"?><svg id="Layer_2" xmlns="http://www.w3.org/2000/svg" viewBox="0 0 17.03 17.04"><defs><style>.cls-1{fill:#4654a7;}</style></defs><g id="Layer_1-2"><path class="cls-1" d="M9.02,17.04h-1s-.08-.03-.13-.03c-1.33-.09-2.58-.47-3.72-1.17C1.6,14.24.2,11.92.02,8.89c-.09-1.54.23-3.01.98-4.35C2.57,1.72,4.98.2,8.21.01c1.52-.09,2.97.25,4.3.99,2.4,1.32,3.87,3.34,4.39,6.03.06.32.09.66.13.98v1s-.02.09-.03.14c-.06.89-.25,1.76-.61,2.57-1.28,2.92-3.5,4.67-6.65,5.21-.24.04-.49.06-.74.09ZM8.51,15.61c3.91.01,7.08-3.15,7.1-7.07.02-3.91-3.16-7.1-7.08-7.11-3.9-.01-7.08,3.15-7.1,7.07-.02,3.91,3.16,7.1,7.08,7.11Z"/><path class="cls-1" d="M7.12,8.53c0-.83,0-1.65,0-2.48,0-.2.04-.36.23-.46.19-.1.36-.04.52.08,1.13.83,2.27,1.65,3.4,2.48.32.23.32.54,0,.77-1.14.83-2.28,1.65-3.42,2.48-.15.11-.32.17-.5.08-.19-.09-.24-.25-.24-.45,0-.83,0-1.66,0-2.5Z"/></g></svg>