<?xml version="1.0" encoding="UTF-8"?><svg id="Layer_2" xmlns="http://www.w3.org/2000/svg" viewBox="0 0 35.78 47.65"><defs><style>.cls-1{fill:#253fad;stroke:#4654a7;stroke-linecap:round;stroke-linejoin:round;stroke-width:.17px;}</style></defs><g id="Layer_1-2"><path class="cls-1" d="M17.61,47.56c-.38-.31-.77-.61-1.13-.95-4.5-4.27-8.51-8.96-11.71-14.3-1.95-3.25-3.48-6.67-4.27-10.4C-1.27,13.65,2.74,5.36,10.25,1.81c10-4.72,21.8.66,24.79,11.31,1.04,3.7.77,7.37-.32,11-1.24,4.16-3.33,7.89-5.8,11.43-2.91,4.17-6.27,7.95-10,11.42-.23.22-.5.4-.76.6h-.56ZM17.95,45.17c.21-.2.43-.41.65-.62,2.44-2.4,4.73-4.93,6.82-7.63,2.87-3.72,5.39-7.65,6.98-12.1,1.11-3.11,1.64-6.29,1.08-9.6C31.84,5.49,21.57-.43,12.38,3.05,5.05,5.83.87,13.37,2.35,21.07c.63,3.27,1.9,6.28,3.52,9.16,2.42,4.29,5.44,8.14,8.8,11.72,1.03,1.1,2.16,2.12,3.28,3.21Z"/><path class="cls-1" d="M17.6,8c5.38-.23,9.96,4.1,10.18,9.62.21,5.36-4.08,9.91-9.6,10.16-5.34.24-9.94-4.08-10.18-9.58-.24-5.38,4.07-9.97,9.6-10.21ZM17.88,25.79c4.37,0,7.9-3.51,7.91-7.88.01-4.37-3.5-7.91-7.87-7.93-4.39-.02-7.94,3.51-7.94,7.9,0,4.37,3.52,7.9,7.89,7.9Z"/></g></svg>