<?xml version="1.0" encoding="UTF-8"?><svg id="Layer_2" xmlns="http://www.w3.org/2000/svg" viewBox="0 0 45.01 43.63"><defs><style>.cls-1{fill:#253fad;}</style></defs><g id="Layer_1-2"><path class="cls-1" d="M22.46,43.63c-4.84,0-9.68,0-14.52,0-4.46,0-7.9-3.41-7.92-7.88C0,29.89,0,24.04.01,18.18c0-2.77,1.17-4.96,3.42-6.55,4.81-3.39,9.64-6.76,14.46-10.13,2.86-2,6.31-2.02,9.18-.03,4.85,3.37,9.68,6.75,14.5,10.15,2.27,1.6,3.42,3.81,3.42,6.6,0,5.82.02,11.65,0,17.47-.01,4.53-3.44,7.92-7.97,7.93-4.86,0-9.71,0-14.57,0ZM33.05,41.61c.2.01.33.03.47.03,1.49,0,2.99.01,4.48,0,2.87-.02,5.03-2.12,5.04-4.99.03-6.27.02-12.54,0-18.81,0-1.7-.74-3.06-2.12-4.03-5.17-3.64-10.34-7.26-15.53-10.87-1.85-1.28-4-1.26-5.85.03-5.12,3.58-10.24,7.16-15.36,10.75-1.5,1.05-2.26,2.49-2.25,4.33.01,1.74,0,3.47,0,5.21,0,4.41,0,8.82,0,13.23,0,2.63,1.66,4.67,4.17,5.08.8.13,1.63.07,2.44.07,1.11,0,2.22,0,3.39,0,0-.25,0-.46,0-.66,0-2.83,0-5.66,0-8.49,0-.62.03-1.25.12-1.87.81-5.94,6.78-10.06,12.65-8.74,4.89,1.1,8.25,5.22,8.32,10.24.04,2.95,0,5.91,0,8.86,0,.2,0,.41,0,.63ZM30.78,41.65c.02-.08.05.44.05.38,0-3.81.09-7.63-.05-11.43-.17-4.43-4.57-8.03-8.99-7.54-4.52.5-7.61,3.94-7.63,8.48-.01,3.37,0,6.74,0,10.11,0,.19.02-.19.03,0h16.58Z"/></g></svg>