<?xml version="1.0" encoding="UTF-8"?><svg id="Layer_2" xmlns="http://www.w3.org/2000/svg" viewBox="0 0 41.69 41.71"><defs><style>.cls-1{fill:#253fad;stroke-width:.17px;}.cls-1,.cls-2{stroke:#4654a7;stroke-linecap:round;stroke-linejoin:round;}.cls-2{fill:#fff;stroke-width:.15px;}</style></defs><g id="Layer_1-2"><path class="cls-1" d="M19.62,41.63c-.87-.12-1.74-.21-2.6-.37-2.28-.41-4.43-1.19-6.43-2.36-.32-.19-.6-.21-.95-.1-2.48.78-4.97,1.54-7.46,2.31-.04.01-.08.02-.12.03-.34.13-.67.12-.94-.15-.27-.27-.27-.59-.18-.94.72-2.6,1.44-5.2,2.16-7.8.08-.28.06-.5-.09-.76-1.46-2.41-2.39-5.02-2.75-7.82-.72-5.68.6-10.85,4.08-15.41C7.45,4.22,11.51,1.61,16.51.57c6.18-1.28,11.85-.02,16.88,3.78,4.08,3.08,6.65,7.18,7.74,12.18.19.88.27,1.79.4,2.68.02.14.05.29.07.43v2.43c-.03.29-.07.58-.1.88-.5,4.47-2.2,8.41-5.22,11.75-3.2,3.55-7.16,5.76-11.87,6.6-.78.14-1.57.22-2.36.32h-2.43Z"/><path class="cls-2" d="M26.46,33.46c-3.78-.12-7.12-1.46-10.09-3.74-3.57-2.73-6.19-6.22-7.99-10.34-1.31-2.99-1.02-5.87.57-8.66.45-.79,1.05-1.5,1.6-2.24.12-.16.33-.34.51-.36.79-.09,1.58-.15,2.37-.16.42,0,.77.24,1,.61,1.03,1.67,1.99,3.37,2.67,5.21.3.83.12,1.61-.34,2.32-.37.56-.81,1.07-1.25,1.59-.17.2-.22.37-.13.62.34.97.95,1.76,1.63,2.49,1.85,2.02,4.02,3.64,6.41,4.97.66.37.78.37,1.28-.2.72-.82,1.42-1.66,2.09-2.52.56-.72,1.24-.97,2.1-.63.42.17.82.42,1.21.66,1.36.83,2.71,1.68,4.06,2.51.65.4.73.57.58,1.33-.27,1.41-.74,2.74-1.64,3.88-1.26,1.59-2.97,2.33-4.93,2.55-.56.06-1.13.07-1.7.11ZM28.2,23.85c-.17.24-.28.41-.41.56-.66.78-1.26,1.63-2.02,2.32-1.31,1.19-1.77,1.12-3.01.48-2.96-1.54-5.55-3.54-7.65-6.15-.6-.75-1.07-1.58-1.34-2.52-.19-.67-.15-1.25.41-1.77.4-.37.73-.83,1.07-1.27.38-.49.51-1.03.19-1.62-.68-1.29-1.36-2.58-2.01-3.88-.21-.43-.51-.51-.94-.49-.59.03-1.06.2-1.36.75-.43.78-.96,1.51-1.31,2.32-.86,1.94-.94,3.92-.1,5.9,1.55,3.65,3.8,6.81,6.83,9.38,3.13,2.66,6.72,4.12,10.89,3.95,1.33-.05,2.59-.37,3.66-1.23,1.12-.9,1.65-2.14,1.95-3.5.02-.1-.09-.3-.2-.36-1.26-.81-2.53-1.6-3.81-2.4-.27-.17-.56-.31-.86-.47Z"/></g></svg>