<?xml version="1.0" encoding="UTF-8"?><svg id="Layer_2" xmlns="http://www.w3.org/2000/svg" viewBox="0 0 20.94 16.9"><defs><style>.cls-1{fill:none;}.cls-2{fill:#2941a3;}</style></defs><g id="Layer_1-2"><path class="cls-1" d="M4.49,13.79c.01.06.06.11.11.14.06.03.12.03.18,0l.77-.37,1.71.38s.03,0,.05,0c0,0,0,0,0,0,.11,0,.21-.09.21-.21,0-.07-.03-.13-.08-.17l-.84-.92.96-1.22c.05-.06.06-.15.02-.22-.04-.07-.11-.12-.19-.11l-1.62.04-.9-1.46c-.05-.07-.13-.11-.22-.09-.08.02-.15.08-.16.17l-.24,1.53-1.13.12c-.08,0-.15.07-.18.15-.02.08,0,.17.08.22l1.2.9.28,1.11ZM4.44,11.69c.09,0,.17-.08.18-.17l.18-1.14.68,1.09c.04.06.11.1.18.1l1.3-.03-.8,1.01c-.06.08-.06.19,0,.27l.54.59-1.15-.26s-.09,0-.13.02l-.61.29-.23-.94s-.04-.09-.08-.12l-.84-.63.76-.08Z"/><path class="cls-1" d="M10.48,9.54c.67,0,1.22-.55,1.22-1.22,0,0,0,0,0,0-.39-.03-.8-.06-1.23-.08-.43.02-.82.05-1.21.08,0,0,0,0,0,0,0,.67.55,1.22,1.22,1.22Z"/><path class="cls-1" d="M10.48,11.02c-.22,0-.4.18-.4.4v3.48h.8v-3.48c0-.22-.18-.4-.4-.4Z"/><path class="cls-1" d="M11.57,3.64c.01.08-.02.16-.08.2-.04.03-.08.04-.12.04-.03,0-.07,0-.1-.02l-.8-.42-.8.42c-.07.04-.15.03-.22-.02-.06-.05-.1-.12-.08-.2l.15-.89-.46-.45c-.1.21-.16.44-.16.67,0,.85.7,1.55,1.55,1.55s1.55-.7,1.55-1.55c0-.22-.06-.44-.15-.64l-.43.42.15.89Z"/><path class="cls-1" d="M9.02,7.09s.05-.01.07-.01c.23-.11.38-.26.4-.47,0-.26-.21-.46-.47-.46s-.47.21-.47.47.21.47.47.47Z"/><path class="cls-1" d="M9.03,10.86c-.02,1.32.04,3.39.06,4.03h.58v-3.48c0-.45.36-.81.81-.81s.81.36.81.81v3.48h.52c.02-.64.08-2.71.06-4.03-.02-1.16.97-1.93,1.64-2.32-.49-.08-.95-.14-1.42-.19-.02.88-.74,1.6-1.62,1.6s-1.61-.72-1.62-1.6c-.48.05-.96.11-1.46.19.67.39,1.65,1.16,1.63,2.32Z"/><path class="cls-1" d="M11.45,6.6c0,.09.04.17.09.24,0,0,0,.01.01.02,0,0,0,0,0,0,.09.08.2.13.33.13.26,0,.47-.21.47-.47s-.21-.47-.47-.47-.47.21-.47.47c0,0,0,0,0,.01,0,.02.03.03.03.06Z"/><polygon class="cls-1" points="12.01 15.31 8.9 15.31 8.89 15.31 3.28 15.31 3.27 16.49 17.69 16.49 17.69 15.31 12.02 15.31 12.01 15.31"/><path class="cls-2" d="M9.04,1.96c.08.06.1.17.05.26-.01.02-.02.05-.03.07l.46.45-.15.89c-.01.08.02.16.08.2.06.05.15.05.22.02l.8-.42.8.42s.06.02.1.02c.04,0,.09-.01.12-.04.06-.05.1-.12.08-.2l-.15-.89.43-.42s-.02-.07-.04-.11c-.05-.09-.03-.2.05-.26.08-.06.19-.06.27,0,0-.02,0-.05,0-.07-.02-.07-.09-.13-.17-.14l-.9-.13-.4-.81c-.07-.14-.3-.14-.37,0l-.4.81-.9.13c-.08.01-.14.07-.17.14,0,.02,0,.03,0,.05.07-.03.15-.04.21.01Z"/><path class="cls-2" d="M4.59,12.51l.23.94.61-.29s.09-.02.13-.02l1.15.26-.54-.59c-.07-.07-.07-.19,0-.27l.8-1.01-1.3.03c-.07,0-.14-.04-.18-.1l-.68-1.09-.18,1.14c-.01.09-.09.16-.18.17l-.76.08.84.63s.07.07.08.12Z"/><path class="cls-2" d="M20.78,9.16c-.23-.63-.92-1.7-2.95-1.79-.95-.04-1.88-.04-2.7-.03-1.1,0-2.07.01-2.74-.11.22-.16.38-.41.38-.7,0-.42-.31-.76-.71-.85.53-.46.87-1.12.87-1.88,0-.7-.3-1.37-.81-1.84,0,0,0,0,0,0,0,.05-.02.1-.05.14l-.22.22c.09.2.15.42.15.64,0,.85-.69,1.55-1.55,1.55s-1.55-.7-1.55-1.55c0-.24.06-.46.16-.67l-.19-.18s-.06-.1-.05-.16c-.02,0-.04,0-.05.02-.52.47-.81,1.14-.81,1.84,0,.79.38,1.49.96,1.95-.44.05-.78.41-.78.86,0,.25.11.48.28.64-.66.1-1.58.09-2.62.08-.82,0-1.75-.02-2.7.03-2.02.09-2.71,1.16-2.94,1.79-.37,1.01-.09,2.3.66,3,1.11,1.05,1.95,2.78,2.05,2.99l-.02,1.75h15.25v-1.81c.2-.41.99-1.97,2.02-2.93.75-.7,1.03-1.99.66-3ZM11.89,6.06c.26,0,.47.21.47.47s-.21.47-.47.47c-.13,0-.24-.05-.33-.13,0,0,0,0,0,0,0,0,0-.01-.01-.02-.05-.07-.08-.15-.09-.24,0-.02-.02-.04-.03-.06,0,0,0,0,0-.01,0-.26.21-.47.47-.47ZM9.02,6.15c.26,0,.46.21.47.46-.02.21-.17.36-.4.47-.02,0-.04.01-.07.01-.26,0-.47-.21-.47-.47s.21-.47.47-.47ZM8.85,8.35s0-.02,0-.03c0-.11.09-.21.21-.21s.2.09.2.2c.39-.03.78-.06,1.21-.08.43.02.84.05,1.23.08,0-.11.09-.2.2-.2s.21.09.21.21c0,.01,0,.02,0,.03.47.05.93.11,1.42.19-.67.39-1.66,1.16-1.64,2.32.02,1.32-.04,3.4-.06,4.03h-.52v.09c0,.11-.09.21-.21.21s-.21-.09-.21-.21v-.09h-.8v.09c0,.11-.09.21-.21.21s-.21-.09-.21-.21v-.09h-.58c-.02-.64-.08-2.71-.06-4.03.02-1.16-.96-1.92-1.63-2.32.5-.08.98-.14,1.46-.19ZM2.93,11.56c.02-.08.09-.14.18-.15l1.13-.12.24-1.53c.01-.09.08-.15.16-.17.08-.02.17.02.22.09l.9,1.46,1.62-.04c.08,0,.15.04.19.11.04.07.03.16-.02.22l-.96,1.22.84.92c.05.04.08.1.08.17,0,.11-.09.21-.21.21,0,0,0,0,0,0-.01,0-.03,0-.05,0l-1.71-.38-.77.37c-.06.03-.12.03-.18,0-.06-.03-.1-.08-.11-.14l-.28-1.11-1.2-.9c-.07-.05-.1-.14-.08-.22ZM17.69,16.49H3.27v-1.18h14.42v1.18ZM18.1,12.71l-1.2,2.19h-4.67c.02-.66.08-2.72.06-4.04-.02-1.27,1.53-2.03,1.9-2.2.78.14,1.64.32,2.72.55.71.15,1.19.47,1.42.96.5,1.04-.23,2.53-.23,2.54Z"/><path class="cls-2" d="M16.19,11.31l-.18-1.14-.68,1.09c-.04.06-.11.1-.18.1l-1.3-.03.8,1.01c.06.08.06.19-.01.27l-.54.59,1.15-.26s.03,0,.04,0c.03,0,.06,0,.09.02l.61.29.23-.94s.04-.09.08-.11l.84-.63-.76-.08c-.09,0-.17-.08-.18-.17Z"/><path class="cls-2" d="M16.91,9.21c-1.08-.23-1.94-.41-2.72-.55-.37.17-1.92.93-1.9,2.2.02,1.32-.04,3.38-.06,4.04h4.67l1.2-2.19s.73-1.5.23-2.54c-.23-.49-.71-.81-1.42-.96ZM17.8,11.58l-1.2.9-.28,1.11c-.01.06-.06.11-.11.14-.06.03-.12.03-.18,0l-.77-.37-1.71.38s-.03,0-.05,0c-.07,0-.14-.04-.18-.1-.04-.08-.03-.18.03-.24l.86-.95-.96-1.22c-.05-.06-.06-.15-.02-.22.04-.07.11-.11.19-.11l1.62.04.91-1.46c.05-.07.13-.11.22-.09.08.02.15.08.16.17l.24,1.53,1.13.12c.08,0,.15.07.18.15.02.08,0,.17-.07.22Z"/><path class="cls-2" d="M9.06,2.29s.02-.05.03-.07c.05-.09.03-.2-.05-.26-.06-.05-.14-.05-.21-.01,0,.06.01.12.05.16l.19.18Z"/><path class="cls-2" d="M11.86,1.96c-.08.06-.1.17-.05.26.02.03.03.07.04.11l.22-.22s.05-.09.05-.14c-.07-.07-.19-.07-.27,0Z"/><path class="cls-2" d="M10.48,9.95c.89,0,1.61-.71,1.62-1.6-.13-.01-.27-.03-.41-.04,0,0,0,0,0,0,0,.67-.55,1.22-1.22,1.22s-1.22-.55-1.22-1.22c0,0,0,0,0,0-.14.01-.27.02-.41.04.02.88.74,1.6,1.62,1.6Z"/><path class="cls-2" d="M9.06,8.12c-.11,0-.21.09-.21.21,0,0,0,.02,0,.03.13-.01.27-.02.41-.04,0-.11-.09-.2-.2-.2Z"/><path class="cls-2" d="M12.1,8.33c0-.11-.09-.21-.21-.21s-.2.09-.2.2c.14.01.27.02.41.04,0-.01,0-.02,0-.03Z"/><path class="cls-2" d="M10.48,10.61c-.45,0-.81.36-.81.81v3.48h.41v-3.48c0-.22.18-.4.4-.4s.4.18.4.4v3.48h.41v-3.48c0-.45-.36-.81-.81-.81Z"/><path class="cls-2" d="M10.88,14.98c0,.11.09.21.21.21s.21-.09.21-.21v-.09h-.41v.09Z"/><path class="cls-2" d="M9.67,14.98c0,.11.09.21.21.21s.21-.09.21-.21v-.09h-.41v.09Z"/><path class="cls-2" d="M7.16,2.85s.07.03.1.03c.07,0,.14-.04.18-.11.06-.1.02-.22-.08-.28l-2.18-1.22c-.1-.05-.22-.02-.28.08-.06.1-.02.22.08.28l2.18,1.22Z"/><path class="cls-2" d="M7.69,1.95c.04.05.1.08.16.08.04,0,.09-.01.13-.04.09-.07.11-.2.04-.29L6.78.08c-.07-.09-.2-.11-.29-.04-.09.07-.11.2-.04.29l1.24,1.62Z"/><path class="cls-2" d="M4.74,3.49l1.91.34s.02,0,.04,0c.1,0,.18-.07.2-.17.02-.11-.05-.22-.17-.24l-1.91-.34c-.11-.02-.22.05-.24.17-.02.11.05.22.17.24Z"/><path class="cls-2" d="M13.44,3.01c.04.07.11.1.18.1.03,0,.07,0,.1-.03l2.17-1.23c.1-.06.13-.18.08-.28-.06-.1-.18-.13-.28-.08l-2.17,1.23c-.1.06-.13.18-.08.28Z"/><path class="cls-2" d="M13.83,3.88c.01.11.1.18.2.18,0,0,.01,0,.02,0l2.03-.22c.11-.01.2-.11.18-.23-.01-.11-.12-.19-.23-.18l-2.03.22c-.11.01-.2.11-.18.23Z"/><path class="cls-2" d="M13.11,2.12c.06,0,.11-.02.15-.07l1.28-1.45c.08-.08.07-.22-.02-.29-.08-.08-.21-.07-.29.02l-1.28,1.45c-.08.09-.07.22.02.29.04.03.09.05.14.05Z"/></g></svg>