<?xml version="1.0" encoding="UTF-8"?><svg id="Layer_2" xmlns="http://www.w3.org/2000/svg" viewBox="0 0 17.83 19.88"><defs><style>.cls-1{fill:#2941a3;}</style></defs><g id="Layer_1-2"><path class="cls-1" d="M0,19.88v-.66h1.36V7.55h.68v-3.44h.7v-2.07h.68V0h.69v2.04h.68v2.06h.69v3.44h.69v4.1h5.48v-4.1h.69v-3.44h.68v-2.06h.68V0h.69v2.04h.68v2.06h.69v3.44h.69v11.66h1.36v.67H0ZM6.18,19.2h5.47s.01-.08.01-.11c0-1.13,0-2.26,0-3.4,0-.07-.05-.17-.1-.22-.84-.85-1.68-1.69-2.53-2.53-.03-.03-.07-.06-.11-.1-.05.05-.1.08-.14.13-.82.82-1.65,1.65-2.47,2.47-.1.1-.13.2-.13.33,0,1.06,0,2.13,0,3.19v.23ZM6.18,14.48c.7-.7,1.43-1.43,2.12-2.12h-2.12v2.12ZM9.51,12.35c.71.71,1.44,1.44,2.14,2.14v-2.14h-2.14Z"/></g></svg>