<?xml version="1.0" encoding="UTF-8"?><svg id="Layer_2" xmlns="http://www.w3.org/2000/svg" viewBox="0 0 17.95 17.8"><defs><style>.cls-1{fill:#2941a3;}</style></defs><g id="Layer_1-2"><path class="cls-1" d="M0,.91c.09-.25.19-.48.41-.66C.76-.04,1.15-.03,1.57.04c1.97.31,3.95.6,5.92.9.66.1,1.33.2,1.99.31.63.1.99.53,1,1.18,0,1.33,0,2.66,0,4,0,.07,0,.14,0,.23.36.07.71.15,1.06.22,1.83.36,3.66.73,5.49,1.09.57.11.92.55.92,1.13,0,2.51,0,5.01,0,7.52,0,.61-.3,1-.9,1.17-.02,0-.03.02-.05.02H.95c-.29-.08-.56-.2-.73-.47C.13,17.2.07,17.04,0,16.89c0-5.33,0-10.66,0-15.99ZM2.99,17.06c0-.09,0-.16,0-.23,0-1.01.01-2.02,0-3.03-.01-.74.53-1.26,1.24-1.23.68.03,1.36,0,2.03,0,.77,0,1.22.45,1.22,1.22,0,1.02,0,2.03,0,3.05,0,.07,0,.14,0,.21h2.24c0-.07,0-.12,0-.18,0-4.8,0-9.6,0-14.41,0-.33-.09-.45-.41-.5-.87-.13-1.73-.26-2.6-.39-1.83-.28-3.66-.55-5.49-.83-.28-.04-.47.11-.48.39,0,.15,0,.29,0,.44,0,4.99,0,9.98,0,14.97,0,.39.12.51.51.51.44,0,.89,0,1.33,0,.13,0,.25,0,.4,0ZM10.49,7.42v9.64c.08,0,.14,0,.2,0,2,0,4,0,6,0,.4,0,.52-.12.52-.52,0-2.44,0-4.88,0-7.33,0-.39-.08-.48-.46-.55-1.52-.3-3.05-.6-4.57-.9-.56-.11-1.12-.22-1.7-.33ZM6.73,17.05c0-.07,0-.12,0-.18,0-1.03,0-2.05,0-3.08,0-.34-.13-.47-.46-.47-.68,0-1.37,0-2.05,0-.35,0-.47.12-.47.47,0,1.03,0,2.05,0,3.08,0,.06,0,.11,0,.18h2.98Z"/></g></svg>