<?xml version="1.0" encoding="UTF-8"?><svg id="Layer_2" xmlns="http://www.w3.org/2000/svg" viewBox="0 0 17.95 17.81"><defs><style>.cls-1{fill:#2941a3;}</style></defs><g id="Layer_1-2"><path class="cls-1" d="M17.95,16.69c-.02.07-.04.14-.07.21-.17.52-.65.9-1.19.9-1.67,0-3.34,0-5.01,0-.02,0-.04,0-.07-.01V6.86c.32.07.63.13.93.19,1.43.3,2.85.6,4.28.9.59.12.97.46,1.11,1.05,0,.02.02.03.02.05v7.64Z"/><path class="cls-1" d="M10.84,17.81h-3.17c0-.07,0-.14,0-.21,0-1.22,0-2.43,0-3.65,0-.69-.41-1.21-1.04-1.35-.11-.02-.22-.03-.33-.03-.58,0-1.16,0-1.74,0-.84,0-1.38.54-1.38,1.39,0,1.2,0,2.41,0,3.61,0,.07,0,.14,0,.22-.07,0-.12,0-.18,0-.73,0-1.46,0-2.19,0-.5,0-.81-.31-.81-.81C0,11.79,0,6.58,0,1.37,0,.46.7-.12,1.61.02c1.81.28,3.62.55,5.44.82.91.14,1.81.27,2.72.42.61.1,1.05.61,1.08,1.23,0,.08,0,.15,0,.23,0,4.95,0,9.9,0,14.85v.24Z"/></g></svg>