<?xml version="1.0" encoding="UTF-8"?>
<svg id="Layer_2" data-name="Layer 2" xmlns="http://www.w3.org/2000/svg" viewBox="0 0 12.62 15.05">
  <defs>
    <style>
      .cls-1 {
        fill: #253fad;
      }
    </style>
  </defs>
  <g id="Layer_1-2" data-name="Layer 1">
    <g>
      <path class="cls-1" d="M6.31,0C2.83,0,0,2.83,0,6.31c0,3.31,5.12,7.73,5.7,8.22l.61.51.61-.51c.58-.49,5.7-4.92,5.7-8.22,0-3.48-2.83-6.31-6.31-6.31ZM6.31,12.56c-1.92-1.75-4.43-4.59-4.43-6.25,0-2.45,1.98-4.43,4.43-4.43,2.45,0,4.43,1.98,4.43,4.43h0c0,1.66-2.51,4.51-4.43,6.26Z"/>
      <circle class="cls-1" cx="6.31" cy="6.26" r="1.88"/>
    </g>
  </g>
</svg>