<?xml version="1.0" encoding="UTF-8"?>
<svg id="Layer_2" data-name="Layer 2" xmlns="http://www.w3.org/2000/svg" viewBox="0 0 14.71 14.71">
  <defs>
    <style>
      .cls-1 {
        fill: #253fad;
      }
    </style>
  </defs>
  <g id="Layer_1-2" data-name="Layer 1">
    <path class="cls-1" d="M7.36,4.94c-1.33,0-2.42,1.08-2.42,2.42s1.08,2.42,2.42,2.42,2.42-1.08,2.42-2.42-1.08-2.42-2.42-2.42ZM7.36,8.58c-.68,0-1.23-.55-1.23-1.23s.55-1.23,1.23-1.23,1.23.55,1.23,1.23-.55,1.23-1.23,1.23ZM13.42,6.44c-.4-2.64-2.5-4.74-5.14-5.14V0h-1.84v1.29C3.79,1.69,1.69,3.79,1.29,6.44H0v1.84h1.29c.4,2.64,2.5,4.74,5.14,5.14v1.29h1.84v-1.29c2.65-.4,4.74-2.5,5.14-5.14h1.29v-1.84h-1.29ZM7.36,12.04c-2.58,0-4.69-2.1-4.69-4.69S4.77,2.67,7.36,2.67s4.69,2.1,4.69,4.69-2.1,4.69-4.69,4.69h0Z"/>
  </g>
</svg>