<?xml version="1.0" encoding="UTF-8"?><svg id="Layer_2" xmlns="http://www.w3.org/2000/svg" viewBox="0 0 12.84 12.85"><defs><style>.cls-1{fill:#9ba2e4;}</style></defs><g id="Layer_1-2"><path class="cls-1" d="M8.98,1.33l.66-1.08c.15-.25,.48-.33,.74-.18,.25,.15,.33,.48,.18,.74l-.66,1.08c-.1,.16-.28,.26-.46,.26-.1,0-.19-.03-.28-.08-.25-.15-.33-.48-.18-.74h0ZM2.9,1.89c.1,.16,.28,.26,.46,.26,.1,0,.19-.03,.28-.08,.25-.15,.33-.48,.18-.74L3.15,.26C3,0,2.67-.07,2.42,.08c-.25,.15-.33,.48-.18,.74l.66,1.08h0Zm-1.17,1.18l-.96-.46c-.27-.13-.59-.02-.71,.25-.13,.27-.01,.59,.25,.71l.96,.46c.07,.04,.15,.05,.23,.05,.2,0,.39-.11,.48-.3,.13-.27,.01-.59-.25-.71h0Zm4.62-.92c-2.95,.05-5.29,3.25-3.69,6.33,.24,.47,.6,.86,.99,1.22,.15,.14,.26,.3,.36,.48h1.87v-2.77c-.62-.22-1.07-.81-1.07-1.51,0-.3,.24-.54,.54-.54s.54,.24,.54,.54,.24,.54,.54,.54,.54-.24,.54-.54,.24-.54,.54-.54,.54,.24,.54,.54c0,.7-.45,1.29-1.07,1.51v2.77h1.86c.12-.21,.28-.41,.49-.58,.35-.29,.68-.62,.89-1.03,.93-1.88,.56-3.89-.76-5.19-.82-.81-1.92-1.25-3.08-1.23h0Zm-2.07,9.25c-.04,.78,.54,1.46,1.33,1.46h1.62c.74,0,1.34-.6,1.34-1.34v-.27H4.27c0,.05,0,.1,0,.15ZM12.79,2.84c-.12-.27-.44-.39-.71-.27l-1.03,.47c-.27,.12-.39,.44-.27,.71,.09,.2,.28,.32,.49,.32,.07,0,.15-.01,.22-.05l1.03-.47c.27-.12,.39-.44,.27-.71Z"/></g></svg>