<?xml version="1.0" encoding="UTF-8"?><svg id="Layer_2" xmlns="http://www.w3.org/2000/svg" viewBox="0 0 11.36 11.37"><defs><style>.cls-1{fill:#9ba2e4;}</style></defs><g id="Layer_1-2"><g><path class="cls-1" d="M2.06,9.81V1.57c-.06,.04-.1,.07-.15,.11-.35,.26-.7,.52-1.05,.78-.13,.1-.27,.15-.44,.12-.21-.04-.36-.17-.41-.38-.05-.21,0-.39,.17-.52C.89,1.15,1.58,.63,2.28,.11c.19-.14,.41-.14,.6,0,.7,.52,1.39,1.03,2.08,1.56,.24,.18,.27,.49,.1,.72-.17,.23-.48,.27-.73,.09-.36-.26-.71-.53-1.06-.79-.05-.03-.09-.07-.16-.11V9.8c.06-.04,.1-.07,.15-.1,.35-.26,.7-.53,1.06-.79,.25-.18,.56-.15,.73,.08,.18,.23,.14,.55-.11,.74-.68,.51-1.36,1.02-2.04,1.53-.21,.16-.43,.16-.64,0-.69-.51-1.37-1.02-2.05-1.54-.24-.18-.28-.49-.11-.72,.17-.23,.48-.28,.73-.1,.35,.26,.7,.52,1.05,.78,.05,.04,.11,.08,.18,.13Z"/><path class="cls-1" d="M9.05,0c.58,0,1.16,0,1.74,0,.34,0,.58,.22,.57,.52,0,.3-.24,.51-.57,.51-1.17,0-2.35,0-3.52,0-.33,0-.56-.21-.56-.51,0-.31,.23-.52,.57-.52,.59,0,1.17,0,1.76,0Z"/><path class="cls-1" d="M9.03,3.62c-.58,0-1.16,0-1.74,0-.34,0-.58-.22-.57-.52,0-.31,.23-.51,.58-.51,1.16,0,2.32,0,3.49,0,.34,0,.58,.21,.58,.51,0,.31-.23,.52-.59,.52-.58,0-1.16,0-1.74,0Z"/><path class="cls-1" d="M9.05,5.17c.58,0,1.15,0,1.73,0,.35,0,.59,.21,.59,.52,0,.3-.24,.51-.58,.51-1.16,0-2.32,0-3.49,0-.34,0-.58-.21-.58-.51,0-.31,.23-.52,.59-.52,.58,0,1.16,0,1.74,0Z"/><path class="cls-1" d="M9.06,7.75c.58,0,1.15,0,1.73,0,.34,0,.58,.21,.58,.51,0,.3-.23,.52-.57,.52-1.17,0-2.33,0-3.5,0-.34,0-.57-.22-.57-.52,0-.3,.23-.51,.57-.51,.59,0,1.18,0,1.78,0Z"/><path class="cls-1" d="M9.05,11.37c-.59,0-1.17,0-1.76,0-.34,0-.57-.22-.57-.52,0-.3,.24-.51,.57-.51,1.17,0,2.35,0,3.52,0,.33,0,.56,.22,.56,.52,0,.3-.23,.52-.56,.52-.59,0-1.17,0-1.76,0Z"/></g></g></svg>