<?xml version="1.0" encoding="UTF-8"?><svg id="Layer_2" xmlns="http://www.w3.org/2000/svg" viewBox="0 0 9.64 12.85"><defs><style>.cls-1{fill:#9ba2e4;}</style></defs><g id="Layer_1-2"><path class="cls-1" d="M8.03,0H1.61C.72,0,0,.72,0,1.61V12.85H3.75v-3.21h-1.61v-1.07H7.5v1.07h-1.61v3.21h3.75V1.61c0-.89-.72-1.61-1.61-1.61ZM3.21,7.5h-1.07v-1.07h1.07v1.07Zm0-2.14h-1.07v-1.07h1.07v1.07Zm0-2.14h-1.07v-1.07h1.07v1.07Zm2.14,4.28h-1.07v-1.07h1.07v1.07Zm0-2.14h-1.07v-1.07h1.07v1.07Zm0-2.14h-1.07v-1.07h1.07v1.07Zm2.14,4.28h-1.07v-1.07h1.07v1.07Zm0-2.14h-1.07v-1.07h1.07v1.07Zm0-2.14h-1.07v-1.07h1.07v1.07Z"/></g></svg>